<?xml version="1.0" encoding="utf-8"?>
<!-- Generator: Adobe Illustrator 26.0.0, SVG Export Plug-In . SVG Version: 6.00 Build 0)  -->
<svg version="1.1" id="Layer_1" xmlns="http://www.w3.org/2000/svg" xmlns:xlink="http://www.w3.org/1999/xlink" x="0px" y="0px"
	 viewBox="0 0 236.04 113.45" style="enable-background:new 0 0 236.04 113.45;" xml:space="preserve">
<style type="text/css">
	.st0{fill-rule:evenodd;clip-rule:evenodd;fill:#B0B0B2;}
	.st1{fill:#B0B0B2;}
	.st2{fill-rule:evenodd;clip-rule:evenodd;fill:#FDFEFF;}
	.st3{fill-rule:evenodd;clip-rule:evenodd;fill:#F7F6F6;}
	.st4{fill:none;}
	.st5{fill-rule:evenodd;clip-rule:evenodd;fill:#939598;}
	.st6{fill-rule:evenodd;clip-rule:evenodd;fill:#FFFFFF;}
	.st7{fill:none;stroke:#FFFFFF;stroke-width:0.482;stroke-miterlimit:22.926;}
	.st8{fill:#FFFFFF;}
	.st9{fill:#989A9B;}
	.st10{fill:#6A6C6E;}
</style>
<g>
	<path class="st0" d="M161.93,43.04c-1.12,3.27-0.55,6.27,1.36,9.19c3.78,4.22,7.55,8.44,11.32,12.66c1.06-1.11,0.23-2.28-0.48-3.36
		c-3.52-5.34-7.04-10.68-10.56-16.01L161.93,43.04z M173.55,65.16c-3.45-3.9-6.89-7.8-10.34-11.69c-0.15,0.73-0.14,1.46,0.08,2.18
		c0.22,0.7,0.61,1.31,1.1,1.85c3.06,3.35,6.1,6.72,9.15,10.08C174.35,66.84,174.21,66.03,173.55,65.16 M169.39,74.45
		c1.22-2.06,2.44-4.13,3.66-6.19l-5-5.69c-0.51,0.99-1.03,1.98-1.53,2.98c-1.33,2.64-1.01,5.58,1.3,7.55L169.39,74.45z
		 M179.16,52.32c-1.49,0-2.69,1.21-2.69,2.7c0,1.49,1.2,2.7,2.69,2.7c1.49,0,2.69-1.21,2.69-2.7
		C181.86,53.53,180.66,52.32,179.16,52.32 M163.86,39.01c-0.7,1.91-0.1,4.21,0.61,6.02c0.5,1.28,1.14,2.51,1.82,3.7
		c0.74,1.29,1.55,2.55,2.39,3.78c1.23,1.8,2.53,3.55,3.84,5.3c0.58,0.77,1.16,1.54,1.73,2.31c0.42,0.56,0.83,1.13,1.23,1.7
		c0.5-2.71-0.47-4.15-1.85-6.46C170.37,49.92,167.12,44.46,163.86,39.01"/>
	<path class="st1" d="M153.35,51.95c0,0.88-0.28,1.51-1.08,1.51c-0.77,0-1.05-0.73-1.05-1.51c0-0.7,0.28-1.42,1.05-1.42
		C153.07,50.53,153.35,51.17,153.35,51.95 M149.13,54.61c0.66,0,1.12-0.33,1.31-0.58c0.4,0.35,0.97,0.71,1.82,0.71
		c1.7,0,2.61-1.5,2.61-2.78c0-1.27-0.92-2.62-2.61-2.62s-2.57,1.36-2.57,2.62v0.51c0,0.43-0.23,0.68-0.63,0.68h-1.25v1.47H149.13z
		 M146.05,54.27c0.28,0.2,0.66,0.34,1.17,0.34h0.66v-1.47h-0.75c-0.65,0-1.04-0.4-1.06-1.01v-2.09h-1.5v3.8
		c-0.01,1.05-0.84,1.38-1.37,1.38c-0.64,0-1.27-0.25-1.27-0.25l0.24,1.22c0,0,0.54,0.25,1.22,0.31
		C144.63,56.59,145.88,55.81,146.05,54.27 M138.83,49.57h-3.23c0.23-0.36,0.7-0.68,1.57-0.68h1.64v-1.42h-1.75
		c-1.84,0-3.37,1.33-3.37,3.57h5.14c0.66,0,1.07,0.49,1.07,1.07c0,0.57-0.51,1.04-1.07,1.04h-6.23v1.47h6.23c1.5,0,2.6-1.1,2.6-2.5
		C141.43,50.71,140.43,49.57,138.83,49.57 M129.33,49.09h1.5v-1.27h-1.5V49.09z M130.82,54.27c0.28,0.2,0.66,0.34,1.17,0.34h0.66
		v-1.47h-0.75c-0.65,0-1.04-0.4-1.06-1.01v-2.09h-1.5v3.8c-0.01,1.05-0.84,1.38-1.37,1.38c-0.64,0-1.27-0.25-1.27-0.25l0.24,1.22
		c0,0,0.54,0.25,1.22,0.31C129.41,56.59,130.66,55.81,130.82,54.27 M123.21,47.46h-1.48v7.15h1.48V47.46z M118.15,54.61
		c1.85,0,2-1.59,2-2.22v-4.93h-1.49v5.02c0,0.43-0.24,0.66-0.64,0.66h-1.3v1.47H118.15z M111.28,48.74h1.5v-1.28h-1.5V48.74z
		 M113.46,48.74h1.5v-1.28h-1.5V48.74z M113.02,54.61c0.68,0,1.26-0.31,1.52-0.77c0.29,0.4,0.77,0.77,1.58,0.77h0.65v-1.47h-0.74
		c-0.66,0-1.06-0.42-1.06-1.07v-2.03h-1.49v2.22c0,0.63-0.31,0.88-0.88,0.88h-1.09v1.47H113.02z M107.52,53.93
		c-0.81,0-1.08-0.63-1.08-1.51c0-0.78,0.28-1.42,1.08-1.42c0.82,0,1.08,0.64,1.08,1.42C108.6,53.31,108.33,53.93,107.52,53.93
		 M110.13,52.39c-0.02-1.26-0.93-2.59-2.61-2.59c-1.7,0-2.61,1.36-2.61,2.68c-0.02,0.54-0.45,0.66-0.65,0.66h-0.81v1.47h0.89
		c0.51,0,0.92-0.14,1.2-0.34c0.44,0.54,1.1,0.94,1.98,0.94c0.94,0,1.64-0.46,2.07-1.09c0.35,0.28,0.83,0.5,1.33,0.5h0.68v-1.47
		h-0.76C110.37,53.14,110.18,52.8,110.13,52.39 M98.07,55.24h1.5v1.27h-1.5V55.24z M100.26,55.24h1.5v1.27h-1.5V55.24z M99.79,54.61
		c0.68,0,1.26-0.31,1.52-0.77c0.29,0.4,0.77,0.77,1.58,0.77h0.65v-1.47h-0.74c-0.66,0-1.06-0.42-1.06-1.07v-2.03h-1.49v2.22
		c0,0.63-0.31,0.88-0.88,0.88h-1.09v1.47H99.79z M95.06,49.09h1.5v-1.27h-1.5V49.09z M96.55,54.27c0.28,0.2,0.66,0.34,1.17,0.34
		h0.66v-1.47h-0.75c-0.65,0-1.04-0.4-1.06-1.01v-2.09h-1.5v3.8c-0.01,1.05-0.84,1.38-1.37,1.38c-0.64,0-1.27-0.25-1.27-0.25
		l0.24,1.22c0,0,0.54,0.25,1.22,0.31C95.14,56.59,96.39,55.81,96.55,54.27 M86.94,54.61c1.85,0,2-1.59,2-2.22v-4.93h-1.49v5.02
		c0,0.43-0.24,0.66-0.64,0.66h-1.3v1.47H86.94z M81.81,54.61c0.68,0,1.26-0.31,1.52-0.77c0.29,0.4,0.77,0.77,1.58,0.77h0.65v-1.47
		h-0.74c-0.66,0-1.06-0.42-1.06-1.07v-4.61h-1.49v4.8c0,0.63-0.31,0.88-0.88,0.88H80.3v1.47H81.81z M74.91,48.74h1.5v-1.28h-1.5
		V48.74z M77.09,48.74h1.5v-1.28h-1.5V48.74z M76.65,54.61c0.68,0,1.26-0.31,1.52-0.77c0.29,0.4,0.77,0.77,1.58,0.77h0.65v-1.47
		h-0.74c-0.66,0-1.06-0.42-1.06-1.07v-2.03h-1.49v2.22c0,0.63-0.31,0.88-0.88,0.88h-1.09v1.47H76.65z M72.13,53.14h-0.94
		c-0.65,0-1.03-0.5-1.03-1.05c0-0.51,0.38-1.07,1.03-1.07h0.94V53.14z M70.18,56.37c0.2,0.06,0.51,0.11,0.77,0.12
		c1.06,0.03,2.45-0.4,2.65-1.89h1.64v-1.47h-1.61V49.7h-2.39c-1.59,0-2.6,1.01-2.6,2.39c0,1.41,1.12,2.52,2.6,2.52h0.83
		c-0.26,0.62-1.08,0.61-1.31,0.61c-0.35,0-0.7-0.08-0.96-0.15L70.18,56.37z M62.11,51.86c0.07-0.82,0.67-1.12,1.41-1.12
		c1.38,0,2.23,1.04,2.22,2.4h-5.6v1.47h7.1v-1.47c0-2.11-1.71-3.73-3.72-3.73c-1.32,0-2.78,0.75-2.81,2.45H62.11z M57.12,53.14
		h-2.93v1.47h6v-1.47h-1.54v-1.65c0-1.32-0.77-1.92-2.18-1.92c-0.64,0-1.99,0.23-2.04,1.65h1.4c0.06-0.49,0.41-0.62,0.66-0.62
		c0.64,0,0.64,0.52,0.64,0.52V53.14z"/>
	<path class="st1" d="M153.86,63.66c-0.01-0.29-0.08-0.52-0.23-0.67s-0.32-0.23-0.53-0.23c-0.22,0-0.4,0.08-0.55,0.24
		c-0.14,0.16-0.21,0.38-0.21,0.66H153.86z M153.8,64.69l1.01,0.17c-0.13,0.37-0.33,0.65-0.61,0.85c-0.28,0.19-0.63,0.29-1.05,0.29
		c-0.67,0-1.16-0.22-1.48-0.65c-0.25-0.35-0.38-0.79-0.38-1.32c0-0.63,0.17-1.13,0.5-1.49c0.33-0.36,0.75-0.54,1.26-0.54
		c0.57,0,1.02,0.19,1.35,0.56c0.33,0.38,0.49,0.95,0.47,1.73h-2.53c0.01,0.3,0.09,0.53,0.25,0.7c0.15,0.17,0.35,0.25,0.58,0.25
		c0.16,0,0.29-0.04,0.4-0.13C153.67,65.02,153.75,64.88,153.8,64.69 M150.82,63.2l-1,0.18c-0.03-0.2-0.11-0.35-0.23-0.45
		c-0.12-0.1-0.27-0.15-0.46-0.15c-0.25,0-0.45,0.09-0.6,0.26c-0.15,0.18-0.23,0.47-0.23,0.88c0,0.46,0.08,0.78,0.23,0.97
		c0.15,0.19,0.36,0.28,0.61,0.28c0.19,0,0.35-0.06,0.47-0.17s0.21-0.3,0.26-0.57l1,0.17c-0.1,0.46-0.3,0.8-0.59,1.04
		c-0.29,0.23-0.69,0.35-1.18,0.35c-0.56,0-1.01-0.18-1.34-0.53c-0.33-0.35-0.5-0.85-0.5-1.47c0-0.63,0.17-1.13,0.5-1.48
		c0.33-0.35,0.78-0.53,1.36-0.53c0.47,0,0.84,0.1,1.11,0.3C150.5,62.49,150.7,62.79,150.82,63.2 M146.45,65.9h-1.01v-1.95
		c0-0.41-0.02-0.68-0.06-0.8c-0.04-0.12-0.11-0.22-0.21-0.28c-0.1-0.07-0.22-0.1-0.35-0.1c-0.18,0-0.34,0.05-0.48,0.14
		c-0.14,0.1-0.24,0.22-0.29,0.38c-0.05,0.16-0.08,0.45-0.08,0.88v1.73h-1.01v-3.83h0.94v0.56c0.34-0.43,0.76-0.64,1.27-0.64
		c0.22,0,0.43,0.04,0.62,0.12c0.19,0.08,0.33,0.19,0.42,0.31c0.1,0.12,0.16,0.27,0.2,0.43c0.04,0.16,0.06,0.39,0.06,0.68V65.9z
		 M141.13,63.66c-0.01-0.29-0.08-0.52-0.23-0.67c-0.14-0.15-0.32-0.23-0.53-0.23c-0.22,0-0.4,0.08-0.55,0.24
		c-0.14,0.16-0.21,0.38-0.21,0.66H141.13z M141.08,64.69l1.01,0.17c-0.13,0.37-0.33,0.65-0.61,0.85c-0.28,0.19-0.63,0.29-1.05,0.29
		c-0.67,0-1.16-0.22-1.48-0.65c-0.25-0.35-0.38-0.79-0.38-1.32c0-0.63,0.17-1.13,0.5-1.49c0.33-0.36,0.75-0.54,1.26-0.54
		c0.57,0,1.02,0.19,1.35,0.56c0.33,0.38,0.49,0.95,0.47,1.73h-2.53c0.01,0.3,0.09,0.53,0.25,0.7c0.15,0.17,0.35,0.25,0.58,0.25
		c0.16,0,0.29-0.04,0.4-0.13C140.94,65.02,141.02,64.88,141.08,64.69 M136.81,60.61h1.01v5.29h-1.01V60.61z M134.75,60.61h1.01v5.29
		h-1.01V60.61z M132.92,63.66c-0.01-0.29-0.08-0.52-0.23-0.67c-0.14-0.15-0.32-0.23-0.53-0.23c-0.22,0-0.4,0.08-0.55,0.24
		c-0.14,0.16-0.21,0.38-0.21,0.66H132.92z M132.86,64.69l1.01,0.17c-0.13,0.37-0.33,0.65-0.61,0.85c-0.28,0.19-0.63,0.29-1.05,0.29
		c-0.67,0-1.16-0.22-1.48-0.65c-0.25-0.35-0.38-0.79-0.38-1.32c0-0.63,0.17-1.13,0.5-1.49c0.33-0.36,0.75-0.54,1.26-0.54
		c0.57,0,1.02,0.19,1.35,0.56c0.33,0.38,0.49,0.95,0.47,1.73h-2.53c0.01,0.3,0.09,0.53,0.25,0.7c0.16,0.17,0.35,0.25,0.58,0.25
		c0.16,0,0.29-0.04,0.4-0.13C132.73,65.02,132.81,64.88,132.86,64.69 M129.88,63.2l-1,0.18c-0.03-0.2-0.11-0.35-0.23-0.45
		c-0.12-0.1-0.27-0.15-0.46-0.15c-0.25,0-0.45,0.09-0.6,0.26c-0.15,0.18-0.23,0.47-0.23,0.88c0,0.46,0.08,0.78,0.23,0.97
		c0.15,0.19,0.36,0.28,0.61,0.28c0.19,0,0.35-0.06,0.47-0.17c0.12-0.11,0.21-0.3,0.26-0.57l1,0.17c-0.1,0.46-0.3,0.8-0.6,1.04
		c-0.29,0.23-0.69,0.35-1.18,0.35c-0.56,0-1.01-0.18-1.34-0.53c-0.33-0.35-0.5-0.85-0.5-1.47c0-0.63,0.17-1.13,0.5-1.48
		c0.33-0.35,0.79-0.53,1.36-0.53c0.47,0,0.84,0.1,1.11,0.3C129.56,62.49,129.76,62.79,129.88,63.2 M121.94,65.9l1.38-1.98L122,62.06
		h1.24l0.68,1.05l0.72-1.05h1.19l-1.3,1.82l1.42,2.02h-1.23l-0.79-1.19l-0.78,1.19H121.94z M117.51,65.9v-5.29h3.92v0.89h-2.84v1.18
		h2.64v0.89h-2.64V65h2.95v0.89H117.51z M112.55,62.06h0.56v-0.29c0-0.32,0.04-0.56,0.1-0.72c0.07-0.16,0.2-0.29,0.38-0.39
		c0.19-0.1,0.42-0.15,0.7-0.15c0.29,0,0.57,0.04,0.85,0.13l-0.13,0.7c-0.16-0.04-0.32-0.06-0.48-0.06c-0.15,0-0.26,0.03-0.32,0.1
		c-0.06,0.07-0.1,0.2-0.1,0.4v0.27h0.76v0.8h-0.76v3.04h-1.01v-3.04h-0.56V62.06z M108.13,63.25c0,0.6,0.14,1.05,0.42,1.36
		c0.28,0.31,0.63,0.46,1.05,0.46c0.43,0,0.78-0.15,1.05-0.46c0.27-0.31,0.41-0.77,0.41-1.38c0-0.61-0.13-1.06-0.4-1.36
		c-0.27-0.3-0.62-0.45-1.06-0.45c-0.44,0-0.8,0.15-1.07,0.45C108.27,62.19,108.13,62.64,108.13,63.25 M107.03,63.29
		c0-0.54,0.08-0.99,0.24-1.36c0.12-0.27,0.28-0.51,0.49-0.73c0.21-0.21,0.43-0.37,0.68-0.48c0.33-0.14,0.71-0.21,1.14-0.21
		c0.78,0,1.4,0.24,1.87,0.73c0.47,0.48,0.7,1.16,0.7,2.02c0,0.85-0.23,1.53-0.7,2.01c-0.46,0.48-1.09,0.72-1.86,0.72
		c-0.79,0-1.41-0.24-1.88-0.72C107.27,64.79,107.03,64.13,107.03,63.29 M103.29,65.9h-1.01v-3.83h0.94v0.54
		c0.16-0.26,0.31-0.43,0.44-0.51c0.13-0.08,0.28-0.12,0.44-0.12c0.23,0,0.45,0.06,0.67,0.19l-0.31,0.88
		c-0.17-0.11-0.33-0.17-0.48-0.17c-0.14,0-0.26,0.04-0.36,0.12c-0.1,0.08-0.18,0.22-0.23,0.42c-0.06,0.2-0.08,0.63-0.08,1.28V65.9z
		 M100.49,63.66c-0.01-0.29-0.08-0.52-0.23-0.67c-0.14-0.15-0.32-0.23-0.53-0.23c-0.22,0-0.4,0.08-0.55,0.24
		c-0.14,0.16-0.21,0.38-0.21,0.66H100.49z M100.43,64.69l1.01,0.17c-0.13,0.37-0.33,0.65-0.61,0.85c-0.28,0.19-0.63,0.29-1.05,0.29
		c-0.67,0-1.16-0.22-1.48-0.65c-0.25-0.35-0.38-0.79-0.38-1.32c0-0.63,0.17-1.13,0.5-1.49c0.33-0.36,0.75-0.54,1.26-0.54
		c0.57,0,1.02,0.19,1.35,0.56c0.33,0.38,0.49,0.95,0.47,1.73h-2.53c0.01,0.3,0.09,0.53,0.25,0.7c0.15,0.17,0.35,0.25,0.58,0.25
		c0.16,0,0.29-0.04,0.4-0.13C100.29,65.02,100.37,64.88,100.43,64.69 M97.5,62.06v0.81h-0.69v1.55c0,0.32,0.01,0.5,0.02,0.55
		c0.01,0.05,0.04,0.1,0.09,0.13c0.05,0.03,0.1,0.05,0.17,0.05c0.09,0,0.23-0.03,0.41-0.1l0.08,0.79c-0.23,0.1-0.5,0.15-0.8,0.15
		c-0.18,0-0.35-0.03-0.49-0.09c-0.15-0.06-0.25-0.14-0.32-0.24c-0.07-0.1-0.12-0.23-0.14-0.4c-0.02-0.12-0.03-0.36-0.03-0.72v-1.68
		h-0.47v-0.81h0.47V61.3l1.01-0.6v1.36H97.5z M94.73,65.9h-1.01v-1.95c0-0.41-0.02-0.68-0.07-0.8c-0.04-0.12-0.11-0.22-0.21-0.28
		c-0.1-0.07-0.22-0.1-0.35-0.1c-0.18,0-0.33,0.05-0.48,0.14c-0.14,0.1-0.24,0.22-0.29,0.38c-0.05,0.16-0.08,0.45-0.08,0.88v1.73
		h-1.01v-3.83h0.94v0.56c0.34-0.43,0.76-0.64,1.27-0.64c0.22,0,0.43,0.04,0.62,0.12c0.19,0.08,0.33,0.19,0.42,0.31
		c0.1,0.12,0.16,0.27,0.2,0.43c0.04,0.16,0.06,0.39,0.06,0.68V65.9z M89.41,63.66c-0.01-0.29-0.08-0.52-0.23-0.67
		c-0.14-0.15-0.32-0.23-0.53-0.23c-0.22,0-0.4,0.08-0.55,0.24c-0.14,0.16-0.21,0.38-0.21,0.66H89.41z M89.35,64.69l1.01,0.17
		c-0.13,0.37-0.33,0.65-0.61,0.85c-0.28,0.19-0.63,0.29-1.05,0.29c-0.67,0-1.16-0.22-1.48-0.65c-0.25-0.35-0.38-0.79-0.38-1.32
		c0-0.63,0.17-1.13,0.5-1.49c0.33-0.36,0.75-0.54,1.26-0.54c0.57,0,1.02,0.19,1.35,0.56c0.33,0.38,0.49,0.95,0.47,1.73h-2.53
		c0.01,0.3,0.09,0.53,0.25,0.7c0.15,0.17,0.35,0.25,0.58,0.25c0.16,0,0.29-0.04,0.4-0.13C89.21,65.02,89.29,64.88,89.35,64.69
		 M85.19,63.95l1.03,0.32c-0.16,0.58-0.42,1.02-0.79,1.3c-0.37,0.28-0.84,0.42-1.4,0.42c-0.7,0-1.28-0.24-1.73-0.72
		c-0.45-0.48-0.68-1.14-0.68-1.97c0-0.88,0.23-1.56,0.68-2.05c0.45-0.49,1.05-0.73,1.79-0.73c0.65,0,1.17,0.19,1.58,0.57
		c0.24,0.23,0.42,0.55,0.54,0.98l-1.06,0.25c-0.06-0.27-0.19-0.49-0.39-0.65c-0.2-0.16-0.44-0.24-0.72-0.24
		c-0.39,0-0.71,0.14-0.95,0.42c-0.25,0.28-0.37,0.74-0.37,1.37c0,0.67,0.12,1.14,0.36,1.43c0.24,0.28,0.55,0.43,0.94,0.43
		c0.29,0,0.53-0.09,0.73-0.27C84.95,64.62,85.1,64.34,85.19,63.95 M73.11,62.06h0.93v0.52c0.33-0.4,0.73-0.6,1.19-0.6
		c0.25,0,0.46,0.05,0.64,0.15c0.18,0.1,0.33,0.25,0.44,0.46c0.17-0.21,0.35-0.36,0.55-0.46c0.19-0.1,0.4-0.15,0.62-0.15
		c0.28,0,0.52,0.06,0.71,0.17c0.19,0.12,0.34,0.28,0.44,0.5c0.07,0.16,0.1,0.43,0.1,0.79v2.45h-1.01v-2.19
		c0-0.38-0.03-0.63-0.1-0.73c-0.09-0.14-0.24-0.22-0.43-0.22c-0.14,0-0.28,0.04-0.4,0.13c-0.12,0.09-0.21,0.21-0.27,0.38
		c-0.06,0.17-0.08,0.43-0.08,0.79v1.84h-1.01v-2.1c0-0.37-0.02-0.61-0.05-0.72c-0.04-0.11-0.09-0.19-0.17-0.24
		c-0.07-0.05-0.18-0.08-0.31-0.08c-0.16,0-0.3,0.04-0.42,0.12c-0.12,0.09-0.21,0.21-0.27,0.37c-0.05,0.16-0.08,0.42-0.08,0.79v1.86
		h-1.01V62.06z M68.71,64.82l1.02-0.16c0.04,0.2,0.13,0.35,0.26,0.45c0.13,0.1,0.32,0.15,0.56,0.15c0.26,0,0.46-0.05,0.59-0.14
		c0.09-0.07,0.13-0.16,0.13-0.27c0-0.08-0.02-0.14-0.07-0.19c-0.05-0.05-0.16-0.09-0.34-0.13c-0.82-0.18-1.34-0.35-1.56-0.5
		c-0.3-0.21-0.46-0.5-0.46-0.86c0-0.33,0.13-0.61,0.39-0.84c0.26-0.23,0.67-0.34,1.22-0.34c0.52,0,0.91,0.09,1.17,0.26
		c0.25,0.17,0.43,0.43,0.53,0.76l-0.95,0.18c-0.04-0.15-0.12-0.27-0.23-0.35c-0.12-0.08-0.28-0.12-0.49-0.12
		c-0.27,0-0.46,0.04-0.58,0.11c-0.08,0.05-0.12,0.12-0.12,0.21c0,0.07,0.03,0.14,0.1,0.19c0.09,0.07,0.41,0.16,0.95,0.29
		c0.54,0.12,0.92,0.27,1.13,0.45c0.21,0.18,0.32,0.43,0.32,0.75c0,0.35-0.15,0.65-0.44,0.91c-0.29,0.25-0.73,0.38-1.3,0.38
		c-0.52,0-0.93-0.11-1.24-0.32C69,65.47,68.8,65.18,68.71,64.82 M67.02,62.06h1.01v3.83h-1.01V62.06z M67.02,60.61h1.01v0.94h-1.01
		V60.61z M66.31,62.06v0.81h-0.7v1.55c0,0.32,0.01,0.5,0.02,0.55c0.01,0.05,0.04,0.1,0.09,0.13c0.05,0.03,0.1,0.05,0.17,0.05
		c0.1,0,0.23-0.03,0.41-0.1l0.08,0.79c-0.23,0.1-0.5,0.15-0.8,0.15c-0.18,0-0.35-0.03-0.49-0.09c-0.15-0.06-0.25-0.14-0.32-0.24
		c-0.07-0.1-0.12-0.23-0.14-0.4c-0.02-0.12-0.03-0.36-0.03-0.72v-1.68h-0.47v-0.81h0.47V61.3l1.01-0.6v1.36H66.31z M62.58,65.9
		v-0.57c-0.14,0.21-0.32,0.37-0.55,0.49c-0.23,0.12-0.47,0.18-0.72,0.18c-0.26,0-0.49-0.06-0.69-0.17
		c-0.21-0.11-0.35-0.27-0.44-0.48c-0.09-0.21-0.14-0.49-0.14-0.85v-2.43h1.01v1.77c0,0.54,0.02,0.87,0.06,0.99
		c0.04,0.12,0.1,0.22,0.2,0.29c0.1,0.07,0.22,0.11,0.38,0.11c0.17,0,0.33-0.05,0.47-0.14c0.14-0.09,0.23-0.21,0.28-0.35
		c0.05-0.14,0.08-0.49,0.08-1.04v-1.62h1.01v3.83H62.58z M57.53,63.8l-0.73-1.96l-0.71,1.96H57.53z M59.49,65.9h-1.15l-0.46-1.2
		h-2.12l-0.44,1.2h-1.13l2.05-5.29h1.13L59.49,65.9z"/>
</g>
</svg>
