<?xml version="1.0" encoding="utf-8"?>
<!-- Generator: Adobe Illustrator 26.0.0, SVG Export Plug-In . SVG Version: 6.00 Build 0)  -->
<svg version="1.1" id="Layer_1" xmlns="http://www.w3.org/2000/svg" xmlns:xlink="http://www.w3.org/1999/xlink" x="0px" y="0px"
	 viewBox="0 0 236.04 113.45" style="enable-background:new 0 0 236.04 113.45;" xml:space="preserve">
<style type="text/css">
	.st0{fill:#B0B0B2;}
	.st1{fill-rule:evenodd;clip-rule:evenodd;fill:#B0B0B2;}
	.st2{fill-rule:evenodd;clip-rule:evenodd;fill:#FDFEFF;}
	.st3{fill-rule:evenodd;clip-rule:evenodd;fill:#F7F6F6;}
	.st4{fill:none;}
	.st5{fill-rule:evenodd;clip-rule:evenodd;fill:#939598;}
	.st6{fill-rule:evenodd;clip-rule:evenodd;fill:#FFFFFF;}
</style>
<g>
	<path class="st1" d="M114.86,41.17c-0.04,2.54,0.27,6.91-0.08,9.21c-0.48,3.15-3.45,3.8-5.69,3.05c-2.21-0.74-3.48-3.51-2.41-6.26
		c1.34-3.44,4.73-2.69,6.56-2.85l0.06-2.06c-10.4-1.34-11.43,9.04-7.23,12.25c3.09,2.36,10.41,2.38,11.21-4.07
		c0.21-1.69,0.06-4.27,0.06-6.05l1.46-0.04c0,4.09-0.49,8.09,2.17,10.21c2.56,2.04,7.32,1.79,9.45-0.41c2.43-2.5,2.6-6.3,0.59-9.12
		c-2.42-3.39-5.84-2.83-9.72-2.81c-0.07-1.19-0.09-8.37,0.05-9.28c0.48-3.24,3.69-3.8,5.89-2.94c2.09,0.81,3.28,3.57,2.18,6.25
		c-0.42,1.02-1.32,1.95-2.28,2.36c-1.63,0.69-3.1,0.09-4.3,0.47l-0.01,2.01c1.39,0.3,4.18,0.01,5.37-0.51
		c1.52-0.66,2.43-1.63,3.19-2.87c1.86-3.02,0.84-7.31-1.33-8.87c-3.38-2.44-10.43-2.25-11.19,4.1c-0.23,1.88,0.01,4.11-0.09,6.07
		l-1.43-0.01c-0.19-4.3,0.63-8.03-2.26-10.27c-2.65-2.04-7.16-1.64-9.41,0.43c-3.46,3.18-2.12,10.4,3.16,11.75
		C110.7,41.37,112.91,41,114.86,41.17 M114.85,38.97c-2.75,0.24-6.04,0.22-7.38-1.46c-1.41-1.78-1.6-4.99,0.04-6.66
		c0.69-0.7,1.98-1.21,3.38-1.19c1.58,0.03,2.35,0.52,3.08,1.35C115.27,32.47,114.88,36.74,114.85,38.97 M77.07,85.95l3.21,0.01
		c0.29-0.96,0.09-10.37,0.09-12.17c0-4.11-0.46-7.93,3.99-8.31c6.01-0.53,7.77,7.46,2.98,9.77c-1.61,0.78-3.78,0.47-5.68,0.52
		l-0.04,2.95c4.8,0.27,9.73-0.27,11.46-5.71c1.67-5.26-2.12-9.65-5.93-10.69c-4.08-1.11-9.58,0.66-10.1,6.5
		C76.93,70.23,76.91,85.08,77.07,85.95 M137.76,86l3.43-0.01l0-7.95c0-4.13,4.88-4.6,6.64-2.65c1.85,2.04,0.54,7.55,1.01,10.59
		l3.25,0c0.24-1.62,0.04-4.98,0.04-6.78c0-2.52,0.01-3.73-1.21-5.61c-0.82-1.28-2.32-2.18-4.33-2.49c-1.4-0.22-3.09-0.15-4.35,0.54
		c-0.54,0.29-0.67,0.54-1.06,0.77l0-8.33l-3.43-0.01V86z M106.23,85.92l-0.01-2.68c-1.58-0.13-3.65,0.18-5.1-0.2
		c-2.88-0.75-4.29-3.9-3.56-6.59c1.25-4.65,8.19-5.07,9.61-0.88c0.71,2.1,0.16,7.76,0.33,10.37l3.31,0.05
		c0.21-2.19,0.03-5.41,0.03-7.69c0-2.83-0.09-4.31-1.54-6.27c-2.16-2.93-7.62-3.66-11.32-1.22c-5.44,3.58-5.34,11.75,1.02,14.5
		C100.64,86.01,104.32,86.21,106.23,85.92 M122.01,85.94l0.02-2.68c-1.19-0.43-4.46,0.83-4.54-3.02c-0.04-1.96-0.19-5.73,0.03-7.54
		l3.78-0.02l-0.02-3.34l-3.72-0.02l-0.01-3.62l-3.44-0.03c0.09,4.73-0.09,9.49,0.01,14.19c0.05,2.39,0.59,3.98,1.92,5.14
		C117.21,86,120.17,86.28,122.01,85.94 M134.68,85.98l-0.01-2.8c-2.24,0.04-4.43,0.29-6.04-0.85c-3.08-2.17-2.97-6.72,0.06-9.16
		c1.99-1.6,3.8-0.5,5.96-0.99l0-2.81c-0.88-0.15-3.79-0.06-4.67,0.09c-1.38,0.24-2.52,0.84-3.46,1.55c-1.61,1.22-3.4,3.51-3.51,6.53
		c-0.11,3.13,1.49,5.49,3.18,6.72C129.04,86.31,130.83,85.92,134.68,85.98 M155.4,85.96l3.34,0.02l0.02-15.33l-3.34-0.07
		L155.4,85.96z M156.69,63.97c-2.87,0.69-1.63,4.59,0.9,3.94C160.11,67.26,159.18,63.37,156.69,63.97 M121.27,44.33
		c3.02-0.02,5.92-0.4,7.44,1.57c1.42,1.84,1.44,4.9-0.1,6.55c-1.51,1.61-4.88,1.66-6.4-0.05C120.82,50.85,121.27,46.7,121.27,44.33"
		/>
</g>
</svg>
