<?xml version="1.0" encoding="utf-8"?>
<!-- Generator: Adobe Illustrator 26.0.0, SVG Export Plug-In . SVG Version: 6.00 Build 0)  -->
<svg version="1.1" id="Layer_1" xmlns="http://www.w3.org/2000/svg" xmlns:xlink="http://www.w3.org/1999/xlink" x="0px" y="0px"
	 viewBox="0 0 236.04 113.45" style="enable-background:new 0 0 236.04 113.45;" xml:space="preserve">
<style type="text/css">
	.st0{fill:#B0B0B2;}
	.st1{fill-rule:evenodd;clip-rule:evenodd;fill:#B0B0B2;}
	.st2{fill-rule:evenodd;clip-rule:evenodd;fill:#FDFEFF;}
	.st3{fill-rule:evenodd;clip-rule:evenodd;fill:#F7F6F6;}
	.st4{fill:none;}
	.st5{fill-rule:evenodd;clip-rule:evenodd;fill:#939598;}
	.st6{fill-rule:evenodd;clip-rule:evenodd;fill:#FFFFFF;}
</style>
<g>
	<path class="st1" d="M141.44,44.22c0-0.19-0.03-0.12,0.2-0.1L141.44,44.22z M141.07,44.34c0-0.2-0.03-0.12,0.22-0.1L141.07,44.34z
		 M140.75,44.47l0.19-0.11C140.94,44.56,140.98,44.5,140.75,44.47 M140.41,44.59l0.21-0.11C140.62,44.68,140.66,44.61,140.41,44.59
		 M140.03,44.7l0.23-0.1C140.26,44.8,140.29,44.72,140.03,44.7 M139.68,44.82l0.18-0.11C139.86,44.89,139.9,44.82,139.68,44.82
		 M138.96,45.05l0.22-0.11C139.18,45.15,139.22,45.07,138.96,45.05 M137.39,45.52c0-0.21-0.04-0.13,0.23-0.1L137.39,45.52z
		 M137.13,45.65l0.03-0.1l0.21-0.04L137.13,45.65z M112.72,64.74c0,0.63,0.77,0.92,1.26,0.55c0.51-0.38,0.17-0.77-0.08-1.14h-0.83
		C113.01,64.24,112.72,64.65,112.72,64.74 M111.78,66.04c0,0.43,0.18,0.57,0.35,0.83h0.82c0.48-0.71,0.47-0.6,0-1.3h-0.82
		C112.04,65.7,111.78,65.96,111.78,66.04 M113.66,66.16c0,0.47,0.12,0.35,0.35,0.71h0.83c0.48-0.71,0.47-0.6,0-1.3h-0.83
		C113.86,65.81,113.66,65.87,113.66,66.16 M99.99,76.65c-0.35,1.44,0.67,1.36,1.3,1.06C101.6,76.38,100.7,76.37,99.99,76.65
		 M146.67,77.12c0,0.32,0.06,0.33,0.12,0.59c0.46,0.22,0.84,0.22,1.3,0C148.53,75.83,146.67,76.52,146.67,77.12 M144.78,76.65
		c-0.16,0.67-0.19,0.24,0,1.06c0.46,0.22,0.84,0.22,1.3,0C146.39,76.38,145.49,76.37,144.78,76.65 M130.52,85.25l0.12,0.71
		c1.89,0.44,1.55-0.92,0.96-1.19C130.93,84.46,130.52,84.98,130.52,85.25 M127.69,77.71c0.96,0,0.87-1.41,0.24-1.41
		C126.21,76.29,126.91,77.71,127.69,77.71 M81.72,85.49c0,0.79,0.99,0.57,1.42,0.47C83.57,84.15,81.72,84.39,81.72,85.49
		 M124.98,76.88c0,1.06,1.53,1.06,1.53,0c0-0.38-0.1-0.09-0.24-0.59h-1.06C125.08,76.79,124.98,76.5,124.98,76.88 M76.18,76.88
		c0,1.08,1.53,1.07,1.53,0.12C77.71,75.85,76.18,76.24,76.18,76.88 M99.17,73.7c0,1.21,1.53,0.97,1.53,0.12
		C100.7,72.82,99.17,72.94,99.17,73.7 M102.82,76.53h-0.47c-0.68,0-0.83,1.37,0.22,1.35C103.7,77.86,103.52,76.53,102.82,76.53
		 M140.77,77.12c0,0.32,0.06,0.33,0.12,0.59c0.55,0.27,0.75,0.27,1.3,0c0.16-0.67,0.19-0.24,0-1.06
		C141.76,76.55,140.77,76.33,140.77,77.12 M79.84,85.25c0,0.85,0.1,0.83,0.94,0.83c0.82,0,0.7-1.41-0.24-1.41
		C80.24,84.66,79.84,84.92,79.84,85.25 M128.63,85.25c0,0.85,0.1,0.83,0.94,0.83c0.82,0,0.7-1.41-0.24-1.41
		C129.04,84.66,128.63,84.92,128.63,85.25 M78.07,76.88c0,0.93,1.53,1.34,1.53-0.12C79.6,76.03,78.07,76.15,78.07,76.88
		 M95.63,65.21c0,1.14,1.53,1.14,1.53,0C97.16,64.38,95.63,64.47,95.63,65.21 M118.5,73.7c0,1.17,1.53,1.09,1.53,0
		C120.03,72.9,118.5,72.9,118.5,73.7 M108.24,86.08c1.79,0,0.96-1.41,0.24-1.41C107.6,84.66,107.44,86.08,108.24,86.08 M101.05,73.7
		c0,0.29,0.02,0.35,0.17,0.53c0.5,0.62,1.12,0.1,1.36-0.06v-0.83c-0.66-0.18,0.05-0.23-0.94-0.23
		C101.37,73.11,101.05,73.43,101.05,73.7 M97.52,65.33c0,1.26,1.53,0.47,1.53,0.47v-0.94C99.05,64.86,97.52,64.08,97.52,65.33
		 M114.25,77.47v4.36c0,0.54,1.3,0.54,1.3,0v-4.36C115.55,76.93,114.25,76.93,114.25,77.47 M119.79,83.84h1.18v-7.31h-1.18V83.84z
		 M159.99,72.29h1.18v-7.43h-1.18V72.29z M154.33,83.84h1.3v-7.31h-1.3V83.84z M139.12,72.29h1.3v-7.43h-1.3V72.29z M126.75,72.29
		h1.3v-7.43h-1.3V72.29z M136.65,72.29c0,0.43-0.18,0.57-0.35,0.83h-1.18c-0.09,1.05-0.48,1.18,0.71,1.18c0.61,0,1-0.11,1.37-0.39
		c0.3-0.23,0.63-0.66,0.63-1.14v-5.78h-1.18V72.29z M131.58,67.34v0.82c0.56,0,1.43-0.04,1.83,0.3c0.56,0.46,0.41,1.71,0.41,2.53
		h-3.18v1.3H135c0-1.9,0.54-5.31-2.12-5.31C131.95,66.98,131.58,66.85,131.58,67.34 M117.08,82.66h-4.01v1.18h5.3v-7.31h-1.3V82.66z
		 M156.45,81.01c0,1.3,0.41,2.21,1.64,2.72c0.58,0.24,1.3-0.02,1.76,0.14c0.51,0.17,0.07,0.8-0.81,0.8c-0.7,0-0.89-0.22-1.53-0.24
		c0.13,1.56,0.1,1.41,1.89,1.41c1.26,0,2-0.73,2-2v-5.19c-1.78,0-3.13-0.28-4.22,0.73C156.8,79.74,156.45,80.3,156.45,81.01
		 M157.63,81.24c0-1.56,1.75-1.41,2.48-1.41v2.83C159.4,82.66,157.63,82.8,157.63,81.24 M94.1,69.46c0,1.65,1.07,2.83,2.59,2.83h6.6
		v-5.31H102v4.01h-2.95v-4.01c-1.85,0-2.95-0.26-4.11,0.72C94.43,68.13,94.1,68.75,94.1,69.46 M97.75,68.16v2.83
		c-0.84,0-1.64,0.18-2.21-0.62C94.86,69.41,95.35,68.16,97.75,68.16 M85.85,81.01c0,0.57,0.17,1.27,0.35,1.65h-2.36v-4.01h-1.3v4.01
		H79.6v-4.01c-1.62,0-3.35-0.29-4.27,0.8c-1.74,2.08,0.17,4.38,1.44,4.38h13.67v-1.18H87.5c-0.11-0.46-0.21-0.41-0.32-0.75
		c-0.37-1.18,0.26-2.08,0.79-2.08c0.92,0,1.09-0.07,1.89,0.35c0.11-0.47,0.31-0.6,0.35-1.18c-1.1-0.58-2.7-0.79-3.69,0.2
		C86.04,79.68,85.85,80.11,85.85,81.01 M75.83,81.24c0-0.6,0.62-1.41,1.42-1.41h1.06v2.83c-0.8,0-1.49,0.12-2.04-0.44
		C76.09,82.04,75.83,81.52,75.83,81.24 M91.51,83.84c3.38,0,2.55,0.27,4.01-0.71c0.22,0.33,0.63,0.71,1.18,0.71h14.97
		c0-1.9,0.04-0.43-0.95-2.71c-0.97-2.23-2.33-3.51-4.95-2.13c0.06,0.27,0.35,0.93,0.47,1.18c0.84-0.45,2.02-0.8,2.65,0.17l1.12,2.3
		h-5.66v-4.01h-1.3v4.01h-2.95v-1.18c0-4.02-4.72-3.72-5.16-1.03c-0.1,0.6-0.08,1.09-0.24,1.53c-0.3,0.8-1.23,0.68-1.91,0.68v-6.13
		h-1.3V83.84z M98.81,81.24v1.42c-1.02,0-3.08,0.3-2.64-1.81C96.52,79.22,98.81,79.39,98.81,81.24 M157.28,65.21v5.78h-2.24
		c0-1.14,0.1-1.54-0.21-2.5c-0.66-2.06-3.77-2.28-4.77-0.11c-0.38,0.83-0.09,1.7-0.57,2.26c-0.51,0.59-1.86,0.35-3.3,0.35v-4.01
		h-2.36c-2.07,0-3.14,2.38-2.34,3.87c0.71,1.32,1.9,1.43,3.4,1.43c-0.1,1.26-2.13,0.51-2.59,0.47c0.04,0.5,0.22,0.88,0.24,1.41
		c0.83,0.02,1.91,0.45,3-0.42c0.54-0.43,0.49-0.76,0.66-1.46c0.82,0,1.67,0.02,2.48,0c0.98-0.02,1.19-0.33,1.76-0.71
		c0.47,0.32,0.82,0.71,1.65,0.71h6.48v-7.43C157.65,64.86,157.28,64.73,157.28,65.21 M144.9,68.16v2.83h-1.3
		C142.59,70.99,141.09,68.16,144.9,68.16 M151.03,69.69c0-2.04,2.71-2,2.71-0.35v1.65c-1.05,0-1.87,0.17-2.33-0.38
		C151.27,70.45,151.03,69.93,151.03,69.69 M124.16,70.99h-2.12v-3.65c0-0.48-0.37-0.35-1.3-0.35v4.01h-2.95v-4.01h-1.3v4.01h-2.36
		v-3.3h-1.18v3.3h-2v-3.3h-1.3v3.3h-2.83v-4.13h-1.3v5.66c0,0.74-1.06,0.59-1.53,0.59c0,1.12-0.61,1.18,0.94,1.18
		c1.14,0,1.86-0.9,1.89-2h18.27c0.27,0,0.35-0.08,0.35-0.35v-6.72c0-0.48-0.37-0.35-1.3-0.35V70.99z M151.74,82.66h-2.36v-4.01h-1.3
		v4.01h-3.3v-4.01h-1.3v4.01h-3.18c0-1.92,0.1-3.8-2.12-4.13c-0.71-0.11-1.44-0.05-1.98,0.38c-0.13,0.1-0.33,0.26-0.44,0.39
		c-0.91,1.01-0.52,2.1-0.77,2.65c-0.41,0.91-1.3,0.72-2.35,0.72v-4.01h-1.3v4.01h-2.95v-4.01c-1.62,0-3.37-0.29-4.27,0.8
		c-1.76,2.15,0.17,4.38,1.44,4.38h9.08c0.41,0,0.77-0.39,0.94-0.71c0.47,0.31,0.73,0.71,1.53,0.71h15.79v-7.31h-1.18V82.66z
		 M139.01,80.77v1.89h-1.41c-1.82,0-1.55-3.28,0.41-2.89C138.72,79.91,139.01,80.58,139.01,80.77 M126.04,79.83h1.06v2.83h-1.06
		c-0.77,0-1.39-0.67-1.39-1.42C124.65,80.5,125.27,79.83,126.04,79.83 M126.75,42.1c0,0.18,0.04,0.13-0.16,0.12L126.75,42.1z
		 M127,41.99c0,0.18,0.04,0.13-0.16,0.11L127,41.99z M128.32,41.3l-0.16,0.11C128.16,41.23,128.12,41.29,128.32,41.3 M128.56,41.18
		l-0.16,0.12C128.4,41.11,128.36,41.17,128.56,41.18 M129.63,40.7c0,0.2,0.04,0.12-0.22,0.1L129.63,40.7z M129.84,40.58l-0.18,0.12
		C129.66,40.51,129.62,40.57,129.84,40.58 M127.34,48.8c-0.22,1.08-0.72,2.1-0.97,3.3c-0.88,4.14-1,5.37-0.79,9.58
		c0.04,0.79,0.12,1.43,0.12,2.12c0.36-0.24,0.5-0.62,0.75-1.01l1.4-2.25c0.26-0.44,0.43-0.75,0.72-1.17l8.55-13.6l0.13-0.07
		c0.13,0.64,3.65,6,4.16,6.87l4.21,6.75c0.41,0.69,2.54,4.22,2.94,4.49l0.24-4.01c0.02-3.06-0.51-6.41-1.35-9.27
		c-0.18-0.6-0.4-1.08-0.54-1.7l12.73,4.13c-0.25-0.94-3.12-3.83-3.8-4.57c-0.1-0.11-0.06-0.08-0.17-0.19l-3.6-3.12
		c-0.29-0.22-0.53-0.37-0.83-0.59l-3.4-2.26l0.31-0.16c0.16-0.06,0.17-0.06,0.35-0.12l11.13-3.61c-0.54-0.73-7.09-1.71-7.78-1.77
		c-3.18-0.28-5.94-0.19-9.08,0.16l1.38-2.31c0.28-0.47,0.46-0.74,0.74-1.14l2.16-3.5c0.26-0.44,0.46-0.72,0.74-1.14
		c0.23-0.34,0.6-0.81,0.64-1.25c-0.59,0.31-2.97,1.1-4.69,2.03c-1.72,0.93-4.55,2.71-5.95,4.07c-0.72,0.7-1.45,1.26-2.3,2.18
		c-1.27,1.38-2.41,2.86-3.52,4.38l-1.74,2.74c-0.22,0.39-0.62,1.24-0.9,1.45c0.04-0.53,0.43-1.5,0.58-2.01
		c0.18-0.62,0.45-1.36,0.71-1.91v-0.13c0.3-0.48,0.52-1.09,0.78-1.66c0.16-0.35,0.23-0.5,0.39-0.79c0.17-0.31,0.3-0.54,0.48-0.83
		c0.25-0.88,2.73-4.09,2.83-4.46c-0.16-0.22-0.7-0.6-0.97-0.79c-0.22-0.16-0.27-0.17-0.5-0.32c-2.09-1.39-4.75-2.89-7.15-3.69
		c-0.38-0.13-0.36-0.1-0.68-0.26c0.04,0.53,2.31,3.93,2.76,4.67l2.9,4.7l-5.53-0.4c-0.43,0.02-0.49,0.11-1.07,0.12
		c-2.16,0.03-4.58,0.24-6.56,0.75c-0.57,0.15-3.37,0.68-3.7,1.13l7.28,2.39c0.55,0.19,0.97,0.3,1.52,0.49l2.99,1.01l-0.13,0.11
		c-0.11,0.09-0.09,0.08-0.2,0.15c-0.17,0.12-0.25,0.14-0.46,0.25c-0.3,0.16-0.62,0.35-0.88,0.53c-0.32,0.22-0.52,0.33-0.86,0.56
		c-2.33,1.58-4.19,3.16-6.11,5.2c-0.25,0.27-0.45,0.44-0.71,0.71l-1.28,1.55c-0.32,0.4-1.03,1.19-1.16,1.67L127.34,48.8z"/>
</g>
</svg>
