<?xml version="1.0" encoding="utf-8"?>
<!-- Generator: Adobe Illustrator 26.0.0, SVG Export Plug-In . SVG Version: 6.00 Build 0)  -->
<svg version="1.1" id="Layer_1" xmlns="http://www.w3.org/2000/svg" xmlns:xlink="http://www.w3.org/1999/xlink" x="0px" y="0px"
	 viewBox="0 0 236.04 113.45" style="enable-background:new 0 0 236.04 113.45;" xml:space="preserve">
<style type="text/css">
	.st0{fill:#B0B0B2;}
	.st1{fill-rule:evenodd;clip-rule:evenodd;fill:#B0B0B2;}
	.st2{fill-rule:evenodd;clip-rule:evenodd;fill:#FDFEFF;}
	.st3{fill-rule:evenodd;clip-rule:evenodd;fill:#F7F6F6;}
	.st4{fill:none;}
	.st5{fill-rule:evenodd;clip-rule:evenodd;fill:#939598;}
	.st6{fill-rule:evenodd;clip-rule:evenodd;fill:#FFFFFF;}
</style>
<g>
	<rect x="121.04" y="37.91" class="st0" width="13.25" height="11.42"/>
	<rect x="87.85" y="37.91" class="st0" width="15.22" height="11.42"/>
	<rect x="136.34" y="37.91" class="st0" width="11.21" height="11.42"/>
	<rect x="149.63" y="37.91" class="st0" width="7.03" height="11.42"/>
	<rect x="105.09" y="37.91" class="st0" width="13.89" height="11.42"/>
	<path class="st0" d="M172.43,65.66c-0.12,0.24-0.18,0.48-0.43,0.66c-0.3,1.51-2.24,1.45-2.61,2.83c-1.33,0.3-2.37,1.87-3.82,1.39
		c-1.76,0.66-2.43-1.63-4.07-1.27c-0.24-0.66-1.03-0.3-1.46-0.78c0.12-0.54-0.24-1.33,0.37-1.51c0.48-0.12,1.39-0.36,1.64,0.18
		c0.43,1.27,1.94,0.72,3.04,0.91c0.49-0.36,0.85-0.54,1.03-1.09c0.42-0.6,0.85,0.12,1.27,0.18c0.85-0.36,1.03-1.33,1.21-2.17
		c0.61-0.18,0.79-0.78,0.67-1.39c0.67-1.33,0.49-3.02,0.55-4.58c-0.06-0.06-0.12-0.12-0.24-0.18c-1.15-0.12-1.52-1.21-1.94-2.11
		l0.3-1.15c1.03-0.48,0.91,0.66,1.64,1.09c0.18,1.27,2.31,1.69,1.64,3.02C172.98,61.07,172.49,63.61,172.43,65.66 M158.19,63.56
		c-0.73,0.2-9.05,0.19-9.86,0.09c-0.06,0.02-0.12,0.03-0.18,0.05c-0.24,0.07-0.49,0.12-0.74,0.16c0,0-0.1,0.04-0.27,0.12
		c-0.06,0.02-0.12,0.05-0.19,0.08c-0.31,0.02-0.66,0.03-1.01,0.01c-0.09,0-0.17-0.01-0.26-0.02c-0.3-0.04-0.63-0.08-0.92-0.17
		c-0.71,0.64-1.52-0.27-2.36-0.15c-0.08,0.03-0.16,0.06-0.25,0.09c-0.89,0.29-8.22,0.27-9.13,0.09c-0.09,0.01-0.18,0.01-0.27,0.02
		c-0.69,0.03-1.38-0.01-2.08,0.06c-0.34,0.31-0.7,0.26-1.08,0.14c-0.54,0.02-1.13,0-1.69-0.15c-0.82,0.24-1.57,0.22-2.43,0.04
		c-0.09,0.01-0.18,0.01-0.27,0.02c-0.71,0.03-1.93-0.01-2.64,0.07c-0.08,0.01-0.16,0.02-0.24,0.02c-0.36-0.14-0.68-0.2-0.99-0.21
		c-0.08,0-0.15,0-0.23,0c-0.51-0.23-1.01-0.38-1.58-0.38c-0.35,0.1-0.72,0.24-1.2,0.24c-0.08-0.04-0.16-0.08-0.24-0.11
		c-0.23-0.1-0.44-0.17-0.64-0.19c-0.07,0-0.14-0.01-0.21,0c-1.07-0.04-2.25-0.21-3.12,0.48c-0.07,0.02-0.14,0.03-0.21,0.05
		c-0.08,0-0.16,0.01-0.24,0.01c-0.87,0.03-1.9-0.02-2.68-0.59c-1.16,0.68-8.44-0.25-9.22-0.13c-0.08,0.03-0.15,0.06-0.23,0.09
		c-0.07,0.02-0.13,0.04-0.2,0.06c0.02,0.15,0.02,0.29,0.02,0.43c0,0.06,0,0.13-0.01,0.19c-0.38,0.89,0.13,1.74-0.53,2.38
		c-0.06,0.06-0.12,0.1-0.19,0.16c-0.39,0.31-0.86,0.59-1.11,1.15c-0.05,0.04-0.1,0.09-0.15,0.14c-0.19,0.19-0.34,0.42-0.42,0.72
		c-1.33,0.3-2.37,1.87-3.82,1.39c-1.76,0.66-2.43-1.63-4.07-1.27c-0.24-0.66-1.03-0.3-1.46-0.78c0.12-0.54-0.24-1.33,0.37-1.51
		c0.49-0.12,1.4-0.36,1.64,0.18c0.43,1.27,1.94,0.72,3.04,0.9c0.49-0.36,0.85-0.54,1.03-1.08c0.43-0.6,0.85,0.12,1.28,0.18
		c0.85-0.36,1.03-1.33,1.21-2.17c0.47-0.14,0.68-0.53,0.7-0.97c-0.03,0.02-0.05,0.04-0.08,0.06c-0.07,0.01-0.14,0.02-0.21,0.03
		c-0.07,0.01-0.14,0.02-0.21,0.04c-0.79,0.01-1.3,0.68-2.21,0.4c-0.08-0.01-0.17-0.02-0.25-0.02c-0.65-0.03-1.23,0.26-1.92,0.05
		c-0.08-0.03-0.16-0.06-0.24-0.09c-0.08-0.04-0.16-0.08-0.23-0.13c-0.07-0.05-0.15-0.11-0.22-0.17c-0.49-0.53-0.66-1.21-1.21-1.74
		c-0.04-0.08-0.08-0.16-0.11-0.23c-0.14-0.31-0.27-0.63-0.42-0.95c-0.04-0.08-0.08-0.16-0.12-0.23c0.17-0.92,0.86-1.6,0.04-2.28
		c0-0.09,0.02-0.17,0.04-0.25c0.17-0.76,0.52-1.45,1.27-1.9c0.23-0.34,0.54-0.69,0.65-1.11c0.42-0.15,0.85-0.31,1.27-0.5
		c0.62,0.19,1.35,0.08,1.85-0.23c1.5-0.11,2.96,0.31,3.66,1.57c-0.04,0.92,0.73,1.49,0.58,2.45c0.43,0.34,0.39,1.03,0.27,1.53
		c-0.2,0.16-0.28,0.39-0.32,0.65c0.01,0.07,0.01,0.13,0.01,0.2c0.49,0.13,1,0.27,1.54,0.2c0.06,0,0.12,0,0.17,0
		c1.14-0.02,7.32-0.08,9.13-0.17c0.03-0.04,0.07-0.08,0.1-0.13c0.01-0.08,0.01-0.17,0.01-0.25c0-0.08,0-0.16,0-0.24
		c0.16-0.29,0.22-0.54,0.21-0.76c0-0.08-0.02-0.15-0.03-0.23c0-0.08,0-0.16,0-0.24c0.38-0.91-0.47-1.42-0.83-2.17
		c-0.04-0.09-0.08-0.17-0.14-0.25c-0.11-0.16-0.25-0.31-0.44-0.44c0-0.42-0.36-0.66-0.3-1.09c1.03-0.54,2.49-0.3,3.46-0.66
		c0.18-0.03,0.35-0.04,0.52-0.02c0.08,0.01,0.16,0.02,0.24,0.04c0.06,0.04,0.12,0.08,0.18,0.12c0.06,0.05,0.12,0.1,0.18,0.16
		c0.06,0.27,0.09,0.53,0.09,0.77c0,0.08,0,0.16-0.01,0.23c-0.01,0.28-0.08,0.53-0.17,0.78c-0.03,0.08-0.06,0.16-0.09,0.24
		c-0.08,0.21-0.12,0.43-0.14,0.66c-0.01,0.08-0.01,0.15-0.02,0.23c-0.44,0.82-0.61,1.66,0.01,2.3c0.01,0.07,0.01,0.14,0.01,0.21
		c0.01,0.28,0,0.54-0.06,0.78c0.15,0.19,1.54,0.31,2.71,0.38c0.06,0,0.12,0.01,0.18,0.01c0.7-0.49,1.42-0.28,2.21-0.09
		c0.05-0.09,0.12-0.17,0.19-0.26c0.05-0.5-0.01-0.96-0.2-1.36c-0.03-0.07-0.06-0.13-0.1-0.2c0.56-1.13,0.39-1.63-0.39-2.44
		c-0.04-0.07-0.08-0.14-0.13-0.21c-0.1-0.13-0.23-0.26-0.39-0.37c0-0.07-0.01-0.14-0.02-0.19c-0.25-0.86,0.57-0.92,1.39-1.05
		c0.05-0.01,0.1-0.02,0.15-0.02c0.8,0.29,1.65-0.73,2.74-0.18c0.02,0.07,0.03,0.14,0.04,0.2c0.04,0.2,0.05,0.38,0.05,0.56
		c0,0.08,0,0.16-0.01,0.24c-0.01,0.35-0.12,0.66-0.24,0.96c-0.02,0.06-0.05,0.12-0.07,0.18c-0.52,0.68-0.52,1.53-0.18,2.41
		c0.01,0.08,0.02,0.17,0.03,0.25c0.06,0.5,0.09,0.99-0.01,1.4c0.05,0.06,0.19,0.12,0.39,0.17c0.64-0.04,1.08-0.09,1.2-0.15
		c0,0-0.05,0.12-0.13,0.31c0.23,0.02,0.48,0.04,0.74,0.06c0.06,0,0.62,0.01,0.68,0.01c0.68-0.48,1.38-0.29,2.14-0.1
		c0.07-0.2,0.19-0.39,0.35-0.58c0.06-0.66-0.06-1.27-0.42-1.75c-0.06-1.03,0.18-2.17-0.79-2.83c0-0.42-0.37-0.66-0.3-1.09
		c1.03-0.54,2.49-0.3,3.46-0.66c0.18-0.03,0.35-0.03,0.51-0.02c0.08,0.01,0.16,0.02,0.24,0.04c0.06,0.03,0.12,0.08,0.18,0.12
		c0.06,0.05,0.12,0.1,0.18,0.16c0.06,0.27,0.09,0.53,0.09,0.77c0,0.08,0,0.16-0.01,0.24c-0.04,0.93-0.72,1.6-0.6,2.53
		c0.01,0.09,0.01,0.18,0.02,0.27c0.07,0.83,0.28,1.72,0.12,2.4c0.15,0.19,1.04,0.31,2.2,0.39c0.06,0,0.12,0.01,0.18,0.01
		c1.11-0.78,8.85,0.23,10.23,0.07c0.06,0,0.13,0,0.19,0c0.43-0.01,0.84-0.02,1.21-0.04c0.07-0.22,0.19-0.44,0.37-0.65
		c0.06-0.66-0.06-1.27-0.42-1.75c-0.06-1.02,0.18-2.17-0.79-2.83c0-0.42-0.36-0.66-0.3-1.09c1.03-0.54,2.49-0.3,3.46-0.66
		c0.73-0.12,1.27,0.18,1.82,0.54c0.24,0.48,0.12,0.91,0,1.39c-2.19,0.48-0.73,3.08-1.09,4.59c0.49,0.6,1.52,0.54,2.06,0.24
		c1.03-0.91,10.16,0.9,10.65-0.72c-0.24-1.39,0.67-3.5-1.15-3.86c-0.79-0.6-0.12-1.21,0.18-1.75c0.55-0.36,1.52-0.12,2.07-0.18
		c1.09,0.18,2.55-0.48,3.34,0.54c0.3,0.84-0.55,1.03-0.97,1.45c-1.27,0.18-0.61,1.93-0.97,2.89c0.09,0.4,0.13,0.79,0.14,1.19
		c0,0.08,0,0.16,0,0.24c-0.01,0.19-0.06,0.39-0.11,0.59c-0.02,0.07-0.04,0.13-0.06,0.2c-0.19,0.53,0.15,1.03,0.16,1.5l-3.21,0.42
		c-0.06-0.01-0.12-0.01-0.18-0.02c-0.3-0.02-0.59-0.01-0.92,0.04C158.35,63.51,158.27,63.53,158.19,63.56 M98.7,60.72V60.7
		c0,0,0.01,0,0.01,0c0.02-0.02,0.04-0.04,0.06-0.06c0.35-0.31,0.04-0.73-0.12-0.99c0.1-0.61-0.06-1.11-0.24-1.61
		c-0.62-0.39-0.9-1.17-1.22-1.85c-0.5,0.04-1.01,0.21-1.46-0.1c-0.1,0.1-0.24,0.16-0.39,0.21c-0.08,0.03-0.16,0.05-0.24,0.07
		c-0.6,0.12-1.11,0.63-1.11,1.33c0,0.04,0,0.09,0,0.13c-0.18,0.18-0.35,0.35-0.31,0.45c-0.01,0.07-0.01,0.15-0.02,0.22
		c-0.03,0.61,0.07,1.3-0.06,1.87c0.92,0.46,0.19,1.72,1.27,1.95c0.38,0.08,1.12,0.27,1.43-0.15C97.24,61.95,98.06,61.41,98.7,60.72
		 M89.66,60.95c0.01-0.07,0.02-0.13,0.03-0.19c0-0.07,0.01-0.14,0-0.21c-0.01-0.35-0.12-0.69-0.41-1.01
		c-0.04-0.44,0.01-0.85,0.18-1.21c0.03-0.06,0.06-0.12,0.09-0.17c-0.5-1-0.35-1.45,0.35-2.16c0.04-0.06,0.08-0.12,0.12-0.18
		c0.09-0.12,0.21-0.23,0.35-0.33c0-0.06,0.01-0.12,0.02-0.17c0.23-0.76-0.52-0.82-1.25-0.92c-0.05-0.01-0.09-0.01-0.14-0.02
		c-0.72,0.25-1.48-0.64-2.46-0.16c-0.02,0.06-0.03,0.12-0.04,0.18c-0.03,0.17-0.05,0.34-0.05,0.5c0,0.07,0,0.14,0.01,0.21
		c0.02,0.31,0.11,0.58,0.22,0.85c0.02,0.05,0.04,0.11,0.06,0.16c0.47,0.6,0.47,1.35,0.16,2.13c-0.01,0.07-0.02,0.15-0.03,0.22
		c-0.05,0.44-0.08,0.87,0,1.23c-0.14,0.17-7.48,0.28-8.52,0.34c-0.04-0.03-0.09-0.06-0.13-0.08c-0.06-0.03-0.14-0.06-0.2-0.09
		c-0.04,0-0.09,0-0.14,0.01c-0.91-0.35-1.88,0.35-3,0.22c-0.06,0-0.11,0-0.17,0c-1.28-0.02-2.33-0.09-2.5-0.19
		c0,0,0.52,1.19,0.82,1.89c0.02,0.04,0.03,0.08,0.05,0.12c0.03,0.08,0.05,0.15,0.06,0.21c0.02,0.13,0.03,0.21,0.03,0.21
		c0.66,0.75,1.43-0.15,2.22-0.03c0.07,0.03,0.15,0.05,0.22,0.08c0.75,0.24,1.42,0.24,2.17,0.11c0,0.07,0.01,0.14,0.01,0.21
		c0.01,0.5-0.05,1.04,0.03,1.51c-0.37,0.48-0.55,0.84-1.1,1.02c-0.61,0.42,0.12,0.85,0.18,1.27c-0.04,0.08-0.08,0.16-0.13,0.23
		c-0.05,0.07-0.1,0.14-0.16,0.2c-0.12,0.32-0.29,0.48-0.5,0.57c-0.07,0.03-0.14,0.05-0.21,0.07c-0.87,0.25-1.38,0.92-2.21,0.82
		c-0.06,0-0.12,0-0.19-0.01c-0.06-0.01-0.13-0.02-0.19-0.03c-1.04,0.51-2.3,0.51-3.55,0.51c-0.09,0-0.18,0-0.27,0
		c-1.27,0.14-1.78-0.53-1.44-1.55c-0.17,0-0.17,0-0.4-0.05c-0.09,0-0.18,0-0.29,0.02c-0.11,0.02-0.22,0.04-0.35,0.07
		c-0.07-0.04-0.14-0.07-0.21-0.12c-0.06-0.05-0.13-0.09-0.19-0.15c-0.06-0.04-0.11-0.08-0.15-0.12c-0.32-0.3-0.41-0.82-0.35-1.51
		c0.01-0.07,0.02-0.13,0.04-0.19c0.05-0.19,0.17-0.38,0.37-0.56c0.2-0.38,0.1-0.66-0.07-0.91c-0.04-0.06-0.08-0.13-0.13-0.19
		c-0.32-0.34-0.66-0.5-0.66-0.84c-0.17-0.68,0.85-0.68,1.43-1.03c0.07-0.01,0.14-0.02,0.22-0.03c0.22-0.02,0.45-0.02,0.69,0
		c0.42-0.12,0.67-0.6,0.55-0.96c-0.47-2.23-2.55-0.31-3.76-1.23c-1-0.06-1.6,1.05-1.14,1.84c0.04,0.07,0.09,0.14,0.15,0.21
		c0.16,0.53,0.33,1.2,0.05,1.76c-0.01,0.08-0.02,0.17-0.03,0.25c-0.05,0.49-0.08,0.96,0.08,1.38c0.87,0.47,0.01,1.92,1.16,2.05
		c0.05,0,0.1,0.01,0.16,0.01c-0.05,0.1-0.08,0.19-0.1,0.27c-0.02,0.08-0.02,0.15-0.02,0.22c0.01,0.07,0.02,0.12,0.05,0.17
		c0.12,0.13,0.27,0.23,0.42,0.34c0.05,0.03,0.1,0.07,0.15,0.1c0.04,0.04,0.09,0.09,0.14,0.13c0.04,0.04,0.09,0.08,0.14,0.12
		c0.33,0.84,1.18,1.01,1.88,1.52c0.05,0.05,0.1,0.1,0.15,0.15c0.36,0.33,0.75,0.52,1.29,0.26c1.38,1.76,3.94,1.29,6,1.24
		c0.24-0.12,0.49-0.18,0.67-0.42c1.52-0.29,1.47-2.23,2.87-2.58c0.31-1.32,1.89-2.34,1.42-3.79c0.37-0.95-0.14-1.58-0.63-2.22
		c2.45,0,6.96,0,7.62,0.16c0.07,0,0.14,0.01,0.22,0.01c0.81,0.03,1.77-0.02,2.47-0.56C90.13,61.79,89.52,61.34,89.66,60.95
		 M160.3,65.83c0.27,0.24,0.62,0.31,0.96,0.36c0.05,0.01,0.1,0.02,0.14,0.02c0.6-0.04,0.89-0.42,1.1-0.76
		c0.02-0.04,0.03-0.09,0.05-0.14c0.01-0.05,0.03-0.09,0.03-0.14c-0.2-0.5-0.29-0.88-0.68-1.3c-0.04-0.02-0.07-0.04-0.11-0.05
		c-0.19-0.07-0.4-0.09-0.64-0.08c-0.05,0.01-0.1,0.01-0.15,0.02c-0.33,0.24-0.62,0.71-0.96,0.96c-0.02,0.05-0.02,0.1-0.03,0.14
		c0,0.05-0.01,0.1-0.01,0.15c0,0.25,0.07,0.49,0.2,0.69C160.24,65.75,160.27,65.79,160.3,65.83 M159.13,63.88
		c-0.19-0.07-0.4-0.09-0.64-0.08c-0.05,0.01-0.1,0.02-0.15,0.03c-0.33,0.24-0.62,0.71-0.96,0.96c-0.01,0.05-0.02,0.09-0.03,0.14
		c-0.01,0.05-0.01,0.1-0.01,0.15c0,0.25,0.07,0.49,0.2,0.69c0.03,0.04,0.05,0.08,0.08,0.12c0.27,0.24,0.62,0.31,0.96,0.36
		c0.05,0.01,0.1,0.01,0.14,0.02c0.6-0.04,0.88-0.42,1.1-0.76c0.02-0.04,0.04-0.09,0.05-0.14c0.01-0.05,0.02-0.1,0.03-0.14
		c-0.2-0.5-0.29-0.88-0.68-1.3C159.21,63.91,159.17,63.89,159.13,63.88 M145.95,52.75c0.26,0.24,0.62,0.31,0.96,0.36
		c0.05,0.01,0.1,0.01,0.14,0.02c0.6-0.04,0.89-0.42,1.1-0.76c0.02-0.04,0.04-0.09,0.05-0.14c0.01-0.05,0.02-0.09,0.03-0.14
		c-0.2-0.5-0.3-0.88-0.68-1.3c-0.04-0.02-0.08-0.04-0.11-0.05c-0.19-0.07-0.41-0.09-0.64-0.08c-0.05,0-0.1,0.01-0.15,0.03
		c-0.33,0.24-0.62,0.71-0.96,0.96c-0.01,0.05-0.02,0.1-0.03,0.14c-0.01,0.05-0.01,0.1-0.01,0.15c0,0.25,0.07,0.49,0.2,0.69
		C145.89,52.68,145.92,52.72,145.95,52.75 M116.48,52.64c0.26,0.24,0.62,0.31,0.96,0.36c0.05,0.01,0.1,0.01,0.14,0.02
		c0.6-0.04,0.89-0.42,1.1-0.76c0.02-0.04,0.04-0.09,0.05-0.14c0.01-0.05,0.02-0.1,0.03-0.14c-0.2-0.51-0.29-0.88-0.67-1.3
		c-0.04-0.02-0.08-0.04-0.11-0.05c-0.19-0.07-0.4-0.09-0.64-0.08c-0.05,0-0.1,0.01-0.14,0.02c-0.33,0.24-0.62,0.71-0.96,0.96
		c-0.01,0.05-0.02,0.1-0.03,0.14c-0.01,0.05-0.01,0.1-0.01,0.15c0,0.25,0.07,0.49,0.2,0.69C116.43,52.57,116.45,52.6,116.48,52.64
		 M143.28,52.81c0.26,0.24,0.62,0.31,0.96,0.36c0.05,0.01,0.1,0.01,0.14,0.02c0.6-0.04,0.89-0.42,1.1-0.76
		c0.02-0.04,0.04-0.09,0.05-0.14c0.01-0.05,0.02-0.1,0.03-0.14c-0.2-0.51-0.29-0.88-0.67-1.3c-0.04-0.02-0.07-0.04-0.11-0.05
		c-0.19-0.07-0.4-0.09-0.64-0.08c-0.05,0.01-0.1,0.01-0.15,0.03c-0.33,0.24-0.62,0.71-0.96,0.96c-0.01,0.05-0.02,0.1-0.03,0.14
		C143,51.9,143,51.95,143,52c0,0.26,0.07,0.49,0.2,0.69C143.22,52.73,143.25,52.77,143.28,52.81 M74.04,73.1
		c-0.19-0.07-0.41-0.09-0.64-0.08c-0.05,0.01-0.1,0.01-0.15,0.03c-0.33,0.24-0.62,0.71-0.96,0.96c-0.01,0.05-0.02,0.1-0.03,0.14
		c-0.01,0.05-0.01,0.1-0.01,0.15c0,0.25,0.07,0.49,0.2,0.69c0.03,0.04,0.05,0.08,0.08,0.12c0.26,0.24,0.62,0.31,0.96,0.36
		c0.05,0.01,0.1,0.01,0.14,0.02c0.6-0.04,0.89-0.42,1.1-0.76c0.02-0.04,0.04-0.09,0.05-0.14c0.01-0.05,0.02-0.1,0.03-0.14
		c-0.2-0.51-0.3-0.88-0.68-1.3C74.12,73.13,74.08,73.11,74.04,73.1 M71.38,73.15c-0.19-0.07-0.4-0.09-0.64-0.08
		c-0.05,0.01-0.1,0.01-0.14,0.03c-0.33,0.24-0.62,0.71-0.96,0.96c-0.01,0.05-0.02,0.1-0.03,0.14c0,0.05-0.01,0.1-0.01,0.15
		c0,0.26,0.08,0.49,0.2,0.69c0.02,0.04,0.05,0.08,0.08,0.11c0.26,0.24,0.62,0.31,0.96,0.36c0.05,0.01,0.1,0.02,0.14,0.02
		c0.6-0.04,0.88-0.42,1.1-0.76c0.02-0.04,0.04-0.09,0.05-0.14c0.01-0.05,0.02-0.09,0.03-0.14c-0.2-0.5-0.29-0.88-0.68-1.3
		C71.45,73.18,71.42,73.17,71.38,73.15 M87.07,52.7c0.26,0.24,0.62,0.32,0.96,0.37c0.05,0.01,0.1,0.01,0.14,0.02
		c1.37-0.09,0.57,0.08,1.1-0.76c0.02-0.04,0.04-0.09,0.05-0.14c0.01-0.05,0.02-0.1,0.03-0.14c-0.2-0.5-0.29-0.88-0.68-1.3
		c-0.04-0.02-0.08-0.04-0.11-0.05c-0.19-0.07-0.4-0.09-0.64-0.08c-0.05,0.01-0.1,0.01-0.14,0.03c-0.33,0.24-0.62,0.71-0.96,0.96
		c-0.01,0.05-0.02,0.1-0.03,0.14c-0.01,0.05-0.01,0.1-0.01,0.15c0,0.25,0.07,0.49,0.2,0.69C87.01,52.62,87.04,52.66,87.07,52.7
		 M121.82,52.64c0.26,0.24,0.62,0.32,0.96,0.37c0.05,0.01,0.1,0.01,0.14,0.02c0.6-0.04,0.88-0.42,1.1-0.76
		c0.02-0.04,0.03-0.09,0.05-0.14c0.01-0.05,0.02-0.1,0.03-0.14c-0.2-0.5-0.3-0.88-0.68-1.3c-0.04-0.02-0.07-0.03-0.11-0.05
		c-0.19-0.07-0.4-0.09-0.64-0.08c-0.05,0-0.1,0.01-0.15,0.02c-0.34,0.24-0.62,0.71-0.96,0.96c-0.01,0.05-0.02,0.09-0.03,0.14
		c0,0.05-0.01,0.1-0.01,0.15c0,0.25,0.07,0.49,0.2,0.69C121.76,52.57,121.79,52.6,121.82,52.64 M119.18,52.7
		c0.27,0.24,0.62,0.32,0.96,0.37c0.05,0,0.1,0.01,0.14,0.02c0.6-0.04,0.89-0.42,1.1-0.76c0.02-0.04,0.04-0.09,0.05-0.14
		c0.01-0.05,0.02-0.1,0.03-0.14c-0.2-0.5-0.29-0.88-0.68-1.3c-0.04-0.02-0.08-0.04-0.11-0.05c-0.19-0.07-0.4-0.09-0.64-0.08
		c-0.05,0.01-0.1,0.01-0.14,0.03c-0.33,0.24-0.62,0.71-0.96,0.96c-0.01,0.05-0.02,0.1-0.03,0.14c-0.01,0.05-0.01,0.1-0.01,0.15
		c0,0.25,0.07,0.49,0.2,0.69C119.12,52.62,119.15,52.66,119.18,52.7"/>
</g>
</svg>
