<?xml version="1.0" encoding="utf-8"?>
<!-- Generator: Adobe Illustrator 26.0.0, SVG Export Plug-In . SVG Version: 6.00 Build 0)  -->
<svg version="1.1" id="Layer_1" xmlns="http://www.w3.org/2000/svg" xmlns:xlink="http://www.w3.org/1999/xlink" x="0px" y="0px"
	 viewBox="0 0 236.04 113.45" style="enable-background:new 0 0 236.04 113.45;" xml:space="preserve">
<style type="text/css">
	.st0{fill-rule:evenodd;clip-rule:evenodd;fill:#B0B0B2;}
	.st1{fill-rule:evenodd;clip-rule:evenodd;fill:#FDFEFF;}
	.st2{fill:#B0B0B2;}
	.st3{fill-rule:evenodd;clip-rule:evenodd;fill:#F7F6F6;}
	.st4{fill:none;}
	.st5{fill-rule:evenodd;clip-rule:evenodd;fill:#939598;}
	.st6{fill-rule:evenodd;clip-rule:evenodd;fill:#FFFFFF;}
</style>
<g>
	<path class="st2" d="M170.81,62.87h-12.93l0.92-3.44h9.33c0.96-3.6-0.57-5.19-5.15-5.19l0.8-3.01c2.26,0,3.81,0.15,4.67,0.49
		c3.17,1.23,4.31,3.8,3.28,7.68L170.81,62.87z M156.79,57.91c-0.36,1.36-1.05,2.49-2.03,3.39c-1.13,1.05-2.45,1.57-3.94,1.57h-3.06
		l0.92-3.44h2.29c1.21,0,2.05-0.85,2.49-2.52l1.51-5.68h3.6L156.79,57.91z M158.86,49.27h-3.21l0.79-2.95h3.21L158.86,49.27z
		 M148.28,62.87h-11.67l0.92-3.44h2.44c1.21,0,2.04-0.82,2.48-2.47l2.83-10.64h3.62l-2.8,10.51c-0.25,0.95-0.63,1.8-1.13,2.6h4.21
		L148.28,62.87z M137.15,62.87h-5.5l0.92-3.44h5.5L137.15,62.87z M132.06,62.87h-5.5l0.92-3.44h5.5L132.06,62.87z M126.97,62.87
		h-5.5l0.91-3.44h5.5L126.97,62.87z M121.89,62.87h-5.5l0.92-3.44h5.5L121.89,62.87z M116.8,62.87h-5.5l0.92-3.44h5.5L116.8,62.87z
		 M111.71,62.87h-5.5l0.92-3.44h5.5L111.71,62.87z M106.62,62.87h-5.5l0.92-3.44h5.5L106.62,62.87z M95.79,59.43l0.66-2.49
		c0.4-1.52-0.23-2.49-1.55-2.49c-1.36,0-2.36,1.05-2.72,2.42c-0.39,1.47,0.19,2.57,1.53,2.57H95.79z M101.82,62.87h-3.39
		c-1.16,2.83-3.49,4.24-6.99,4.24h-0.39l0.77-2.88h0.31c1.39,0,2.35-0.51,2.9-1.52c-0.31,0.1-1.04,0.15-2.25,0.15
		c-3.37,0-5.18-2.44-4.28-5.86c0.92-3.47,3.96-5.81,7.38-5.81c3.29,0,5.05,2.47,4.14,5.88l-0.62,2.34h3.34L101.82,62.87z
		 M74.24,67.13h-3.19l0.79-2.98h3.19L74.24,67.13z M85.65,58.63c-0.71,2.67-2.7,4.24-5.47,4.24h-9.3c-5.68,0-7.87-2.39-6.59-7.2
		l1.19-4.47h3.55l-1.19,4.47c-0.4,1.52-0.19,2.57,0.61,3.11c0.63,0.44,1.76,0.64,3.43,0.64h6.63c1.03,0,1.74-0.08,2.18-0.26
		c0.94-0.36,1.59-1.16,1.91-2.36l1.48-5.58h3.55L85.65,58.63z"/>
</g>
</svg>
