<?xml version="1.0" encoding="utf-8"?>
<!-- Generator: Adobe Illustrator 26.0.0, SVG Export Plug-In . SVG Version: 6.00 Build 0)  -->
<svg version="1.1" id="Layer_1" xmlns="http://www.w3.org/2000/svg" xmlns:xlink="http://www.w3.org/1999/xlink" x="0px" y="0px"
	 viewBox="0 0 236.04 113.45" style="enable-background:new 0 0 236.04 113.45;" xml:space="preserve">
<style type="text/css">
	.st0{fill-rule:evenodd;clip-rule:evenodd;fill:#B0B0B2;}
	.st1{fill-rule:evenodd;clip-rule:evenodd;fill:#FDFEFF;}
	.st2{fill-rule:evenodd;clip-rule:evenodd;fill:#F7F6F6;}
	.st3{fill:none;}
	.st4{fill:#B0B0B2;}
	.st5{fill-rule:evenodd;clip-rule:evenodd;fill:#939598;}
	.st6{fill-rule:evenodd;clip-rule:evenodd;fill:#FFFFFF;}
</style>
<g>
	<path class="st0" d="M117.26,29.44c-0.5,0.06-1.1,0.06-1.62,0.1c-3.32,0.27-6.41,1.18-9.39,2.55c-1.63,0.76-3,1.65-4.27,2.55
		l-2.58,2.11l-1.08,1.09c-0.09,0.1-0.1,0.11-0.22,0.21l-1.38,1.6c-0.49,0.69-0.86,1.1-1.44,1.97c-1.93,2.88-3.31,6.22-4,9.64
		c-0.31,1.55-0.71,4.72-0.55,6.25c0.29,2.69,0.13,3.09,0.85,5.96c0.68,2.72,1.67,4.91,3,7.22c0.21,0.36,0.43,0.72,0.66,1.05
		c0.82,1.23,1.05,1.44,1.82,2.44l0.59,0.69c0.23,0.21,0.25,0.3,0.4,0.45l1.3,1.29c0.07,0.08,0.13,0.13,0.22,0.2
		c0.16,0.13,0.29,0.27,0.45,0.4l0.69,0.59c1.88,1.43,3.29,2.47,5.46,3.49c3.1,1.46,5.89,2.25,9.36,2.58
		c0.94,0.09,2.35,0.21,3.27,0.11c2.69-0.28,3.11-0.14,5.97-0.85c3.89-0.97,7.22-2.74,10.24-5.1l1.16-0.97
		c0.21-0.23,0.3-0.25,0.45-0.4c0.08-0.08,0.11-0.14,0.2-0.22c0.32-0.3,0.58-0.54,0.88-0.87c0.09-0.1,0.1-0.11,0.22-0.21l1-1.13
		c0.06-0.06,0.12-0.16,0.19-0.24l0.93-1.2c0.23-0.32,0.47-0.65,0.7-1c0.61-0.9,1.4-2.27,1.86-3.26c1.45-3.06,2.26-5.92,2.58-9.35
		c0.09-0.96,0.21-2.33,0.12-3.27c-0.26-2.67-0.16-3.18-0.85-5.97c-0.88-3.54-2.59-6.99-4.72-9.77l-0.96-1.18
		c-0.04-0.05-0.04-0.07-0.08-0.11c-0.04-0.05-0.07-0.07-0.11-0.12l-1.69-1.76c-0.1-0.09-0.11-0.1-0.21-0.22l-1.13-1
		c-0.06-0.05-0.16-0.14-0.24-0.19c-0.09-0.07-0.14-0.11-0.24-0.19c-0.92-0.74-1.95-1.48-3.01-2.1c-3.63-2.15-7.26-3.37-11.57-3.78
		C119.6,29.47,118.09,29.33,117.26,29.44 M130.76,39.1c-0.13-0.14-0.38-0.59-0.47-0.78c-0.21,0.09-0.43,0.41-0.86,0.53
		c-0.49,0.13-0.75-0.24-0.94-0.47c0.8-0.04,0.9-0.24,1.49-0.48c-0.12-0.39-0.54-0.74-0.27-1.55c0.08-0.25,0.21-0.47,0.37-0.6
		c0.5-0.4,1.16,0.66,0.68,1.8c-0.07,0.17-0.14,0.18-0.08,0.34c0.04,0.1,0.16,0.24,0.18,0.33C130.91,38.38,130.82,38.96,130.76,39.1
		 M131.22,49.67c-0.74-0.74-1.37-0.95-2.25-0.28c-0.27,0.2-0.64,0.61-0.8,0.91c-0.73,1.33-0.05,2.65,1.29,3.2
		c0.43,0.18,0.91,0.27,1.42,0.27c0.48,0,1.16-0.03,1.41,0.33c0,0.24-0.53,1.38-0.66,1.67c-0.15,0.34-0.27,0.49-0.45,0.71
		c-0.17,0.22-0.41,0.39-0.63,0.56c-1.01,0.78-2.25,1.05-3.75,0.79c-0.09,0.31-0.53,0.87-0.7,1.05c-0.95,1.02-2.81,1.17-3.53-0.04
		c-0.5-0.85-0.38-2.05-0.38-3.08c0-0.56,0.02-1.14,0.04-1.71c0.01-0.2,0.08-1.41,0.05-1.59c-0.02-0.11-0.01-0.05-0.03-0.09
		c-0.1,0.33-0.39,0.84-0.56,1.13c-0.26,0.44-0.46,0.6-0.76,0.9c-0.46,0.45-1.81,1-2.53,1.66c-0.33,0.29-0.96,1.08-0.99,1.52
		c-0.08,1.44,1.18,2.36,2.49,2.54c0.36,0.05,2.05-0.12,1.93,0.5c-0.04,0.21-0.69,1.63-0.77,1.78c-0.24,0.42-0.47,0.61-0.79,0.88
		c-0.29,0.25-0.64,0.49-1.05,0.66c-1.14,0.47-1.61,0.42-2.85,0.29c-0.12,0.19-0.21,0.35-0.32,0.53c-0.11,0.17-0.27,0.37-0.39,0.5
		c-0.91,1-2.75,1.26-3.56-0.07c-0.14,0.19-0.15,0.66-0.21,0.92c-0.07,0.31-0.14,0.59-0.23,0.9c-0.47,1.68-1.49,4.03-2.44,5.42
		l-0.73,0.94c-0.1,0.11-0.2,0.16-0.31,0.27l-0.58,0.54c-1.84,1.44-4.55,2.21-6.75,0.89c-0.14-0.08-0.2-0.13-0.32-0.22l-0.58-0.54
		c-0.07-0.07-0.06-0.07-0.12-0.15c-0.04-0.06-0.09-0.11-0.14-0.17c-0.29-0.38-0.55-0.97-0.72-1.53c-0.56-1.85,0.04-3.84,0.76-5.56
		c0.17-0.41,0.5-1.3,0.69-1.59c-0.24,0.8-0.46,1.12-0.69,2.15c-0.53,2.32,0.14,5,2.26,6.01c2.12,1.01,4.76,0.27,6.46-1.14
		c0.28-0.23,0.52-0.44,0.74-0.69c0.07-0.08,0.09-0.12,0.17-0.18c0.19-0.18,0.34-0.39,0.49-0.59c0.43-0.58,0.75-1.14,0.97-1.86
		c0.72-2.37,0.86-5.22,0.93-7.68c0.07-2.7,0.24-5.37,0.51-8.06c0.07-0.69,0.41-1.19,0.67-1.81c0.02-0.05,0.04-0.1,0.06-0.14
		l0.09-0.12c-0.18,2.01-0.99,10.25-0.29,11.99c0.1,0.27,0.26,0.43,0.43,0.61c0.18,0.2,0.42,0.32,0.69,0.4
		c0.75,0.24,1.13,0.02,1.76-0.16c-0.21-0.25-0.89-0.33-1.08-0.79c-0.15-0.36,0.81-2.25,1.04-2.59c0.08-0.12,0.12-0.15,0.21-0.26
		c0.08-0.1,0.12-0.16,0.21-0.25c0.13-0.13,0.36-0.29,0.59-0.37c-0.07-0.79,0.32-1.42,0.62-2.11c0.27-0.64,0.52-1.27,0.84-1.87
		c0.31-0.59,0.68-1.12,1.17-1.55l0.35-0.31c0.41-0.32,0.84-0.54,1.3-0.79c0.5-0.27,0.8-0.49,1.17-0.85
		c0.08-0.08,0.24-0.28,0.25-0.43c0.09-0.85,0.1-1.74,0.17-2.59c0.08-0.83,0.14-1.65,0.23-2.48c0.06-0.55,0.55-1.49,0.77-1.99
		l-0.06,0.94c-0.03,0.32-0.07,0.66-0.09,0.98c-0.05,0.66-0.12,1.32-0.15,1.97c-0.07,1.37-0.16,2.7-0.19,4.06
		c-0.02,1.05-0.14,3.13,0.23,4.02c0.55,1.33,2.26,1.33,2.88,0.87c-0.11-0.11-0.45-0.23-0.59-0.33c-0.84-0.52-0.49-0.8-0.05-1.81
		c0.28-0.65,0.54-1.27,1.04-1.75c0.17-0.16,0.35-0.22,0.57-0.38c0.01-1.1,0.33-1.17,0.6-2.02c0.36-1.13,0.78-2.19,1.49-3.12
		c0.28-0.37,0.64-0.7,1.05-0.93c0.19-0.11,0.34-0.64,0.44-0.88c0.94-2.29,0.01-5,0.77-7.13c0.2-0.56,0.54-1.42,0.82-1.85
		c-0.08,0.26-0.16,0.39-0.22,0.7c-0.35,1.87,0.22,4.32-0.49,6.25c-0.39,1.06-0.82,1.32-0.25,2.07c0.27,0.36,0.51,0.78,0.7,1.2
		c0.15,0.34,0.02,0.38-0.12,0.7c-0.12,0.27-0.38,1.01-0.57,1.25L131.22,49.67z M122.2,41.96l-0.08-0.24l4.77-1.8l0.08,0.28
		L122.2,41.96z M133.55,51.97c0-0.01-0.01-0.03-0.01-0.03s-0.04,0.01,0.04-0.27c0.03-0.1,0.05-0.2,0.08-0.3
		c0.06-0.23,0.1-0.44,0.14-0.67c0.44-2.37,0.1-5.1,0.45-7.57c0.08-0.59,0.14-0.74,0.36-1.23c0.14-0.32,0.34-0.88,0.51-1.11
		c-0.36,2.74-0.21,3.5-0.32,6.05c-0.04,0.95-0.14,1.88-0.37,2.79c-0.11,0.43-0.22,0.82-0.39,1.19
		C133.9,51.13,133.63,51.68,133.55,51.97 M119.75,42.5c0.34-0.02,0.7,0.18,0.87,0.33c0.21,0.2,0.39,0.37,0.49,0.75
		c0.18,0.76,0.05,1.34-0.67,1.69c-0.31,0.15-0.73,0.18-1.01,0C118.7,44.8,119.33,43,119.75,42.5 M106.82,53.48
		c0.47,0.02,0.75,0.22,1.01,0.47c0.18,0.18,0.29,0.36,0.34,0.62c0.39,1.7-1.12,2.01-1.68,1.68c-0.31-0.19-0.34-0.43-0.32-0.93
		C106.22,54.51,106.43,54.1,106.82,53.48 M112.45,70.12l-0.09-0.27l4.75-1.75l0.1,0.25L112.45,70.12z"/>
	<path class="st5" d="M88.69,58.04c0.14,5.79,2.48,11.87,5.78,16.22c0.26,0.34,0.97,1.29,1.24,1.55l2.69,2.77
		c0.1,0.09,0.16,0.11,0.25,0.21c0.62,0.63,2.59,2.05,3.39,2.58c4.96,3.25,11.1,4.96,17.28,4.68c5.97-0.27,11.71-2.35,16.22-5.78
		c0.17-0.13,0.35-0.25,0.53-0.4c0.18-0.15,0.37-0.28,0.52-0.41l3.27-3.12c0.76-0.86,1.35-1.64,2.05-2.56
		c1.2-1.6,2.43-3.92,3.26-5.89c1.55-3.69,2.36-8.14,2.16-12.48c-0.2-4.37-1.28-8.16-2.99-11.68c-0.44-0.92-1.43-2.64-2.03-3.48
		l-1.16-1.59l-1.69-1.99c-0.14-0.17-0.3-0.29-0.44-0.45c-0.15-0.16-0.31-0.32-0.46-0.47c-0.22-0.21-0.26-0.3-0.44-0.45
		c-0.1-0.08-0.16-0.13-0.25-0.21l-0.49-0.44c-0.62-0.63-2.59-2.05-3.39-2.58c-10.12-6.65-23.89-6.2-33.5,1.1l-1.05,0.81
		c-0.18,0.15-0.34,0.26-0.5,0.43c-0.09,0.09-0.15,0.12-0.25,0.22l-0.46,0.43c-0.09,0.08-0.16,0.14-0.25,0.21l-1.14,1.15
		c-0.14,0.11-0.12,0.08-0.22,0.21c-0.08,0.1-0.13,0.16-0.21,0.25c-0.08,0.1-0.15,0.14-0.23,0.23l-0.85,1.01
		c-0.34,0.39-0.86,1.12-1.19,1.56c-0.26,0.34-0.49,0.7-0.74,1.08c-0.93,1.41-1.79,3.06-2.52,4.81
		C89.15,49.61,88.58,53.63,88.69,58.04 M116.77,28.61c0.89-0.12,2.47,0,3.39,0.07c4.41,0.36,8.32,1.62,12.07,3.78
		c0.74,0.43,1.45,0.9,2.13,1.39c0.61,0.44,1.42,1.02,1.95,1.54l0.93,0.81c0.3,0.26,0.6,0.61,0.88,0.9l1.26,1.37
		c0.31,0.3,0.88,1.1,1.17,1.47c0.94,1.23,2.03,2.94,2.67,4.34c0.36,0.79,0.77,1.59,1.07,2.46c1.17,3.44,1.51,4.89,1.82,8.71
		c0.15,1.86-0.11,4.74-0.5,6.53c-0.93,4.31-2.1,7.13-4.38,10.57l-2.31,2.96c-0.39,0.39-1.43,1.53-1.75,1.78l-0.45,0.41
		c-0.1,0.08-0.13,0.11-0.25,0.21l-0.72,0.6c-1.29,1.07-2.7,2.03-4.17,2.84c-1.19,0.65-2.3,1.19-3.61,1.67
		c-0.85,0.31-1.74,0.61-2.67,0.86c-2.13,0.57-3.89,0.74-6.06,0.96c-1.77,0.17-4.8-0.12-6.52-0.49c-4.4-0.92-8.1-2.47-11.61-5.13
		c-0.5-0.38-1-0.73-1.44-1.16c-0.08-0.08-0.13-0.1-0.25-0.21l-0.68-0.6c-0.15-0.13-0.29-0.3-0.44-0.45c-0.3-0.3-0.62-0.58-0.89-0.9
		c-0.06-0.07-0.13-0.16-0.19-0.23c-0.08-0.08-0.14-0.11-0.22-0.21l-0.41-0.48c-0.28-0.27-0.54-0.66-0.8-0.98l-0.74-1.01
		c-0.52-0.67-0.91-1.43-1.39-2.13c-0.11-0.16-0.2-0.36-0.31-0.55c-1.01-1.71-2.01-4.31-2.53-6.27c-0.56-2.09-0.75-3.93-0.95-6.06
		c-0.34-3.51,0.76-8.76,2.09-11.94c0.56-1.33,1.58-3.44,2.43-4.62c0.14-0.19,0.23-0.34,0.36-0.53c0.31-0.47,0.76-1.11,1.11-1.52
		C96,39.24,96,39.22,96.1,39.11l0.99-1.18c0.4-0.4,1.42-1.53,1.75-1.78c0.08-0.06,0.17-0.11,0.24-0.19l0.68-0.63
		c0.09-0.09,0.16-0.13,0.25-0.21c0.11-0.1,0.13-0.09,0.24-0.19c0.31-0.27,0.63-0.5,0.98-0.76c1.02-0.77,2.07-1.46,3.2-2.07
		c1.18-0.65,2.31-1.19,3.61-1.67c2.32-0.85,4.64-1.42,7.11-1.68C115.67,28.69,116.25,28.68,116.77,28.61"/>
	<path class="st6" d="M116.77,28.61c-0.52,0.07-1.09,0.08-1.62,0.13c-2.48,0.26-4.79,0.84-7.11,1.68c-1.3,0.47-2.42,1.02-3.61,1.67
		c-1.13,0.62-2.18,1.3-3.2,2.07c-0.35,0.26-0.67,0.5-0.98,0.76c-0.11,0.1-0.13,0.09-0.24,0.19c-0.09,0.08-0.16,0.12-0.25,0.21
		l-0.68,0.63c-0.07,0.08-0.16,0.12-0.24,0.19c-0.33,0.25-1.35,1.38-1.75,1.78l-0.99,1.18c-0.1,0.12-0.1,0.14-0.21,0.26
		c-0.36,0.41-0.8,1.05-1.11,1.52c-0.13,0.19-0.22,0.34-0.36,0.53c-0.85,1.19-1.87,3.3-2.43,4.62c-1.33,3.17-2.43,8.43-2.09,11.94
		c0.21,2.13,0.4,3.97,0.95,6.06c0.52,1.96,1.52,4.56,2.53,6.27c0.11,0.19,0.19,0.38,0.31,0.55c0.48,0.7,0.87,1.46,1.39,2.13
		l0.74,1.01c0.26,0.32,0.52,0.7,0.8,0.98l0.41,0.48c0.08,0.09,0.14,0.12,0.22,0.21c0.07,0.07,0.13,0.16,0.19,0.23
		c0.27,0.32,0.59,0.6,0.89,0.9c0.15,0.15,0.29,0.32,0.44,0.45l0.68,0.6c0.12,0.11,0.17,0.14,0.25,0.21
		c0.44,0.43,0.94,0.78,1.44,1.16c3.51,2.66,7.21,4.21,11.61,5.13c1.72,0.36,4.75,0.66,6.52,0.49c2.17-0.21,3.93-0.38,6.06-0.96
		c0.93-0.25,1.82-0.55,2.66-0.86c1.3-0.47,2.42-1.01,3.61-1.67c1.48-0.81,2.89-1.76,4.17-2.84l0.72-0.6
		c0.12-0.1,0.15-0.13,0.25-0.21l0.45-0.41c0.32-0.25,1.35-1.38,1.75-1.78l2.31-2.96c2.29-3.44,3.46-6.25,4.38-10.57
		c0.38-1.79,0.65-4.68,0.5-6.53c-0.31-3.83-0.65-5.27-1.82-8.71c-0.3-0.88-0.7-1.67-1.07-2.46c-0.64-1.4-1.73-3.11-2.67-4.34
		c-0.29-0.37-0.86-1.17-1.17-1.47l-1.26-1.37c-0.28-0.29-0.58-0.64-0.88-0.9l-0.93-0.81c-0.53-0.52-1.34-1.1-1.95-1.54
		c-0.69-0.5-1.39-0.97-2.13-1.39c-3.75-2.15-7.66-3.42-12.07-3.78C119.24,28.6,117.66,28.48,116.77,28.61 M117.26,29.44
		c0.84-0.11,2.35,0.03,3.24,0.11c4.31,0.4,7.94,1.63,11.57,3.78c1.06,0.63,2.09,1.37,3.01,2.1c0.09,0.08,0.15,0.12,0.24,0.19
		c0.07,0.06,0.18,0.14,0.24,0.19l1.13,1c0.1,0.11,0.11,0.13,0.21,0.22l1.69,1.76c0.05,0.05,0.07,0.06,0.11,0.12
		c0.04,0.04,0.04,0.07,0.08,0.11l0.96,1.18c2.14,2.78,3.84,6.22,4.72,9.77c0.69,2.79,0.59,3.3,0.85,5.97
		c0.09,0.94-0.02,2.31-0.12,3.27c-0.32,3.43-1.13,6.3-2.58,9.35c-0.46,0.98-1.25,2.36-1.86,3.26c-0.24,0.36-0.47,0.68-0.7,1
		l-0.93,1.2c-0.07,0.08-0.14,0.17-0.19,0.24l-1,1.13c-0.12,0.1-0.13,0.11-0.22,0.21c-0.29,0.33-0.56,0.57-0.87,0.87
		c-0.09,0.08-0.12,0.14-0.2,0.23c-0.15,0.15-0.24,0.17-0.45,0.4l-1.16,0.97c-3.03,2.36-6.35,4.13-10.24,5.1
		c-2.86,0.71-3.27,0.57-5.97,0.85c-0.92,0.09-2.33-0.02-3.27-0.11c-3.47-0.33-6.26-1.12-9.36-2.58c-2.17-1.02-3.58-2.06-5.46-3.49
		l-0.69-0.59c-0.17-0.13-0.29-0.27-0.45-0.4c-0.09-0.07-0.15-0.12-0.22-0.2l-1.3-1.29c-0.15-0.15-0.17-0.24-0.4-0.45l-0.59-0.69
		c-0.77-1.01-1-1.21-1.82-2.44c-0.22-0.33-0.45-0.69-0.66-1.05c-1.34-2.32-2.33-4.5-3-7.22c-0.71-2.88-0.56-3.27-0.85-5.96
		c-0.16-1.53,0.24-4.7,0.55-6.25c0.69-3.42,2.07-6.76,4-9.64c0.59-0.87,0.95-1.28,1.44-1.97l1.38-1.6c0.12-0.1,0.13-0.11,0.22-0.21
		l1.08-1.09l2.58-2.11c1.27-0.9,2.64-1.8,4.27-2.55c2.98-1.38,6.07-2.28,9.39-2.55C116.15,29.5,116.76,29.5,117.26,29.44"/>
	<path class="st6" d="M131.28,49.6c0.18-0.24,0.45-0.98,0.57-1.25c0.14-0.32,0.27-0.36,0.12-0.7c-0.19-0.42-0.43-0.84-0.7-1.2
		c-0.57-0.75-0.13-1.02,0.25-2.07c0.71-1.94,0.14-4.38,0.49-6.25c0.06-0.31,0.15-0.44,0.22-0.7c-0.28,0.43-0.62,1.28-0.82,1.85
		c-0.76,2.13,0.16,4.85-0.77,7.13c-0.1,0.24-0.25,0.77-0.44,0.88c-0.41,0.23-0.76,0.56-1.05,0.93c-0.72,0.93-1.13,1.99-1.49,3.12
		c-0.27,0.85-0.59,0.92-0.6,2.02c-0.22,0.16-0.4,0.22-0.57,0.38c-0.51,0.47-0.76,1.1-1.04,1.75c-0.44,1.01-0.79,1.28,0.05,1.81
		c0.15,0.09,0.48,0.21,0.59,0.33c-0.62,0.47-2.33,0.46-2.88-0.87c-0.37-0.89-0.25-2.97-0.23-4.02c0.03-1.37,0.12-2.7,0.19-4.06
		c0.03-0.65,0.1-1.31,0.15-1.97c0.02-0.32,0.06-0.66,0.09-0.98l0.06-0.94c-0.22,0.51-0.72,1.44-0.77,1.99
		c-0.09,0.83-0.16,1.65-0.23,2.48c-0.08,0.86-0.09,1.75-0.17,2.6c-0.02,0.15-0.17,0.35-0.25,0.43c-0.37,0.36-0.67,0.58-1.17,0.85
		c-0.46,0.25-0.9,0.47-1.3,0.79l-0.35,0.31c-0.48,0.42-0.86,0.96-1.17,1.55c-0.32,0.6-0.57,1.23-0.84,1.87
		c-0.29,0.69-0.68,1.32-0.62,2.11c-0.23,0.08-0.45,0.24-0.59,0.37c-0.1,0.09-0.13,0.15-0.21,0.25c-0.08,0.11-0.12,0.14-0.21,0.26
		c-0.24,0.34-1.19,2.23-1.04,2.59c0.19,0.46,0.88,0.54,1.08,0.79c-0.63,0.18-1.01,0.4-1.76,0.16c-0.26-0.08-0.5-0.2-0.69-0.4
		c-0.17-0.19-0.33-0.35-0.43-0.62c-0.69-1.75,0.12-9.98,0.29-11.99l-0.09,0.12c-0.02,0.04-0.04,0.09-0.06,0.14
		c-0.25,0.62-0.6,1.12-0.67,1.81c-0.26,2.68-0.43,5.35-0.51,8.06c-0.07,2.46-0.21,5.31-0.93,7.68c-0.22,0.72-0.54,1.28-0.97,1.86
		c-0.15,0.21-0.3,0.42-0.49,0.59c-0.07,0.07-0.1,0.1-0.17,0.18c-0.22,0.26-0.46,0.47-0.74,0.7c-1.7,1.4-4.34,2.15-6.46,1.14
		c-2.12-1.01-2.79-3.7-2.26-6.02c0.23-1.03,0.45-1.34,0.69-2.15c-0.19,0.3-0.52,1.18-0.69,1.59c-0.72,1.72-1.32,3.71-0.76,5.56
		c0.17,0.56,0.43,1.16,0.72,1.53c0.05,0.06,0.09,0.11,0.14,0.17c0.06,0.08,0.05,0.08,0.12,0.15l0.58,0.54
		c0.12,0.1,0.18,0.14,0.32,0.23c2.2,1.32,4.91,0.55,6.76-0.89l0.58-0.54c0.1-0.12,0.21-0.16,0.31-0.27l0.73-0.94
		c0.95-1.39,1.98-3.74,2.44-5.42c0.09-0.31,0.15-0.59,0.23-0.9c0.06-0.26,0.07-0.73,0.21-0.92c0.81,1.33,2.65,1.07,3.56,0.07
		c0.12-0.13,0.28-0.33,0.39-0.5c0.12-0.18,0.2-0.34,0.32-0.53c1.25,0.14,1.72,0.19,2.85-0.29c0.4-0.17,0.76-0.41,1.05-0.66
		c0.31-0.27,0.54-0.46,0.79-0.88c0.09-0.15,0.73-1.58,0.77-1.79c0.12-0.61-1.57-0.45-1.93-0.5c-1.31-0.17-2.57-1.1-2.49-2.54
		c0.02-0.44,0.66-1.23,0.99-1.52c0.72-0.65,2.07-1.21,2.53-1.66c0.3-0.3,0.5-0.46,0.76-0.9c0.17-0.29,0.46-0.8,0.56-1.13
		c0.02,0.04,0.01-0.02,0.03,0.09c0.04,0.18-0.04,1.39-0.05,1.59c-0.02,0.57-0.04,1.15-0.04,1.71c0,1.02-0.12,2.23,0.38,3.08
		c0.71,1.21,2.57,1.05,3.53,0.04c0.17-0.18,0.61-0.74,0.7-1.05c1.5,0.26,2.73,0,3.75-0.79c0.22-0.17,0.46-0.35,0.63-0.57
		c0.18-0.23,0.3-0.37,0.45-0.71c0.13-0.3,0.66-1.43,0.66-1.67c-0.25-0.36-0.93-0.33-1.41-0.33c-0.5,0-0.98-0.09-1.42-0.27
		c-1.34-0.55-2.03-1.87-1.29-3.2c0.17-0.3,0.54-0.7,0.8-0.91c0.88-0.67,1.51-0.46,2.25,0.28L131.28,49.6z M126.04,55.29
		c0.66-0.32,1.34-0.16,1.37,0.66C127,55.85,126.24,55.55,126.04,55.29 M127.64,56.03l0.4-1.04c0.15,0.06,0.31,0.19,0.53,0.29
		c0.81,0.35,1.3,0.28,2.13,0.32l-0.13,0.09c-0.3,0.18-0.91,0.34-1.24,0.39C128.67,56.19,128.27,56.08,127.64,56.03 M115.59,61.68
		c0.43-0.32,1.36-0.25,1.36,0.65c-0.21-0.02-1.07-0.38-1.28-0.56C115.6,61.7,115.64,61.76,115.59,61.68 M117.19,62.38
		c0.08-0.33,0.3-0.66,0.37-1.02c0.25,0.09,0.42,0.34,1.16,0.5c0.52,0.11,0.99,0.1,1.51,0.11C120.11,62.27,117.91,62.78,117.19,62.38
		"/>
	<path class="st6" d="M133.55,51.98c0.08-0.3,0.35-0.85,0.49-1.15c0.18-0.38,0.29-0.76,0.39-1.19c0.23-0.91,0.32-1.85,0.37-2.79
		c0.12-2.55-0.03-3.31,0.32-6.05c-0.17,0.23-0.37,0.79-0.51,1.11c-0.22,0.49-0.28,0.64-0.36,1.23c-0.35,2.47-0.01,5.2-0.45,7.57
		c-0.04,0.23-0.09,0.45-0.14,0.67c-0.03,0.1-0.05,0.21-0.08,0.31c-0.08,0.27-0.04,0.27-0.04,0.27
		C133.55,51.94,133.55,51.97,133.55,51.98"/>
	<path class="st6" d="M106.82,53.48c-0.39,0.62-0.61,1.03-0.64,1.85c-0.02,0.5,0,0.74,0.32,0.93c0.56,0.33,2.06,0.02,1.68-1.68
		c-0.06-0.26-0.16-0.44-0.34-0.62C107.58,53.7,107.29,53.5,106.82,53.48 M106.5,55.4c-0.02-0.38,0.09-0.83,0.35-1.04
		c0.51,0.04,0.89,0.34,1,0.74c-0.2,0.21-0.2,0.29-0.55,0.41C106.96,55.62,106.75,55.54,106.5,55.4"/>
	<path class="st6" d="M119.75,42.5c-0.43,0.5-1.05,2.3-0.33,2.77c0.28,0.18,0.7,0.15,1.01,0c0.73-0.35,0.86-0.93,0.67-1.69
		c-0.09-0.38-0.27-0.55-0.49-0.75C120.45,42.67,120.1,42.48,119.75,42.5 M120.78,44.09c-0.17,0.25-0.35,0.44-0.79,0.48
		c-0.16,0.01-0.43-0.03-0.51-0.13c-0.11-0.13-0.03-0.39,0.01-0.54c0.1-0.4,0.21-0.62,0.67-0.45
		C120.48,43.58,120.63,43.78,120.78,44.09"/>
	<path class="st6" d="M130.76,39.1c0.06-0.14,0.15-0.72,0.1-0.89c-0.03-0.09-0.15-0.23-0.18-0.33c-0.06-0.16,0.01-0.18,0.08-0.34
		c0.48-1.14-0.18-2.21-0.68-1.8c-0.16,0.13-0.28,0.35-0.36,0.6c-0.27,0.81,0.15,1.16,0.27,1.56c-0.59,0.24-0.69,0.44-1.49,0.48
		c0.19,0.23,0.45,0.6,0.94,0.47c0.42-0.12,0.65-0.44,0.86-0.53C130.38,38.51,130.63,38.95,130.76,39.1 M130.42,37.38
		c-0.1-0.08-0.63-0.92-0.34-1.06c0.14-0.07,0.28,0.26,0.33,0.41C130.49,36.96,130.48,37.15,130.42,37.38"/>
	<path class="st5" d="M117.19,62.38c0.72,0.4,2.91-0.11,3.04-0.4c-0.53-0.01-1,0-1.51-0.11c-0.74-0.17-0.91-0.41-1.16-0.5
		C117.49,61.72,117.27,62.05,117.19,62.38"/>
	<path class="st5" d="M127.64,56.03c0.62,0.05,1.03,0.16,1.69,0.05c0.33-0.06,0.94-0.22,1.24-0.39l0.13-0.09
		c-0.83-0.04-1.33,0.03-2.13-0.32c-0.21-0.09-0.37-0.22-0.53-0.29L127.64,56.03z"/>
	<polygon class="st6" points="117.21,68.34 117.11,68.1 112.36,69.85 112.45,70.12 	"/>
	<polygon class="st6" points="126.97,40.21 126.89,39.93 122.12,41.72 122.2,41.96 	"/>
	<path class="st5" d="M120.78,44.09c-0.15-0.31-0.3-0.51-0.62-0.64c-0.46-0.18-0.56,0.05-0.67,0.45c-0.04,0.15-0.12,0.41-0.01,0.54
		c0.08,0.1,0.35,0.14,0.51,0.13C120.43,44.53,120.61,44.34,120.78,44.09"/>
	<path class="st5" d="M106.5,55.4c0.25,0.14,0.46,0.21,0.8,0.1c0.35-0.11,0.35-0.2,0.55-0.41c-0.11-0.39-0.49-0.69-1-0.74
		C106.6,54.58,106.48,55.02,106.5,55.4"/>
	<path class="st5" d="M115.59,61.68c0.05,0.07,0,0.02,0.08,0.09c0.21,0.18,1.07,0.54,1.28,0.56
		C116.95,61.43,116.03,61.36,115.59,61.68"/>
	<path class="st5" d="M126.04,55.29c0.2,0.26,0.96,0.56,1.37,0.66C127.38,55.14,126.7,54.97,126.04,55.29"/>
	<path class="st5" d="M130.42,37.38c0.07-0.23,0.07-0.42,0-0.65c-0.05-0.15-0.19-0.48-0.33-0.41
		C129.79,36.46,130.32,37.3,130.42,37.38"/>
</g>
</svg>
