<?xml version="1.0" encoding="utf-8"?>
<!-- Generator: Adobe Illustrator 26.0.0, SVG Export Plug-In . SVG Version: 6.00 Build 0)  -->
<svg version="1.1" id="Layer_1" xmlns="http://www.w3.org/2000/svg" xmlns:xlink="http://www.w3.org/1999/xlink" x="0px" y="0px"
	 viewBox="0 0 236.04 113.45" style="enable-background:new 0 0 236.04 113.45;" xml:space="preserve">
<style type="text/css">
	.st0{fill-rule:evenodd;clip-rule:evenodd;fill:#B0B0B2;}
	.st1{fill-rule:evenodd;clip-rule:evenodd;fill:#FDFEFF;}
	.st2{fill-rule:evenodd;clip-rule:evenodd;fill:#F7F6F6;}
	.st3{fill:none;}
	.st4{fill:#B0B0B2;}
</style>
<g>
	<path class="st3" d="M106.04,50.92c-1.75,0-1.6,1.3-1.6,2.33c0,1.37,1.84,1.23,2.83,1.23C107.27,53.24,107.57,50.92,106.04,50.92z"
		/>
	<path class="st3" d="M149.92,50.92c-0.97,0-1.57,1.05-1.42,2.02c0.26,1.7,1.4,1.54,2.89,1.54
		C151.39,52.68,151.69,50.92,149.92,50.92z"/>
	<path class="st3" d="M124.48,64.32c0,1.83,1.72,1.41,1.72,0.25C126.2,62.49,124.48,63.09,124.48,64.32z"/>
	<path class="st3" d="M145.37,63.09c-0.45,0-0.7,0.28-0.74,0.74h1.35C145.95,63.43,145.77,63.09,145.37,63.09z"/>
	<path class="st3" d="M162.95,63.09c-0.51,0-0.56,0.41-0.74,0.74h1.35C163.55,63.32,163.43,63.09,162.95,63.09z"/>
	<path class="st3" d="M169.46,50.92c-1.58,0-1.47,1.37-1.47,2.21c0,1.38,1.75,1.35,2.7,1.35C170.69,51.05,171.06,50.92,169.46,50.92
		z"/>
	<path class="st4" d="M125.21,55.1c0.38,0.25,0.74,0.86,1.84,0.86c3.59,0,2.84,0.22,2.99-1.07c0.34-2.95-0.25-4.3-0.28-5.82
		c-0.64,0-1.26,0.2-1.84,0.25c0.01,0.58,0.19,1.11,0.24,1.72l0.13,2.33c0,0.62-0.11,0.55-0.12,1.11c-2.19,0-1.84-0.59-1.84-4.67
		c-1.95,0-1.75-0.17-1.72,1.1c0.01,0.6,0.05,2.53-0.09,2.98c-0.34,1.11-1.75,0.83-1.75-0.28v-3.2h-1.97c0,4.35,0.4,4.06-2.46,4.06
		v-4.92h-1.84v4.92h-2.83v-4.92h-1.84v4.92h-2.7c0-1.61,0.22-3.08-0.76-4.15c-1.27-1.37-4.3-1.27-5.39,0.83
		c-0.65,1.25-0.13,3.32-1.22,3.32h-1.47v-7.99h-1.84v9.46c1.9,0,4.43,0.39,4.79-0.98c0.72,0.48,0.95,0.98,2.58,0.98h14.01
		c0.73,0,1.09-0.27,1.53-0.68c0.22-0.21-0.02-0.03,0.19-0.18C121.81,56.16,124.17,56.66,125.21,55.1z M107.27,54.48
		c-0.99,0-2.83,0.14-2.83-1.23c0-1.03-0.15-2.33,1.6-2.33C107.57,50.92,107.27,53.24,107.27,54.48z"/>
	<path class="st4" d="M171.48,49.64c-1.43-0.31-3.47-0.39-4.51,0.75c-0.44,0.48-0.95,1.52-0.95,2.37c0,0.96,0.38,1.8,0.89,2.31
		c1.01,1.01,2.42,0.89,3.79,0.89c-0.05,2.33-2.87,1.96-4.43,1.6c0,1.74-0.74,1.72,2.58,1.72c1.08,0,2.18-0.51,2.74-1.07
		c0.68-0.68,0.95-1.69,0.95-2.99v-5C172.43,49.75,172.15,49.79,171.48,49.64z M170.69,54.48c-0.96,0-2.7,0.02-2.7-1.35
		c0-0.84-0.11-2.21,1.47-2.21C171.06,50.92,170.69,51.05,170.69,54.48z"/>
	<path class="st4" d="M153.24,55.96c0-1.83,0.3-4.42-0.7-5.56c-1.67-1.91-5.93-0.99-5.93,2.37
		C146.6,56.55,150.34,55.96,153.24,55.96z M148.5,52.94c-0.15-0.97,0.45-2.02,1.42-2.02c1.77,0,1.47,1.76,1.47,3.56
		C149.9,54.48,148.77,54.64,148.5,52.94z"/>
	<path class="st4" d="M137.87,46.49h-1.84v7.99h-3.81c-0.48,0-0.37,0.32-0.37,1.11c0,0.28,0.08,0.37,0.37,0.37h5.65V46.49z"/>
	<path class="st4" d="M97.93,60.87h-1.35l-1.23,3.69c-0.13-0.58-0.34-1.2-0.54-1.8c-0.18-0.53-0.52-1.37-0.57-1.89h-1.35l-0.84,5.2
		c0,0.33-0.01,0.45,0.35,0.45c1.01,0,0.78,0.2,0.98-1.6c0.07-0.59,0.2-1.29,0.25-1.84l0.32,0.91c0.72,2.23,0.54,2.53,1.64,2.53
		c0.44,0,0.63-1.01,0.83-1.75l0.64-1.94c0,0.35,0.23,3.69,0.86,3.69c1.17,0,0.86,0.07,0.46-2.67
		C98.27,63.07,97.95,61.73,97.93,60.87z"/>
	<path class="st4" d="M93.5,59.28c2.25,0,2.95-1.67,2.95-3.69v-5.65c0-0.52-0.47-0.37-1.6-0.37c-0.58,0-0.37,0.95-0.37,1.97
		c0,0.92,0.17,5.19-0.16,5.74c-0.13,0.21-0.42,0.53-0.7,0.53c-0.98,0-0.78,0.07-1.6-0.12C92.03,59.34,91.23,59.28,93.5,59.28z"/>
	<path class="st4" d="M163.91,58.39c0.49-0.49,0.76-1.13,0.76-2.06v-6.76h-1.84v6.76c0,1.69-1.3,1.62-2.46,1.35
		c-0.47,2.01,0.08,1.6,1.6,1.6C162.86,59.28,163.44,58.86,163.91,58.39z"/>
	<path class="st4" d="M156.93,55.96v-6.39h-1.84v6.39c0,1.87-0.78,1.92-1.97,1.82c-0.48-0.04-0.58-0.4-0.73,1.37
		C154.83,59.72,156.93,58.8,156.93,55.96z"/>
	<path class="st4" d="M141.56,55.96c0.28,0,0.37-0.09,0.37-0.37v-8.73c0-0.52-0.47-0.37-1.6-0.37c-0.28,0-0.37,0.08-0.37,0.37v8.73
		C139.96,56.11,140.44,55.96,141.56,55.96z"/>
	<path class="st4" d="M119.44,64.69c-0.32-0.23-0.36-0.64-0.51-1.09c-0.12-0.36-0.32-0.8-0.35-1.24c-2.31,0-1.36-0.45-2.58,0.37
		v-0.37h-1.11v3.81c0,0.48,0.31,0.37,1.11,0.37c0-0.83-0.11-2.23,0.24-2.84c0.22-0.38,0.3-0.36,0.87-0.36l0.13-0.61
		c0.11-0.31,0.03-0.12,0.12-0.25c0.06,0.67,1.35,3.57,1.35,3.93c0,1.13-0.72,1.16-1.48,0.98c0,0.93-0.18,1.11,0.61,1.11
		c1.47,0,1.81-1.53,2.2-2.6c0.22-0.62,0.44-1.14,0.67-1.78c0.21-0.59,0.44-1.29,0.69-1.77h-1.23
		C119.95,62.81,119.45,64.17,119.44,64.69z"/>
	<rect x="158.89" y="46.49" class="st4" width="1.84" height="9.46"/>
	<path class="st4" d="M159.35,62.25c-0.81-0.15-1.15,0.31-1.57,0.6c-0.68-0.45-0.84-1.13-2.33-0.12v-0.37h-1.11v4.18
		c1.47,0,1.11-0.03,1.1-1.6c-0.01-1.01,0.13-1.69,1.11-1.72c0.38,0.79,0.25,2.16,0.25,3.32c1.2,0,1.13,0.15,1.11-1.1
		c-0.01-0.76-0.08-1.5,0.29-1.93c0.2-0.23,0.97-0.85,0.95,0.69c-0.01,0.39-0.1,1.92,0.05,2.16c0.12,0.2,0.59,0.28,0.9,0.17
		c0.38-0.14,0.29-0.26,0.29-0.84C160.36,64.37,160.71,62.5,159.35,62.25z"/>
	<path class="st4" d="M134.8,53.62c0.43,0,0.34-0.2,0.24-0.58c-0.59-2.19-1.32-4.47-1.84-6.67c-0.53,0.04-1.3,0.23-1.84,0.25
		l1.49,5.39C133.39,53.85,132.79,53.62,134.8,53.62z"/>
	<path class="st4" d="M136.03,62.72v-0.37h-1.11v3.81c0,0.45,0.26,0.37,0.86,0.37c1.01,0-0.45-3.32,1.23-3.32
		c1.01,0-0.27,3.32,0.74,3.32c1.09,0,0.86,0.3,0.86-2.58C138.61,61.73,137.21,62.1,136.03,62.72z"/>
	<path class="st4" d="M102.72,62.72v-0.37h-1.11v3.81c0,0.45,0.26,0.37,0.86,0.37c1.01,0-0.45-3.32,1.23-3.32
		c1.01,0-0.27,3.32,0.74,3.32c1.09,0,0.86,0.3,0.86-2.58C105.3,61.73,103.9,62.1,102.72,62.72z"/>
	<path class="st4" d="M125.46,62.23c-2.65,0-2.97,4.3-0.37,4.3C128.18,66.53,128.04,62.23,125.46,62.23z M124.48,64.32
		c0-1.23,1.72-1.83,1.72,0.25C126.2,65.73,124.48,66.15,124.48,64.32z"/>
	<path class="st4" d="M143.41,64.32c0,2.72,2.02,2.33,3.56,1.97c-0.01-0.54-0.08-0.38-0.12-0.86c-0.92,0.21-2.18,0.61-2.21-0.74
		c2.68,0,2.46,0.2,2.46-0.74C147.09,61.51,143.41,61.68,143.41,64.32z M144.63,63.82c0.04-0.46,0.29-0.74,0.74-0.74
		c0.4,0,0.58,0.34,0.61,0.74H144.63z"/>
	<path class="st4" d="M167.99,62.23c-0.66,0-0.96,0.23-1.35,0.49v-0.37h-1.11v3.81c0,0.48,0.32,0.37,1.11,0.37
		c0-0.72-0.23-3.32,0.86-3.32c1.21,0-0.17,3.32,0.86,3.32h0.74C169.1,64.48,169.53,62.23,167.99,62.23z"/>
	<path class="st4" d="M161.11,64.19c0,0.83-0.09,1.22,0.45,1.76c0.8,0.8,2.26,0.68,2.99,0.33v-0.86c-0.49,0.04-2.21,0.84-2.33-0.74
		c0.49,0,0.99,0,1.48,0c0.55,0.01,1.1,0.15,1.1-0.37C164.79,61.3,161.11,61.77,161.11,64.19z M162.21,63.82
		c0.17-0.33,0.23-0.74,0.74-0.74c0.48,0,0.6,0.23,0.61,0.74H162.21z"/>
	<path class="st4" d="M129.88,60.38c-1.23,0-1.6,0.73-1.6,1.97h-0.74v0.86h0.74v2.95c0,0.55,1.23,0.55,1.23,0v-2.95h0.86v-0.86
		h-0.86c0-1.12-0.14-0.98,1.11-0.98C130.62,60.23,130.98,60.38,129.88,60.38z"/>
	<path class="st4" d="M171.55,60.87c-0.48,0-1.23,0.03-1.23,0.49v0.98h-0.74v0.86h0.74c0,2.48-0.43,3.81,2.21,3.2v-0.86h-0.98v-2.34
		h0.98v-0.86h-0.98V60.87z"/>
	<path class="st4" d="M152.62,63.21h0.98v-0.86h-0.98v-1.48c-0.64,0-0.73,0.13-1.23,0.25v1.23h-0.61v0.86h0.61
		c0,3.2-0.16,3.32,1.84,3.32c0.47,0,0.37-0.29,0.37-0.98C152.38,65.55,152.62,65.85,152.62,63.21z"/>
	<path class="st4" d="M141.19,64.81l-0.44-1.15c-0.15-0.45-0.38-0.89-0.41-1.31h-1.23l1.47,4.18h1.11c0.2-0.85,1.41-3.44,1.47-4.18
		h-1.11C141.78,62.86,141.34,64.17,141.19,64.81z"/>
	<path class="st4" d="M113.17,63.21h0.98v-0.86h-0.98v-1.48c-0.64,0-0.74,0.13-1.23,0.25v1.23h-0.61v0.86h0.74
		c0,3.07-0.36,3.32,1.72,3.32c0.46,0,0.37-0.29,0.37-0.98C112.93,65.55,113.17,65.85,113.17,63.21z"/>
	<path class="st4" d="M110.39,64.15c-0.52-0.28-0.87-0.24-1.03-0.82c0.85-0.45,0.46-0.14,1.35-0.12c0-0.84,0.14-0.71-0.02-0.86
		c-0.3-0.29-2.43-0.21-2.43,1.11c0,1.75,1.34,0.89,1.6,1.84c-0.48,0.65-0.78,0.25-1.6,0.25c0,1.12-0.14,0.98,1.11,0.98
		C110.91,66.53,111.77,64.9,110.39,64.15z"/>
	<path class="st4" d="M149.84,64.15c-0.54-0.29-0.88-0.13-1.03-0.69c0.43-0.59,0.58-0.25,1.35-0.25c0-1.08,0.1-0.98-0.86-0.98
		c-1.55,0-2.36,1.76-0.95,2.42c0.61,0.28,0.78,0.07,0.95,0.77c-0.67,0.35-0.51,0.26-1.6,0.1c-0.01,1.15-0.14,1,1.1,1
		C150.48,66.53,151.1,64.81,149.84,64.15z"/>
	<path class="st4" d="M132.71,61.24v4.92c0,0.55,1.23,0.55,1.23,0v-5.29C133.06,60.87,132.71,60.75,132.71,61.24z"/>
	<path class="st4" d="M99.52,66.53h0.74c0.28,0,0.37-0.09,0.37-0.37v-3.81h-1.11V66.53z"/>
	<path class="st4" d="M106.28,66.16c0,0.28,0.09,0.37,0.37,0.37h0.74v-4.18h-1.11V66.16z"/>
	<path class="st4" d="M164.52,47.01c-0.49-0.64-1.7-0.45-1.7,0.59C162.83,49.41,165.57,48.37,164.52,47.01z"/>
	<path class="st4" d="M113.54,48.71c0.58,0,0.98-0.5,0.98-0.98c0-0.68-0.96-1.34-1.64-0.65C112.25,47.7,112.82,48.71,113.54,48.71z"
		/>
	<path class="st4" d="M116.98,47.72c0-1.37-1.84-1.13-1.84,0C115.13,49.02,116.98,49.05,116.98,47.72z"/>
	<path class="st4" d="M148.94,48.71c1.17,0,1.29-1.92,0-1.92C147.64,46.79,147.77,48.71,148.94,48.71z"/>
	<path class="st4" d="M119.19,47.72c0-1.36-1.84-1.06-1.84-0.12C117.35,49.16,119.19,48.96,119.19,47.72z"/>
	<path class="st4" d="M152.01,47.97c0-0.61-0.1-1.27-0.95-1.18c-0.44,0.05-0.89,0.51-0.89,0.93
		C150.17,48.98,152.01,48.91,152.01,47.97z"/>
	<path class="st4" d="M112.31,47.72c0-1.06-1.84-1.42-1.84,0C110.46,49.12,112.31,48.92,112.31,47.72z"/>
	<path class="st4" d="M113.29,45.76c0-0.88-1.72-1.03-1.72,0.12C111.57,47.04,113.29,47.29,113.29,45.76z"/>
	<path class="st4" d="M106.16,60.87l0.12,0.86c0.61,0.29,0.7,0.23,1.23-0.12v-0.74C106.77,60.38,106.89,60.39,106.16,60.87z"/>
	<path class="st4" d="M99.4,60.87c0,0.96,0.02,0.98,0.98,0.98c0.17-0.25,0.63-0.5,0.2-1.06C100.19,60.26,99.78,60.62,99.4,60.87z"/>
	<path class="st4" d="M63.5,68.98h22.35V44.47H63.5V68.98z M72.55,48.22c-0.39-0.58-0.87-0.39-1.56-0.33
		c0.25-0.37,1.07-0.77,1.74-0.63c0.68,0.14,1.04,0.55,1.5,0.86c-0.01-0.52-0.04-0.67-0.45-0.78c0.23-0.31,0.16-0.3,0.56-0.11
		c-0.09-0.33-0.05-0.18-0.22-0.45c0.8,0.07,0.12,0.42,1.12-0.11c-0.11,0.41-0.11,0.14-0.22,0.56c0.24-0.11,0.1-0.08,0.45-0.11
		c-0.17,0.64-0.33,0.06-0.33,1c0.31-0.21,1.64-1.49,2.88-0.54c0.18,0.14,0.15,0.07,0.24,0.32c-0.64-0.15-1.21-0.15-1.56,0.33
		c1.45,0,2.29,0.5,2.79,1.45c-0.66-0.16-1.18-0.45-2.01-0.45l0.41,0.26c0.3,0.17,0.14,0.04,0.4,0.27c0.84,0.73,1.09,1.4,1.09,2.71
		c-0.4-0.3-0.8-1.79-2.23-2.12c0.7,1.04,1.39,2.04,1,3.68c-0.19-0.3-0.53-2.36-1.9-2.68c0.05,0.22,0.87,2.21,0.22,3.24
		c-0.19-0.82-0.52-1.83-1.12-2.23c-0.06,0.67-0.42,1.47-0.14,2.27c0.08,0.24,0.14-0.16,0.14,0.51c0,0.29-0.04,0.31-0.1,0.58
		c-0.29,1.48,0.21,0.2-0.04,2.09c-0.09,0.67-0.08,0.31,0.03,0.77c0.01,0.02,0.02,0.05,0.02,0.07c0.09,0.44-0.14,1.64-0.14,2.41
		c0.65,0.43,0.66,0.24,0.78,0.67h-2.45c0.13-0.49,0.36-0.45,0.78-0.67c0-0.56-0.07-1.17-0.15-1.76c-0.13-1.01,0.04-0.42,0.07-0.98
		c0-0.01-0.02-0.37-0.02-0.38c-0.06-0.73-0.21-0.7-0.05-1.26c0.14-0.47,0.1-0.21-0.02-1.02l-0.16-0.73
		c0.13-0.33-0.25-0.17,0.33-0.22c0-1.52-0.21-1.66-0.22-2.34h-0.22c-0.08,0.3-0.41,0.81-0.56,1.11c-0.11,0.22-0.14,0.28-0.23,0.55
		c-0.17,0.49-0.11,0.7-0.17,0.49c0-0.02-0.02,0.05-0.04,0.08c-0.26-3.08-0.07-1.63,0.33-3.35c-1.71,0.9-1.46,2.16-2.01,2.79
		c0-3.04,0.64-2.64,0.89-3.57c-0.55,0.13-0.87,0.42-1.2,0.81c-0.16,0.19-0.27,0.37-0.41,0.59l-0.4,0.6c0-0.97,0.06-1.5,0.49-2.08
		c0.15-0.2,0.41-0.46,0.6-0.63c0.2-0.18,0.18-0.14,0.38-0.29l0.25-0.19c0.01-0.03,0.04-0.03,0.06-0.05c-0.79,0-1.25,0.3-1.9,0.45
		C70.12,48.77,71.38,48.22,72.55,48.22z M65.08,60.72c0.42-0.58,1.53-0.68,2.57-0.67c1.1,0,1.79,0.3,2.63,0.6
		c1.52,0.55,3.07,1.38,4.28,2.19c0.29-0.07,3.15-1.72,4.48-2.22c1.24-0.46,4.42-1.16,5.34,0.21c-1.78-0.41-3.57,0-4.91,0.67
		c-0.61,0.3-3.51,1.74-3.79,2.12c0.43,0.1,1.41,0.85,2.12,1.23c0.33-0.49,1.33-1.33,1.91-0.55l-0.13,0.44
		c-0.44,0-0.45-0.04-0.78-0.11c-0.08,0.34-0.17,0.43-0.33,0.67c0.38,0.09,0.59,0.23,0.93,0.41c0.65,0.34,0.31,0.2,0.97,0.14
		c-0.12,1.46-1.92,0.56-2.57,0.22c-0.5,0.75-0.65,0.46-1.29,0.62c-0.99,0.24-0.93-0.25-0.74-0.52c0.1-0.13,0.25-0.16,0.33-0.15
		c0.46,0.1,0.17,0.05,0.28,0.3l0.64-0.7c-0.3-0.2-2.16-1.4-2.34-1.4c-0.38,0-1.74,1.13-2.34,1.29c0.11,0.42,0.21,0.32,0.45,0.67
		c0.46-0.11,0.72-0.43,0.89,0.22c-0.18,0.66-0.59,0.3-1.12,0.23c-0.74-0.09-0.75-0.04-1.11-0.57c-0.82,0.43-2.24,1.18-2.57-0.22
		c0.75,0.02,0.36,0.26,0.98-0.13c0.3-0.19,0.54-0.35,0.91-0.43c-0.11-0.42-0.22-0.28-0.34-0.78c-0.14,0.14-0.12,0.25-0.45,0.22
		c-0.57-0.05-0.4-0.77,0.22-0.77c0.52,0,1.1,0.64,1.46,0.88c0.62-0.54,1.64-0.99,1.9-1.34c-0.56-0.38-1.2-0.71-1.86-1.04
		c-0.71-0.35-1.14-0.66-1.92-0.98c-0.7-0.28-1.27-0.55-2.18-0.72C65.72,60.41,66.17,60.72,65.08,60.72l-0.02,0.13l-0.09-0.13H65.08z
		"/>
	<polygon class="st4" points="65.08,60.72 64.97,60.72 65.06,60.84 	"/>
</g>
</svg>
