<?xml version="1.0" encoding="utf-8"?>
<!-- Generator: Adobe Illustrator 26.0.0, SVG Export Plug-In . SVG Version: 6.00 Build 0)  -->
<svg version="1.1" id="Layer_1" xmlns="http://www.w3.org/2000/svg" xmlns:xlink="http://www.w3.org/1999/xlink" x="0px" y="0px"
	 viewBox="0 0 236.04 113.45" style="enable-background:new 0 0 236.04 113.45;" xml:space="preserve">
<style type="text/css">
	.st0{fill-rule:evenodd;clip-rule:evenodd;fill:#B0B0B2;}
	.st1{fill-rule:evenodd;clip-rule:evenodd;fill:#FDFEFF;}
	.st2{fill-rule:evenodd;clip-rule:evenodd;fill:#F7F6F6;}
	.st3{fill:#B0B0B2;}
</style>
<g>
	<path class="st0" d="M122.33,52.62c-0.77-0.34,0.19-0.28-0.21-1.63l-1.59-0.48c-0.91,1.25-1.56,3.12-2.1,4.68
		c-0.66,1.89-1.67,3.9,0.02,5.04c0.77-0.97,2.83-6.83,5.64-7.92c0.87,1.22-0.33,0.74,1.33,1.24c0.05-0.14,0.58-1.36,0.61-1.49
		C126.73,49.02,123.09,50.96,122.33,52.62 M132.33,57.65c-1.35,0.22-2.03,1.48-3.24,1.49c-3.06,0.04-0.18-7.11,3.6-7.53
		c0.55,0.98-0.41,1.45,1.05,1.69c1.4-4.38-5.81-3.73-7.62,1.58C123.68,62.02,131.69,60.98,132.33,57.65 M141.37,55.81
		c0.34-1.01,0.68-2.98-0.19-3.77c-0.17-0.15-2.34-1.19-2.8-1.17c-2,0.08-3.5,2.46-4.12,4.44C132.28,61.63,139.27,62.08,141.37,55.81
		 M140.06,52.3c0.36,1.94,0.03,3.57-0.83,5.01C135.15,64.12,134.28,54.1,140.06,52.3 M110.7,59.16c-0.11-3.71,2.41-6.35,4.68-7.54
		c-2.96-3.67-9.02,4.49-5.35,8.64c1.92,0.06,2.45-0.74,3.21-1.94c0.37,1.49,0,1.07,1.06,1.96c0.63-0.58,0.72-1.39,0.99-2.29
		c0.92-2.99,2.21-5.05,2.8-6.87c-0.51-0.25-0.96-0.5-1.7-0.63c-0.66,1.51-1.61,3.13-2.42,4.68C113.14,56.75,112.57,58.9,110.7,59.16
		 M149.8,56.14c0.4-1.81,0.95-2.36,1.67-3.83c0.97-1.98-0.43-2.46-2.01-1.41c-1.18,0.78-3.82,4.12-4.79,5.44
		c0.58-1.73,1.97-3.64,2.25-5.11c-0.67-0.4-0.78-0.62-1.77-0.74c-0.87,1.16-1.61,3.16-2.12,4.68c-0.74,2.16-1.32,3.11-0.3,5.07
		c1.03-0.36,0.16,0.32,1.06-0.77c0.92-1.13,3.54-5.89,5.53-6.95c-0.91,2.16-2.82,5.33-1.6,7.77c1.27-0.15,0.62,0.2,1.38-0.83
		c0.25-0.34,0.36-0.61,0.67-1.1c1.33-2.09,2.76-4.39,4.44-5.97c-0.84,2.31-2.75,5.02-1.77,7.64c0.86,0.25,1.26,0.45,2.21-0.01
		c0.27-1.08,0.26,0.19-0.81-0.93c0.13-2.8,3.14-7.07,2.64-8.34c-0.56-0.66-1.57-0.2-2.39,0.35c-0.89,0.6-4.05,5-4.11,4.88
		C149.95,55.92,149.86,56.09,149.8,56.14 M100.5,55.03c0.09-2.15,4.76-11.58,5.16-13.81l-1.47-0.49c-0.38,0.4-5.29,8.27-8.27,11.26
		c-2.53,2.53-7.17,7.07-12.5,7.15l-0.45-0.84c-0.03-0.06-0.06-0.14-0.09-0.2c-0.56-1.06-1.52-1.58-2.63-1.08
		c-2.53,1.14,1.47,5.62,9.77,0.94c2.74-1.55,3.92-3.03,5.82-4.86c2.46-2.37,2.81-3.2,4.47-5.04l0.75-0.71
		c-0.85,3.03-4.8,9.46-3.55,12.34c1.11-0.42,1.2-0.8,1.81-1.64l4.19-5.6c1.78-2.38,3.75-5.31,5.68-7.27
		c-1.17,3.01-6.12,11.38-5.31,14.51l1.33,0.53c1.24-3.28,2.36-6.5,3.81-9.7c0.96-2.11,3.9-7.52,4.29-9.16
		c-0.4-0.28-0.76-0.52-1.39-0.74c-1.1,0.65-4.85,5.81-5.9,7.21L100.5,55.03z"/>
	<path class="st0" d="M134.99,67.73h-0.58v5.1h0.58V67.73z M90.21,72.73c0.66-0.19,0.68-0.12,1.16-1.48l2.75,0
		c0.39,1.06,0.19,1.1,1.24,1.52l-2.54-4.98C91.94,68.41,90.69,71.44,90.21,72.73 M92.79,68.59l0.92,2.29l-2.05-0.05L92.79,68.59z
		 M111.78,72.79c0.95-0.42,0.78-0.54,1.14-1.55l2.76,0c0.43,1.31,0.33,1.2,1.16,1.53c-0.39-1.16-1.78-4.52-2.74-5.05L111.78,72.79z
		 M114.43,68.55l0.9,2.32l-2.13-0.07L114.43,68.55z M140.78,72.77c1.51-0.73,0.17-0.77,1.59-1.53c2.38-0.6,2.65,0.93,2.65,0.93
		c0.41,0.59-0.04,0.42,0.8,0.5c-0.65-1.48-1.37-3.97-2.67-4.93L140.78,72.77z M143.37,68.64l0.97,2.21l-2.09-0.02L143.37,68.64z
		 M126.14,70.05c0.65-0.95,0.54-0.5,0.44-1.72c-0.84-0.49-1.84-0.59-3.18-0.58l-0.03,5.06C125.86,72.74,128.31,72.6,126.14,70.05
		 M123.91,68.16l1.93,0.28c0,0.01,1.08,0.68-0.29,1.39c-0.44,0.23-1.06,0.15-1.59,0.16L123.91,68.16z M123.91,72.42l0.01-2.06
		c1.36,0.02,1.82-0.15,2.54,0.88C126.02,72.63,125.42,72.4,123.91,72.42 M105.37,69.88l-0.14-1.55c-0.96-0.56-2-0.64-3.4-0.55
		c-0.08,1.28-0.34,3.88,0.2,5c0.2-0.31,0.22,0.04,0.34-0.92c0.03-0.2-0.02-1-0.02-1.26c1,0.04,1.38,0.09,1.88,0.81
		c0.87,1.28-0.03,1.13,1.32,1.3l-1.3-2.17L105.37,69.88z M102.35,68.15l2.44,0.34l-0.1,1.39l-2.35,0.3L102.35,68.15z"/>
</g>
</svg>
