<?xml version="1.0" encoding="utf-8"?>
<!-- Generator: Adobe Illustrator 26.0.0, SVG Export Plug-In . SVG Version: 6.00 Build 0)  -->
<svg version="1.1" id="Layer_1" xmlns="http://www.w3.org/2000/svg" xmlns:xlink="http://www.w3.org/1999/xlink" x="0px" y="0px"
	 viewBox="0 0 236.04 113.45" style="enable-background:new 0 0 236.04 113.45;" xml:space="preserve">
<style type="text/css">
	.st0{fill-rule:evenodd;clip-rule:evenodd;fill:#B0B0B2;}
	.st1{fill-rule:evenodd;clip-rule:evenodd;fill:#FDFEFF;}
	.st2{fill-rule:evenodd;clip-rule:evenodd;fill:#F7F6F6;}
	.st3{fill:#B0B0B2;}
</style>
<g>
	<path class="st0" d="M173.79,69.15l-7.01-0.02l0.03-12.89l6.89,0.01c-0.98-0.41-5.57-0.23-6.94-0.11l-0.11,13.07
		c1.05,0.21,3.97,0.08,5.37,0.09c0.26,0,0.6,0.02,0.85,0.01c0.08,0,0.34-0.01,0.41-0.02c0.07-0.01,0.13-0.02,0.19-0.03L173.79,69.15
		z M112.71,56.19l15.3,0l-0.02,2.7l-8.35,0.01l-0.01,0.24c1.96-0.52,6.11,0.11,8.39-0.19c0.29-0.74,0.28-2.1,0.01-2.85
		c-1.53-0.16-14.75-0.19-15.44,0.09L112.71,56.19z M128.53,66.37l0.06,0.26l0.08,2.42l-15.91,0.05l-0.04-12.92l-0.12,0.01l-0.01,13
		l16.15,0.05l0.07-2.25C128.75,65.87,128.79,66.7,128.53,66.37 M147.57,69.14l-14.23-0.01l0.02-12.88l6.87,0
		c-1-0.38-5.59-0.24-6.93-0.09l-0.09,13.04c1.2,0.31,5.68,0.11,7.2,0.11C141.26,69.3,146.77,69.47,147.57,69.14 M84.03,56.22
		l-6.87-0.11L77.06,69.2c0.99,0.23,6.24,0.25,7.06-0.04C84.24,67.39,84.39,57.06,84.03,56.22 M84.03,56.22L84,69.16l-6.81-0.03
		l0.02-12.89L84.03,56.22z M84.03,56.22l-6.82,0.02l-0.02,12.89L84,69.16L84.03,56.22z M77.39,56.39l6.49-0.02L83.88,68.9
		l-6.51-0.01L77.39,56.39z M173.79,69.15l-0.1-12.9l-6.89-0.01l-0.03,12.89L173.79,69.15z M167.01,56.36l6.52,0.01l0,12.51l-6.51,0
		L167.01,56.36z M147.57,69.14l-0.05-2.44l-7.15,0.08c0.99-0.2,5.94-0.15,7.03,0.03l-0.02,2.06l-13.84,0.01l0-12.52l6.5-0.01
		l0.05,9.54c0.14,0.61-0.09,0.09,0.21,0.44l-0.04-10.1l-6.87,0l-0.02,12.88L147.57,69.14z M128.59,66.64
		c-1.08,0.26-8.2,0.37-8.85,0.06l8.66-0.01l0,2.19l-15.45,0.02l-0.02-12.54l14.83,0.03l0,2.31c-0.86-0.02-7.34-0.3-8.11,0.19
		l8.35-0.01l0.02-2.7l-15.3,0l0.04,12.92l15.91-0.05L128.59,66.64z M77.37,68.89l6.51,0.01l0.01-12.53l-6.49,0.02L77.37,68.89z
		 M167.01,68.89l6.51,0l0-12.51l-6.52-0.01L167.01,68.89z M147.52,66.7c-0.77-0.66-5.11-0.11-7.24-0.36
		c-0.3-0.35-0.07,0.17-0.21-0.44l-0.05-9.54l-6.5,0.01l0,12.52l13.84-0.01l0.02-2.06c-1.09-0.19-6.04-0.23-7.03-0.03L147.52,66.7z
		 M149.97,69.2l14.22,0l0.03-2.73l-7.23-0.07l0-10.24l-7.06-0.07L149.97,69.2z M128.59,66.64l-0.06-0.26l-8.88,0.02l0-2.34
		l8.16-0.04l0.02-2.73l-8.18-0.07l-0.01-2.07l0.01-0.24c0.77-0.49,7.24-0.21,8.11-0.19l0-2.31l-14.83-0.03l0.02,12.54l15.45-0.02
		l0-2.19l-8.66,0.01C120.39,67.01,127.51,66.9,128.59,66.64 M89.03,69.2l6.99-0.01l0.03-4.16l2.36,0.04
		c0.31,0.87,1.38,3.55,1.88,4.09l8.37,0.01c-0.2-0.72-2.43-2.95-2.9-4.04c0.48-0.49,1.35-1.01,1.84-1.85
		c0.51-0.88,0.59-2.03,0.51-3.12c-0.17-2.37-1.34-3.81-3.65-4.02l-15.46-0.05L89.03,69.2z M95.97,62.21l0.01-3.3l4.86,0
		c0.41,0.82,1.07,2.74-0.4,3.26C99.84,62.39,96.7,62.31,95.97,62.21 M60.06,69.13l12.04,0.04l0.07-16c19.12,0.13,38.19,0.01,57.22,0
		c9.5,0,18.99,0,28.48,0c4.67,0,9.74,0.19,14.36,0c4.73-0.19,4.63-7.25,1.64-8.63c-1.53-0.71-84.26-0.31-99.58-0.31
		c-4.13,0-10.31-0.37-14.19,0.04L60.06,69.13z M72.15,47.14c1.37-0.31,41.17-0.09,43.73-0.09c5.35,0,41.3-0.35,43.38,0.26
		c0.45,1.45,0.56,1.28-0.06,2.75l-87.06-0.05L72.15,47.14z"/>
</g>
</svg>
