<?xml version="1.0" encoding="utf-8"?>
<!-- Generator: Adobe Illustrator 26.0.0, SVG Export Plug-In . SVG Version: 6.00 Build 0)  -->
<svg version="1.1" id="Layer_1" xmlns="http://www.w3.org/2000/svg" xmlns:xlink="http://www.w3.org/1999/xlink" x="0px" y="0px"
	 viewBox="0 0 236.04 113.45" style="enable-background:new 0 0 236.04 113.45;" xml:space="preserve">
<style type="text/css">
	.st0{fill-rule:evenodd;clip-rule:evenodd;fill:#B0B0B2;}
	.st1{fill-rule:evenodd;clip-rule:evenodd;fill:#FDFEFF;}
	.st2{fill-rule:evenodd;clip-rule:evenodd;fill:#F7F6F6;}
	.st3{fill:#B0B0B2;}
</style>
<g>
	<path class="st0" d="M113.1,36.91l-0.23,0.23c0.66,0.11,1.46-0.13,2.18,0.06c0.64,0.16,1.18,0.44,1.58,0.78
		c0.92,0.79,1.55,1.57,1.43,3.39c-0.41,1.89-1.05,2.17-2.85,3.12c0.19,0.14,2.58,0.81,2.67,2.69c0.34,0.33,0.47,1.34,0.58,1.9
		c0.39,0.41,0.57,2.15,2.21,3.04c1.97,1.07,3.44-0.02,4.1-0.17l0-0.26c-1.06,0.21-1.99,0.19-2.81-0.36c-0.6-0.4-1.25-1.23-1.09-2.25
		c-0.12-0.16-0.04-0.02-0.13-0.29c-0.53-1.63,0.29-0.9-1.28-3.46c-0.28-0.05-1.27-0.58-1.6-0.81c1.3-0.5,1.12-1.11,1.67-1.19
		c0.24-0.57,0.58-1.17,0.64-1.88c0.11-0.8-0.08-1.26-0.07-1.93c-0.63-0.64-0.51-1.71-2.56-2.56
		C115.63,36.17,114.53,36.58,113.1,36.91 M121.7,40.07c0.63,2.2-1.3,4-2.93,4.42l0.81,0.35c0.33,0.13,0.36,0.1,0.57,0.36
		c1.23,0.65,1.78,2.07,2.07,3.88c0.33,0.67,0.2,1.16,0.72,1.78c0.57,0.68,1.04,0.54,2.01,0.59c0.31-0.31,0.22-0.23,0.64-0.37
		c0.07-0.15,0.72-1.3,0.96-1.48c0.14-0.47-0.03-0.24,0.31-0.52l0.59-1.9c0.05-0.29,0.09-0.58,0.14-0.87
		c0.08-0.43,0.01-0.34,0.19-0.6c-0.23-1.08-0.09-2.13-0.4-3.33c-0.56-2.14-1.98-3.94-3.69-5.21c-0.27-0.2-0.8-0.37-0.93-0.65
		c-0.62-0.18-1.04-0.44-1.7-0.64c-0.5-0.14-1.22-0.22-1.66-0.4h-2.51c-0.59,0.34-1.99,0.31-2.48,0.87
		C117.68,35.69,121.18,37.04,121.7,40.07 M84.48,61.36l-1.03,2.62c-0.06,0.15-0.1,0.28-0.21,0.46c-0.23,0.38-0.05,0.14-0.25,0.32
		c0.02,0.54-0.73,2.04-0.98,2.64c-0.22,0.52-0.8,2.14-1.08,2.46c-0.08,0.36,0,0.21-0.18,0.58c-0.17,0.36-0.09,0.17-0.24,0.33
		c0,0.46-1.48,4.12-1.82,4.44c-0.1,0.45-0.25,0.99-0.56,1.24c-0.02,0.44-0.09,0.51-0.25,0.92l2.82,0.06c0.27-0.97,0.7-2.08,1.15-2.9
		l0.77-2.08c1.05,0,2.1,0,3.16,0c0.52,0,1.05,0.01,1.57,0c1.47-0.03,1.18-0.06,1.24,0.22c0.37,0.31,0.71,1.38,0.83,1.9l0.1,0.39
		c0.17,0.19-0.01-0.14,0.25,0.34c0.06,0.12,0.1,0.25,0.15,0.37c0.12,0.3,0.22,0.55,0.29,0.86l0.43,0.89l2.84,0
		c-0.07-0.94-1.01-1.93-0.97-2.84c-0.35-0.35-0.71-1.37-0.81-1.83c-0.28-0.33-1.49-3.45-1.53-3.85c-0.36-0.28-0.7-1.38-0.84-1.9
		l-0.06-0.32c-0.32-0.27-0.48-0.83-0.57-1.25c-0.27-0.29-0.85-1.82-0.87-2.28c-0.45-0.36-0.92-1.85-1.1-2.44l-1.19,0l-0.7-0.01
		L84.48,61.36z M83.73,69.98c0.06-0.28,0.11-0.5,0.24-0.79c0.02-0.05,0.11-0.22,0.13-0.26c0.15-0.24,0.01-0.06,0.2-0.23
		c0-0.51,0.45-1.46,0.65-1.93c0.17-0.4,0.55-1.45,0.72-1.68c0.26,0.39,0.57,1.23,0.59,1.69c0.38,0.31,0.58,1.12,0.69,1.64
		c0.22,0.24,0.66,1.39,0.66,1.78l-3.99-0.04L83.73,69.98z M128.23,61.36c-0.07,0.31-0.16,0.57-0.29,0.87
		c-0.05,0.12-0.1,0.24-0.16,0.36c-0.22,0.37-0.04,0.11-0.25,0.31c-0.01,0.7-0.54,1.54-0.79,2.18c-0.19,0.48-0.55,1.6-0.85,1.9
		c-0.21,0.79-1.15,3.27-1.61,3.76c0,0.47-1.39,3.75-1.69,4.21c-0.14,0.47-0.33,1.21-0.68,1.51c-0.02,0.49-0.13,0.45-0.23,0.98
		l2.73-0.02l0.23-0.24c0-0.43,0.03-0.44,0.26-0.78c0.1-0.39,0.16-0.54,0.32-0.94l0.47-0.89c0.01-0.68,0.52-1.45,0.71-2.11l5.74,0.03
		c0.4,0.11,0.07-0.05,0.24,0.12c0.41,0.46,1.52,3.57,1.6,3.92l0.43,0.89l2.85,0l-0.05-0.57c-0.34-0.27-1.62-3.57-1.75-4.11
		c-0.35-0.4-1.49-3.39-1.52-3.85c-0.37-0.29-0.7-1.37-0.84-1.9c-0.3-0.3-0.67-1.53-0.87-2c-0.22-0.52-0.79-1.67-0.78-2.17
		l-0.29-0.43c-0.06-0.11-0.15-0.32-0.2-0.45c-0.12-0.31-0.23-0.6-0.31-0.95l-0.08-0.3l-1.92,0.03L128.23,61.36z M127.48,69.98
		c0.08-0.29,0.04-0.29,0.19-0.59c0.17-0.34,0.11-0.18,0.25-0.33c0-0.44,1.23-3.52,1.51-3.95c0.28,0.41,0.56,1.18,0.59,1.66
		c0.37,0.29,1.08,2.37,1.22,2.94l0.21,0.46l-4.05-0.02L127.48,69.98z M167.06,61.18c-0.24,0.68-0.49,1.24-0.76,1.92
		c-0.17,0.44-0.56,1.45-0.87,1.8c0,0.38-0.54,1.75-0.77,1.96c-0.07,0.32-0.18,0.57-0.28,0.85c-0.06,0.16-0.07,0.22-0.15,0.37
		c-0.09,0.17-0.12,0.16-0.19,0.25l-0.23,0.7l-0.85,1.89c-0.04,0.46-1.32,3.59-1.54,3.79c-0.11,0.5-0.14,0.47-0.34,0.94
		c-0.18,0.43-0.17,0.55-0.48,0.89c0.02,0.59-0.12,0.32-0.2,0.89c0.9,0,1.9-0.11,2.76,0.09c0.12-0.49,0.33-1,0.52-1.48l0.68-1.33
		c-0.01-0.39,0.37-1.3,0.57-1.73c0.22-0.48,0.05-0.32,0.42-0.51l5.62,0.04c0.49,0.39,0.67,1.27,0.9,1.83
		c0.25,0.6,0.63,1.45,0.77,2.07c0.33,0.36,0.15,0.78,0.68,1.02l2.65,0.01l-0.11-0.7c-0.46-0.37-1.4-2.99-1.64-3.78
		c-0.33-0.74-1.59-3.53-1.62-4.19c-0.38-0.3-0.65-1.32-0.85-1.82l-0.05-0.4c-0.37-0.3-0.55-1.01-0.68-1.51
		c-0.26-0.32-0.74-1.53-0.76-2.02c-0.33-0.27-0.91-1.82-1.04-2.32l-1.51,0.01l-0.42-0.01L167.06,61.18z M166.27,69.78
		c0.09-0.47,0.11-0.65,0.46-0.92c0-0.86,1.07-2.67,1.31-3.78c0.14,0.14,0.08,0.06,0.22,0.27c0.25,0.37,0.45,0.94,0.44,1.36
		c0.27,0.26,0.24,0.28,0.4,0.7c0.13,0.33,0.2,0.53,0.28,0.87l0.73,1.91l-4.02-0.02L166.27,69.78z M111.01,38.62
		c-0.04,0.17-0.76,1.21-0.93,1.32c-0.25,0.63-0.52,1.09-0.77,1.83c-0.19,0.57-0.29,1.54-0.58,1.93l0.02,1.47l0.12,1.57
		c0.36,1.06,0.42,1.68,0.94,2.64c0.44,0.81,0.99,1.55,1.55,2.11c1.56,1.57,2.04,1.71,4.42,2.69l1.23,0.18
		c0.62,0.19,2.27,0.1,2.97-0.04c0.93-0.19,2.13-0.79,2.67-0.84l0.14-0.14c0.03-0.02,0.12-0.1,0.15-0.13c0.2-0.16,0.15-0.1,0.33-0.21
		c0.15-0.11,0.2-0.16,0.28-0.24c-1.4,0.26-2.48,0.44-4.01-0.2c-0.98-0.41-0.81-0.43-0.84-0.59l-0.65-0.65
		c-0.31-0.08-0.18-0.07-0.38-0.4c-0.12-0.2-0.2-0.37-0.31-0.62c-0.2-0.48-0.35-0.83-0.31-1.33c-0.11-0.14-0.06-0.04-0.16-0.28
		c-0.19-0.43-0.21-1.05-0.48-1.75c-0.26-0.67-0.7-1.05-0.96-1.59l-1.12-0.76c0.35-0.28,0.59-0.48,0.9-0.78
		c0.22-0.21,0.52-0.62,0.72-0.73c0.33-1.14,0.7-1.48,0.36-2.85c-0.11-0.46-0.26-0.88-0.48-1.22c-0.31-0.48-0.5-0.45-0.77-0.97
		c-0.48-0.03-0.49-0.2-0.98-0.3c-0.37-0.08-0.65-0.04-1.02-0.05C112,37.78,111.63,38.13,111.01,38.62 M150,77.36
		c0.34-0.3,1.51-0.47,2.03-0.56l0.65-0.23c0.15-0.17-0.08-0.02,0.31-0.27c0.1-0.07,0.24-0.12,0.34-0.18
		c0.34-0.2,0.33-0.22,0.66-0.38c0.1-0.33,0.2-0.24,0.5-0.56c0.37-0.4,0.11-0.43,0.55-0.5c0.16-0.38,0.38-0.74,0.72-0.99
		c0.06-0.39,0.23-0.77,0.44-1.18l0.58-1.99l-0.02-0.55c0.02-1.26-0.1-1.95-0.27-3.13c-0.26-0.43-0.42-1.15-0.7-1.66
		c-1.66-2.96-3.27-2.84-3.89-3.46c-1.19-0.25-1.88-0.57-3.26-0.66l-2.35-0.11l-0.71,0.02l-2.89,0.12l-0.01,16.25
		c1.19,0.01,2.39,0.13,3.61,0.16C147.45,77.54,149.09,77.26,150,77.36 M153.31,71.94c-0.37,1.4-1.58,2.35-2.91,2.75
		c-1.63,0.46-3.32,0.52-4.99,0.24c0-0.8-0.14-11.24,0.09-11.47c0.3-0.3,2.8-0.01,3.25,0.14c0.49,0.05,0.95,0.1,1.28,0.42
		c0.49-0.02,0.45,0.02,0.9,0.26c0.16,0.09,0.26,0.12,0.42,0.24c0.2,0.16,0.11,0.05,0.15,0.22c0.45,0.22,0.51,0.34,0.78,0.67
		c0.41,0.37,0.79,0.76,0.86,1.43c0.26,0.25,0.26,0.28,0.39,0.71c0.1,0.31,0.13,0.47,0.18,0.79
		C153.87,69.29,153.89,71.32,153.31,71.94 M99.72,62.67c0.14,0.79-0.36,3.79-0.49,4.7c-0.02,0.36-0.05,0.71-0.09,1.07
		c-0.05,0.41-0.02,0.6-0.21,0.83l-0.07,1.37c-0.03,0.43,0,0.48-0.18,0.76c0.08,0.8-0.23,2.69-0.36,3.43
		c-0.02,0.35-0.05,0.72-0.09,1.06c-0.05,0.4-0.04,0.49-0.2,0.74l0.04,0.81c0.57-0.04,1.84,0.06,2.25-0.01c0.45-0.08,0.34,0,0.4-0.63
		c0.12-1.39,0.5-3.7,0.49-4.66l0.15-1.36l0.24-2.03l0.21-1.69l0.7,1.64c0.29,0.31,1.76,3.51,1.78,3.92l0.54,0.95
		c0.18,0.35,0.3,0.59,0.47,0.97c0.27,0.6,0.68,1.4,0.86,2.01l0.5,0.89l1.69,0l1.17-2.51c0.02-0.03,0.09-0.15,0.11-0.17l0.12-0.17
		c0.06-0.36,1.51-3.66,1.79-3.92l0.89-1.99l0.85-1.86c0.08,1.33,0.27,2.52,0.39,3.82c0.08,0.82,0.43,3.13,0.29,3.85
		c0.31,0.44,0.27,1.47,0.32,2.12l0.1,0.86l2.71-0.03l-0.06-0.75l-0.11-1.18l-0.68-5.56l-0.01-0.24c-0.15-1.45-0.89-5.7-0.72-6.9
		c-0.24-0.36-0.26-1.2-0.27-1.71l-0.56,0.01l-1.48,0.01l-0.2,0.49c-0.14,0.29-0.2,0.49-0.33,0.79c-0.18,0.39-0.1,0.32-0.39,0.58
		c-0.02,0.41-1.56,3.84-1.82,4.05c-0.16,0.71-1.43,3.48-1.78,3.95l-1.06,2.27c-0.29-0.41-1.88-3.91-1.9-4.28
		c-0.16-0.15-0.06-0.03-0.2-0.23l-1.66-3.66c-0.3-0.26-1.71-3.51-1.84-3.97l-0.55,0.02l-1.48-0.01c0,0.31-0.02,0.56-0.05,0.86
		L99.72,62.67z M60.06,56.2v21.36h1.96h1.3l-0.06-18.84c1.19-0.08,3.43-0.16,4.59,0.08c1.42,0.3,2.11,0.89,2.38,2.31
		c0.77,4.05-3.72,4.53-4.31,4.95c-0.14,0.44-0.08,0.58-0.45,0.85c0.18,1,1.77,2.72,2.17,3.69c0.09,0.13,0.27,0.35,0.4,0.55
		l1.01,1.67l0.35,0.49c0.11,0.16,0.2,0.29,0.32,0.46l1.69,2.74c0.11,0.07,0.15,0.09,0.27,0.26c0.29,0.42,0.17,0.21,0.21,0.52
		l0.58,0.66c0.03-0.01,0.08-0.06,0.1-0.03l0.95-0.35l1.97-0.91c-0.24-0.74-0.76-1.08-1.04-1.84c-0.16-0.1-0.28-0.29-0.43-0.49
		c-0.3-0.43-0.27-0.28-0.31-0.68c-0.08-0.07-0.12-0.08-0.23-0.21c-0.26-0.31,0.15,0.25-0.12-0.16c-0.06-0.09-0.14-0.28-0.2-0.42
		c-0.32-0.2-2.59-3.72-2.75-4.17c-0.27-0.35-0.72-0.89-0.89-1.34c0.89-0.21,1.15-0.49,1.82-1c1.24-0.94,0.85-0.85,1.48-1.31
		c0.05-0.58,0.73-1.54,0.84-2.78c0.13-1.4-0.15-1.93-0.4-3.1c-0.64-0.86-0.52-1.12-1.4-1.76c-0.36-0.26-0.55-0.42-0.96-0.6
		c-0.38-0.17-0.71-0.21-1-0.47c-0.52,0.04-1.63-0.22-2.34-0.28c-0.72-0.06-1.66-0.06-2.45,0C63.62,56.17,61.55,56.2,60.06,56.2"/>
</g>
</svg>
