<?xml version="1.0" encoding="utf-8"?>
<!-- Generator: Adobe Illustrator 26.0.0, SVG Export Plug-In . SVG Version: 6.00 Build 0)  -->
<svg version="1.1" id="Layer_1" xmlns="http://www.w3.org/2000/svg" xmlns:xlink="http://www.w3.org/1999/xlink" x="0px" y="0px"
	 viewBox="0 0 236.04 113.45" style="enable-background:new 0 0 236.04 113.45;" xml:space="preserve">
<style type="text/css">
	.st0{fill-rule:evenodd;clip-rule:evenodd;fill:#B0B0B2;}
	.st1{fill-rule:evenodd;clip-rule:evenodd;fill:#FDFEFF;}
	.st2{fill-rule:evenodd;clip-rule:evenodd;fill:#F7F6F6;}
	.st3{fill:#B0B0B2;}
</style>
<g>
	<path class="st0" d="M145.59,62.42l5.48-1.04c0.11-1.04-1.85-6.85-1.27-8.46c0.37-1.03,2.38-1.91,3.24-0.81
		c0.69,0.89,0.91,2.59,1.01,3.95c0.11,1.58,0.35,3.07,0.51,4.62c0.18,1.69,0.07,2.88-0.91,3.88c-1.27,1.28-5.69,1.9-7.92,2.2
		l-0.14-0.02v19.34h26.38V39.23h-26.38V62.42z M148.36,71.43c-0.71-2.32,3.75-3.4,3.91-0.29c0.05,1.06-0.82,2.27-1.82,2.22
		C149.55,73.31,148.58,72.16,148.36,71.43"/>
	<path class="st0" d="M90.44,71.83c-0.83,0.3-1.77,0.53-2.69,0.23c-0.8-0.26-1.45-1.01-1.12-2.1c0.42-1.41,2.57-1.86,3.81-2.63
		v-1.97c-0.13,0.24-0.28,0.39-0.53,0.68c-0.88,1.05-4.61,3.17-5.82,3.89c-1.3,0.77-6.07,3.53-7.74,3.4c-0.93-1.03-1.5-5.17-1.82-7
		c-0.73-4.16-3.85-20.71-3.31-22.81c1.26-0.44,1.73,0.55,2.11,1.63c0.71,2.07,1.95,7.17,2.56,9.45c1.08,4.07,2.28,8.85,2.74,13.2
		c0.51,0.01,6.25-2.96,7.37-3.85c0.42-0.33,0.81-0.62,1.28-0.93c0.02-0.01,0.03-0.02,0.05-0.03c0.67-0.43,1.23-0.51,1.7-0.43
		c0.57,0.02,1.1,0.22,1.41,0.65v-18.5c-1.23-0.18-2.58-0.96-1.82-2.26l1.82-0.34V30.82H64.07v46.85h26.38V71.83z M82.62,53.75
		c-0.64-2.4,3.74-3.28,3.9-0.28c0.06,1.03-0.83,2.26-1.79,2.22C83.84,55.66,82.82,54.49,82.62,53.75"/>
	<path class="st0" d="M118.37,37.04c4.24-0.69,16.2-4.04,20.35-5.58c0.35-0.13,1.18-0.51,1.47-0.57c1.24-0.24,1.96,1.02,1.66,2.25
		c-0.25,1.03-1.06,1.57-1.91,2.02c-4.34,2.32-10.26,3.9-15.07,5.1c-1.67,0.42-5.31,1.15-6.49,1.5v19.42
		c0.88-0.48,1.81-1.35,2.92-1.61c1.53-0.37,2.79,0.8,2.05,2.24c-1,1.97-4.42,3.88-4.97,4.37v8.04h26.38v-7.35
		c-1.26,0.25-4.14,0.47-5.38,0.54c0.26-0.57,0.71-0.91,1.01-1.47c-0.51,0.29-0.83,0.81-1.33,1.2c-0.5,0.39-0.93,0.76-1.48,1.12
		c-1.01,0.67-2,1.29-3.33,1.76c-1.37,0.48-3.23,0.76-3.71-0.66c-0.64-1.91,0.92-2.39,2.11-2.97c2.24-1.09,4.14-2.71,5.96-4.31
		c0.38-0.33,3.16-3.86,4.56-1.02c0.41,0.83,0.11,1.35-0.28,1.89l1.88-0.35V27.38h-26.38V37.04z M130.83,47.18
		c1.28-0.37,2.27,0.31,2.5,1.41c0.25,1.18-0.54,2.39-1.34,2.58C130.28,51.59,127.83,48.05,130.83,47.18 M134.83,51.96
		c1.3-0.34,2.25,0.42,2.45,1.52c0.22,1.18-0.63,2.4-1.48,2.53C134.11,56.28,131.81,52.75,134.83,51.96 M126.88,51.97
		c1.35-0.35,2.23,0.36,2.47,1.48c0.24,1.18-0.55,2.33-1.35,2.54C126.22,56.45,123.87,52.75,126.88,51.97 M133.94,61.92
		c-0.75,2.05-5.06,4.75-6.92,5.88c-1.36,0.82-5.25,2.83-7,2.27c-1.66-0.54-1.29-2.18,0.97-3.5c3.13-1.81,4.78-3.08,7.49-5.29
		c1.09-0.88,2.95-2.28,4.49-1.48C133.62,60.14,134.34,60.82,133.94,61.92"/>
	<path class="st1" d="M90.44,67.33c-1.25,0.78-3.39,1.22-3.81,2.63c-0.33,1.08,0.32,1.83,1.12,2.1c0.92,0.31,1.86,0.07,2.69-0.23
		V67.33z M90.44,42.12l-1.82,0.35c-0.79,1.35,0.56,2.13,1.82,2.27V42.12z M118.37,41.77c1.18-0.34,4.82-1.08,6.49-1.5
		c4.81-1.2,10.74-2.78,15.07-5.1c0.85-0.45,1.66-1,1.91-2.02c0.31-1.23-0.42-2.5-1.66-2.25c-0.29,0.06-1.12,0.44-1.47,0.57
		c-4.15,1.54-16.1,4.89-20.35,5.58V41.77z M118.37,66.14c1.07-0.74,4.08-2.58,4.97-4.32c0.73-1.44-0.52-2.61-2.06-2.25
		c-0.99,0.24-2.07,1.08-2.92,1.61V66.14z M117.67,37.2c-0.83,0.25-2.29,0.5-3.12,0.66c-7.19,1.44-16.22,3.24-23.26,4.14v2.79
		c2.27,0.04,4.57-0.14,6.8-0.33c0.92-0.08,6.19-0.72,6.55-0.63c0.48,4.93,0.85,9.78,1.43,14.72c0.19,1.62,0.49,3.16,0.67,4.72
		l-7.38,2.28c0.05-1.68-1.71-4.26-4.08-2.21c-0.68,0.59-1.52,1.68-1.88,1.97c-0.69,0.56-1.29,1.02-2.12,1.52v4.69
		c0.99-0.48,1.81-0.82,2.73-1.38c1.16-0.71,1.75-1.25,2.55-1.76c0.39,0.36,0.73,1.12,2.19,1.24c1.58,0.12,3.76-0.93,5.52-1.43
		c0.87-0.25,2-0.46,2.63-0.9l0.31-1.55c0.33,0.89,0.52,4.79,1.02,5.14c1.41,0.36,8.02-3.39,9.44-4.28v-4.96
		c-0.82,0.62-1.93,1.34-2.87,1.89c-0.67,0.39-2.61,1.44-3.36,1.65c-0.25-0.51-0.82-4.53-0.99-5.47c-0.88-5.08-1.92-11.2-3.22-15.98
		c1.75-0.35,3.57-0.56,5.34-0.89c1.66-0.3,3.44-0.71,5.1-0.97V37.2z"/>
	<path class="st0" d="M91.29,52.35c0.53-0.45,1.23-1.05,2.37-0.71c2.15,0.64,1.32,4.09-0.48,4.06c-1.01-0.01-1.51-0.95-1.89-1.4
		v12.54c0.83-0.51,1.43-0.97,2.12-1.52c0.36-0.29,1.2-1.38,1.88-1.97c2.37-2.06,4.13,0.53,4.08,2.21l7.38-2.28
		c-0.18-1.56-0.48-3.11-0.67-4.72c-0.58-4.94-0.95-9.79-1.43-14.72c-0.36-0.08-5.63,0.56-6.55,0.63c-2.23,0.19-4.53,0.37-6.8,0.33
		V52.35z M98.16,51.59c1.3-0.21,2.12,0.58,2.27,1.72c0.14,1.07-0.71,2.31-1.58,2.39c-1.08,0.1-2.02-1.1-2.29-1.87
		C96.14,52.62,97.12,51.76,98.16,51.59 M117.67,41.91c-1.66,0.25-3.44,0.66-5.1,0.97c-1.77,0.32-3.6,0.54-5.34,0.89
		c1.3,4.78,2.34,10.9,3.22,15.98c0.16,0.93,0.73,4.96,0.99,5.47c0.75-0.21,2.69-1.27,3.36-1.65c0.94-0.55,2.05-1.27,2.87-1.89V41.91
		z M91.29,42c7.04-0.9,16.07-2.7,23.26-4.14c0.83-0.17,2.29-0.41,3.12-0.66v-1.67H91.29V42z M117.67,66.62
		c-1.42,0.89-8.03,4.64-9.44,4.28c-0.5-0.35-0.69-4.25-1.02-5.14l-0.31,1.55c-0.63,0.44-1.76,0.65-2.63,0.9
		c-1.76,0.5-3.94,1.55-5.52,1.43c-1.45-0.11-1.79-0.88-2.19-1.24c-0.8,0.5-1.38,1.05-2.55,1.76c-0.92,0.56-1.74,0.9-2.73,1.38v10.85
		h26.38V66.62z"/>
	<path class="st1" d="M90.44,63.23c-0.64-0.9-2.25-0.79-3.15-0.19c-0.48,0.31-0.87,0.6-1.28,0.93c-1.11,0.88-6.86,3.86-7.37,3.85
		c-0.46-4.35-1.67-9.13-2.74-13.2c-0.6-2.28-1.85-7.38-2.56-9.45c-0.37-1.08-0.85-2.07-2.11-1.63c-0.54,2.1,2.57,18.65,3.3,22.81
		c0.32,1.83,0.88,5.96,1.82,7c1.67,0.13,6.45-2.63,7.74-3.4c1.21-0.72,4.94-2.84,5.82-3.89c0.25-0.29,0.4-0.44,0.53-0.68V63.23z"/>
	<path class="st1" d="M145.59,66.78c0.05-0.01,0.1-0.01,0.14-0.02c2.22-0.31,6.65-0.92,7.92-2.2c0.99-0.99,1.09-2.18,0.91-3.88
		c-0.16-1.55-0.4-3.04-0.51-4.62c-0.1-1.35-0.32-3.06-1.01-3.95c-0.85-1.1-2.87-0.22-3.24,0.81c-0.58,1.61,1.38,7.42,1.27,8.46
		l-5.48,1.04V66.78z M144.75,62.59l-1.88,0.35c0.39-0.53,0.69-1.06,0.28-1.89c-1.4-2.84-4.18,0.69-4.56,1.02
		c-1.82,1.61-3.72,3.22-5.96,4.31c-1.19,0.58-2.75,1.06-2.1,2.97c0.48,1.42,2.34,1.14,3.71,0.66c1.34-0.46,2.32-1.09,3.33-1.76
		c0.55-0.36,0.98-0.73,1.48-1.12c0.51-0.39,0.82-0.91,1.33-1.2c-0.3,0.57-0.76,0.9-1.01,1.47c1.24-0.07,4.12-0.29,5.38-0.54V62.59z"
		/>
	<path class="st1" d="M133.94,61.92c0.4-1.1-0.32-1.78-0.97-2.12c-1.54-0.8-3.4,0.6-4.49,1.48c-2.71,2.2-4.36,3.47-7.49,5.29
		c-2.26,1.31-2.63,2.96-0.97,3.5c1.75,0.56,5.64-1.44,7-2.27C128.88,66.67,133.19,63.97,133.94,61.92"/>
	<path class="st1" d="M91.29,54.3c0.39,0.46,0.88,1.39,1.89,1.4c1.8,0.03,2.63-3.43,0.48-4.06c-1.14-0.34-1.84,0.26-2.37,0.71V54.3z
		"/>
	<path class="st1" d="M148.36,71.43c0.22,0.73,1.2,1.88,2.09,1.93c1,0.05,1.88-1.16,1.82-2.22
		C152.11,68.03,147.65,69.11,148.36,71.43"/>
	<path class="st1" d="M126.88,51.97c-3,0.78-0.66,4.48,1.11,4.01c0.8-0.21,1.6-1.36,1.35-2.54
		C129.11,52.34,128.22,51.63,126.88,51.97"/>
	<path class="st1" d="M98.16,51.59c-1.05,0.17-2.02,1.03-1.6,2.24c0.27,0.77,1.21,1.96,2.28,1.87c0.87-0.08,1.72-1.32,1.58-2.39
		C100.29,52.17,99.46,51.38,98.16,51.59"/>
	<path class="st1" d="M134.83,51.96c-3.02,0.78-0.72,4.32,0.97,4.05c0.85-0.14,1.69-1.35,1.48-2.53
		C137.07,52.38,136.13,51.62,134.83,51.96"/>
	<path class="st1" d="M130.83,47.18c-3,0.87-0.55,4.41,1.16,3.99c0.81-0.2,1.6-1.4,1.34-2.58C133.09,47.49,132.1,46.81,130.83,47.18
		"/>
	<path class="st1" d="M82.62,53.75c0.2,0.74,1.22,1.9,2.11,1.94c0.96,0.04,1.84-1.18,1.79-2.22C86.36,50.47,81.98,51.36,82.62,53.75
		"/>
</g>
</svg>
