<?xml version="1.0" encoding="utf-8"?>
<!-- Generator: Adobe Illustrator 26.0.0, SVG Export Plug-In . SVG Version: 6.00 Build 0)  -->
<svg version="1.1" id="Layer_1" xmlns="http://www.w3.org/2000/svg" xmlns:xlink="http://www.w3.org/1999/xlink" x="0px" y="0px"
	 viewBox="0 0 236.04 113.45" style="enable-background:new 0 0 236.04 113.45;" xml:space="preserve">
<style type="text/css">
	.st0{fill-rule:evenodd;clip-rule:evenodd;fill:#B0B0B2;}
	.st1{fill:#B0B0B2;}
	.st2{fill-rule:evenodd;clip-rule:evenodd;fill:#FDFEFF;}
	.st3{fill-rule:evenodd;clip-rule:evenodd;fill:#F7F6F6;}
	.st4{fill:none;}
	.st5{fill-rule:evenodd;clip-rule:evenodd;fill:#939598;}
	.st6{fill-rule:evenodd;clip-rule:evenodd;fill:#FFFFFF;}
	.st7{fill:none;stroke:#FFFFFF;stroke-width:0.482;stroke-miterlimit:22.926;}
	.st8{fill:#FFFFFF;}
	.st9{fill:#989A9B;}
	.st10{fill:#6A6C6E;}
</style>
<g>
	<path class="st0" d="M162.66,52.45c0.06,0.06,0.12,0.12,0.16,0.19c0.09,0.15,0.08,0.36,0.08,0.53c0,0.28,0,0.57,0,0.85v0.12h-2
		l0-1.21c0-0.1,0.03-0.18,0.09-0.25c0.04-0.04,0.08-0.07,0.12-0.11l0.06-0.06c-0.15-0.13-0.28-0.34-0.29-0.52l0-1.42
		c0-0.12,0-0.23,0.01-0.35c0-0.01,0-0.03,0-0.05c-0.01,0-0.01,0-0.02-0.01c-0.07-0.03-0.14-0.08-0.2-0.14
		c-0.01-0.01-0.02-0.02-0.02-0.02c-0.01-0.01-0.02-0.02-0.03-0.04l-0.09-0.12l0.14-0.06c0.45-0.18,0.56-0.57,0.9-0.87l0.19-0.18
		v0.26c0,0.79,0,1.58,0,2.37c0,0.15,0,0.3,0,0.45c0.02,0.02,0.05,0.06,0.06,0.08c0.02,0.03,0.05,0.05,0.07,0.08
		c0.01-0.01,0.02-0.02,0.03-0.02c0.02-0.02,0.09-0.09,0.09-0.12c0-0.09,0-0.18,0-0.27c0.01-0.87-0.01-1.73,0-2.6l0-0.25l0.19,0.16
		c0.11,0.1,0.19,0.2,0.28,0.32c0.06,0.09,0.12,0.18,0.2,0.27c0.11,0.12,0.24,0.22,0.38,0.31l0,0l0.22,0.18l-0.15,0.08
		c-0.08,0.04-0.19,0.1-0.23,0.19c-0.03,0.06-0.03,0.16-0.03,0.23c0,0.16,0.01,0.31,0.01,0.47v0.99c0,0.09,0.01,0.2-0.03,0.29
		c-0.02,0.06-0.06,0.11-0.11,0.16C162.73,52.38,162.69,52.42,162.66,52.45 M158.98,54.04l0-5.38l0.19,0.14
		c0.04,0.03,0.09,0.11,0.13,0.15c0.06,0.07,0.11,0.15,0.16,0.22c0.05,0.06,0.1,0.13,0.15,0.19c0.12,0.13,0.35,0.32,0.52,0.38
		l0.18,0.07l-0.28,0.23h0c-0.1,0.08-0.15,0.23-0.16,0.36c-0.01,0.23-0.01,0.47-0.01,0.7c0,0.29,0,0.58,0.01,0.87
		c0.01,0.41,0.01,0.82,0.02,1.23c0,0.15,0,0.31,0,0.46c0,0.09,0,0.2-0.02,0.29l-0.02,0.09L158.98,54.04z M154.28,53.18l3.34,0
		l0-4.58l0.32,0.36l0,0.01c0.03,0.04,0.05,0.07,0.08,0.11c0.11,0.13,0.23,0.28,0.36,0.39c0.06,0.05,0.12,0.09,0.19,0.13
		c0.06,0.04,0.11,0.08,0.17,0.12l0.07,0.07l-0.06,0.08c-0.04,0.05-0.08,0.08-0.13,0.12c-0.04,0.03-0.07,0.04-0.09,0.08
		c-0.08,0.12-0.07,0.38-0.06,0.52c0,0.07,0,0.14,0,0.2c0,0.5,0.01,0.99,0.01,1.49c0,0.35,0,0.7,0,1.05c0,0.13,0,0.26-0.01,0.39
		c0,0.07,0,0.15-0.02,0.23l-0.02,0.09l-0.09,0.01c-0.13,0.01-0.26,0.01-0.38,0.01c-0.22,0-0.43,0-0.65,0c-0.58,0-1.17,0-1.76,0
		c-0.57,0-1.13-0.01-1.7-0.01c-0.35,0-0.7,0-1.05,0c-0.05,0-0.1,0-0.15,0.01c-0.05,0-0.11,0-0.15-0.04
		c-0.07-0.05-0.07-0.14-0.07-0.22c0-0.12,0-0.24,0-0.36c0-0.63,0.34-1.13,0.97-1.22c0-0.04,0.01-0.07,0.01-0.11
		c0-0.04,0-0.08,0-0.12c-0.01-0.04-0.04-0.08-0.06-0.11l-0.2-0.15l0,0c-0.01-0.01-0.02-0.01-0.03-0.02L153,51.56l0.18-0.05
		c0.3-0.08,0.68-0.36,0.89-0.58l0.19-0.19L154.28,53.18z M158.29,55.06c0.12,0.13,0.36,0.33,0.53,0.39l0.18,0.07l-0.26,0.22l0,0
		c-0.07,0.05-0.15,0.12-0.17,0.2c-0.02,0.06-0.02,0.14-0.02,0.21c0,0.12,0.01,0.23,0.01,0.35c0,0.5,0.01,1,0.01,1.5
		c0,0.35,0,0.7,0,1.06c0,0.13,0,0.26-0.01,0.38c0,0.07,0,0.16-0.02,0.22l-0.02,0.09l-0.85,0l-0.01-5.48L158.29,55.06z M155.56,58.89
		h0.74l0-4.54l0.19,0.15c0.09,0.07,0.15,0.19,0.22,0.29c0.06,0.09,0.13,0.16,0.2,0.24c0.1,0.1,0.18,0.17,0.29,0.25
		c0.08,0.05,0.14,0.09,0.21,0.15l0.09,0.07l-0.08,0.09c-0.02,0.02-0.04,0.04-0.06,0.05c-0.02,0.02-0.04,0.03-0.06,0.05
		c-0.13,0.12-0.15,0.16-0.15,0.34v3.73h-4.66v-0.12c0-0.48-0.05-0.96,0.28-1.35c0.2-0.24,0.41-0.3,0.69-0.36c0,0,0-0.01,0-0.01
		c0-0.03,0-0.06,0-0.09c0-0.08,0-0.2-0.06-0.26c-0.04-0.05-0.13-0.09-0.19-0.12l-0.16-0.08l0.14-0.11c0.05-0.04,0.11-0.07,0.16-0.1
		c0.07-0.03,0.13-0.06,0.2-0.1c0.17-0.09,0.32-0.19,0.45-0.32c0.07-0.07,0.08-0.08,0.17-0.12l0.16-0.08l0,2.36l0.36,0l0-4.5
		l0.17,0.1c0.09,0.06,0.16,0.2,0.23,0.28c0.06,0.08,0.13,0.16,0.2,0.24c0.09,0.1,0.18,0.18,0.29,0.25c0.08,0.05,0.16,0.09,0.22,0.16
		l0.07,0.07l-0.06,0.08c-0.16,0.2-0.27,0.15-0.27,0.44L155.56,58.89z M155.54,61.36c0.05,0.03,0.49,0.03,0.55,0.03h0.69
		c0.35,0,0.74-0.02,1.03,0.2c0.25,0.19,0.38,0.44,0.41,0.74h1.07c-0.37-0.44-0.74-0.88-1.1-1.33l0,0h0c0,0,0-0.01-0.01-0.01
		l-0.07-0.09l0.09-0.07c0.13-0.1,0.27-0.18,0.44-0.18c0.26,0.01,0.47,0.2,0.63,0.39l1.64,1.98c0.05,0.06,0.08,0.13,0.06,0.21
		c-0.05,0.18-0.32,0.22-0.48,0.21c-0.12-0.01-0.26-0.04-0.35-0.13l-0.1-0.1l-5.45,0v-0.87l2.76,0c-0.01-0.01-0.02-0.11-0.03-0.12
		c-0.08-0.06-0.32-0.04-0.42-0.04c-0.18,0-0.37,0-0.55,0c-0.56,0.01-1.05,0.02-1.6-0.01l-0.16-0.01l0.06-0.15
		c0.03-0.08,0.02-0.07,0.08-0.13c0.07-0.07,0.13-0.15,0.19-0.23c0.05-0.07,0.09-0.16,0.13-0.24c0.03-0.06,0.06-0.11,0.09-0.17
		c0.02-0.03,0.05-0.08,0.07-0.11l0.08-0.08l0.08,0.08c0.06,0.05,0.11,0.1,0.15,0.17C155.5,61.31,155.53,61.35,155.54,61.36
		 M153.41,61.38l0-0.1c0-0.22-0.11-0.24-0.26-0.36l-0.15-0.12l0.17-0.07c0.26-0.11,0.71-0.37,0.88-0.58l0.2-0.25l0.01,3.32l-1.83,0
		v-0.11c0-0.14,0-0.27,0-0.41c0.01-0.3,0.05-0.63,0.22-0.88C152.85,61.54,153.12,61.42,153.41,61.38 M162.09,63.23
		c-0.27,0-0.54-0.01-0.81,0.01l-0.08,0.01l-0.03-0.07c-0.06-0.13-0.07-0.32-0.06-0.46c0.01-0.2,0.05-0.41,0.12-0.6
		c0.14-0.4,0.45-0.78,0.9-0.82c0.19-0.01,0.36,0.04,0.51,0.15c0.18,0.12,0.32,0.31,0.42,0.5c0.19,0.37,0.22,0.79,0.1,1.18
		c-0.11,0.37-0.35,0.7-0.68,0.89c-0.41,0.23-0.87,0.21-1.28,0c-0.13-0.07-0.21-0.09-0.28-0.23l-0.08-0.16h0.19
		c0.27,0,0.67,0,0.9-0.18C162,63.39,162.05,63.31,162.09,63.23 M153.23,62.45c0.02-0.2,0.11-0.3,0.3-0.32l0,0.33L153.23,62.45z
		 M162.31,62.4c0,0-0.06,0.22-0.32,0.11c-0.13-0.06-0.15-0.22-0.09-0.33C162.01,61.95,162.43,62.11,162.31,62.4 M153.28,59.01
		c0.01-0.18,0.12-0.33,0.31-0.31l0,0.3l-0.1,0.01l-0.11,0L153.28,59.01z M160.68,58.43c0.09,0.1,0.22,0.26,0.23,0.31V59h-0.48v-0.26
		C160.43,58.69,160.59,58.52,160.68,58.43 M161.9,52.81c0.09,0.11,0.22,0.26,0.23,0.31v0.26h-0.48v-0.26
		C161.66,53.08,161.82,52.9,161.9,52.81 M153.22,53.29c0.01-0.21,0.1-0.3,0.31-0.32l0,0.32H153.22z M161.98,55.59l-0.1,0.06
		c-0.08,0.04-0.15,0.1-0.19,0.19c-0.03,0.06-0.03,0.16-0.03,0.23c0,0.16,0.01,0.31,0.01,0.47v0.99c0,0.09,0,0.2-0.03,0.29
		c-0.02,0.06-0.06,0.11-0.11,0.16c-0.03,0.04-0.07,0.07-0.11,0.1c0.06,0.06,0.12,0.12,0.16,0.19c0.09,0.15,0.08,0.36,0.08,0.53
		c0,0.29,0,0.57,0,0.85v0.12h-2l0-1.21c0-0.1,0.03-0.18,0.09-0.25c0.04-0.04,0.08-0.07,0.12-0.11l0.06-0.06
		c-0.15-0.13-0.29-0.34-0.29-0.53l0-1.42c0-0.12,0-0.23,0.01-0.35c0-0.02,0-0.03,0-0.05c-0.01,0-0.01,0-0.02-0.01
		c-0.07-0.03-0.14-0.08-0.2-0.14c-0.01-0.01-0.02-0.02-0.03-0.03c-0.01-0.01-0.02-0.02-0.03-0.04l-0.09-0.12l0.14-0.06
		c0.45-0.18,0.56-0.57,0.9-0.87l0.19-0.18l0,0.26c0,0.79,0,1.58,0,2.37c0,0.15,0,0.3,0,0.45c0.02,0.02,0.05,0.06,0.06,0.08
		c0.02,0.02,0.04,0.05,0.07,0.08c0.01-0.01,0.02-0.02,0.03-0.03c0.02-0.02,0.09-0.09,0.09-0.11c0-0.09,0-0.18,0-0.27
		c0.01-0.87-0.01-1.73,0-2.6l0-0.25l0.19,0.16c0.11,0.1,0.19,0.2,0.28,0.32c0.06,0.09,0.12,0.18,0.2,0.27
		c0.11,0.12,0.2,0.22,0.34,0.31l0,0l0.17,0.14V55.59z M173.32,62.75c-0.11,0.17-0.06,0.4,0.11,0.52c0.17,0.11,0.39,0.06,0.5-0.11
		c0.11-0.17,0.06-0.4-0.11-0.52C173.65,62.53,173.43,62.58,173.32,62.75 M143.31,52.53c0.03-0.14-0.06-0.28-0.2-0.31
		c-0.14-0.03-0.27,0.07-0.29,0.2c-0.03,0.14,0.06,0.28,0.19,0.31C143.16,52.76,143.29,52.66,143.31,52.53 M167.6,46.63
		c0.33-0.01,0.59,0.26,0.6,0.58c0.01,0.33-0.25,0.6-0.57,0.6c-0.33,0.01-0.59-0.26-0.6-0.58C167.02,46.91,167.28,46.64,167.6,46.63
		 M168.28,41.1c0.33-0.01,0.59,0.25,0.6,0.58c0.01,0.32-0.25,0.6-0.57,0.6c-0.33,0.01-0.59-0.25-0.6-0.58
		C167.7,41.38,167.96,41.11,168.28,41.1 M152.24,41.65L152.24,41.65c-1.52,0.67-2.93,1.57-4.17,2.66c-0.35,0.31-0.68,0.62-1,0.96
		l-0.2,0.21l-0.43-1.03l0.09-0.09c0.28-0.29,0.57-0.56,0.87-0.83c1.65-1.46,3.57-2.58,5.65-3.31c0.03-0.01,0.06-0.02,0.1-0.03
		l0.18-0.06l0.06,0.18c0.14,0.4,0.17,0.74,0.03,1.15c-0.07,0.2-0.16,0.39-0.22,0.58c0.17,0.14,0.37,0.26,0.55,0.39
		c0.3,0.2,0.6,0.42,0.79,0.74c0.26,0.42,0.35,0.83,0.14,1.3c-0.07,0.15-0.16,0.29-0.25,0.43c-0.06,0.1-0.13,0.22-0.14,0.33v0.54
		l-0.32-0.27c-0.23-0.2-0.48-0.37-0.73-0.55c-0.24-0.17-0.48-0.33-0.72-0.51l-1.22-0.86l-0.47,0.28l-0.76-0.66l0.22-0.13
		c0.35-0.21,0.7-0.42,1.06-0.61l0.12-0.06l0.1,0.09c0.12,0.1,0.25,0.2,0.37,0.3c0.23,0.18,0.45,0.35,0.68,0.52
		c0.25,0.18,0.5,0.37,0.77,0.53c0.06,0.04,0.22,0.13,0.33,0.18c0-0.02,0-0.03-0.01-0.05c-0.08-0.42-0.7-0.8-1.04-1.02
		c-0.26-0.16-0.53-0.32-0.76-0.52l-0.17-0.14l0.16-0.15C152.05,42.01,152.18,41.83,152.24,41.65 M161.73,72.58
		c0.68-0.16,1.35-0.35,2-0.59c2.37-0.86,4.49-2.27,6.21-4.12l0.39-0.43c-0.17-0.1-0.35-0.1-0.5,0.07c-1.67,1.83-3.75,3.24-6.07,4.11
		c-0.3,0.11-0.61,0.21-0.92,0.31l-0.51,0.17l0.29-0.45c0.11-0.17,0.21-0.34,0.31-0.51c0.18-0.31,0.35-0.63,0.52-0.95
		c0.19-0.36,0.38-0.73,0.56-1.1l0.63-1.27l-0.27,1.39c-0.08,0.43-0.2,0.87-0.36,1.28c1.95-0.82,3.7-2.07,5.13-3.64
		c0.55-0.6,1.29-0.69,1.87-0.09l0.67,0.66l-0.1,0.13c-0.2,0.25-0.4,0.5-0.62,0.74c-0.22,0.25-0.46,0.5-0.69,0.73
		c-1.78,1.78-3.93,3.14-6.3,3.98c-0.66,0.23-1.33,0.41-2.01,0.58c0.08,0.39,0.12,0.89-0.17,1.19c-0.23,0.24-0.62,0.28-0.93,0.27
		l-0.74-0.02l0.65-0.34c0.04-0.02,0.08-0.05,0.12-0.08c0.07-0.06,0.09-0.15,0.1-0.25c0.02-0.21-0.02-0.45-0.05-0.66
		c-0.06-0.36-0.24-0.95-0.54-1.19l-0.2-0.15l0.2-0.15c0.26-0.19,0.55-0.46,0.72-0.73l0.24-0.39L161.73,72.58z M160.48,69.85
		c0.33-0.01,0.59,0.26,0.6,0.58c0.01,0.32-0.25,0.6-0.57,0.6c-0.33,0.01-0.59-0.26-0.6-0.58C159.9,70.13,160.16,69.85,160.48,69.85
		 M171.42,47.35l-0.33-0.46c-0.13,0.15-0.16,0.33-0.03,0.52c1.45,2.04,2.38,4.4,2.75,6.87c0.05,0.33,0.08,0.65,0.11,0.98l0.06,0.54
		l-0.39-0.38c-0.14-0.14-0.29-0.27-0.43-0.41c-0.27-0.24-0.54-0.48-0.81-0.71c-0.31-0.26-0.63-0.52-0.95-0.78l-1.09-0.87l1.28,0.54
		c0.4,0.17,0.79,0.37,1.16,0.61c-0.4-2.1-1.25-4.1-2.49-5.84c-0.45-0.64-0.37-1.34,0.24-1.8c-0.26-0.31-0.51-0.63-0.81-0.9
		c-0.18,0.2-0.36,0.4-0.55,0.6c-0.05,0.06-0.15,0.16-0.17,0.24c-0.01,0.04-0.01,0.1,0,0.14c0,0.04,0.01,0.09,0.01,0.13l0.03,0.33
		l-0.3-0.14c-0.17-0.08-0.34-0.16-0.52-0.22c-0.12-0.04-0.24-0.06-0.37-0.08l-0.36-0.04l1.46-1.69c-0.44-0.38-0.89-0.76-1.36-1.1
		c-0.14,0.21-0.29,0.41-0.43,0.61c-0.06,0.08-0.14,0.19-0.16,0.29c-0.01,0.06-0.01,0.12,0,0.18c0.01,0.05,0.01,0.1,0.02,0.15
		l0.05,0.36l-0.33-0.16c-0.31-0.16-0.52-0.21-0.87-0.22l-0.35-0.01l1.21-1.76c-0.2-0.12-0.39-0.24-0.59-0.35
		c-0.23-0.13-0.46-0.25-0.69-0.38c-0.39,1.37-0.79,2.74-1.19,4.12l-0.13,0.44l-0.22-0.41c-0.22-0.4-0.44-0.8-0.65-1.19l-0.12-0.22
		l0.24-0.06c0.07-0.02,0.22-0.05,0.27-0.1c0.05-0.05,0.08-0.18,0.1-0.25c0.06-0.24,0.12-0.48,0.18-0.71l0.88-3.07l0.2,0.09
		c0.43,0.19,0.86,0.4,1.28,0.62c0.41,0.22,0.8,0.45,1.18,0.7c0.42,0.28,0.84,0.57,1.24,0.88c0.6,0.47,1.17,0.98,1.7,1.53
		c0.19,0.2,0.37,0.4,0.55,0.6c0.38,0.43,0.74,0.87,1.08,1.34c0.2,0.27,0.39,0.55,0.57,0.84c1.44,2.26,2.34,4.81,2.63,7.47
		c0.05,0.45,0.06,0.9,0.08,1.35l0.01,0.19l-1.56,0.08l0.25-0.33c0.27-0.35,0.24-0.82,0.19-1.23
		C173.91,52.14,172.95,49.58,171.42,47.35 M171.98,65.15c0.24-0.41,0.47-0.82,0.68-1.25c-0.43-0.45-0.5-1.15-0.16-1.68
		c0.24-0.37,0.64-0.6,1.07-0.62c0.16-0.5,0.28-1,0.39-1.51c-1.37-0.11-2.75-0.26-4.12-0.2l-0.51,0.02l0.37-0.35
		c0.32-0.3,0.64-0.6,0.94-0.91l0.17-0.17l0.13,0.2c0.05,0.08,0.12,0.16,0.21,0.21c0.13,0.08,0.32,0.08,0.47,0.09
		c0.3,0.01,0.61,0,0.91,0.01l2.64,0.1l-0.03,0.21c-0.04,0.25-0.08,0.49-0.12,0.74c-0.06,0.35-0.14,0.69-0.22,1.03
		c-0.08,0.3-0.16,0.6-0.25,0.89c0.47,0.45,0.57,1.18,0.21,1.73c-0.25,0.39-0.68,0.62-1.14,0.62c-0.16,0.32-0.32,0.64-0.5,0.95
		l-0.19,0.33c0.04,0.04,0.1,0.08,0.14,0.11c0.09,0.07,0.19,0.15,0.28,0.23c0.23,0.21,0.38,0.46,0.41,0.77
		c0.03,0.3-0.06,0.61-0.25,0.85c-0.1,0.12-0.25,0.24-0.4,0.28l-0.31,0.09l0.06-0.31c0.03-0.16,0.08-0.42,0.02-0.57
		c-0.05-0.13-0.2-0.23-0.32-0.3c-0.11-0.07-0.23-0.14-0.35-0.21c-0.17-0.09-0.33-0.19-0.5-0.29c-0.21-0.12-0.43-0.18-0.67-0.12
		l-0.22,0.06l-0.01-0.23c-0.01-0.09,0-0.19,0-0.28c0-0.11,0.01-0.23,0-0.34c0-0.16-0.03-0.33-0.06-0.48l-0.08-0.39L171.98,65.15z
		 M175.3,57.48l-0.04,1.07l-5.63-0.19l0.32-0.31c0.29-0.28,0.57-0.55,0.87-0.82c0.07-0.07,0.15-0.13,0.22-0.2l0.13-0.12l0.13,0.12
		c0.08,0.07,0.15,0.14,0.23,0.21c0.05,0.04,0.1,0.09,0.16,0.11c0.09,0.04,0.22,0.04,0.31,0.04c0.27,0,0.55,0,0.82,0.01
		c0.76,0.03,1.52,0.07,2.27,0.09L175.3,57.48z M161.82,43.83c0.05-0.03,0.1-0.05,0.15-0.08c0.05-0.03,0.1-0.05,0.14-0.09
		c0.1-0.08,0.15-0.25,0.19-0.37l0.98-3.15l1.02,0.34l-0.06,0.18c-0.17,0.52-0.33,1.04-0.49,1.56c-0.09,0.29-0.17,0.59-0.26,0.88
		c-0.23,0.76-0.48,1.51-0.74,2.26l-0.14,0.4l-0.21-0.37c-0.24-0.43-0.44-0.88-0.67-1.33l-0.08-0.16L161.82,43.83z M152.16,68.47
		c-0.05,0.01-0.09,0.02-0.14,0.03c-0.05,0.01-0.1,0.02-0.15,0.04c-0.13,0.06-0.22,0.21-0.29,0.33l-1.71,2.79l-0.91-0.58l0.1-0.16
		c0.28-0.45,0.55-0.91,0.82-1.37c0.17-0.29,0.34-0.58,0.51-0.87c0.39-0.66,0.81-1.3,1.22-1.94l0.24-0.37l0.5,2.04L152.16,68.47z
		 M143.94,49.63c0.03,0.02,0.07,0.03,0.11,0.04c0.08,0.03,0.21,0.05,0.25-0.04c0.09-0.18,0.18-0.37,0.28-0.55
		c0.25-0.48,0.53-0.94,0.83-1.39c0.35-0.51,0.72-1.01,1.12-1.49l0.24-0.29l0.1,0.37c0.1,0.37,0.25,0.72,0.43,1.06l0.15,0.28l-0.32,0
		c-0.07,0-0.14,0-0.21-0.01c-0.07-0.01-0.16-0.02-0.23,0c-0.05,0.01-0.08,0.04-0.11,0.08c-0.2,0.25-0.38,0.52-0.56,0.79
		c-0.23,0.36-0.44,0.73-0.63,1.11c-0.07,0.14-0.14,0.28-0.21,0.43c-0.11,0.25-0.27,0.49-0.52,0.61c-0.25,0.12-0.54,0.08-0.8,0
		c-0.37-0.12-0.74-0.33-1.07-0.53l-0.14-0.09l0.06-0.15c0.21-0.5,0.44-0.99,0.69-1.47c0.6-1.14,1.34-2.18,2.16-3.16l0.13-0.16
		l0.73,0.73l-0.11,0.14C145.36,47.05,144.58,48.29,143.94,49.63 M147.19,69.74L147.19,69.74l-0.14-0.12
		c-0.15-0.13-0.29-0.27-0.43-0.41l-0.05-0.05l0,0c-3.37-3.29-5.24-7.78-5.24-12.48c0-1.09,0.1-2.18,0.3-3.25
		c-0.35-0.21-0.68-0.5-0.87-0.86c-0.36-0.67-0.06-1.31,0.42-1.82l0.4-0.42l-0.07,0.58c-0.01,0.12-0.03,0.24-0.03,0.35
		c-0.02,0.25-0.01,0.57,0.13,0.78c0.07,0.1,0.16,0.17,0.27,0.21c0.09-0.46,0.32-0.91,0.82-1c0.23-0.04,0.46,0,0.67,0.09
		c0.12,0.05,0.22,0.11,0.32,0.19c0.32,0.24,0.41,0.54,0.56,0.88c0.06,0,0.12,0,0.18,0.02c0.07,0.02,0.14,0.06,0.2,0.11l0.23,0.19
		l-0.27,0.13c-0.13,0.06-0.27,0.14-0.37,0.24c-0.25,0.24-0.54,0.44-0.87,0.55c-0.24,0.08-0.49,0.11-0.74,0.08
		c-0.18,0.97-0.26,1.96-0.26,2.95c0,0.24,0,0.48,0.02,0.72l0.01,0.12c0.26-0.1,0.54-0.32,0.75-0.47c0.18-0.14,0.36-0.28,0.54-0.42
		l0.28-0.22l0.1,1.37l-0.12,0.06c-0.15,0.07-0.31,0.13-0.46,0.2c-0.09,0.04-0.19,0.09-0.29,0.14l0.92,0.28l0.1,1.35l-0.31-0.17
		c-0.07-0.04-0.13-0.07-0.2-0.1c-0.38-0.21-0.78-0.43-1.19-0.56c0.17,1.2,0.47,2.39,0.9,3.53c0.16-0.07,0.31-0.14,0.47-0.21
		c0.11-0.05,0.23-0.11,0.34-0.18c0.08-0.05,0.19-0.12,0.23-0.21c0-0.01,0-0.02,0.01-0.02l0.12-0.4l0.23,0.35
		c0.06,0.09,0.12,0.18,0.19,0.26c0.09,0.1,0.19,0.2,0.29,0.29c0.03,0.03,0.07,0.07,0.1,0.1l0.19,0.2l-1.76,0.77
		c0.19,0.42,0.4,0.84,0.62,1.25l0.64-0.4c0.14-0.08,0.29-0.21,0.34-0.37l0.09-0.32l0.23,0.24c0.2,0.21,0.42,0.41,0.65,0.58
		l0.23,0.17l-1.64,1c0.28,0.43,0.58,0.85,0.89,1.25c0.13-0.11,0.26-0.21,0.39-0.32c0.11-0.09,0.22-0.17,0.33-0.26
		c0.02-0.02,0.08-0.06,0.09-0.09c0.01-0.02,0-0.08,0-0.1c0-0.03,0-0.05-0.01-0.07l-0.04-0.43l0.35,0.26
		c0.08,0.06,0.16,0.11,0.24,0.17c0.16,0.11,0.33,0.22,0.5,0.31l0.26,0.13l-1.45,1.2c0.25,0.28,0.52,0.56,0.79,0.83
		c0.22,0.21,0.44,0.41,0.67,0.62c0.74-1.18,1.5-2.36,2.25-3.54l0.23-0.37l0.11,0.42c0.02,0.06,0.03,0.12,0.05,0.18
		c0.04,0.17,0.08,0.34,0.12,0.52c0.05,0.21,0.09,0.42,0.15,0.63l0.07,0.24h-0.25c-0.06,0-0.12,0-0.17,0.02
		c-0.13,0.04-0.23,0.19-0.3,0.29l0,0l-1.98,3.15l-0.17-0.13C147.79,70.26,147.48,70.01,147.19,69.74 M153.46,72.18
		c0,0,0.01,0,0.01,0c1.57,0.51,3.21,0.76,4.86,0.76c0.46,0,0.92-0.02,1.37-0.06l0.29-0.02l-0.34,1.07l-0.13,0.01
		c-0.39,0.03-0.79,0.04-1.19,0.04c-2.2,0-4.37-0.43-6.4-1.27c-0.03-0.01-0.06-0.03-0.1-0.04l-0.17-0.08l0.07-0.17
		c0.15-0.39,0.35-0.68,0.72-0.89c0.18-0.1,0.37-0.18,0.54-0.29c-0.04-0.22-0.11-0.44-0.17-0.66c-0.1-0.35-0.18-0.72-0.12-1.09
		c0.07-0.49,0.27-0.86,0.73-1.07c0.15-0.07,0.31-0.11,0.46-0.16c0.11-0.03,0.24-0.08,0.32-0.16l0.35-0.4l0.06,0.41
		c0.05,0.3,0.12,0.6,0.19,0.9c0.07,0.29,0.15,0.57,0.21,0.87l0.37,1.46l0.53,0.1l0.14,1l-0.26-0.05c-0.4-0.07-0.8-0.15-1.2-0.24
		l-0.13-0.03L154.49,72c-0.02-0.16-0.06-0.32-0.09-0.48c-0.06-0.28-0.12-0.57-0.18-0.85c-0.07-0.31-0.15-0.61-0.24-0.91
		c-0.02-0.07-0.08-0.25-0.14-0.36c-0.01,0.01-0.02,0.03-0.02,0.04c-0.21,0.38,0.02,1.07,0.13,1.46c0.09,0.3,0.19,0.59,0.24,0.9
		l0.04,0.22l-0.22,0.01C153.83,72.04,153.62,72.08,153.46,72.18 M156.63,43.95c-0.66-0.53-1.07-1.34-1.07-2.21
		c0-0.87,0.4-1.68,1.07-2.21c-0.47-0.37-0.81-0.89-0.97-1.47c-9.24,1.33-16.15,9.29-16.15,18.67c0,10.42,8.45,18.87,18.87,18.87
		c10.42,0,18.87-8.45,18.87-18.87c0-9.38-6.9-17.34-16.15-18.67c-0.16,0.58-0.5,1.1-0.97,1.47c0.67,0.53,1.07,1.34,1.07,2.21
		c0,0.87-0.4,1.68-1.07,2.21c0.59,0.47,0.98,1.17,1.06,1.93c4.92,1.27,8.39,5.73,8.39,10.85c0,6.19-5.02,11.2-11.2,11.2
		c-6.19,0-11.2-5.01-11.2-11.2c0-5.12,3.47-9.58,8.39-10.85C155.65,45.12,156.04,44.42,156.63,43.95 M159.93,41.74
		c0-0.86-0.7-1.55-1.55-1.55s-1.55,0.7-1.55,1.55c0,0.86,0.7,1.55,1.55,1.55S159.93,42.59,159.93,41.74 M162.25,47.57
		c-1.23-0.52-2.53-0.78-3.87-0.78c-1.34,0-2.64,0.26-3.87,0.78c-1.18,0.5-2.25,1.22-3.16,2.13c-0.91,0.91-1.63,1.97-2.13,3.16
		c-0.52,1.23-0.78,2.53-0.78,3.87c0,1.34,0.26,2.64,0.78,3.87c0.5,1.18,1.22,2.25,2.13,3.16c0.91,0.91,1.97,1.63,3.16,2.13
		c1.23,0.52,2.53,0.78,3.87,0.78c1.34,0,2.64-0.26,3.87-0.78c1.18-0.5,2.25-1.22,3.16-2.13c0.91-0.91,1.63-1.98,2.13-3.16
		c0.52-1.23,0.78-2.53,0.78-3.87c0-1.33-0.26-2.64-0.78-3.87c-0.5-1.18-1.22-2.25-2.13-3.16C164.5,48.79,163.43,48.07,162.25,47.57
		 M159.84,45.62c-0.22-0.59-0.79-1.02-1.46-1.02c-0.66,0-1.24,0.42-1.46,1.02c0.48-0.06,0.97-0.1,1.46-0.1
		C158.87,45.53,159.35,45.56,159.84,45.62 M156.95,37.91c0.24,0.57,0.8,0.96,1.43,0.96c0.64,0,1.2-0.39,1.43-0.96
		c-0.48-0.04-0.95-0.05-1.43-0.05S157.42,37.88,156.95,37.91 M176.93,48.89c1.05,2.49,1.58,5.13,1.58,7.84s-0.53,5.35-1.58,7.84
		c-1.02,2.4-2.47,4.56-4.31,6.4c-1.84,1.84-4,3.3-6.4,4.32c-2.49,1.05-5.13,1.58-7.84,1.58c-2.7,0-5.35-0.53-7.84-1.58
		c-2.4-1.02-4.56-2.47-6.4-4.32c-1.84-1.84-3.3-4-4.31-6.4c-1.05-2.49-1.58-5.13-1.58-7.84s0.53-5.35,1.58-7.84
		c1.01-2.4,2.47-4.55,4.31-6.4c1.84-1.84,4-3.3,6.4-4.31c2.49-1.05,5.13-1.58,7.84-1.58c2.7,0,5.35,0.53,7.84,1.58
		c2.4,1.01,4.56,2.47,6.4,4.31C174.46,44.34,175.91,46.49,176.93,48.89 M64.54,69.56v-1.28c-0.19,0.09-0.37,0.17-0.56,0.26
		l-0.1,0.05c-0.15,0.07-0.32,0.16-0.42,0.31c-0.05,0.09-0.08,0.18-0.08,0.28c0,0.19,0.06,0.36,0.2,0.48
		c0.1,0.08,0.23,0.14,0.36,0.14C64.14,69.81,64.39,69.7,64.54,69.56 M74.9,67.01c-0.18-0.27-0.52-0.41-0.83-0.41
		c-0.22,0-0.44,0.08-0.61,0.22c-0.39,0.31-0.48,0.86-0.48,1.33c0,0.43,0.1,0.89,0.38,1.23c0.19,0.24,0.48,0.42,0.79,0.42
		c0.26,0,0.54-0.11,0.75-0.26V67.01z M89.2,67.56c0.47,0,0.93-0.01,1.39-0.03h0h0c0.02,0,0.09,0,0.11-0.02
		c0.01-0.01,0.01-0.05,0.01-0.07v0c0-0.24-0.07-0.49-0.24-0.66c-0.12-0.13-0.28-0.19-0.45-0.19c-0.04,0-0.08,0-0.11,0.01
		c-0.19,0.04-0.34,0.17-0.45,0.32C89.33,67.11,89.25,67.33,89.2,67.56 M107.54,69.56v-1.28c-0.19,0.09-0.37,0.17-0.56,0.26
		l-0.1,0.05c-0.15,0.07-0.32,0.16-0.42,0.31c-0.05,0.09-0.08,0.18-0.08,0.28c0,0.19,0.06,0.36,0.2,0.48
		c0.09,0.08,0.23,0.14,0.36,0.14C107.14,69.81,107.39,69.7,107.54,69.56 M115.94,64.77c-0.03,0.02-0.03,0.05-0.04,0.08
		c-0.01,0.03-0.01,0.07-0.01,0.11c0,0.06,0,0.11,0,0.17v1.71h0.36c0.37,0,0.84-0.06,1.1-0.37c0.16-0.2,0.21-0.46,0.21-0.71
		c0-0.72-0.48-1.07-1.16-1.07C116.28,64.69,116.04,64.7,115.94,64.77 M115.88,67.39v1.81c0,0.13,0,0.27,0.04,0.4
		c0.02,0.08,0.05,0.16,0.11,0.22c0.06,0.06,0.13,0.09,0.2,0.11c0.12,0.03,0.25,0.03,0.37,0.03c0.3,0,0.62-0.09,0.86-0.29
		c0.3-0.25,0.41-0.61,0.41-1c0-0.28-0.06-0.56-0.23-0.78c-0.32-0.42-0.95-0.5-1.44-0.5H115.88z M122.18,69.56v-1.28
		c-0.19,0.09-0.37,0.17-0.56,0.26l-0.1,0.05c-0.15,0.07-0.33,0.16-0.42,0.31c-0.05,0.09-0.08,0.18-0.08,0.28
		c0,0.19,0.06,0.36,0.2,0.48c0.1,0.08,0.23,0.14,0.36,0.14C121.77,69.81,122.03,69.7,122.18,69.56 M64.82,70.41
		c-0.1-0.1-0.16-0.2-0.21-0.33c-0.01,0.01-0.02,0.02-0.03,0.02c-0.06,0.04-0.12,0.08-0.18,0.12c-0.14,0.1-0.29,0.19-0.44,0.27
		c-0.12,0.06-0.26,0.12-0.4,0.12c-0.36,0-0.69-0.14-0.93-0.41c-0.21-0.23-0.34-0.55-0.34-0.87c0-0.56,0.33-0.87,0.83-1.04l0.11-0.04
		c0.12-0.04,0.25-0.09,0.37-0.13c0.19-0.07,0.39-0.14,0.58-0.22c0.08-0.03,0.15-0.07,0.23-0.1c0.04-0.02,0.09-0.05,0.13-0.08v-0.18
		c0-0.29-0.07-0.63-0.32-0.8c-0.11-0.07-0.23-0.1-0.36-0.1c-0.15,0-0.26,0.06-0.35,0.17c-0.05,0.07-0.09,0.15-0.12,0.23
		c-0.04,0.11-0.08,0.23-0.11,0.35c-0.06,0.2-0.18,0.32-0.4,0.32c-0.15,0-0.29-0.08-0.39-0.19c-0.09-0.1-0.15-0.22-0.15-0.35
		c0-0.21,0.2-0.37,0.36-0.48c0.14-0.1,0.29-0.2,0.45-0.29c0.21-0.12,0.44-0.23,0.67-0.31c0.1-0.03,0.19-0.06,0.29-0.08
		c0.01,0,0.01,0,0.02,0c0.31,0,0.63,0.09,0.89,0.28l0,0c0.39,0.32,0.52,0.69,0.52,1.19v1.8c0,0.04,0,0.07,0,0.11
		c0.01,0.1,0.03,0.26,0.12,0.33c0.03,0.02,0.06,0.03,0.1,0.03c0.1,0,0.2-0.04,0.28-0.09l0.1-0.06l0.16,0.47l-0.93,0.54h-0.03
		C65.19,70.62,64.95,70.54,64.82,70.41 M69.61,70.02c-0.28,0.23-0.58,0.45-0.93,0.55c-0.12,0.04-0.25,0.05-0.38,0.05
		c-0.28,0-0.56-0.07-0.79-0.25c-0.39-0.3-0.5-0.8-0.5-1.27v-1.86c0-0.07,0-0.14-0.01-0.21c0-0.04-0.01-0.09-0.02-0.14
		c-0.01-0.04-0.03-0.09-0.06-0.12c-0.04-0.03-0.1-0.04-0.14-0.05l-0.33-0.06v-0.44l0.1,0c0.19-0.01,0.38-0.03,0.56-0.05
		c0.16-0.02,0.32-0.04,0.48-0.06c0.12-0.02,0.24-0.04,0.36-0.06l0.13-0.02l-0.01,0.13c-0.02,0.19-0.02,0.39-0.02,0.58
		c0,0.27,0,0.54,0,0.81v1.31c0,0.27,0.05,0.58,0.26,0.77c0.13,0.11,0.29,0.16,0.45,0.16c0.33,0,0.61-0.14,0.85-0.36v-2.18
		c0-0.1,0-0.21-0.02-0.31c-0.01-0.05-0.03-0.1-0.07-0.13c-0.06-0.04-0.16-0.06-0.23-0.07l-0.39-0.05v-0.45l0.1,0
		c0.11,0,0.22-0.01,0.32-0.02c0.23-0.02,0.47-0.04,0.7-0.07c0.17-0.02,0.33-0.04,0.5-0.07l0.12-0.02v3.29c0,0.09,0,0.2,0.02,0.29
		c0.01,0.04,0.02,0.09,0.06,0.12c0.05,0.05,0.18,0.05,0.25,0.06l0.35,0.02v0.46l-0.09,0.01c-0.23,0.04-0.46,0.08-0.69,0.13
		c-0.27,0.06-0.53,0.13-0.79,0.2l-0.13,0.04V70.02z M74.9,70.1c-0.04,0.03-0.09,0.05-0.13,0.08c-0.1,0.06-0.2,0.11-0.29,0.17h0
		c-0.15,0.09-0.32,0.17-0.49,0.23c-0.08,0.02-0.17,0.04-0.25,0.04c-0.46,0-0.92-0.24-1.24-0.56c-0.44-0.44-0.64-1.02-0.64-1.63
		c0-0.39,0.1-0.76,0.29-1.11c0.22-0.39,0.54-0.72,0.93-0.95c0.41-0.24,0.88-0.36,1.35-0.36c0.05,0,0.1,0,0.16,0.01
		c0.1,0.01,0.19,0.02,0.29,0.04c0.01,0,0.03,0.01,0.04,0.01v-1.2c0-0.1,0-0.21-0.01-0.3c-0.01-0.05-0.02-0.11-0.06-0.14
		c-0.04-0.05-0.11-0.06-0.17-0.08c-0.05-0.01-0.11-0.02-0.16-0.02c-0.07-0.01-0.15-0.02-0.22-0.02l-0.09-0.01v-0.44l0.09-0.01
		c0.22-0.03,0.43-0.06,0.65-0.11c0.16-0.03,0.32-0.06,0.48-0.1c0.13-0.03,0.27-0.07,0.39-0.11l0.13-0.04v5.82c0,0.1,0,0.21,0.02,0.3
		c0.01,0.04,0.02,0.09,0.05,0.12c0.05,0.05,0.18,0.05,0.25,0.06l0.38,0.03v0.46l-0.08,0.02c-0.04,0-0.07,0.01-0.11,0.02
		c-0.37,0.06-0.73,0.14-1.09,0.23c-0.1,0.03-0.21,0.06-0.31,0.1l-0.14,0.05V70.1z M78.4,69.37c0,0.07,0,0.14,0,0.21
		c0,0.05,0.01,0.1,0.01,0.15c0.01,0.06,0.03,0.13,0.07,0.17c0.04,0.04,0.1,0.06,0.16,0.07c0.05,0.01,0.09,0.02,0.14,0.02
		c0.06,0.01,0.12,0.01,0.19,0.02l0.09,0.01v0.47h-2.33v-0.47l0.09-0.01c0.1-0.01,0.21-0.02,0.31-0.04c0.05-0.01,0.11-0.03,0.15-0.07
		c0.04-0.04,0.06-0.11,0.07-0.17c0.01-0.05,0.01-0.1,0.01-0.16c0-0.07,0-0.14,0-0.21v-1.94c0-0.06,0-0.13,0-0.19
		c0-0.05,0-0.1-0.01-0.14c-0.01-0.05-0.02-0.11-0.05-0.16c-0.03-0.04-0.09-0.06-0.13-0.07c-0.09-0.03-0.19-0.04-0.29-0.06L76.8,66.8
		v-0.42l0.09-0.01c0.47-0.07,0.94-0.19,1.38-0.37l0.14-0.06V69.37z M77.83,65.33c-0.34,0-0.63-0.3-0.63-0.64
		c0-0.36,0.28-0.65,0.64-0.65c0.36,0,0.62,0.3,0.62,0.65C78.46,65.04,78.17,65.33,77.83,65.33 M86.89,68.71l0.04-0.08l0.47,0.17
		l-0.03,0.09c-0.05,0.19-0.12,0.38-0.18,0.57c-0.06,0.17-0.12,0.34-0.18,0.51c-0.05,0.13-0.1,0.26-0.16,0.39l-0.02,0.05l-0.12,0.03
		c-0.23,0.05-0.47,0.1-0.7,0.13c-0.32,0.05-0.64,0.08-0.96,0.08c-0.99,0-1.97-0.28-2.67-1.02c-0.57-0.61-0.85-1.42-0.85-2.25
		c0-0.73,0.2-1.42,0.64-2.01c0.33-0.44,0.77-0.78,1.27-1.01C83.99,64.11,84.6,64,85.21,64c0.29,0,0.58,0.02,0.87,0.06
		c0.22,0.03,0.44,0.07,0.66,0.11c0.08,0.02,0.17,0.03,0.25,0.05l0.08,0.01l0.01,0.08c0.04,0.39,0.08,0.79,0.14,1.18
		c0.01,0.1,0.03,0.2,0.04,0.3l0.01,0.1L86.79,66l-0.03-0.09c-0.1-0.37-0.26-0.77-0.58-1.01c-0.08-0.06-0.18-0.11-0.27-0.15h0l0,0
		c-0.11-0.05-0.23-0.08-0.34-0.1c-0.14-0.03-0.28-0.05-0.43-0.05c-0.05,0-0.1,0-0.15,0c-0.48,0-0.94,0.12-1.33,0.42
		c-0.66,0.51-0.88,1.38-0.88,2.19c0,0.52,0.08,1.06,0.29,1.54c0.18,0.4,0.44,0.75,0.8,1c0.36,0.24,0.78,0.35,1.21,0.35
		c0.27,0,0.54-0.04,0.79-0.16c0.21-0.1,0.38-0.25,0.53-0.43C86.6,69.25,86.76,68.98,86.89,68.71 M89.13,68.18
		c0.01,0.43,0.12,0.87,0.43,1.18c0.23,0.23,0.53,0.36,0.85,0.36c0.4,0,0.73-0.18,1.02-0.45l0.09-0.08l0.26,0.39l-0.05,0.06
		c-0.27,0.36-0.62,0.67-1.04,0.84c-0.19,0.08-0.42,0.14-0.63,0.14c-0.58,0-1.11-0.23-1.48-0.69c-0.33-0.41-0.49-0.94-0.49-1.46
		c0-0.63,0.22-1.28,0.65-1.74c0.38-0.42,0.91-0.72,1.49-0.72c0.41,0,0.8,0.17,1.09,0.46c0.29,0.3,0.47,0.71,0.47,1.13v0v0
		c-0.01,0.19-0.04,0.36-0.25,0.41l0,0h0c-0.03,0.01-0.07,0.01-0.1,0.02c-0.05,0.01-0.1,0.01-0.16,0.02
		c-0.15,0.01-0.3,0.02-0.45,0.04c-0.41,0.03-0.83,0.05-1.24,0.07C89.44,68.17,89.29,68.17,89.13,68.18 M94.29,67.22v2.19
		c0,0.07,0,0.14,0,0.21c0,0.05,0,0.1,0.01,0.15c0.01,0.05,0.02,0.12,0.06,0.16c0.03,0.03,0.09,0.05,0.13,0.06
		c0.09,0.02,0.19,0.03,0.28,0.04l0.09,0.01v0.47H92.6v-0.47l0.09-0.01c0.06-0.01,0.12-0.01,0.19-0.02c0.05-0.01,0.09-0.01,0.14-0.02
		c0.05-0.01,0.12-0.03,0.16-0.07c0.04-0.04,0.05-0.1,0.06-0.16c0.01-0.05,0.01-0.1,0.01-0.15c0-0.06,0-0.13,0-0.2v-1.96
		c0-0.07,0-0.13,0-0.2c0-0.05,0-0.1-0.01-0.14c-0.01-0.05-0.02-0.11-0.06-0.16c-0.03-0.03-0.08-0.05-0.13-0.07
		c-0.08-0.02-0.18-0.04-0.26-0.05l-0.08-0.02v-0.43l0.09-0.01c0.46-0.07,0.93-0.19,1.36-0.37l0.14-0.06l0,0.16c0,0.18,0,0.36,0,0.54
		c0.16-0.11,0.31-0.22,0.47-0.32c0.25-0.17,0.52-0.29,0.83-0.29c0.28,0,0.54,0.07,0.77,0.24c0.42,0.31,0.56,0.85,0.56,1.36v1.8
		c0,0.07,0,0.14,0,0.21c0,0.05,0.01,0.1,0.01,0.15c0.01,0.05,0.02,0.12,0.06,0.16c0.03,0.03,0.09,0.05,0.14,0.06
		c0.09,0.02,0.19,0.03,0.28,0.04l0.09,0.01v0.47h-2.19v-0.47l0.09-0.01c0.08-0.01,0.18-0.02,0.26-0.04c0.05-0.01,0.1-0.03,0.13-0.06
		c0.04-0.04,0.06-0.11,0.07-0.17c0.01-0.05,0.01-0.11,0.01-0.16c0-0.07,0-0.15,0-0.23v-1.58c0-0.29-0.05-0.65-0.29-0.84
		c-0.12-0.09-0.27-0.13-0.43-0.13C94.84,66.82,94.53,67.01,94.29,67.22 M98.37,66.74h-0.61l-0.09-0.24l0.33-0.37h0.37v-0.74
		l0.03-0.03c0.12-0.12,0.25-0.23,0.37-0.34c0.12-0.1,0.23-0.21,0.35-0.31l0.04-0.04l0.28,0.06l0,0.09
		c-0.02,0.33-0.02,0.66-0.03,0.99c0,0.11,0,0.21,0,0.32h0.99l0.03,0.03c0.06,0.07,0.08,0.18,0.07,0.27
		c-0.01,0.11-0.06,0.22-0.15,0.29l0,0l-0.03,0.02H99.4v2.31c0,0.23,0.03,0.62,0.25,0.75c0.06,0.03,0.12,0.04,0.18,0.04
		c0.18,0,0.35-0.06,0.51-0.13l0.1-0.05l0.15,0.46l-0.71,0.38c-0.13,0.07-0.3,0.13-0.45,0.13c-0.78,0-1.07-0.52-1.07-1.25V66.74z
		 M103.08,67.64v1.77c0,0.1,0,0.22,0.01,0.32c0.01,0.05,0.02,0.12,0.06,0.16c0.04,0.05,0.12,0.07,0.18,0.09
		c0.06,0.01,0.12,0.02,0.18,0.03c0.08,0.01,0.16,0.02,0.24,0.02l0.09,0.01v0.48h-2.42v-0.47l0.09-0.01
		c0.06-0.01,0.12-0.01,0.18-0.02c0.04-0.01,0.09-0.01,0.13-0.02c0.05-0.01,0.11-0.03,0.15-0.07c0.04-0.04,0.05-0.1,0.06-0.16
		c0.01-0.05,0.01-0.1,0.01-0.14c0-0.07,0-0.13,0-0.2v-1.99c0-0.07,0-0.13,0-0.2c0-0.05,0-0.1-0.01-0.14
		c-0.01-0.05-0.02-0.11-0.06-0.15c-0.03-0.04-0.09-0.05-0.13-0.06c-0.09-0.02-0.19-0.03-0.28-0.04l-0.09-0.01v-0.43l0.09-0.01
		c0.37-0.06,0.72-0.14,1.07-0.26c0.1-0.04,0.2-0.07,0.3-0.11l0.14-0.06v0.87c0.12-0.16,0.24-0.32,0.39-0.45
		c0.16-0.15,0.35-0.29,0.57-0.32c0.04-0.01,0.08-0.01,0.12-0.01c0.18,0,0.36,0.05,0.49,0.18c0.11,0.1,0.17,0.25,0.17,0.4
		c0,0.15-0.05,0.29-0.13,0.41c-0.07,0.1-0.16,0.2-0.27,0.26c-0.13,0.07-0.26,0.06-0.37-0.04l0,0l0,0c-0.07-0.07-0.18-0.18-0.28-0.21
		C103.74,67,103.72,67,103.69,67c-0.09,0-0.21,0.1-0.27,0.15C103.27,67.28,103.16,67.46,103.08,67.64 M107.82,70.41
		c-0.1-0.1-0.16-0.2-0.21-0.33c-0.01,0.01-0.02,0.02-0.03,0.02c-0.06,0.04-0.12,0.08-0.18,0.12c-0.14,0.1-0.29,0.19-0.44,0.27
		c-0.12,0.06-0.26,0.12-0.4,0.12c-0.36,0-0.69-0.14-0.93-0.41c-0.21-0.23-0.34-0.55-0.34-0.87c0-0.56,0.33-0.87,0.83-1.04l0.11-0.04
		c0.12-0.04,0.25-0.09,0.37-0.13c0.19-0.07,0.39-0.14,0.58-0.22c0.08-0.03,0.15-0.07,0.23-0.1c0.04-0.02,0.09-0.05,0.13-0.08v-0.18
		c0-0.29-0.07-0.63-0.32-0.8c-0.11-0.07-0.23-0.1-0.36-0.1c-0.15,0-0.26,0.06-0.35,0.17c-0.05,0.07-0.09,0.15-0.12,0.23
		c-0.04,0.11-0.08,0.23-0.11,0.35l0,0l0,0.01c-0.06,0.2-0.19,0.31-0.39,0.31c-0.15,0-0.29-0.08-0.39-0.19
		c-0.09-0.1-0.15-0.22-0.15-0.35c0-0.21,0.2-0.37,0.36-0.48c0.14-0.1,0.29-0.2,0.45-0.29c0.21-0.12,0.44-0.23,0.67-0.31
		c0.1-0.03,0.19-0.06,0.29-0.08c0.01,0,0.01,0,0.02,0c0.31,0,0.64,0.09,0.89,0.28h0v0c0.39,0.32,0.52,0.69,0.52,1.19v1.8
		c0,0.04,0,0.07,0,0.11c0.01,0.1,0.03,0.26,0.12,0.33c0.03,0.02,0.06,0.03,0.1,0.03c0.1,0,0.2-0.04,0.28-0.09l0.1-0.06l0.16,0.47
		l-0.93,0.54h-0.03C108.18,70.62,107.95,70.54,107.82,70.41 M111.19,69.4c0,0.07,0,0.13,0,0.2c0,0.05,0,0.1,0.01,0.15
		c0.01,0.06,0.02,0.12,0.06,0.16c0.04,0.04,0.1,0.06,0.15,0.07c0.05,0.01,0.09,0.02,0.14,0.02c0.06,0.01,0.13,0.01,0.19,0.02
		l0.09,0.01v0.47h-2.33v-0.47l0.09-0.01c0.06-0.01,0.12-0.01,0.19-0.02c0.05-0.01,0.09-0.01,0.14-0.02
		c0.05-0.01,0.12-0.03,0.16-0.07c0.04-0.04,0.06-0.11,0.07-0.16c0.01-0.05,0.01-0.1,0.01-0.15c0-0.07,0-0.13,0-0.2v-4.51
		c0-0.1,0-0.21-0.01-0.31c-0.01-0.05-0.02-0.11-0.06-0.15c-0.04-0.04-0.1-0.06-0.15-0.08c-0.04-0.01-0.09-0.02-0.14-0.03
		c-0.06-0.01-0.12-0.02-0.19-0.03l-0.09-0.01v-0.44l0.09-0.01c0.12-0.01,0.23-0.03,0.35-0.05c0.2-0.04,0.41-0.08,0.61-0.13
		c0.16-0.04,0.32-0.08,0.47-0.14l0.14-0.05V69.4z M117.72,67.03c0.48,0.13,0.95,0.38,1.19,0.83c0.12,0.22,0.17,0.46,0.17,0.71
		c0,0.68-0.38,1.23-0.96,1.55c-0.54,0.3-1.09,0.39-1.7,0.39h-2.47v-0.48l0.09-0.01c0.08-0.01,0.17-0.02,0.25-0.03
		c0.06-0.01,0.12-0.02,0.19-0.03c0.07-0.02,0.16-0.05,0.21-0.1c0.05-0.06,0.07-0.14,0.08-0.22c0.01-0.06,0.01-0.12,0.01-0.19
		c0-0.08,0-0.16,0-0.24v-3.77c0-0.08,0-0.17,0-0.25c0-0.06-0.01-0.12-0.02-0.19c-0.01-0.08-0.03-0.16-0.09-0.22
		c-0.05-0.06-0.14-0.09-0.21-0.1c-0.06-0.01-0.12-0.02-0.18-0.03c-0.08-0.01-0.16-0.02-0.24-0.02l-0.09-0.01v-0.48h2.63
		c0.51,0,1.09,0.05,1.52,0.35c0.39,0.27,0.6,0.67,0.6,1.15C118.71,66.3,118.3,66.78,117.72,67.03 M122.46,70.41
		c-0.1-0.1-0.16-0.2-0.21-0.33c-0.01,0.01-0.02,0.02-0.03,0.02c-0.06,0.04-0.12,0.08-0.18,0.12c-0.14,0.1-0.29,0.19-0.44,0.27
		c-0.12,0.06-0.26,0.12-0.39,0.12c-0.36,0-0.69-0.14-0.93-0.41c-0.21-0.23-0.34-0.55-0.34-0.87c0-0.56,0.33-0.86,0.83-1.04
		l0.11-0.04c0.12-0.04,0.25-0.09,0.37-0.13c0.2-0.07,0.39-0.14,0.58-0.22c0.08-0.03,0.15-0.07,0.23-0.1
		c0.04-0.02,0.09-0.05,0.13-0.08v-0.18c0-0.29-0.07-0.63-0.32-0.8c-0.11-0.07-0.23-0.1-0.36-0.1c-0.15,0-0.26,0.06-0.35,0.17
		c-0.05,0.07-0.09,0.15-0.12,0.23c-0.04,0.11-0.08,0.23-0.11,0.35c-0.06,0.2-0.18,0.32-0.4,0.32c-0.14,0-0.29-0.08-0.39-0.19
		c-0.09-0.1-0.15-0.22-0.15-0.35c0-0.21,0.2-0.37,0.36-0.48c0.14-0.1,0.3-0.2,0.45-0.29c0.21-0.12,0.44-0.23,0.68-0.31
		c0.09-0.03,0.19-0.06,0.29-0.08c0.01,0,0.01,0,0.02,0c0.31,0,0.64,0.09,0.89,0.28h0l0,0c0.39,0.32,0.52,0.69,0.52,1.19v1.8
		c0,0.04,0,0.07,0,0.11c0.01,0.1,0.03,0.26,0.12,0.33c0.03,0.02,0.06,0.03,0.1,0.03c0.1,0,0.2-0.04,0.28-0.09l0.1-0.06l0.16,0.47
		l-0.93,0.54H123C122.82,70.62,122.58,70.54,122.46,70.41 M125.74,67.22v2.19c0,0.07,0,0.14,0,0.21c0,0.05,0,0.1,0.01,0.15
		c0.01,0.05,0.02,0.12,0.06,0.16c0.03,0.03,0.09,0.05,0.13,0.06c0.09,0.02,0.19,0.03,0.28,0.04l0.09,0.01v0.47h-2.26v-0.47
		l0.09-0.01c0.06-0.01,0.13-0.02,0.19-0.02c0.05-0.01,0.1-0.01,0.14-0.02c0.05-0.01,0.12-0.03,0.16-0.07
		c0.04-0.04,0.05-0.1,0.06-0.16c0.01-0.05,0.01-0.1,0.01-0.15c0-0.06,0-0.13,0-0.2v-1.96c0-0.07,0-0.13,0-0.2
		c0-0.05-0.01-0.1-0.01-0.14c-0.01-0.05-0.02-0.11-0.06-0.16c-0.03-0.04-0.08-0.06-0.13-0.07c-0.08-0.02-0.18-0.04-0.27-0.05
		l-0.08-0.02v-0.43l0.09-0.01c0.46-0.07,0.93-0.19,1.36-0.37l0.14-0.06l0,0.16c0,0.18,0,0.36,0,0.54c0.16-0.11,0.31-0.22,0.47-0.32
		c0.26-0.17,0.52-0.29,0.83-0.29c0.28,0,0.54,0.07,0.77,0.24c0.42,0.31,0.56,0.85,0.56,1.36v1.8c0,0.07,0,0.14,0,0.21
		c0,0.05,0,0.1,0.01,0.15c0.01,0.05,0.02,0.12,0.06,0.16c0.03,0.03,0.09,0.05,0.14,0.06c0.09,0.02,0.19,0.03,0.28,0.04l0.09,0.01
		v0.47h-2.19v-0.47l0.09-0.01c0.08-0.01,0.17-0.02,0.26-0.04c0.05-0.01,0.1-0.03,0.13-0.06c0.04-0.04,0.06-0.11,0.07-0.17
		c0.01-0.05,0.01-0.11,0.01-0.16c0-0.07,0-0.15,0-0.23v-1.58c0-0.29-0.05-0.65-0.29-0.84c-0.12-0.09-0.27-0.13-0.43-0.13
		C126.29,66.82,125.98,67.01,125.74,67.22 M133.18,69.56c0.1,0.1,0.21,0.21,0.33,0.3c0.07,0.06,0.15,0.1,0.23,0.12
		c0.1,0.03,0.2,0.04,0.3,0.04l0.1,0.01v0.48h-0.1c-0.27,0-0.53,0-0.8,0.01c-0.18,0-0.36,0-0.53,0.01l-0.05,0l-0.03-0.04
		c-0.09-0.12-0.19-0.23-0.28-0.35c-0.16-0.2-0.33-0.41-0.49-0.61l-0.5-0.63c-0.06-0.07-0.11-0.14-0.17-0.21
		c-0.02-0.02-0.04-0.04-0.05-0.06c-0.01-0.01-0.01-0.02-0.02-0.03h0c-0.04-0.04-0.08-0.09-0.12-0.13c-0.02-0.01-0.04-0.03-0.06-0.03
		h-0.01h0h0c-0.01,0-0.03,0-0.05,0v0.96c0,0.07,0,0.13,0,0.2c0,0.05,0,0.1,0.01,0.15c0.01,0.06,0.02,0.12,0.06,0.16
		c0.04,0.04,0.1,0.06,0.15,0.07c0.04,0.01,0.09,0.02,0.14,0.03c0.06,0.01,0.12,0.02,0.19,0.02l0.09,0.01v0.47h-2.32v-0.47l0.09-0.01
		c0.06-0.01,0.13-0.01,0.19-0.02c0.05-0.01,0.09-0.01,0.14-0.03c0.06-0.01,0.12-0.03,0.16-0.08c0.04-0.04,0.05-0.11,0.06-0.16
		c0.01-0.05,0.01-0.1,0.01-0.14c0-0.06,0-0.13,0-0.19v-4.5c0-0.1,0-0.22-0.01-0.32c-0.01-0.05-0.02-0.11-0.06-0.15
		c-0.04-0.04-0.1-0.06-0.15-0.08c-0.04-0.01-0.09-0.02-0.14-0.03c-0.06-0.01-0.12-0.02-0.18-0.03l-0.09-0.01v-0.44l0.09-0.01
		c0.2-0.02,0.4-0.05,0.6-0.09c0.28-0.06,0.57-0.13,0.83-0.23l0.14-0.05v4.5c0.16-0.06,0.29-0.14,0.41-0.27v0h0
		c0.12-0.12,0.24-0.26,0.35-0.39c0.07-0.08,0.14-0.17,0.2-0.25c0.05-0.07,0.11-0.14,0.15-0.21l0,0c0.02-0.03,0.05-0.07,0.06-0.11
		c0-0.01,0.01-0.03,0.01-0.04c-0.01-0.01-0.05-0.03-0.07-0.03c-0.05-0.01-0.1-0.02-0.15-0.03c-0.04-0.01-0.08-0.01-0.12-0.01
		l-0.09-0.01v-0.47l2.15-0.09v0.46l-0.09,0.01c-0.14,0.02-0.29,0.05-0.43,0.08c-0.11,0.03-0.21,0.06-0.31,0.12
		c-0.17,0.09-0.32,0.23-0.45,0.37c-0.06,0.07-0.13,0.14-0.19,0.21c-0.08,0.09-0.16,0.18-0.24,0.28c-0.1,0.11-0.19,0.22-0.28,0.33
		c0.03,0.04,0.06,0.08,0.09,0.12c0.06,0.07,0.11,0.14,0.17,0.21c0.14,0.17,0.27,0.33,0.41,0.5c0.14,0.17,0.28,0.33,0.42,0.49
		C132.98,69.33,133.08,69.45,133.18,69.56 M59.93,66.74c0.17,0.09,0.34,0.18,0.51,0.28c0.14,0.09,0.29,0.18,0.42,0.28
		c0.23,0.18,0.43,0.38,0.57,0.64c0.13,0.25,0.18,0.53,0.18,0.81c0,0.32-0.08,0.62-0.23,0.89c-0.19,0.32-0.46,0.56-0.79,0.73
		c-0.37,0.19-0.78,0.27-1.18,0.27c-0.53,0-1.01-0.13-1.5-0.32l-0.05-0.02l-0.01-0.05c-0.03-0.13-0.06-0.26-0.08-0.39
		c-0.03-0.18-0.06-0.35-0.09-0.53c-0.03-0.19-0.06-0.38-0.08-0.57l-0.01-0.09l0.49-0.12l0.03,0.09c0.22,0.72,0.65,1.42,1.49,1.42
		c0.57,0,0.96-0.39,0.96-0.97c0-0.19-0.03-0.38-0.12-0.55c-0.09-0.16-0.23-0.29-0.37-0.4c-0.09-0.07-0.19-0.13-0.29-0.19
		c-0.12-0.07-0.24-0.14-0.36-0.21c-0.31-0.17-0.62-0.35-0.89-0.57c-0.22-0.18-0.42-0.39-0.55-0.65c-0.12-0.24-0.17-0.5-0.17-0.77
		c0-1.15,1.04-1.77,2.08-1.77c0.21,0,0.43,0.02,0.64,0.05c0.16,0.03,0.33,0.06,0.49,0.09c0.05,0.01,0.1,0.02,0.15,0.03l0.07,0.01
		l0.02,0.19c0.05,0.42,0.09,0.83,0.14,1.25l0.01,0.09l-0.49,0.1l-0.02-0.09c-0.02-0.08-0.04-0.16-0.07-0.24
		c-0.07-0.2-0.15-0.41-0.29-0.57c-0.22-0.27-0.52-0.37-0.85-0.37c-0.31,0-0.59,0.11-0.75,0.4c-0.08,0.15-0.12,0.34-0.12,0.51
		c0,0.15,0.03,0.3,0.09,0.44c0.08,0.18,0.22,0.31,0.37,0.43c0.1,0.07,0.2,0.14,0.3,0.2C59.68,66.6,59.8,66.67,59.93,66.74
		 M100.34,46.76c0.15-0.14,0.4-0.72,0.22-0.95c-0.2-0.26-0.76-0.11-1.05,0c-0.58,0.22-1.24,0.66-1.67,0.97
		c-0.4,0.29-1.11,0.84-1.44,1.22c-0.42,0.5-1.62,2.09-0.28,2.46c0.97,0.27,2.69,0.08,3.67-0.02c1.6-0.16,3.21-0.34,4.82-0.47
		c0.93-0.08,2.08-0.12,2.71,0.54c0.03,0.03,0.29,0.31,0.26,0.38c-0.03,0.06-1.01,0.13-1.15,0.15c-2.38,0.28-4.7,0.62-7.07,0.88
		c-1.1,0.12-3.91,0.29-4.89-0.13c-0.44-0.19-0.83-0.53-1.06-0.93c-0.06-0.1-0.18-0.36-0.23-0.41c-0.09,0.03-0.11,0.11-0.15,0.22
		c-0.13,0.46-0.14,0.57,0.01,0.87c0.15,0.31,0.32,0.67,0.41,1.03c0.12,0.5,0.08,0.56-0.35,0.95l-0.81,0.62
		c-0.6,0.41-2.32,1.48-3.04,0.72c-0.24-0.26-0.45-0.56-0.44-0.97c0.18-0.05,0.43-0.2,0.6-0.28c0.42-0.21,1.23-0.72,1.57-1.04
		c0.27-0.26,0.58-0.6,0.58-1.16c0-0.64-0.32-0.73-0.85-0.89c-0.45-0.13-0.95-0.19-1.35-0.39c-0.2-0.1-0.42-0.21-0.29-0.5
		c0.21-0.47,0.76-1.13,1.15-1.45c0.84-0.68,0.91,0.04,1.03,0.15c0.14-0.04,0.23-0.28,0.25-0.47c0.05-0.42-0.11-0.9-0.57-0.85
		c-0.26,0.03-0.5,0.23-0.69,0.37c-0.08,0.06-0.12,0.11-0.19,0.17c-0.39,0.35-0.66,0.74-0.93,1.19c-0.16,0.29-0.32,0.68-0.39,1.05
		c-0.11,0.56-0.06,0.82,0.27,1.09c0.48,0.38,1.79,0.39,2.14,0.71c0.07,0.14-0.36,0.39-0.46,0.45c-0.19,0.12-0.36,0.23-0.56,0.34
		c-0.24,0.14-0.94,0.54-1.21,0.61c0.04-0.23,0.2-0.65,0.18-0.83c-0.18,0.09-0.31,0.81-0.37,0.9c-0.04,0.06-0.36,0.16-0.45,0.19
		c-0.93,0.33-2.28,0.52-2.91-0.32c-0.99-1.32,0.2-2.98,0.23-3.43c-0.08,0-0.12,0.07-0.17,0.14c-0.05,0.07-0.08,0.12-0.12,0.2
		c-0.87,1.47-1.13,4.42,1.19,4.57c0.9,0.06,1.4-0.24,2.09-0.44c-0.04,0.87,0.23,1.62,0.84,1.89c0.78,0.34,1.92-0.26,2.53-0.67
		c0.64-0.43,1.38-0.99,1.72-1.69c0.23-0.46,0.14-0.65,0.19-1.16c0.13,0.05,0.26,0.14,0.41,0.2c0.15,0.06,0.3,0.12,0.46,0.16
		c0.91,0.23,2.52,0.22,3.44,0.13c1.48-0.14,2.93-0.33,4.4-0.53c1.62-0.22,3.28-0.46,4.9-0.65c0.27-0.03,0.26-0.05,0.38-0.24
		c0.63-1-0.08-1.82-1.03-2.16c-0.75-0.27-1.39-0.23-2.21-0.17c-0.74,0.05-1.5,0.14-2.24,0.23c-1.49,0.18-4.27,0.55-5.69,0.31
		c-0.18-0.03-0.88-0.15-0.76-0.43c0.09-0.2,0.97-0.99,1.25-1.21c0.45-0.35,0.89-0.69,1.46-1.01
		C100.26,46.1,100.07,46.69,100.34,46.76 M71.17,51.33c-0.21,0.04-0.44,0.07-0.66,0.04c-0.17-0.03-0.41-0.18-0.24-0.35
		C70.46,50.8,70.93,50.91,71.17,51.33 M57.64,49.37l-0.04,0.28c-0.06,0.51,0.13,0.79,0.36,0.72c-0.06,0.12-0.11,0.25-0.16,0.38
		c-0.16,0.47-0.25,0.92-0.27,1.45c-0.03,0.99,0.24,1.88,1.2,2.25c1.25,0.48,3.41-0.52,4.47-1.29c0.08-0.06,0.16-0.1,0.25-0.18
		c0.04-0.04,0.08-0.06,0.12-0.1l0.13-0.1c-0.04,0.24-0.13,0.47-0.18,0.73c-0.12,0.65-0.19,1.77,0.53,1.99
		c0.51,0.15,1-0.19,1.36-0.38c0.24-0.12,0.94-0.61,1.1-0.68c0.05,0.09,0.1,0.35,0.17,0.48c0.67,1.26,2.18,0.69,3.06,0.05
		c0.56-0.41,1.27-1.03,1.69-1.56c0.3-0.38,0.5-0.9,0.52-1.41c0.15-0.08,0.51-0.21,0.69-0.29l1.82-0.79
		c-0.19,0.53-0.44,1.43-0.26,1.98c0.06,0.18,0.18,0.35,0.33,0.45c0.51,0.34,1.28,0.09,1.72-0.28c0.32-0.26,0.61-0.76,0.79-0.73
		c0.09,0.21-0.03,0.52,0.33,0.83c0.21,0.18,0.63,0.23,0.95,0.14c0.29-0.08,0.56-0.26,0.73-0.43c0.47-0.45,0.33-0.38,0.51-0.58
		c0.04-0.05,0-0.01,0.06-0.05c0.06,0.57,0.34,1.05,1,0.94c0.28-0.05,0.48-0.23,0.6-0.39c0.07-0.1,0.13-0.19,0.19-0.3
		c0.05-0.11,0.1-0.24,0.16-0.31c0.14,0.17,0.18,0.6,0.61,0.8c0.44,0.21,0.77,0.03,1.03-0.2c0.46-0.4,0.71-1.32,0.72-2.11
		c0.01-1.07-0.19-3.45-0.29-4.73c-0.01-0.18-0.05-0.49-0.03-0.67c0.11,0.05,0.18,0.27,0.39,0.3c0.03-0.25-0.21-0.79-0.31-1.03
		c-0.07-0.19-0.3-0.87-0.41-0.97c-0.1,0.05-0.19,0.39-0.23,0.5c-0.13,0.36-0.04,0.27,0.02,0.6c0.03,0.17,0.07,1.14,0.08,1.41
		c0.05,0.93,0.13,1.94,0.2,2.87c0.04,0.54,0.22,2.41,0.07,2.82c-0.05,0.13-0.28,0.25-0.43,0.32c-0.37,0.16-0.85,0.13-1.04-0.27
		c-0.12-0.26-0.01-0.48-0.07-0.64c-0.15-0.02-0.17,0.14-0.25,0.26c-0.18,0.3-0.4,0.65-0.78,0.8c-0.34,0.13-0.6,0.08-0.77-0.14
		c-0.34-0.44,0-0.61-0.1-0.81c-0.21,0.02-0.64,0.87-1.39,1.09c-0.33,0.1-0.76,0.09-1.03-0.09c-0.48-0.31-0.12-0.81-0.23-0.9
		c-0.19-0.17-0.74,0.82-1.48,1.09c-0.32,0.11-0.79,0.19-1.13,0.07c-0.68-0.25-0.13-1.29-0.06-1.73l1.33-0.58
		c0.22-0.1,0.5-0.18,0.61-0.35c0.08-0.12,0.32-0.52,0.31-0.66c-0.22,0-1.65,0.69-2.16,0.8c-0.71,0.15-1.15-0.08-1.66-0.45
		c-0.33-0.24-0.83-0.9-0.87-1.34c-0.02-0.18,0.22-0.28,0.39-0.35c0.7-0.31,1.78-0.42,2.55-0.31c0.19,0.03,0.46,0.12,0.62,0.12
		c-0.03-0.11-0.07-0.12-0.16-0.18c-0.18-0.13-0.36-0.25-0.57-0.35c-0.63-0.28-1.42-0.39-2.07-0.14c-1.32,0.51-1.51,2.05-0.51,3.15
		c0.11,0.12,0.5,0.45,0.7,0.52c-0.02,0.02-0.01,0.01-0.04,0.03c-0.08,0.05-0.19,0.08-0.27,0.12c-0.11,0.04-0.21,0.08-0.32,0.13
		c-0.22,0.09-0.44,0.2-0.66,0.24c-0.05-0.17-0.23-0.43-0.33-0.58c-1.08-1.57-2.33,0.85-1.51,1.36c0.41,0.25,1.04,0.18,1.52,0.08
		c0.09,0.46,0,0.44-0.22,0.71c-0.13,0.15-0.34,0.38-0.5,0.51l-0.55,0.46c-0.59,0.43-1.25,0.9-2.02,1.02
		c-0.66,0.1-1.23-0.13-1.43-0.57c0.02-0.03,0-0.01,0.04-0.04c0.03-0.03,0.01-0.01,0.04-0.03l0.95-0.68
		c0.37-0.29,0.61-0.49,0.71-1.05c0.06-0.34,0.06-0.72-0.07-1.03c-0.12-0.29-0.33-0.43-0.61-0.57c-0.25-0.13-0.53-0.26-0.79-0.39
		c-0.33-0.16-1.24-0.64-1.4-0.93c0.17,0,0.39,0.03,0.5-0.07c-0.03-0.16-0.48-0.33-0.63-0.4c-0.12-0.06-0.23-0.11-0.35-0.16
		c-0.06-0.03-0.11-0.06-0.17-0.08c-0.23-0.11-0.17,0.1-0.17,0.27c0,0.64-0.04,0.44,0.25,0.69c0.13,0.11,0.19,0.22,0.29,0.34
		c0.19,0.23,0.4,0.44,0.65,0.62c0.06,0.04,0.12,0.08,0.19,0.13c0.05,0.04,0.12,0.09,0.18,0.12c0.27,0.15,0.53,0.28,0.82,0.42
		c0.21,0.1,1.44,0.61,1.09,0.97c-0.13,0.14-1.43,1.05-1.65,1.15c0-0.58,0.3-1.2,0.3-1.6c-0.08,0.02-0.09,0.09-0.13,0.18
		c-0.03,0.06-0.05,0.13-0.08,0.2c-0.05,0.14-0.09,0.28-0.14,0.42c-0.09,0.32-0.13,0.61-0.17,0.95c-0.09,0.04-0.22,0.14-0.32,0.19
		c-0.32,0.19-0.64,0.4-0.99,0.55c-0.46,0.2-1.16,0.51-1.44-0.1c-0.12-0.26-0.07-0.62-0.02-0.89c0.03-0.15,0.14-0.74,0.2-0.83
		c0.03-0.05,0.08-0.08,0.12-0.13c0.04-0.04,0.08-0.09,0.11-0.14c0.21-0.33,0.33-0.83,0.15-1.21c-0.24-0.51-1.58-0.54-2.2-0.88
		c-0.32-0.18-0.28-0.34-0.11-0.65c0.24-0.43,0.55-0.82,0.92-1.14c0.06-0.05,0.07-0.08,0.14-0.12c0.06-0.04,0.09-0.06,0.15-0.11
		c0.09-0.07,0.22-0.14,0.35-0.17c0.41-0.08,0.4,0.34,0.53,0.42c0.14-0.04,0.23-0.28,0.26-0.47c0.03-0.23,0-0.45-0.11-0.61
		c-0.63-0.92-2.43,1.2-2.67,2.61c-0.09,0.53-0.04,0.8,0.29,1.05c0.45,0.33,2.12,0.46,2.13,0.74c-0.08,0.27-1.55,1.05-1.95,1.24
		c-0.71,0.33-1.6,0.68-2.51,0.66c-0.94-0.02-1.56-0.61-1.68-1.48c-0.17-1.12,0.53-2.11,0.59-2.53c0.04-0.12,0.07-0.25,0.1-0.39
		c-0.1,0.07-0.09,0.09-0.18,0.23c-0.06,0.1-0.11,0.19-0.21,0.22c-0.32,0.08-0.28-0.41-0.25-0.67c0.08-0.62,0.42-1.2,0.57-1.75
		l-0.14,0.18C58.05,47.99,57.71,48.79,57.64,49.37 M116.25,52.68c-0.59,0-1.03-0.01-1.57-0.33c-0.22-0.13-0.63-0.49-0.63-0.88
		c0-0.88,0.38-1.22,0.35-1.56c-0.14,0.05-0.33,0.51-0.39,0.69c-0.16,0.44-0.18,0.72-0.18,1.17c0,1.07,0.87,1.79,1.95,1.79h0.3
		c1.14,0,2.35-0.7,3.22-1.24c0.19-0.12,0.34-0.27,0.51-0.39c0.57-0.44,0.58-0.97,0.69-1.12c0.07,0.73,0.07,2.2,1.18,2.2
		c0.28,0,0.47-0.01,0.72-0.2c0.17-0.13,0.24-0.21,0.36-0.39c0.11-0.17,0.48-0.82,0.57-0.9c0.18,0.17,0.11,0.72,1.06,1.2
		c1.18,0.6,2.88,0.42,4.11,0.04c0.35-0.11,0.9-0.31,1.24-0.47c0.11-0.06,0.29-0.18,0.4-0.17c0.06,0.33,0.06,0.43,0.26,0.63
		c0.19,0.19,0.46,0.24,0.77,0.24c0.47,0,0.85-0.5,1-0.84c0.46-1.06,0.33-2.05,0.26-3.18l-0.17-2.38c-0.03-0.36-0.11-0.99-0.08-1.32
		c0.07,0.04,0.4,0.49,0.4,0.21c0-0.16-0.61-1.8-0.72-1.91c-0.09,0.05-0.28,0.59-0.3,0.71c-0.02,0.11,0.07,0.28,0.09,0.41
		c0.03,0.15,0.03,0.31,0.03,0.48c0.01,0.92,0.17,2.83,0.25,3.82c0.02,0.32,0.04,0.63,0.06,0.94c0.04,0.57,0.06,0.8,0.06,1.37
		c0,0.32-0.04,0.45-0.25,0.6c-0.35,0.23-0.99,0.35-1.24,0c-0.15-0.21,0-0.47-0.05-0.68c-0.1,0-0.68,0.28-0.83,0.34
		c-0.94,0.38-1.87,0.61-2.92,0.66c-0.68,0.03-1.57,0.02-2.12-0.25c-0.41-0.21-0.81-0.42-0.94-0.83c-0.05-0.16-0.04-0.39-0.09-0.51
		c-0.14-0.03-0.17,0.08-0.23,0.16c-0.52,0.71-0.76,1.35-1.65,1.35c-0.78,0-0.78-1.02-0.82-1.71c-0.05-0.8-0.05-1.62-0.09-2.44
		c-0.04-0.8-0.07-1.56-0.19-2.34c-0.08-0.54-0.26-1.67-0.46-2.09c-0.1,0.04-0.1,0.13-0.14,0.3c-0.12,0.61-0.1,0.53,0,1.14
		c0.29,1.8,0.34,3,0.37,4.86c0.01,0.66-0.1,0.81-0.5,1.23c-0.19,0.2-0.81,0.59-1.02,0.71C118.24,52.17,117.14,52.68,116.25,52.68
		 M112.2,51c0.18-0.03,0.37-0.06,0.54-0.01c0.14,0.04,0.28,0.12,0.27,0.28C112.85,51.4,112.41,51.34,112.2,51 M111.38,50.42
		c-0.2,0.2-1.4,0.77-1.86,0.43c-0.18-0.13-0.19-0.37-0.34-0.5c-0.1,0.08-0.17,0.42-0.22,0.58c-0.07,0.25,0.08,0.43,0.17,0.63
		c0.09,0.23,0.39,1.1,0.29,1.34c-0.02,0.05-0.14,0.19-0.18,0.23l-0.69,0.58c-0.64,0.49-1.34,0.98-2.14,1.2
		c-0.57,0.16-0.94,0.13-1.29-0.21c-0.29-0.28-0.45-0.72-0.39-1.25c0.06-0.47,0.29-1.22,0.29-1.39c-0.09,0.03-0.1,0.1-0.16,0.25
		c-0.29,0.73-0.5,1.78-0.26,2.53c0.67,2.12,3.21,0.42,4.24-0.5c0.78-0.69,0.84-1.41,0.85-2.54c0.36,0.07,0.75-0.05,1.05-0.17
		c0.35-0.14,0.66-0.35,0.84-0.42c0.24,0.73,1.49,1.59,1.84,0.42c0.15-0.49,0.01-1.06-0.25-1.34c-0.25-0.26-0.61-0.25-0.99-0.16
		c-0.12,0.03-0.23,0.08-0.33,0.1c-0.3-0.46-0.52-4.31-0.52-5.13c0.09,0.03,0.04,0.01,0.11,0.08c0.03,0.04,0.05,0.06,0.08,0.09
		c0.05,0.06,0.11,0.13,0.21,0.13c0.07-0.19-0.48-1.53-0.63-1.89c-0.03-0.07-0.02-0.06-0.07-0.1c-0.1,0.06-0.29,0.63-0.3,0.72
		c-0.01,0.11,0.07,0.27,0.09,0.4c0.03,0.14,0.03,0.31,0.04,0.48c0.02,1.33,0.16,3.27,0.38,4.58
		C111.25,49.82,111.31,50.22,111.38,50.42 M133.7,51.95c0,0.41-0.07,0.93-0.05,1.22c0.14-0.07,0.31-0.66,0.35-0.87
		c0.22-0.94,0.11-1.76,0.04-2.71l-0.2-2.84c-0.02-0.25-0.11-1.27-0.09-1.44c0.11,0.04,0.41,0.48,0.41,0.24c0-0.2-0.25-0.79-0.32-1
		c-0.07-0.18-0.3-0.87-0.4-0.95c-0.1,0.06-0.33,0.66-0.29,0.82c0.03,0.17,0.09,0.26,0.11,0.47c0.02,0.18,0.01,0.37,0.02,0.56
		c0.04,0.73,0.1,1.45,0.14,2.17c0.04,0.71,0.1,1.43,0.15,2.14C133.6,50.32,133.7,51.45,133.7,51.95 M85.66,44.29
		c0,0.05,0.09,0.28,0.1,0.39l0.08,1.44c0.04,0.64,0.08,1.27,0.13,1.91c0.04,0.63,0.09,1.27,0.13,1.91c0.04,0.63,0.13,1.51,0.11,2.12
		c-0.01,0.31-0.07,0.74-0.05,1.03c0.08-0.03,0.09-0.07,0.14-0.19c0.5-1.18,0.34-2.18,0.26-3.41l-0.2-2.83
		c-0.02-0.28-0.12-1.23-0.08-1.43c0.12,0.04,0.21,0.3,0.4,0.3c0.01-0.28-0.37-1.18-0.5-1.53c-0.06-0.14-0.13-0.4-0.22-0.46
		C85.88,43.58,85.66,44.14,85.66,44.29 M115.15,50.58c0,0.44-0.07,1.06-0.05,1.3c0.27-0.13,0.49-1.47,0.49-1.88l-0.31-4.84
		c0.15,0.06,0.23,0.3,0.4,0.3c0.06-0.17-0.38-1.24-0.49-1.52c-0.05-0.12-0.14-0.42-0.22-0.48c-0.1,0.07-0.26,0.52-0.29,0.69
		c-0.03,0.15,0.05,0.25,0.08,0.4c0.03,0.14,0.04,0.29,0.04,0.45c0.02,1.03,0.16,2.63,0.24,3.71
		C115.07,49.29,115.15,49.98,115.15,50.58 M117.42,50.35c-0.09,0.17-0.45,0.3-0.64,0.4c-0.09,0.04-0.66,0.28-0.68,0.38
		c0.29,0.05,0.7-0.07,0.97-0.13c0.32-0.07,0.36-0.15,0.61-0.53c0.71-1.12-0.33-0.67-0.75-0.97c-0.01-0.17,0.23-0.36,0.36-0.44
		c0.19-0.11,0.13,0.07,0.26,0.07c0.1,0,0.17-0.13,0.21-0.21c0.29-0.68-0.2-0.94-0.95,0.17c-0.19,0.28-0.51,0.94-0.09,1.15
		C116.96,50.34,117.24,50.28,117.42,50.35 M87.89,55.82c0.09-0.09,0.32-0.5,0.32-0.69c-0.1-0.08-0.57-0.45-0.74-0.46l-0.25,0.5
		c-0.07-0.03-0.09-0.07-0.17-0.13c-0.12-0.08-0.42-0.31-0.54-0.32c-0.05,0.05-0.3,0.56-0.32,0.66c0.03,0.04,0.65,0.48,0.74,0.49
		c0.03-0.07,0.23-0.45,0.27-0.5C87.38,55.46,87.77,55.79,87.89,55.82 M61.6,55.82c0.09-0.09,0.32-0.5,0.32-0.69
		c-0.13-0.1-0.58-0.46-0.74-0.47c-0.05,0.11-0.21,0.39-0.23,0.5c-0.14-0.06-0.52-0.43-0.72-0.45c-0.05,0.05-0.3,0.56-0.32,0.66
		c0.02,0.03,0.67,0.48,0.74,0.49c0.03-0.07,0.22-0.45,0.27-0.5C61.1,55.46,61.49,55.79,61.6,55.82 M128.86,53.96
		c0.08,0.07,0.68,0.47,0.72,0.49c0.08-0.1,0.34-0.51,0.31-0.7c-0.01-0.03-0.57-0.45-0.73-0.46
		C129.12,53.37,128.87,53.88,128.86,53.96 M92.94,48.74c0.12,0.1,0.23,0.16,0.36,0.24c0.09,0.07,0.27,0.21,0.35,0.24
		c0.09-0.07,0.42-0.58,0.3-0.72c-0.03-0.04-0.1-0.08-0.16-0.12c-0.1-0.08-0.41-0.3-0.53-0.31C93.19,48.14,92.94,48.64,92.94,48.74
		 M122.22,49.68l0.72,0.5c0.1-0.08,0.33-0.5,0.33-0.7c-0.13-0.08-0.55-0.42-0.71-0.46C122.48,49.09,122.25,49.56,122.22,49.68
		 M127.67,50.08c-0.06,0.04-0.12,0.07-0.19,0.1c-0.22,0.12-0.44,0.23-0.66,0.35l-1.64,0.92l0.06-0.38c0.03-0.18,0.07-0.36,0.2-0.5
		c0.1-0.1,0.24-0.16,0.36-0.23c0.11-0.06,0.21-0.13,0.32-0.19c1.01-0.55,2.01-1.09,3.05-1.59c0.23-0.11,0.46-0.22,0.69-0.33
		c0.15-0.07,0.3-0.14,0.46-0.21c0.09-0.04,0.21-0.1,0.3-0.12l0.29-0.08l-0.14,0.77l-0.12,0.03c-0.04,0.01-0.08,0.03-0.12,0.05
		c-0.08,0.04-0.16,0.07-0.25,0.11c-0.22,0.1-0.45,0.21-0.67,0.32c-0.35,0.17-0.7,0.34-1.05,0.52c-0.08,0.04-0.16,0.08-0.24,0.12
		c-0.02,0.01-0.05,0.02-0.07,0.03c-0.01,0.03-0.02,0.07-0.03,0.1c-0.06,0.18-0.12,0.36-0.16,0.55c-0.02,0.11-0.05,0.24-0.05,0.35
		c0,0.02,0,0.07,0.01,0.1c0,0,0.01-0.01,0.01-0.01c0.06-0.09,0.12-0.21,0.24-0.24l0.28-0.09l-0.03,0.29
		c-0.02,0.21-0.08,0.45-0.21,0.63c-0.11,0.14-0.27,0.25-0.46,0.22c-0.28-0.05-0.38-0.35-0.39-0.6c-0.01-0.35,0.04-0.64,0.17-0.97
		C127.66,50.1,127.67,50.09,127.67,50.08 M126.72,44.56c0.04-0.14,0.09-0.28,0.17-0.41c0.1-0.16,0.25-0.28,0.44-0.25
		c0.37,0.06,0.56,0.67,0.21,0.89l-0.08,0.05l-0.09-0.04c-0.06-0.02-0.1-0.06-0.14-0.1c-0.03,0.07-0.05,0.16-0.06,0.2
		c-0.03,0.11-0.05,0.23-0.08,0.34c-0.02,0.11-0.05,0.22-0.08,0.32c0.11,0.05,0.2,0.13,0.29,0.21c0.22,0.19,0.26,0.37,0.14,0.63
		c-0.07,0.16-0.1,0.21-0.29,0.26c-0.09,0.02-0.35,0.08-0.47,0.15c0.1,0.31,0.16,0.63,0.21,0.94c0.04,0.31,0.1,1.02-0.08,1.28
		l-0.19,0.27l-0.14-0.3c-0.04-0.09-0.05-0.39-0.06-0.5c-0.01-0.12-0.01-0.27-0.03-0.39c-0.03-0.25-0.08-0.49-0.13-0.73
		c-0.06-0.27-0.14-0.58-0.07-0.85c0.02-0.07,0.05-0.14,0.08-0.2c-0.05-0.14,0-0.31,0.04-0.45c0.04-0.13,0.07-0.19,0.15-0.27
		c-0.03-0.1-0.07-0.21-0.1-0.3c-0.02-0.06-0.07-0.19-0.12-0.28c-0.09,0.03-0.18,0-0.27-0.05c-0.15-0.09-0.27-0.22-0.26-0.41
		c0-0.09,0.04-0.18,0.09-0.25c0.03-0.05,0.07-0.1,0.1-0.15l0.05-0.1h0.11C126.37,44.08,126.58,44.3,126.72,44.56 M122.96,45.82
		L122.96,45.82c0.06,0.05,0.11,0.1,0.16,0.15c0.13,0.14,0.23,0.32,0.23,0.52c0,0.5-0.2,0.98-0.77,0.98c-0.15,0-0.29-0.03-0.39-0.15
		c-0.1-0.12-0.11-0.28-0.11-0.42c0-0.15,0.05-0.34,0.08-0.49c0.04-0.15,0.08-0.31,0.14-0.45c0.05-0.13,0.11-0.26,0.17-0.38
		c0.05-0.12,0.08-0.23,0.2-0.31c0.08-0.06,0.18-0.07,0.27-0.05l0.15,0.03l0,0.16C123.08,45.54,123.01,45.69,122.96,45.82
		 M117.76,45.23c-0.03-0.02-0.05-0.04-0.08-0.06c-0.1-0.08-0.18-0.2-0.21-0.33c-0.04-0.21,0.03-0.43,0.15-0.6
		c0.08-0.12,0.19-0.23,0.31-0.31c0.13-0.08,0.28-0.12,0.43-0.07c0.34,0.12,0.3,0.6,0.24,0.92c0.04,0.03,0.07,0.05,0.1,0.09
		c0.13,0.15,0.09,0.34,0.03,0.51c-0.06,0.16-0.11,0.33-0.14,0.5c-0.02,0.1-0.04,0.21-0.03,0.31c0,0.02,0,0.06,0.01,0.1
		c0.01-0.01,0.02-0.03,0.02-0.03c0.04-0.07,0.08-0.15,0.14-0.21l0.32-0.33l0.01,0.46c0,0.22-0.04,0.45-0.16,0.64
		c-0.1,0.16-0.27,0.29-0.47,0.27c-0.2-0.02-0.32-0.19-0.37-0.37c-0.05-0.18-0.05-0.37-0.02-0.56c0.03-0.17,0.07-0.34,0.12-0.5
		c0-0.01,0-0.01,0.01-0.02c-0.04,0.05-0.08,0.1-0.13,0.15c-0.19,0.19-0.42,0.35-0.64,0.5c-0.2,0.14-0.41,0.24-0.63,0.33
		c-0.1,0.04-0.21,0.09-0.31,0.14c-0.11,0.05-0.26,0.11-0.38,0.13l-0.36,0.05l0.16-0.33c0.08-0.17,0.41-0.35,0.58-0.45
		c0.21-0.14,0.42-0.27,0.63-0.41c0.21-0.14,0.44-0.31,0.63-0.48C117.73,45.26,117.75,45.24,117.76,45.23 M107.59,44.33
		c0,0.11-0.03,0.21-0.05,0.31c-0.01,0.08-0.02,0.15-0.07,0.22c-0.05,0.06-0.11,0.08-0.18,0.12c-0.44,0.19-0.87,0.41-1.31,0.61
		c-0.31,0.14-0.62,0.3-0.93,0.45c-0.42,0.21-0.83,0.42-1.24,0.64c-0.39,0.2-0.77,0.41-1.15,0.61c-0.3,0.16-0.6,0.32-0.89,0.49
		c-0.13,0.08-0.27,0.15-0.41,0.23c-0.14,0.08-0.3,0.2-0.45,0.26l-0.31,0.11l0.05-0.32c0.03-0.2,0.08-0.49,0.25-0.61
		c0.2-0.13,0.41-0.26,0.62-0.37c0.29-0.16,0.57-0.32,0.86-0.48c0.48-0.26,0.95-0.51,1.43-0.77c0.22-0.11,0.43-0.22,0.65-0.33
		c0.35-0.18,0.71-0.35,1.06-0.52c0.38-0.19,0.76-0.37,1.15-0.55c0.14-0.06,0.28-0.13,0.42-0.19c0.08-0.03,0.18-0.08,0.26-0.1
		l0.25-0.05L107.59,44.33z M96.34,45.17l-0.15-0.34c-0.05,0.02-0.11,0.02-0.16,0.01c-0.16-0.02-0.28-0.16-0.36-0.29
		c-0.01-0.02-0.02-0.03-0.03-0.05c-0.06-0.14,0-0.28,0.07-0.4c0.04-0.06,0.08-0.12,0.11-0.18l0.05-0.1h0.11
		c0.14,0,0.27,0.04,0.39,0.12c0.16,0.1,0.27,0.26,0.35,0.43c0,0,0,0.01,0,0.01c0.09-0.32,0.23-0.67,0.5-0.73
		c0.08-0.02,0.17-0.02,0.25,0.01c0.34,0.13,0.46,0.67,0.16,0.9l-0.08,0.06l-0.09-0.03c-0.08-0.02-0.13-0.07-0.19-0.12
		c-0.04,0.1-0.09,0.27-0.1,0.32c-0.07,0.3-0.1,0.89-0.4,1.05l-0.14,0.08l-0.1-0.13c-0.04-0.05-0.06-0.13-0.07-0.2
		c-0.02-0.08-0.04-0.16-0.06-0.24C96.38,45.3,96.36,45.23,96.34,45.17 M109.44,47.24c0.09,0.07,0.18,0.17,0.24,0.25
		c0.09,0.12,0.16,0.27,0.16,0.42c0,0.26-0.02,0.5-0.2,0.7c-0.08,0.1-0.22,0.18-0.34,0.23c-0.43,0.16-0.73-0.07-0.73-0.53
		c0-0.11,0.03-0.25,0.05-0.36c0.04-0.16,0.08-0.31,0.13-0.47c0.06-0.19,0.13-0.4,0.23-0.58c0.03-0.07,0.08-0.13,0.12-0.19
		c0.07-0.08,0.15-0.13,0.26-0.11c0.03,0,0.05,0.01,0.08,0.02c0.07,0.03,0.12,0.08,0.14,0.16c0.02,0.08,0,0.12-0.03,0.19
		c-0.02,0.05-0.04,0.09-0.06,0.13C109.47,47.17,109.45,47.2,109.44,47.24 M112.16,53.67c0.01-0.01,0.01-0.02,0.02-0.02
		c0.03-0.05,0.07-0.1,0.11-0.14c0.25-0.26,0.53-0.19,0.73,0.08c0.13,0.18,0.16,0.4,0.14,0.62c-0.02,0.14-0.07,0.35-0.19,0.46
		c-0.02,0.02-0.05,0.04-0.08,0.06c-0.18,0.09-0.39-0.01-0.55-0.11c-0.04-0.02-0.08-0.05-0.13-0.09c-0.25,0.52-0.7,0.83-1.19,1.11
		c-0.14,0.08-0.29,0.15-0.44,0.21c-0.17,0.06-0.35,0.1-0.52,0.14c-0.16,0.04-0.32,0.08-0.48,0.12c-0.14,0.03-0.44,0.11-0.58,0.08
		l-0.42-0.07l0.33-0.26c0.07-0.06,0.18-0.11,0.26-0.14c0.13-0.06,0.27-0.12,0.4-0.17c0.35-0.15,0.71-0.3,1.05-0.47
		c0.35-0.18,0.79-0.43,1.06-0.72c0.06-0.07,0.13-0.23,0.18-0.31c0.04-0.08,0.09-0.16,0.14-0.23
		C112.04,53.72,112.09,53.68,112.16,53.67 M102.01,54.21c0.04-0.17,0.11-0.38,0.2-0.52c0.11-0.16,0.28-0.29,0.48-0.24
		c0.4,0.09,0.58,0.79,0.16,0.95l-0.08,0.03l-0.08-0.04c-0.05-0.03-0.09-0.06-0.13-0.11c0,0,0,0,0,0c-0.06,0.14-0.12,0.43-0.14,0.51
		c-0.03,0.17-0.06,0.35-0.12,0.51c-0.05,0.16-0.14,0.35-0.32,0.37l-0.15,0.02l-0.06-0.14c-0.04-0.1-0.04-0.23-0.08-0.33
		c-0.03-0.1-0.14-0.42-0.22-0.58c-0.04,0.01-0.08,0.01-0.13,0.01c-0.19-0.01-0.33-0.14-0.42-0.3c-0.08-0.14-0.02-0.31,0.05-0.44
		c0.04-0.07,0.09-0.13,0.13-0.19l0.06-0.09l0.1,0c0.13,0,0.25,0.03,0.36,0.1C101.81,53.83,101.93,54.02,102.01,54.21 M93.93,55.49
		c-0.1,0.06-0.2,0.11-0.3,0.17c-0.11,0.06-0.25,0.13-0.36,0.17l-0.22,0.07l-0.03-0.23c-0.02-0.13,0.02-0.41,0.1-0.52
		c0.06-0.08,0.26-0.19,0.36-0.24c0.21-0.1,0.42-0.21,0.62-0.33l0,0l1.51-0.74l0.04,0.26c0.02,0.15-0.01,0.44-0.11,0.55l-0.02,0.02
		L93.93,55.49z M80.95,46.63c-0.18,0.32-0.58,0.69-0.81,0.88c-0.29,0.23-0.58,0.38-0.9,0.56l0,0l-0.25,0.13l-0.03,0.01
		c-0.1,0.02-0.19,0.06-0.27-0.07l-0.17-0.11l0.18-0.17c0.23-0.21,0.5-0.41,0.74-0.61c0.13-0.11,0.26-0.21,0.39-0.32
		c0.1-0.09,0.21-0.18,0.3-0.28l0.24-0.26c-0.02-0.01-0.05-0.02-0.07-0.04c-0.13-0.08-0.22-0.19-0.26-0.33
		c-0.06-0.21,0-0.44,0.11-0.62c0.14-0.23,0.43-0.51,0.72-0.42c0.09,0.03,0.16,0.09,0.21,0.17c0.13,0.22,0.11,0.47,0.09,0.71
		c0.03,0.02,0.06,0.03,0.08,0.05c0.04,0.02,0.08,0.05,0.12,0.08l0.05,0.05l0.01,0.07c0,0.02,0,0.05,0,0.07
		c0,0.08-0.02,0.15-0.04,0.22c-0.02,0.06-0.06,0.12-0.07,0.18l-0.05,0.21l-0.2-0.08c-0.02-0.01-0.05-0.02-0.07-0.03
		C81,46.66,80.97,46.64,80.95,46.63 M80.04,53.92c0.02-0.02,0.05-0.03,0.08-0.05l0.13-0.06l0.09,0.11c0.11,0.14,0.1,0.38,0.06,0.54
		c-0.06,0.23-0.22,0.45-0.47,0.45c-0.07,0-0.14-0.02-0.21-0.05c-0.01,0-0.02-0.01-0.04-0.02c0,0,0,0,0,0
		c-0.04,0.02-0.07,0.05-0.11,0.07c-0.11,0.06-0.23,0.1-0.35,0.1c-0.14,0-0.26-0.07-0.4-0.08c-0.19-0.02-0.39,0.09-0.54,0.2
		c-0.17,0.12-0.31,0.26-0.46,0.4c-0.27,0.24-0.54,0.38-0.91,0.41l-0.45,0.04l0.29-0.35c0.02-0.02,0.04-0.04,0.06-0.06
		c0.03-0.02,0.06-0.04,0.09-0.06c0.04-0.02,0.09-0.04,0.13-0.06c0.05-0.02,0.1-0.05,0.15-0.08c0.21-0.13,0.42-0.32,0.59-0.5
		c0.34-0.34,0.78-0.75,1.31-0.64c0.06,0.01,0.11,0.03,0.17,0.05c0.04,0.02,0.12,0.05,0.16,0.02c0.03-0.02,0.06-0.07,0.08-0.1
		c0.08-0.11,0.17-0.22,0.31-0.24L80.04,53.92L80.04,53.92z M79.92,48.75c0.05-0.01,0.1-0.08,0.12-0.12
		c0.03-0.07,0.05-0.16,0.06-0.23c0.04-0.17,0.05-0.35,0.26-0.37l0.17-0.05l0.06,0.17c0.02,0.05,0.03,0.11,0.03,0.17
		c0.01,0.06,0,0.13,0,0.2c0,0,0,0.01,0,0.01c0.01,0,0.02-0.01,0.03-0.01c0.03-0.01,0.05-0.03,0.07-0.04
		c-0.03-0.11-0.08-0.21-0.06-0.32c0.02-0.06,0.06-0.13,0.09-0.19c0.02-0.03,0.03-0.05,0.05-0.08l0.01-0.01L81,47.65l0.15,0.13
		c0.18,0.16,0.19,0.46,0.14,0.69c-0.06,0.29-0.22,0.55-0.46,0.72c-0.19,0.14-0.32,0.13-0.53,0.12c-0.02,0.01-0.05,0.03-0.06,0.04
		c-0.05,0.03-0.1,0.06-0.15,0.09c-0.25,0.14-0.53,0.16-0.68-0.13c-0.02-0.04-0.04-0.08-0.05-0.12c-0.03-0.1-0.03-0.2-0.02-0.3
		c0.02-0.2,0.15-0.55,0.36-0.63l0.24-0.09l0.02,0.25c0,0.06,0,0.12-0.01,0.18C79.94,48.62,79.92,48.7,79.92,48.75 M72.9,55.24
		c0.08,0.03,0.32,0.01,0.39,0.01c0.22-0.02,0.43-0.11,0.66-0.13l0.35-0.04l-0.16,0.31c-0.09,0.19-0.4,0.36-0.59,0.43
		c-0.23,0.08-0.58,0.14-0.82,0.06c-0.14-0.05-0.25-0.14-0.31-0.27c-0.09-0.19-0.04-0.42,0.03-0.61c0.04-0.11,0.1-0.21,0.15-0.31
		c-0.14-0.1-0.21-0.26-0.18-0.46c0.02-0.16,0.15-0.34,0.25-0.46c0.14-0.16,0.39-0.39,0.62-0.31c0.03,0.01,0.05,0.02,0.08,0.04
		c0.1,0.07,0.13,0.2,0.12,0.31c0,0,0.01,0,0.01,0l0.23-0.09l0.03,0.24c0.02,0.18-0.01,0.34-0.12,0.48
		c-0.11,0.14-0.25,0.21-0.37,0.33c-0.01,0.01-0.03,0.03-0.04,0.04c-0.09,0.09-0.17,0.18-0.24,0.28
		C72.96,55.13,72.92,55.2,72.9,55.24 M73.29,44.55c0.14,0.07,0.27,0.17,0.26,0.35c0,0.07-0.03,0.16-0.06,0.22
		c-0.02,0.05-0.04,0.09-0.07,0.14c-0.01,0.02-0.02,0.04-0.03,0.05c-0.01,0.02-0.03,0.03-0.04,0.05c0,0,0,0,0,0l-0.14,0.14
		l-0.14-0.14c-0.02-0.02-0.03-0.03-0.05-0.04c-0.1,0.15-0.26,0.32-0.38,0.44c-0.13,0.13-0.28,0.27-0.43,0.39
		c-0.08,0.06-0.17,0.12-0.25,0.17c-0.12,0.08-0.24,0.15-0.36,0.22c-0.12,0.07-0.24,0.13-0.37,0.19c-0.1,0.04-0.21,0.1-0.31,0.12
		l-0.35,0.07l0.13-0.33c0.03-0.09,0.15-0.18,0.22-0.24c0.11-0.09,0.22-0.18,0.33-0.27c0.17-0.13,0.34-0.25,0.5-0.38
		c0.17-0.13,0.33-0.26,0.48-0.39c0.07-0.06,0.13-0.13,0.2-0.2c0.01-0.02,0.03-0.03,0.04-0.04c-0.02-0.02-0.05-0.03-0.07-0.05
		c-0.14-0.1-0.23-0.19-0.26-0.37c-0.03-0.19,0.03-0.39,0.13-0.56c0.14-0.23,0.44-0.51,0.73-0.42c0.1,0.04,0.18,0.11,0.23,0.21
		c0.04,0.08,0.06,0.16,0.07,0.24c0.01,0.06,0.01,0.12,0.01,0.18C73.31,44.38,73.3,44.46,73.29,44.55 M67.66,46.73
		c0.01-0.02,0.02-0.05,0.03-0.06c0.05-0.08,0.1-0.15,0.18-0.2l0.34-0.18l-0.06,0.38c-0.04,0.26-0.13,0.63-0.36,0.78
		c-0.19,0.12-0.46,0.07-0.58-0.12c-0.18-0.28-0.1-0.76-0.03-1.07c0.06-0.27,0.22-0.74,0.42-0.93l0.49-0.46l-0.17,0.65
		c-0.02,0.09-0.06,0.18-0.08,0.27c-0.04,0.14-0.08,0.28-0.12,0.42c-0.03,0.12-0.05,0.25-0.06,0.38
		C67.65,46.61,67.65,46.68,67.66,46.73 M60.6,46.46c0.02,0,0.04-0.01,0.05-0.02c0.12-0.09,0.12-0.39,0.19-0.53
		c0.03-0.06,0.04-0.1,0.11-0.14c0,0,0,0,0,0l0.12-0.08l0.11,0.09c0.04,0.03,0.07,0.08,0.1,0.13c0.05,0.1,0.04,0.21,0.03,0.32
		c0,0,0,0.01,0,0.01c0.03-0.01,0.09-0.03,0.12-0.05c-0.01-0.04-0.05-0.12-0.06-0.16c-0.03-0.11,0.01-0.24,0.06-0.34
		c0.04-0.07,0.1-0.17,0.17-0.22l0.14-0.1l0.12,0.13c0.23,0.26,0.15,0.72,0.01,1c-0.15,0.3-0.42,0.53-0.78,0.53
		c-0.04,0-0.08-0.01-0.12-0.01h0c-0.02,0.02-0.04,0.03-0.06,0.05c-0.04,0.03-0.08,0.06-0.13,0.08c-0.19,0.09-0.41,0.14-0.59-0.01
		c-0.18-0.15-0.2-0.42-0.16-0.63c0.03-0.19,0.13-0.45,0.32-0.54l0.22-0.11l0.05,0.24c0.02,0.09,0.01,0.17-0.01,0.25
		C60.61,46.39,60.61,46.43,60.6,46.46 M65.55,56.11c-0.2,0.1-0.4,0.22-0.6,0.32c-0.14,0.07-0.27,0.15-0.41,0.22
		c-0.07,0.04-0.2,0.1-0.27,0.12l-0.22,0.05l-0.02-0.22c-0.01-0.13,0.03-0.4,0.1-0.51c0.06-0.09,0.26-0.19,0.36-0.24
		c0.21-0.11,0.42-0.21,0.62-0.33c0.2-0.11,0.42-0.22,0.63-0.33c0.14-0.07,0.14-0.07,0.27-0.14c0.08-0.04,0.18-0.09,0.26-0.12
		l0.21-0.07l0.04,0.22c0.03,0.15,0,0.45-0.11,0.56l-0.02,0.03L65.55,56.11z M72.56,44.39c0.05-0.2,0.41-0.3,0.35,0.18
		C72.83,44.61,72.62,44.47,72.56,44.39 M80.46,45.72c0.02-0.12,0.16-0.19,0.28-0.16c0.06,0.11,0.08,0.19,0.08,0.34
		C80.7,45.91,80.51,45.8,80.46,45.72 M88.9,44.12c0.05-0.2,0.41-0.3,0.35,0.18C89.16,44.34,88.95,44.21,88.9,44.12 M109.51,48.07
		c-0.08,0.16-0.42,0.3-0.54,0.23c-0.14-0.08,0.01-0.49,0.08-0.59C109.22,47.79,109.43,47.93,109.51,48.07 M112.4,53.98
		c0.18-0.2,0.41,0,0.4,0.23C112.68,54.2,112.45,54.06,112.4,53.98 M117.9,44.51c0.43-0.29,0.35,0.21,0.32,0.28
		c-0.08-0.02-0.13-0.05-0.19-0.09C117.95,44.65,117.9,44.63,117.9,44.51 M123.02,46.67c-0.05,0.06-0.37,0.29-0.54,0.21
		c-0.16-0.08,0.02-0.51,0.09-0.59C122.72,46.35,122.99,46.54,123.02,46.67 M87.85,46.31c-0.18,0.1-0.43,0.23-0.6,0.27l-0.34,0.07
		l0.13-0.33c0.03-0.09,0.15-0.18,0.22-0.24c0.11-0.09,0.22-0.18,0.33-0.27c0.17-0.13,0.34-0.25,0.5-0.38
		c0.16-0.13,0.32-0.26,0.48-0.4c0.07-0.06,0.13-0.13,0.2-0.2c0.01-0.02,0.03-0.03,0.04-0.04c-0.02-0.02-0.05-0.03-0.07-0.05
		c-0.14-0.1-0.23-0.19-0.26-0.37c-0.03-0.19,0.03-0.39,0.13-0.56c0.14-0.23,0.44-0.51,0.73-0.41c0.1,0.03,0.18,0.11,0.23,0.21
		c0.04,0.08,0.06,0.16,0.07,0.24c0.01,0.06,0.01,0.12,0.01,0.18c0,0.08-0.02,0.17-0.03,0.25c0.14,0.07,0.27,0.17,0.26,0.35
		c0,0.07-0.03,0.16-0.06,0.22c-0.02,0.05-0.04,0.09-0.07,0.14c-0.01,0.02-0.02,0.04-0.03,0.05c-0.01,0.02-0.03,0.04-0.04,0.05
		c-0.01,0-0.01,0.01-0.02,0.01l-0.13,0.11l-0.12-0.12c-0.02-0.02-0.03-0.03-0.05-0.04c-0.1,0.15-0.25,0.32-0.38,0.44
		c-0.13,0.13-0.28,0.27-0.43,0.39c-0.08,0.06-0.17,0.12-0.25,0.17c-0.01,0-0.01,0.01-0.02,0.01l0.04,0.2c0.02,0.08,0,0.17-0.01,0.25
		c0,0.02-0.01,0.05-0.01,0.09c0.02-0.01,0.04-0.02,0.05-0.02c0.12-0.09,0.12-0.39,0.18-0.53c0.03-0.06,0.04-0.1,0.11-0.14
		c0,0,0,0,0,0l0.12-0.08l0.11,0.09c0.04,0.04,0.07,0.08,0.1,0.13c0.05,0.11,0.04,0.21,0.03,0.32c0,0,0,0.01,0,0.01
		c0.03-0.01,0.09-0.03,0.12-0.05c-0.01-0.04-0.05-0.12-0.06-0.16c-0.03-0.11,0.01-0.24,0.06-0.34c0.04-0.07,0.1-0.16,0.17-0.22
		l0.14-0.1l0.12,0.13c0.23,0.26,0.15,0.72,0.01,1c-0.15,0.3-0.42,0.53-0.78,0.53c-0.04,0-0.08-0.01-0.12-0.01c0,0,0,0,0,0
		c-0.02,0.02-0.04,0.03-0.06,0.05c-0.04,0.03-0.08,0.06-0.13,0.08c-0.19,0.09-0.41,0.14-0.59-0.01c-0.18-0.15-0.2-0.42-0.16-0.63
		C87.74,46.55,87.78,46.42,87.85,46.31 M103.13,62.25v-0.23c0.43-0.06,0.45-0.13,0.35-0.41c-0.08-0.22-0.19-0.54-0.31-0.86h-1.36
		c-0.09,0.24-0.18,0.5-0.26,0.73c-0.14,0.43-0.01,0.48,0.53,0.54v0.23h-1.63v-0.23c0.42-0.05,0.53-0.11,0.76-0.69l1.4-3.51
		l0.29-0.05c0.43,1.17,0.89,2.39,1.32,3.53c0.24,0.61,0.3,0.66,0.75,0.72v0.23H103.13z M102.5,58.9c-0.2,0.52-0.41,1.03-0.59,1.53
		h1.14L102.5,58.9z M98.28,62.25v-0.23c0.53-0.05,0.56-0.1,0.55-0.74l0-2.67c-0.51,1.19-1.17,2.69-1.57,3.65h-0.21
		c-0.37-0.93-0.94-2.39-1.44-3.59c-0.1,2.2-0.1,2.66-0.1,2.86c0.01,0.37,0.15,0.45,0.64,0.5v0.23h-1.65v-0.23
		c0.39-0.04,0.56-0.11,0.61-0.5c0.03-0.23,0.05-0.57,0.21-2.88c0.02-0.33-0.03-0.49-0.62-0.55v-0.23h1.36L97.45,61l1.41-3.13h1.34
		v0.23c-0.55,0.06-0.62,0.12-0.6,0.63l0.04,2.55c0.01,0.65,0.04,0.68,0.6,0.74v0.23H98.28z M92.57,62.25v-0.23
		c0.43-0.06,0.45-0.13,0.35-0.41c-0.08-0.22-0.19-0.54-0.31-0.86h-1.36c-0.09,0.24-0.18,0.5-0.26,0.73
		c-0.15,0.43-0.01,0.48,0.53,0.54v0.23H89.9v-0.23c0.42-0.05,0.53-0.11,0.76-0.69l1.4-3.51l0.29-0.05c0.43,1.17,0.89,2.39,1.32,3.53
		c0.24,0.61,0.3,0.66,0.75,0.72v0.23H92.57z M91.94,58.9c-0.2,0.52-0.41,1.03-0.59,1.53h1.14L91.94,58.9z M89.18,58.95
		c-0.13-0.44-0.32-0.91-0.94-0.91c-0.44,0-0.67,0.31-0.67,0.68c0,0.4,0.27,0.63,0.85,0.93c0.75,0.38,1.17,0.71,1.17,1.37
		c0,0.76-0.64,1.33-1.57,1.33c-0.42,0-0.79-0.12-1.1-0.22c-0.04-0.16-0.15-0.78-0.19-1.12l0.24-0.06c0.14,0.43,0.48,1.12,1.16,1.12
		c0.44,0,0.7-0.28,0.7-0.72c0-0.44-0.25-0.66-0.83-0.97c-0.7-0.38-1.14-0.71-1.14-1.39c0-0.67,0.53-1.23,1.5-1.23
		c0.43,0,0.79,0.1,0.94,0.12c0.03,0.25,0.07,0.57,0.12,1L89.18,58.95z M85.29,60.44H57.53v-0.76h27.76V60.44z M133.99,60.44h-27.76
		v-0.76h27.76V60.44z M162.05,54.34l0.19,0.18c0.04,0.04,0.09,0.11,0.12,0.16c0.06,0.08,0.11,0.16,0.17,0.23
		c0.04,0.05,0.08,0.1,0.13,0.15c0.08,0.08,0.15,0.16,0.24,0.23c0.09,0.07,0.19,0.14,0.3,0.19l0.17,0.09l-0.16,0.1
		c-0.18,0.12-0.28,0.23-0.28,0.47v3.62h-0.89C162.05,57.95,162.05,56.14,162.05,54.34"/>
</g>
</svg>
