<?xml version="1.0" encoding="utf-8"?>
<!-- Generator: Adobe Illustrator 26.0.0, SVG Export Plug-In . SVG Version: 6.00 Build 0)  -->
<svg version="1.1" id="Layer_1" xmlns="http://www.w3.org/2000/svg" xmlns:xlink="http://www.w3.org/1999/xlink" x="0px" y="0px"
	 viewBox="0 0 236.04 113.45" style="enable-background:new 0 0 236.04 113.45;" xml:space="preserve">
<style type="text/css">
	.st0{fill-rule:evenodd;clip-rule:evenodd;fill:#B0B0B2;}
	.st1{fill-rule:evenodd;clip-rule:evenodd;fill:#F7F6F6;}
	.st2{fill:#B0B0B2;}
</style>
<g>
	<rect x="90.99" y="27.38" class="st0" width="54.07" height="58.7"/>
	<path class="st1" d="M113.16,58.81l0.1-0.69c0.6,0.03,0.23-0.03,0.49,0.25c4.36,1.96,4.1-1.79,5.93-4.51
		c1.11-0.11,1.59,0.88,2.96,0.29c0.89-0.38,1.24-1.49,1.58-1.77c0.16-0.53,0.02-0.31,0.34-0.59c0.31,0.38,0.19,0.21,0.3,0.63
		c0.7,0.71,0.84,1.99,2.31,2.47c1.36,0.44,2.68-0.48,3.45-1.09c1.82-1.42,0.5-0.97,3.4-1.35c1.35-0.17,2.6-0.53,3.56-1.15
		c0.93-0.61,1.66-1.45,2.04-2.82c0.45-1.64,0.17-2.98-0.85-3.66c-1.36-0.91-3.97-0.99-5.55-1.55c-0.84-0.3-0.96-0.63-1.39-0.85
		l-0.41-0.14c-0.12,0.6,0.01,0.17-0.23,0.33c-0.36,1.21-1.29,2.54-1.85,3.64c-1.06,2.07-0.57,2.42-0.61,4.66
		c-2.68-0.13-2.93-4.39-3.1-7.11c-0.1-1.62-0.07-3.46-0.07-5.1c0-0.79,0.23-4.14-0.33-4.8c-0.61,2.34-0.93,2.36-0.89,5.35
		c0.03,2.03-0.01,4.08,0,6.12c0.01,1.86,0.34,4.42-0.72,5.58c-1.91,2.09-3.22-0.58-4.25,1.04c-0.74,1.16-1.47,3.06-3.51,2.64
		c-3.69-0.75-2.29-12.78-2.54-15.12l-0.15-0.51c-2.71,5.92-0.52,24.65-2.95,30.26c-3.65,8.44-13.35,7.58-12.98,0.02
		c0.07-1.41,0.36-2.31,0.74-3.49c0.24-0.76,0.89-2.33,0.58-3.16c-0.65,0.08-0.89,1.3-1.23,2.37c-0.95,2.94-1.48,6.2-0.82,9.27
		c0.83,3.85,3.9,6.65,8.39,4.55c1.68-0.79,2.95-1.81,3.75-3.34c1.83-3.51,2.86-6.57,3.67-10.52
		C112.61,63.54,113.21,60.24,113.16,58.81 M131.22,46.01c1-0.34,2.02,0.64,1.97,1.59c-0.03,0.66-1.24,1.98-1.64,2.12
		c-0.72,0.26-1.97-0.89-2.01-1.57C129.49,47.16,130.52,46.25,131.22,46.01 M133.19,50.13c0.18-0.62,0.6-1.32,0.85-1.97
		c0.23-0.6,0.33-1.48,0.69-1.96c2.53-0.19,6.44,2.02,1.67,3.33C135.58,49.76,134.09,50.13,133.19,50.13"/>
	<path class="st1" d="M125.04,68.76c0.57-0.21,2.32-2.33,2.37-2.56c0.23-1.03-2.33-2.28-2.52-2.34c-0.66,0.56-1.24,1.5-1.91,1.97
		c-0.58-0.62-0.31-0.58-1.15-1.11c-0.52-0.32-0.93-0.65-1.39-0.86c-0.43,0.28-2.26,2.29-2.41,2.76c2.57,1.18,1.95,1.72,2.66,2.07
		c0.65-0.49,1.3-1.54,2.03-1.89C123.85,67.04,124.58,67.82,125.04,68.76"/>
	<path class="st1" d="M103.6,56.41c0,0-2.58,2.11-2.02-1.94c0.29-2.07,1.19-2.82,1.24-3.99c-1.35,0.96-1.92,4.16-1.9,6.36
		C100.95,60.12,104.16,59.98,103.6,56.41"/>
	<path class="st1" d="M131.5,58.46c2.42,0.03,5.12-1.9,5.21-4.05c-0.5,0.23-2.08,1.65-2.6,2.1
		C133.26,57.25,132.35,57.77,131.5,58.46"/>
</g>
</svg>
