<?xml version="1.0" encoding="utf-8"?>
<!-- Generator: Adobe Illustrator 26.0.0, SVG Export Plug-In . SVG Version: 6.00 Build 0)  -->
<svg version="1.1" id="Layer_1" xmlns="http://www.w3.org/2000/svg" xmlns:xlink="http://www.w3.org/1999/xlink" x="0px" y="0px"
	 viewBox="0 0 236.04 113.45" style="enable-background:new 0 0 236.04 113.45;" xml:space="preserve">
<style type="text/css">
	.st0{fill:#B0B0B2;}
</style>
<g>
	<path class="st0" d="M130.28,45.61c0-1.32-0.22-2.64-0.65-3.91c-0.36-1.06-0.84-2.05-1.45-2.94l-0.05-0.08l-5.88-8.26h-8.47
		l-5.93,8.33c-0.6,0.9-1.09,1.88-1.45,2.94c-0.43,1.27-0.65,2.59-0.65,3.91c0,0.17,0.01,0.34,0.01,0.51l-0.01-0.01v3.55
		c0,0.65,0.26,1.28,0.72,1.75l5.74,5.74c0.46,0.46,1.09,0.72,1.75,0.72h8.11c0.65,0,1.28-0.26,1.75-0.72l5.74-5.74
		c0.46-0.46,0.72-1.09,0.72-1.75v-3.55l-0.01,0.01C130.27,45.96,130.28,45.79,130.28,45.61 M112.78,43.85
		c0.16-0.47,0.37-0.91,0.63-1.3l4.61-6.47l0.63,0.88l-0.63-0.88l1.57,2.2l3.04,4.27c0.26,0.39,0.47,0.82,0.63,1.3
		c0.2,0.58,0.29,1.17,0.29,1.77c0,3.05-2.48,5.53-5.53,5.53c-3.05,0-5.53-2.48-5.53-5.53C112.48,45.02,112.58,44.43,112.78,43.85"/>
	<path class="st0" d="M172.8,66.18h-2.3c-0.13,0-0.19,0.06-0.19,0.19v9.35c0,0.38-0.07,0.64-0.22,0.78
		c-0.14,0.14-0.37,0.22-0.69,0.22h-0.66c0,0-0.01,0-0.01,0c0,0-0.01,0-0.01,0h-0.43c-0.44,0-0.78-0.09-1.03-0.27
		c-0.25-0.18-0.38-0.43-0.41-0.74v-4.45c0-0.13-0.06-0.19-0.19-0.19h-2.26c-0.12,0-0.19,0.06-0.19,0.19v3.92
		c0,0.57-0.05,0.96-0.15,1.2c-0.1,0.23-0.35,0.35-0.75,0.35h-1.17c-0.01,0-0.02,0-0.03,0c-0.01,0-0.02,0-0.03,0h-2.43h-2.43h-2.43h0
		h-2.43h-2.43h0h-0.41c-0.44,0-0.78-0.09-1.03-0.27c-0.24-0.18-0.38-0.43-0.41-0.74v-1.56c0-1.24-0.32-2.12-0.95-2.63
		c-0.63-0.51-1.54-0.76-2.71-0.76h-2.96c-0.13,0-0.19,0.06-0.19,0.19v1.9c0,0.13,0.06,0.19,0.19,0.19h2.17
		c0.57,0,0.99,0.11,1.27,0.33c0.28,0.22,0.42,0.57,0.42,1.07v1.02c0,0.24-0.02,0.44-0.05,0.6c-0.03,0.16-0.09,0.3-0.19,0.4
		c-0.09,0.1-0.24,0.17-0.42,0.22c-0.19,0.04-0.44,0.07-0.75,0.07h-3.24c-0.13,0-0.19,0.06-0.19,0.19v1.9c0,0.13,0.06,0.19,0.19,0.19
		h4.56c0.59,0,1.08-0.08,1.48-0.24c0.4-0.16,0.71-0.44,0.93-0.84c0.24,0.44,0.55,0.73,0.93,0.87c0.38,0.14,0.83,0.21,1.35,0.21h0
		h2.43h2.43h0h2.43h2.43h2.43c0.01,0,0.02,0,0.03,0c0.01,0,0.02,0,0.03,0h1.94c0.69,0,1.23-0.06,1.62-0.17
		c0.39-0.11,0.69-0.37,0.89-0.77c0.24,0.4,0.53,0.66,0.88,0.77c0.35,0.11,0.77,0.17,1.24,0.17c0,0,0,0,0.01,0c0,0,0.01,0,0.01,0
		h2.04c0.79,0,1.36-0.19,1.7-0.57c0.34-0.38,0.51-0.98,0.51-1.8V66.36C172.99,66.24,172.93,66.18,172.8,66.18 M167.84,80.63h-1.9
		c-0.13,0-0.19,0.06-0.19,0.19v1.85c0,0.13,0.06,0.19,0.19,0.19h1.9c0.13,0,0.19-0.06,0.19-0.19v-1.85
		C168.03,80.7,167.97,80.63,167.84,80.63 M164.92,80.63h-1.89c-0.13,0-0.19,0.06-0.19,0.19v1.85c0,0.13,0.06,0.19,0.19,0.19h1.89
		c0.13,0,0.19-0.06,0.19-0.19v-1.85C165.11,80.7,165.05,80.63,164.92,80.63 M138.42,71.06h-2.3c-0.13,0-0.19,0.06-0.19,0.19v7.73
		c0,0.54-0.11,0.94-0.33,1.21c-0.22,0.26-0.59,0.4-1.1,0.4h-0.41c-0.13,0-0.19,0.06-0.19,0.19v1.9c0,0.13,0.06,0.19,0.19,0.19h0.87
		c1.23,0,2.15-0.31,2.75-0.92c0.6-0.62,0.9-1.57,0.9-2.87v-7.82C138.6,71.12,138.54,71.06,138.42,71.06 M128.07,66.18h-2.27
		c-0.12,0-0.19,0.06-0.19,0.19v12.44c0,0.13,0.06,0.19,0.19,0.19h2.27c0.12,0,0.19-0.06,0.19-0.19V66.36
		C128.26,66.24,128.19,66.18,128.07,66.18 M122.53,71.73c-0.34-0.28-0.76-0.48-1.25-0.59c-0.5-0.11-1.07-0.18-1.72-0.21l2.83-3.28
		c0.05-0.1,0.03-0.19-0.08-0.26l-1.56-1.32c-0.09-0.05-0.17-0.03-0.25,0.06l-4,4.73c-0.08,0.09-0.16,0.18-0.26,0.29
		c-0.1,0.11-0.15,0.2-0.15,0.29v1.53c0,0.12,0.06,0.19,0.19,0.19h2.83c0.59,0,1.02,0.11,1.29,0.34c0.27,0.23,0.41,0.59,0.41,1.09
		v0.87c0,0.25-0.02,0.46-0.05,0.62c-0.03,0.16-0.1,0.29-0.2,0.39c-0.1,0.09-0.24,0.16-0.43,0.2c-0.19,0.04-0.43,0.06-0.74,0.06
		h-4.22h-2.43h0h-0.43c-0.44,0-0.78-0.09-1.03-0.27c-0.24-0.18-0.38-0.43-0.41-0.74v-4.45c0-0.13-0.06-0.19-0.19-0.19h-2.3
		c-0.13,0-0.19,0.06-0.19,0.19v4.11c0,0.25-0.01,0.46-0.02,0.63c-0.01,0.17-0.05,0.31-0.11,0.41c-0.06,0.11-0.16,0.19-0.28,0.24
		c-0.13,0.05-0.31,0.08-0.55,0.08c-0.33,0-0.62-0.07-0.88-0.2c-0.26-0.13-0.39-0.41-0.39-0.84V72.6c0-0.13-0.06-0.19-0.19-0.19h-2.3
		c-0.13,0-0.19,0.06-0.19,0.19v2.77c0,0.25-0.01,0.46-0.03,0.63c-0.02,0.17-0.06,0.3-0.12,0.41c-0.06,0.1-0.17,0.18-0.31,0.23
		c-0.14,0.05-0.34,0.08-0.57,0.08c-0.3,0-0.58-0.07-0.83-0.21c-0.25-0.14-0.38-0.41-0.38-0.81V72.6c0-0.13-0.06-0.19-0.19-0.19h-2.3
		c-0.13,0-0.19,0.06-0.19,0.19v2.83c0,0.49-0.05,0.83-0.15,1.01c-0.1,0.18-0.33,0.27-0.7,0.27h-1.19h-0.08h-0.36
		c-0.44,0-0.78-0.09-1.03-0.27c-0.25-0.18-0.38-0.43-0.41-0.74v-4.45c0-0.13-0.06-0.19-0.19-0.19h-1.73c-0.14,0-0.3,0.01-0.48,0.02
		c-0.18,0.01-0.27,0.07-0.27,0.17v3.96c0,0.57-0.05,0.96-0.16,1.18c-0.11,0.22-0.36,0.33-0.74,0.33h-0.62c-0.02,0-0.03,0-0.05,0
		c-0.02,0-0.03,0-0.05,0h-0.41c-0.44,0-0.78-0.09-1.03-0.27c-0.25-0.18-0.38-0.43-0.41-0.74v-4.45c0-0.13-0.06-0.19-0.19-0.19h-2.3
		c-0.13,0-0.19,0.06-0.19,0.19v6.9c0,0.39-0.01,0.74-0.04,1.04c-0.03,0.3-0.08,0.56-0.18,0.76c-0.09,0.21-0.24,0.36-0.42,0.47
		c-0.19,0.11-0.45,0.16-0.79,0.16h-0.41c-0.13,0-0.19,0.06-0.19,0.19v1.9c0,0.13,0.06,0.19,0.19,0.19h0.87
		c1.33,0,2.27-0.34,2.83-1.03c0.55-0.69,0.83-1.74,0.83-3.18v-0.3c0.21,0.26,0.47,0.44,0.77,0.52c0.3,0.08,0.66,0.12,1.07,0.12
		c0.01,0,0.01,0,0.02,0c0.01,0,0.03,0,0.04,0h1.51c0.68,0,1.21-0.06,1.58-0.18c0.38-0.12,0.67-0.37,0.89-0.76
		c0.24,0.4,0.53,0.66,0.89,0.77c0.32,0.1,0.69,0.16,1.12,0.17c0.02,0,0.03,0,0.05,0h2.26c0.64,0,1.14-0.07,1.49-0.2
		c0.35-0.13,0.62-0.4,0.79-0.8c0.16,0.3,0.4,0.54,0.72,0.73c0.31,0.18,0.72,0.27,1.21,0.27h0.74c0.62,0,1.1-0.07,1.46-0.21
		c0.36-0.14,0.63-0.4,0.8-0.79c0.16,0.3,0.4,0.54,0.71,0.73c0.31,0.18,0.71,0.27,1.2,0.27h1.04c0.44,0,0.83-0.07,1.17-0.2
		c0.34-0.13,0.6-0.38,0.77-0.74c0.24,0.4,0.53,0.66,0.89,0.77c0.35,0.11,0.77,0.17,1.24,0.17h0h2.43h5.54c0.48,0,0.9-0.05,1.25-0.16
		c0.36-0.11,0.65-0.28,0.89-0.53c0.23-0.24,0.41-0.57,0.53-0.99c0.12-0.41,0.18-0.93,0.18-1.54v-1.11c0-0.73-0.08-1.33-0.25-1.81
		C123.12,72.39,122.86,72.01,122.53,71.73 M94.27,80.62h-2.34c-0.13,0-0.19,0.06-0.19,0.19v1.85c0,0.13,0.06,0.19,0.19,0.19h2.34
		c0.13,0,0.19-0.06,0.19-0.19V80.8C94.46,80.68,94.39,80.62,94.27,80.62 M82.3,71.06H80c-0.13,0-0.19,0.06-0.19,0.19v4.11
		c0,0.25-0.01,0.46-0.02,0.63c-0.01,0.17-0.05,0.31-0.11,0.41c-0.06,0.11-0.16,0.19-0.28,0.24c-0.13,0.05-0.31,0.08-0.55,0.08
		c-0.33,0-0.62-0.07-0.88-0.2c-0.26-0.13-0.39-0.41-0.39-0.84V72.6c0-0.13-0.06-0.19-0.19-0.19h-2.3c-0.13,0-0.19,0.06-0.19,0.19
		v2.77c0,0.25-0.01,0.46-0.03,0.63c-0.02,0.17-0.06,0.3-0.12,0.41c-0.06,0.1-0.17,0.18-0.31,0.23c-0.15,0.05-0.34,0.08-0.58,0.08
		c-0.3,0-0.58-0.07-0.84-0.21c-0.25-0.14-0.38-0.41-0.38-0.81V72.6c0-0.13-0.06-0.19-0.19-0.19h-2.28c-0.12,0-0.19,0.06-0.19,0.19
		v5.86c0,0.78-0.18,1.35-0.55,1.71c-0.36,0.36-0.87,0.54-1.51,0.54c-0.26,0-0.52-0.04-0.78-0.12c-0.26-0.08-0.49-0.22-0.7-0.41
		c-0.21-0.19-0.37-0.43-0.5-0.74c-0.13-0.3-0.19-0.67-0.19-1.11c0-0.55,0.08-1.05,0.23-1.49c0.15-0.44,0.31-0.84,0.49-1.19
		c0.02-0.05,0.03-0.1,0.03-0.14c-0.01-0.04-0.04-0.08-0.1-0.1l-2.04-0.66c-0.14-0.04-0.23-0.02-0.28,0.06
		c-0.33,0.53-0.58,1.12-0.76,1.79c-0.18,0.67-0.27,1.31-0.27,1.94c0,0.79,0.13,1.47,0.39,2.05c0.26,0.57,0.61,1.04,1.04,1.39
		c0.44,0.36,0.95,0.62,1.53,0.79c0.58,0.17,1.2,0.25,1.85,0.25c0.66,0,1.29-0.08,1.87-0.25c0.58-0.17,1.09-0.43,1.51-0.79
		c0.43-0.36,0.76-0.82,1.01-1.38c0.24-0.56,0.37-1.23,0.37-2.03v-0.25c0.18,0.21,0.4,0.38,0.68,0.49c0.28,0.11,0.62,0.17,1.02,0.17
		h0.74c0.62,0,1.11-0.07,1.47-0.21c0.36-0.14,0.63-0.4,0.8-0.79c0.16,0.3,0.4,0.54,0.71,0.73c0.31,0.18,0.71,0.27,1.2,0.27h1.04
		c0.79,0,1.36-0.19,1.7-0.57c0.34-0.38,0.51-0.98,0.51-1.8v-5.37C82.49,71.12,82.42,71.06,82.3,71.06"/>
</g>
</svg>
