<?xml version="1.0" encoding="utf-8"?>
<!-- Generator: Adobe Illustrator 26.0.0, SVG Export Plug-In . SVG Version: 6.00 Build 0)  -->
<svg version="1.1" id="Layer_1" xmlns="http://www.w3.org/2000/svg" xmlns:xlink="http://www.w3.org/1999/xlink" x="0px" y="0px"
	 viewBox="0 0 236.04 113.45" style="enable-background:new 0 0 236.04 113.45;" xml:space="preserve">
<style type="text/css">
	.st0{fill-rule:evenodd;clip-rule:evenodd;fill:#B0B0B2;}
	.st1{fill:#B0B0B2;}
	.st2{fill-rule:evenodd;clip-rule:evenodd;fill:#FDFEFF;}
	.st3{fill-rule:evenodd;clip-rule:evenodd;fill:#F7F6F6;}
	.st4{fill:none;}
	.st5{fill-rule:evenodd;clip-rule:evenodd;fill:#939598;}
	.st6{fill-rule:evenodd;clip-rule:evenodd;fill:#FFFFFF;}
	.st7{fill:none;stroke:#FFFFFF;stroke-width:0.482;stroke-miterlimit:22.926;}
	.st8{fill:#FFFFFF;}
	.st9{fill:#989A9B;}
	.st10{fill:#6A6C6E;}
</style>
<g>
	<path class="st0" d="M115.98,86.06c1.95,0,3.81,0.1,5.72-0.17c2.32-0.33,4.69-0.82,6.83-1.69c3.52-1.43,5.56-2.57,8.61-5.03
		c0.88-0.71,1.89-1.63,2.65-2.48c0.16-0.18,0.2-0.26,0.38-0.44l1.17-1.39c1.84-2.48,3.25-4.71,4.33-7.62
		c0.3-0.8,0.64-1.69,0.87-2.57c0.12-0.45,0.25-0.89,0.35-1.35c0.25-1.22,0.47-2.43,0.6-3.66c0.03-0.27,0.11-0.41,0.11-0.77v-4.32
		c0-0.66-0.47-3.38-0.61-4c-0.28-1.24-0.62-2.4-1.02-3.59l-2.17-4.72c-0.13-0.25-0.28-0.47-0.43-0.73
		c-0.16-0.26-0.31-0.48-0.44-0.73c-0.31,0-0.32-0.04-0.58-0.06c-0.23-0.01-0.47,0.02-0.7,0c-2.09-0.17-4.42-0.05-6.47,0.18
		c-0.45,0.05-0.95,0.15-1.41,0.23c-0.42,0.07-0.94,0.19-1.34,0.29c-2.14,0.55-4.02,1.3-5.68,2.54c-0.63,0.47-1.19,0.97-1.71,1.55
		l-0.75,0.89c-0.46,0.61-0.89,1.37-1.18,2.08c-0.17,0.42-0.3,0.72-0.45,1.18c-0.1,0.29-0.35,1.04-0.37,1.32
		c1.28,0.85,3.88,0.23,5.41,1.76c2.9,2.93,2.12,8.73-0.16,11.71c-0.35,0.45-0.89,1.11-1.33,1.47c-0.54,0.43-1.01,0.83-1.59,1.2
		c-1.2,0.77-2.54,1.29-3.95,1.65c-2.62,0.66-5.71,0.39-8.03-0.78c-1.71-0.86-3.36-2.51-4.22-4.24l-0.89-1.97
		c-0.34-0.87-0.61-1.88-0.74-2.82c-0.2-1.48-0.24-3.05,0.05-4.49c0.22-1.08,0.48-2.12,0.92-3.1c0.98-2.17,2.09-3.98,4.01-5.5
		c1.77-1.4,4.34-2.25,6.36-0.69c0.18,0.13,0.45,0.44,0.56,0.61c0.29,0.45,0.54,0.95,0.75,1.46c0.11,0.28,0.21,0.49,0.32,0.78
		c0.12,0.3,0.26,0.54,0.33,0.84h0.23c0.06-0.72,0.78-2.28,1.1-2.81c0.62-1.03,1.26-1.98,2.1-2.8l0.46-0.53
		c0.5-0.52,1.56-1.41,2.15-1.82c0.4-0.27,0.78-0.54,1.21-0.77c3.61-1.97,6.71-2.31,10.66-3.11c0.39-0.08,1.35-0.22,1.63-0.35
		c-0.03-0.32-0.58-0.72-0.8-0.95l-0.93-0.88c-0.78-0.79-2.09-1.74-3-2.36c-0.37-0.25-0.73-0.47-1.1-0.71
		c-0.36-0.24-0.74-0.44-1.13-0.67l-1.18-0.63c-2.97-1.49-6.31-2.46-9.65-2.94c-2-0.29-3.74-0.19-5.82-0.19
		c-0.35,0-0.47,0.05-0.78,0.09c-0.78,0.11-1.55,0.16-2.31,0.31c-1.91,0.38-3.78,0.85-5.55,1.56c-2.44,0.98-4.81,2.24-6.88,3.79
		c-0.35,0.26-0.67,0.47-0.99,0.76c-0.16,0.14-0.31,0.25-0.49,0.39l-0.5,0.43c-0.63,0.56-1.74,1.59-2.24,2.19
		c-0.95,1.14-1.9,2.25-2.73,3.5c-1.43,2.14-2.78,4.7-3.5,7.17l-0.78,2.78c-0.35,1.41-0.63,3.23-0.64,4.67l-0.12,1.69
		c0,0.25,0.06,0.46,0.06,0.82c-0.01,0.71,0.13,1.76,0.18,2.45c0.03,0.49,0.16,1.06,0.22,1.53c0.21,1.5,0.64,2.9,1.06,4.31
		c0.27,0.9,0.65,1.76,0.98,2.57c0.94,2.3,2.45,4.74,4.02,6.65c0.15,0.18,0.24,0.3,0.39,0.49l0.83,0.92c0.17,0.22,0.26,0.3,0.45,0.49
		c0.74,0.74,1.48,1.48,2.28,2.15c0.17,0.14,0.3,0.25,0.48,0.39c0.36,0.28,0.67,0.53,1.02,0.79c0.67,0.5,1.38,0.98,2.12,1.43
		c2.33,1.43,4.69,2.46,7.42,3.25c0.94,0.27,1.89,0.47,2.88,0.68c0.49,0.1,1.03,0.16,1.52,0.23L115.98,86.06z M127.82,32.23
		c-0.46,0-0.84-0.15-1.28-0.24c-0.84-0.17-1.82-0.21-2.71-0.33l-1.5-0.08c-5.21,0.03-10.16,1.34-14.45,4.09l-2.23,1.56
		c-0.93,0.71-1.43,1.24-2.23,1.96c-0.02,0.02-0.09,0.08-0.09,0.08c-1.79,1.71-3.2,3.73-4.46,5.86c-0.11,0.19-0.17,0.31-0.27,0.49
		l-0.78,1.56c-0.8,1.87-1.44,3.77-1.84,5.79c-0.18,0.92-0.26,1.78-0.39,2.7c-0.04,0.26-0.01,0.47-0.02,0.73
		c-0.05,0.92-0.14,2.07-0.02,2.99c0.04,0.26,0,0.52,0.03,0.78c0.12,0.91,0.21,1.84,0.39,2.7c0.18,0.9,0.36,1.65,0.61,2.48
		c0.99,3.34,2.58,6.42,4.77,9.1c0.12,0.15,0.23,0.27,0.35,0.41c0.45,0.55,1.38,1.6,1.88,2.03c0.1,0.08,0.1,0.07,0.19,0.16l0.09,0.09
		c0.05,0.04,0.07,0.06,0.12,0.11l0.79,0.73c1.36,1.21,4,3,5.62,3.65c0.21,0.08,0.4,0.14,0.52,0.3c-1.35-0.31-4.58-1.9-5.7-2.58
		c-1.35-0.81-2.69-1.73-3.84-2.8l-0.87-0.82c-0.29-0.29-0.53-0.53-0.82-0.81c-0.52-0.53-1.07-1.2-1.53-1.8
		c-2.29-2.99-3.39-5.25-4.57-8.78c-0.7-2.1-1.09-4.99-1.09-7.25c0-0.68-0.01-1.75,0.08-2.37c0.04-0.25,0.08-0.56,0.09-0.78
		c0.12-1.86,0.66-3.75,1.23-5.47c1.08-3.23,2.8-6.15,4.79-8.5c0.83-0.98,1.55-1.62,2.45-2.51c0.17-0.17,0.27-0.21,0.44-0.38
		c0.16-0.16,0.3-0.26,0.47-0.41c2.31-2.02,5.75-3.78,8.62-4.73c1.8-0.6,3.61-0.91,5.53-1.18c0.51-0.07,1.06-0.06,1.51-0.12
		c0.71-0.1,2.5-0.04,3.23,0.06l1.53,0.16c1.34,0.12,2.81,0.53,4.11,0.9c0.41,0.11,0.76,0.16,1.12,0.34
		C127.82,32.21,127.75,32.18,127.82,32.23"/>
	<path class="st0" d="M112.83,49.32c0.43,0,3.52-1.14,4.56,1.74c0.21,0.58,0.41,1.28,0.72,1.79c1.2,1.99,3.51,1.3,5.25,2.27
		c0.96,0.54,1.61,1.92,1.61,3.41c0,2.01-0.74,3.3-1.75,4.61c-0.19,0.24-0.4,0.43-0.63,0.66c-0.22,0.23-0.44,0.39-0.7,0.59
		c-0.26,0.2-0.54,0.3-0.72,0.57c0.67,0,2.4-1.19,2.97-1.63l0.82-0.76c0.22-0.29,0.45-0.5,0.68-0.84c0.23-0.34,0.4-0.6,0.59-0.99
		c0.48-0.97,0.44-1.22,0.65-2.03c0.13-0.49,0.06-1.21,0.06-1.74c0-0.43-0.37-1.39-0.61-1.78c-1.56-2.59-4.86-0.83-6.29-3.39
		c-0.63-1.13-0.63-3.01-2.51-3.55c-1.28-0.37-2-0.18-3.22,0.23c-0.32,0.11-0.51,0.23-0.8,0.37c-0.15,0.08-0.26,0.13-0.39,0.19
		C112.93,49.12,112.89,49.1,112.83,49.32"/>
</g>
</svg>
