<?xml version="1.0" encoding="utf-8"?>
<!-- Generator: Adobe Illustrator 26.0.0, SVG Export Plug-In . SVG Version: 6.00 Build 0)  -->
<svg version="1.1" id="Layer_1" xmlns="http://www.w3.org/2000/svg" xmlns:xlink="http://www.w3.org/1999/xlink" x="0px" y="0px"
	 viewBox="0 0 236.04 113.45" style="enable-background:new 0 0 236.04 113.45;" xml:space="preserve">
<style type="text/css">
	.st0{fill-rule:evenodd;clip-rule:evenodd;fill:#B0B0B2;}
	.st1{fill:#B0B0B2;}
	.st2{fill-rule:evenodd;clip-rule:evenodd;fill:#FDFEFF;}
	.st3{fill-rule:evenodd;clip-rule:evenodd;fill:#F7F6F6;}
	.st4{fill:none;}
	.st5{fill-rule:evenodd;clip-rule:evenodd;fill:#939598;}
	.st6{fill-rule:evenodd;clip-rule:evenodd;fill:#FFFFFF;}
	.st7{fill:none;stroke:#FFFFFF;stroke-width:0.482;stroke-miterlimit:22.926;}
	.st8{fill:#FFFFFF;}
	.st9{fill:#989A9B;}
	.st10{fill:#6A6C6E;}
</style>
<g>
	<path class="st1" d="M132.88,57.99V44.52h-4.09V39.9h13.58v4.61h-4.12v13.48H132.88z M73.4,48.97c0,5.21,4.22,9.43,9.44,9.43
		c2.59,0,4.94-1.04,6.65-2.74l-3.66-3.65c-0.77,0.76-1.82,1.22-2.99,1.22c-2.36,0-4.27-1.9-4.27-4.26c0-2.35,1.91-4.26,4.27-4.26
		c1.16,0,2.22,0.47,2.99,1.22l3.66-3.65c-1.71-1.69-4.06-2.73-6.65-2.73C77.62,39.55,73.4,43.76,73.4,48.97 M156.92,39.9h-6.89
		l-5.74,18.09h5.46l0.74-3.12h5.95l0.73,3.12h5.47L156.92,39.9z M151.39,51.02l1.67-7.05h0.79l1.66,7.05H151.39z M112.64,66.35h5.49
		v1.41h-3.8v1.58h3.16v1.38h-3.16v3.05h-1.68V66.35z M99.75,71.25c-0.39,0.62-1.08,1.02-1.86,1.02c-1.22,0-2.21-0.99-2.21-2.21
		c0-1.22,0.99-2.22,2.21-2.22c0.68,0,1.3,0.31,1.71,0.79l1.14-1.14c-0.71-0.79-1.72-1.27-2.86-1.27c-2.11,0-3.83,1.71-3.83,3.84
		c0,2.11,1.72,3.83,3.83,3.83c1.22,0,2.31-0.6,3.02-1.49L99.75,71.25z M120.54,66.35h5.48v1.41h-3.8v1.58h3.15v1.38h-3.15v3.05
		h-1.68V66.35z M130.13,72.36v-1.64h3.16v-1.37h-3.16v-1.58h3.71v-1.41h-5.39v7.42h5.53v-1.42H130.13z M141.98,67.77v-1.41h-5.38
		v7.42h5.54v-1.42h-3.86v-1.64h3.15v-1.38h-3.15v-1.58H141.98z M106.42,66.23c-2.12,0-3.84,1.71-3.84,3.83
		c0,2.12,1.72,3.83,3.84,3.83c2.11,0,3.82-1.71,3.82-3.83C110.25,67.95,108.53,66.23,106.42,66.23 M106.43,72.26
		c-1.22,0-2.21-0.98-2.21-2.2c0-1.22,0.99-2.21,2.21-2.21c1.22,0,2.2,0.99,2.2,2.21C108.63,71.28,107.65,72.26,106.43,72.26
		 M101.36,39.56c-5.21,0.13-9.33,4.45-9.19,9.66c0.13,5.22,4.46,9.34,9.66,9.2c5.22-0.14,9.33-4.46,9.2-9.67
		C110.9,43.53,106.58,39.42,101.36,39.56 M101.54,53.24c-2.35,0.06-4.31-1.8-4.38-4.16c-0.06-2.35,1.81-4.29,4.16-4.36
		c2.35-0.05,4.31,1.81,4.37,4.15C105.75,51.23,103.89,53.18,101.54,53.24 M118.55,39.91l6.7,0c-2.29,1.07-3.86,3.28-3.65,5.78
		c0.32,3.65,3.65,5.06,3.65,9.36c0,2.87-1.86,5.38-3.91,6.48l-6.1-1.68c2.11-0.99,3.51-3.02,3.41-5.26
		c-0.14-3.46-3.41-5.05-3.41-8.98C115.24,42.95,116.72,40.82,118.55,39.91"/>
</g>
</svg>
