<?xml version="1.0" encoding="utf-8"?>
<!-- Generator: Adobe Illustrator 26.0.0, SVG Export Plug-In . SVG Version: 6.00 Build 0)  -->
<svg version="1.1" id="Layer_1" xmlns="http://www.w3.org/2000/svg" xmlns:xlink="http://www.w3.org/1999/xlink" x="0px" y="0px"
	 viewBox="0 0 236.04 113.45" style="enable-background:new 0 0 236.04 113.45;" xml:space="preserve">
<style type="text/css">
	.st0{fill-rule:evenodd;clip-rule:evenodd;fill:#B0B0B2;}
	.st1{fill:#B0B0B2;}
	.st2{fill-rule:evenodd;clip-rule:evenodd;fill:#FDFEFF;}
	.st3{fill-rule:evenodd;clip-rule:evenodd;fill:#F7F6F6;}
	.st4{fill:none;}
	.st5{fill-rule:evenodd;clip-rule:evenodd;fill:#939598;}
	.st6{fill-rule:evenodd;clip-rule:evenodd;fill:#FFFFFF;}
	.st7{fill:none;stroke:#FFFFFF;stroke-width:0.482;stroke-miterlimit:22.926;}
	.st8{fill:#FFFFFF;}
	.st9{fill:#989A9B;}
	.st10{fill:#6A6C6E;}
</style>
<g>
	<path class="st1" d="M86.26,85.99v1.95h1.07c0.22,0,0.43-0.01,0.61-0.04c0.18-0.03,0.34-0.08,0.47-0.16
		c0.13-0.07,0.23-0.18,0.3-0.31c0.07-0.13,0.1-0.29,0.1-0.49c0-0.34-0.12-0.59-0.36-0.73c-0.24-0.15-0.61-0.22-1.11-0.22H86.26z
		 M91.61,84.87h4.35v1.13h-3.14v1.62h2.85v1.14h-2.85v1.8h3.16v1.12h-4.36V84.87z M97.36,91.67v-6.81h1.21v3.4l2.65-3.4h1.48
		l-2.74,3.37l2.9,3.43h-1.52l-2.78-3.39v3.39H97.36z M105.28,88.94h2.01l-1.01-2.83L105.28,88.94z M109.54,91.67h-1.27l-0.58-1.6
		h-2.82l-0.57,1.6h-1.27l2.52-6.81h1.47L109.54,91.67z M110.38,84.87h4.94v1.12l-3.77,4.56h3.86v1.12h-5.32v-1.12l3.78-4.57h-3.48
		V84.87z M119.99,90.01c0.12,0.08,0.26,0.15,0.41,0.21c0.16,0.06,0.32,0.12,0.5,0.16c0.18,0.04,0.36,0.08,0.54,0.11
		c0.18,0.03,0.36,0.04,0.55,0.04c0.21,0,0.4-0.02,0.57-0.05c0.18-0.03,0.33-0.09,0.46-0.16c0.13-0.07,0.23-0.17,0.31-0.28
		c0.08-0.11,0.11-0.25,0.11-0.41c0-0.14-0.03-0.26-0.09-0.36c-0.06-0.1-0.15-0.19-0.26-0.26c-0.11-0.07-0.25-0.13-0.41-0.18
		c-0.16-0.05-0.34-0.1-0.54-0.15l-0.56-0.14c-0.62-0.15-1.09-0.4-1.4-0.75c-0.31-0.35-0.47-0.78-0.47-1.28
		c0-0.28,0.06-0.53,0.18-0.76c0.12-0.23,0.28-0.43,0.5-0.59c0.22-0.17,0.48-0.29,0.78-0.38c0.3-0.09,0.64-0.13,1.01-0.13
		c0.21,0,0.43,0.02,0.65,0.05c0.22,0.03,0.43,0.07,0.64,0.13c0.21,0.06,0.41,0.12,0.59,0.19c0.19,0.07,0.35,0.16,0.5,0.24
		l-0.48,1.06c-0.25-0.16-0.55-0.29-0.9-0.38c-0.35-0.1-0.69-0.14-1.01-0.14c-0.16,0-0.32,0.01-0.46,0.04
		c-0.14,0.03-0.27,0.08-0.39,0.14c-0.11,0.06-0.2,0.14-0.26,0.23c-0.06,0.09-0.1,0.2-0.1,0.32c0,0.23,0.09,0.4,0.25,0.54
		c0.17,0.13,0.45,0.25,0.83,0.35l0.57,0.14c0.29,0.07,0.56,0.16,0.81,0.28c0.25,0.11,0.48,0.25,0.67,0.42
		c0.19,0.17,0.34,0.37,0.45,0.6c0.11,0.23,0.17,0.5,0.17,0.8c0,0.33-0.07,0.62-0.21,0.87c-0.14,0.25-0.32,0.46-0.56,0.63
		c-0.24,0.17-0.52,0.3-0.85,0.39c-0.33,0.09-0.69,0.13-1.07,0.13c-0.24,0-0.47-0.01-0.71-0.04c-0.24-0.03-0.47-0.07-0.69-0.13
		c-0.22-0.05-0.42-0.12-0.61-0.19c-0.19-0.07-0.36-0.16-0.5-0.24L119.99,90.01z M127.36,85.99h-2.27v-1.13h5.75v1.13h-2.27v5.68
		h-1.22V85.99z M136.75,89.13c0.11-0.29,0.17-0.62,0.17-0.97c0-0.36-0.06-0.68-0.17-0.97c-0.11-0.29-0.27-0.54-0.47-0.75
		c-0.2-0.21-0.44-0.37-0.71-0.48c-0.27-0.11-0.57-0.17-0.9-0.17c-0.32,0-0.62,0.05-0.89,0.17c-0.28,0.11-0.51,0.27-0.71,0.48
		c-0.2,0.21-0.36,0.46-0.47,0.75c-0.12,0.29-0.17,0.61-0.17,0.97c0,0.36,0.06,0.68,0.17,0.97c0.11,0.29,0.27,0.54,0.47,0.75
		c0.2,0.2,0.44,0.37,0.71,0.48c0.27,0.11,0.57,0.17,0.89,0.17c0.32,0,0.63-0.05,0.9-0.17c0.27-0.11,0.51-0.27,0.71-0.48
		C136.48,89.67,136.64,89.42,136.75,89.13 M138.2,88.16c0,0.5-0.09,0.96-0.26,1.39c-0.17,0.43-0.42,0.8-0.73,1.12
		c-0.31,0.32-0.69,0.56-1.12,0.74c-0.43,0.18-0.91,0.27-1.43,0.27c-0.52,0-1-0.09-1.43-0.27c-0.43-0.18-0.8-0.43-1.11-0.74
		c-0.32-0.32-0.56-0.69-0.73-1.12c-0.17-0.43-0.26-0.89-0.26-1.39c0-0.49,0.09-0.95,0.26-1.38c0.17-0.43,0.41-0.81,0.73-1.12
		c0.31-0.32,0.68-0.56,1.11-0.74c0.43-0.18,0.91-0.27,1.43-0.27c0.52,0,0.99,0.09,1.43,0.27c0.43,0.18,0.8,0.43,1.12,0.74
		c0.31,0.31,0.56,0.68,0.73,1.12C138.11,87.21,138.2,87.67,138.2,88.16 M140.61,86v5.67h-1.19v-6.81h1.86l2.48,5.67v-5.67h1.18v6.81
		h-1.86L140.61,86z M146.63,84.87h4.35v1.13h-3.14v1.62h2.85v1.14h-2.85v1.8h3.16v1.12h-4.36V84.87z M86.22,80.25
		c0,0.29-0.05,0.5-0.14,0.62c-0.09,0.13-0.25,0.19-0.49,0.19c-0.09,0-0.17,0-0.26-0.02c-0.08-0.01-0.18-0.03-0.29-0.06l0.08,1.16
		c0.07,0.02,0.16,0.04,0.26,0.05c0.11,0.01,0.22,0.02,0.33,0.02c0.3,0,0.55-0.04,0.76-0.13c0.21-0.08,0.38-0.21,0.52-0.39
		c0.13-0.17,0.23-0.39,0.29-0.66c0.06-0.27,0.09-0.59,0.09-0.97v-4.36h-1.16V80.25z M107.81,76.2c-0.2-0.2-0.44-0.36-0.72-0.47
		c-0.28-0.11-0.59-0.17-0.94-0.17c-0.35,0-0.67,0.05-0.97,0.14c-0.3,0.09-0.59,0.22-0.86,0.37l0.48,1.01
		c0.22-0.14,0.42-0.23,0.6-0.29c0.18-0.05,0.39-0.08,0.61-0.08c0.41,0,0.74,0.1,0.98,0.31c0.14,0.13,0.25,0.28,0.31,0.47
		c0.06,0.19,0.1,0.37,0.1,0.54c0,0.18-0.01,0.37-0.04,0.59c-0.02,0.21-0.06,0.41-0.1,0.6h-7.9c0.03-0.18,0.06-0.36,0.08-0.54
		c0.02-0.19,0.03-0.37,0.03-0.56c0-0.42-0.07-0.79-0.21-1.12c-0.14-0.33-0.32-0.6-0.54-0.82c-0.2-0.2-0.44-0.36-0.72-0.47
		c-0.28-0.11-0.59-0.17-0.93-0.17c-0.35,0-0.67,0.05-0.97,0.14c-0.3,0.09-0.58,0.22-0.86,0.37l0.48,1.01
		c0.22-0.14,0.41-0.23,0.6-0.29c0.18-0.05,0.38-0.08,0.61-0.08c0.42,0,0.74,0.1,0.98,0.31c0.14,0.13,0.25,0.28,0.31,0.47
		c0.06,0.19,0.1,0.37,0.1,0.54c0,0.18-0.01,0.37-0.04,0.59c-0.02,0.21-0.06,0.41-0.1,0.6h-8.05v-5.58h-1.16v6.74h19.2
		c0.04-0.12,0.08-0.27,0.13-0.43c0.05-0.17,0.09-0.35,0.13-0.55c0.04-0.2,0.07-0.41,0.1-0.62c0.03-0.21,0.04-0.43,0.04-0.66
		c0-0.42-0.07-0.79-0.21-1.12C108.22,76.7,108.04,76.43,107.81,76.2 M111.75,75.72h-1.17v3.1h1.17V75.72z M119.68,79.24h-4.35
		c-0.55,0-0.95-0.14-1.2-0.42c0.06-0.26,0.09-0.51,0.09-0.76v-3.23h0.54v-1.16h-1.71v4.43c0,0.21-0.03,0.38-0.09,0.52
		c-0.06,0.14-0.14,0.25-0.26,0.35c-0.12,0.09-0.26,0.16-0.41,0.21c-0.16,0.05-0.34,0.07-0.53,0.07h-2.37l0.14,1.16h1.99
		c0.45,0,0.85-0.04,1.19-0.14c0.35-0.09,0.64-0.25,0.88-0.46c0.06-0.06,0.13-0.12,0.19-0.21c0.04,0.1,0.09,0.19,0.17,0.28
		c0.07,0.09,0.17,0.18,0.29,0.26c0.12,0.08,0.27,0.14,0.44,0.19c0.14,0.04,0.3,0.06,0.48,0.07v0h5.68v-5.58h0.54v-1.16h-1.7V79.24z
		 M125.64,80.25c0,0.29-0.05,0.5-0.14,0.62c-0.09,0.13-0.25,0.19-0.49,0.19c-0.09,0-0.17,0-0.26-0.02
		c-0.08-0.01-0.18-0.03-0.29-0.06l0.08,1.16c0.07,0.02,0.16,0.04,0.26,0.05c0.11,0.01,0.22,0.02,0.33,0.02
		c0.3,0,0.55-0.04,0.76-0.13c0.21-0.08,0.38-0.21,0.51-0.39c0.13-0.17,0.23-0.39,0.29-0.66c0.06-0.27,0.09-0.59,0.09-0.97v-4.36
		h-1.16V80.25z M147.48,76.73c-0.21-0.22-0.46-0.38-0.74-0.48c-0.28-0.1-0.61-0.15-0.99-0.15h-2.45l1.29-2.44h-1.25L142,76.1
		c0.01,0.25,0.05,0.47,0.13,0.66c0.07,0.19,0.16,0.35,0.27,0.49h3.47c0.15,0,0.29,0.03,0.41,0.09c0.13,0.06,0.22,0.14,0.3,0.23
		c0.08,0.09,0.13,0.2,0.17,0.33c0.04,0.12,0.06,0.27,0.06,0.44v0.89h-17.19v-5.58h-1.16v6.74h19.52v-2c0-0.34-0.04-0.66-0.11-0.95
		C147.78,77.16,147.66,76.92,147.48,76.73 M149.83,75.72v4.53c0,0.29-0.04,0.5-0.14,0.62c-0.09,0.13-0.26,0.19-0.49,0.19
		c-0.09,0-0.17,0-0.26-0.02c-0.08-0.01-0.18-0.03-0.29-0.06l0.08,1.16c0.07,0.02,0.16,0.04,0.27,0.05c0.11,0.01,0.21,0.02,0.33,0.02
		c0.3,0,0.55-0.04,0.77-0.13c0.21-0.08,0.38-0.21,0.51-0.39c0.13-0.17,0.23-0.39,0.29-0.66c0.06-0.27,0.09-0.59,0.09-0.97v-4.36
		H149.83z M125.4,74.48l0.83,0.83l0.82-0.83l-0.82-0.82L125.4,74.48z M111.83,74.45h-1.06c0-0.13,0.03-0.23,0.1-0.31
		c0.07-0.07,0.18-0.11,0.35-0.11h0.35v-0.37h-0.42c-0.33,0-0.58,0.08-0.77,0.23c-0.19,0.16-0.28,0.42-0.28,0.8v0.38h1.73V74.45z
		 M96.31,81.69l0.82,0.82l0.82-0.82l-0.82-0.82L96.31,81.69z M109.32,33.17l-1.34-1.35l-1.35,1.35l1.35,1.34L109.32,33.17z
		 M123.36,39.22l-1.34-1.35l-3.99,4l-7.99-7.99l-1.34,1.35l9.34,9.34L123.36,39.22z M118.02,40.45l7.27-7.27l-5.31-5.31l-3.87,3.86
		l-2.68-2.68l5.93-5.93l-1.34-1.34l-7.27,7.27l4.19,4.19l1.18,1.19l3.87-3.87l2.62,2.62l-4.58,4.58l-7.99-7.99l-1.34,1.35l8.39,8.39
		L118.02,40.45z M126.72,33.17l-4,3.99l1.35,1.35l5.34-5.34l-9.34-9.34l-1.34,1.34L126.72,33.17z M105.28,54.61l-1.35,1.34
		l1.35,1.35l1.34-1.35L105.28,54.61z M113.98,45.91l-7.99,7.99l1.35,1.35l9.34-9.34l-5.34-5.34l-1.35,1.35L113.98,45.91z
		 M105.29,38.63l-5.15,5.15l0,0l-0.16,0.16l3.87,3.87l-2.68,2.68l-5.93-5.93l-1.35,1.35l7.27,7.27l5.37-5.37l-3.86-3.87l2.62-2.62
		l4.58,4.58l-7.99,7.99l1.35,1.34l9.34-9.33L105.29,38.63z M105.28,37.21l4,4l1.35-1.35l-5.34-5.34l-9.34,9.34l1.34,1.35
		L105.28,37.21z M126.72,58.65l1.34,1.34l1.35-1.34l-1.35-1.35L126.72,58.65z M110.75,58.65l5.31,5.31l3.87-3.87l2.68,2.68
		l-5.93,5.93l1.35,1.35l7.27-7.27l-5.37-5.37l-3.87,3.87l-2.62-2.62l4.58-4.58l7.99,7.99l1.34-1.34l-9.34-9.34L110.75,58.65z
		 M118.02,49.95l7.99,7.99l1.35-1.35l-9.34-9.34l-5.34,5.34l1.34,1.35L118.02,49.95z M109.32,58.65l4-4l-1.35-1.35l-5.34,5.34
		l9.34,9.34l1.34-1.35L109.32,58.65z M134.88,38.64l-5.37,5.38l3.87,3.87l-2.62,2.62l-4.58-4.58l7.99-7.99l-1.34-1.35l-9.34,9.33
		l7.27,7.27l5.31-5.31l-3.86-3.87l2.68-2.68l5.93,5.93l1.34-1.34L134.88,38.64z M130.76,37.21l1.34-1.34l-1.34-1.35l-1.35,1.35
		L130.76,37.21z M122.06,45.91l7.99-7.99l-1.35-1.35l-9.34,9.34l5.34,5.34l1.35-1.34L122.06,45.91z M130.76,54.61l-3.99-4
		l-1.35,1.35l5.34,5.34l9.34-9.34l-1.34-1.35L130.76,54.61z M87.46,88.99h-1.2v2.69h-1.21v-6.81h2.55c0.44,0,0.82,0.06,1.13,0.17
		c0.31,0.12,0.57,0.27,0.77,0.46c0.2,0.19,0.35,0.41,0.44,0.66c0.09,0.25,0.14,0.5,0.14,0.76c0,0.2-0.02,0.39-0.07,0.58
		c-0.05,0.19-0.13,0.37-0.24,0.54c-0.11,0.17-0.25,0.32-0.43,0.45c-0.18,0.14-0.39,0.24-0.64,0.33l1.78,2.85h-1.36L87.46,88.99z"/>
</g>
</svg>
