<?xml version="1.0" encoding="utf-8"?>
<!-- Generator: Adobe Illustrator 26.0.0, SVG Export Plug-In . SVG Version: 6.00 Build 0)  -->
<svg version="1.1" id="Layer_1" xmlns="http://www.w3.org/2000/svg" xmlns:xlink="http://www.w3.org/1999/xlink" x="0px" y="0px"
	 viewBox="0 0 236.04 113.45" style="enable-background:new 0 0 236.04 113.45;" xml:space="preserve">
<style type="text/css">
	.st0{fill-rule:evenodd;clip-rule:evenodd;fill:#B0B0B2;}
	.st1{fill:#B0B0B2;}
	.st2{fill-rule:evenodd;clip-rule:evenodd;fill:#FDFEFF;}
	.st3{fill-rule:evenodd;clip-rule:evenodd;fill:#F7F6F6;}
	.st4{fill:none;}
	.st5{fill-rule:evenodd;clip-rule:evenodd;fill:#939598;}
	.st6{fill-rule:evenodd;clip-rule:evenodd;fill:#FFFFFF;}
	.st7{fill:none;stroke:#FFFFFF;stroke-width:0.482;stroke-miterlimit:22.926;}
	.st8{fill:#FFFFFF;}
	.st9{fill:#989A9B;}
	.st10{fill:#6A6C6E;}
</style>
<g>
	<path class="st0" d="M139.45,42.75h-10.89c0,0-1.64-4.69-4.45-4.69h-12.2c-2.82,0-4.45,4.69-4.45,4.69H96.72
		c-1.99,0-3.61,1.61-3.61,3.6v25.43c0,1.99,1.62,3.6,3.61,3.6h42.73c1.99,0,3.6-1.62,3.6-3.6V46.35
		C143.05,44.37,141.44,42.76,139.45,42.75 M109.62,42.75c0,0,1.31-3.2,3.55-3.2h9.7c2.24,0,3.54,3.2,3.54,3.2H109.62z"/>
	<path class="st0" d="M143.05,57.82l-1.92,0.23l-17.4,17.33h15.71c1.99-0.01,3.6-1.62,3.6-3.6V57.82z"/>
	<path class="st7" d="M143.05,57.82l-1.92,0.23l-17.4,17.33h15.71c1.99-0.01,3.6-1.62,3.6-3.6V57.82z"/>
	<path class="st8" d="M123.8,75.38h15.96c-0.1,0.01-0.21,0.02-0.32,0.02h-15.76l17.43-17.37l1.93-0.23v13.99
		c0,0.14-0.01,0.27-0.02,0.41V57.86l-1.87,0.21L123.8,75.38z"/>
	<polygon class="st0" points="93.11,57.87 110.61,59.87 119.7,62.38 131.2,58.82 131.64,59.6 112.82,69.2 93.11,59.92 	"/>
	<polygon class="st7" points="93.11,57.87 110.61,59.87 119.7,62.38 131.2,58.82 131.64,59.6 112.82,69.2 93.11,59.92 	"/>
	<polygon class="st8" points="93.11,59.88 112.82,69.16 131.6,59.58 131.19,58.85 119.7,62.42 110.6,59.9 93.11,57.9 93.11,57.84 
		110.61,59.84 119.7,62.36 131.22,58.79 131.69,59.62 112.82,69.23 112.8,69.23 93.11,59.95 	"/>
	<path class="st0" d="M141.29,57.89c0,0-1.66-0.25-6.59,0.74c-4.14,0.84-9.94,4.11-21.57,9.91l11.57,5.88L141.29,57.89z"/>
	<path class="st7" d="M141.29,57.89c0,0-1.66-0.25-6.59,0.74c-4.14,0.84-9.94,4.11-21.57,9.91l11.57,5.88L141.29,57.89z"/>
	<path class="st8" d="M124.71,74.47l-11.65-5.92l0.06-0.03c2.47-1.23,4.69-2.35,6.65-3.35c7.27-3.67,11.66-5.91,14.93-6.57
		c4.88-0.98,6.59-0.74,6.6-0.74h0.06L124.71,74.47z M113.2,68.55l11.5,5.85l16.52-16.48c-0.35-0.03-2.17-0.13-6.52,0.75
		c-3.26,0.66-7.65,2.88-14.92,6.57C117.84,66.21,115.63,67.33,113.2,68.55"/>
	<polygon class="st0" points="113.13,68.55 99.66,75.39 126.59,75.39 	"/>
	<polygon class="st7" points="113.13,68.55 99.66,75.39 126.59,75.39 	"/>
	<path class="st0" d="M93.11,64.85l7.22,10.54h-3.61c-1.99,0-3.61-1.61-3.61-3.6V64.85z"/>
	<path class="st7" d="M93.11,64.85l7.22,10.54h-3.61c-1.99,0-3.61-1.61-3.61-3.6V64.85z"/>
	<path class="st8" d="M96.39,75.38h3.89l-7.17-10.46V64.8l7.26,10.59h-3.65C96.61,75.39,96.5,75.39,96.39,75.38"/>
	<path class="st0" d="M93.11,58.34c0.73,0.35,19.71,9.46,20.02,10.21l-12.55,6.85h-0.5l-6.97-10.18V58.34z"/>
	<path class="st7" d="M93.11,58.34c0.73,0.35,19.71,9.46,20.02,10.21l-12.55,6.85h-0.5l-6.97-10.18V58.34z"/>
	<path class="st8" d="M100.53,75.39l12.56-6.85c-0.56-0.72-13.22-6.92-19.97-10.16l-0.01,2.39v-2.48h0
		c0.81,0.39,19.74,9.48,20.06,10.23v0.03l-12.52,6.84H100.53z M93.11,65.17l7,10.22h-0.07l-6.93-10.11V65.17z"/>
	<path class="st6" d="M143.04,57.11c-9.41,0.11-21.01,2.77-21.73,2.94c-0.01,0-0.01,0-0.01-0.01v0v-2.43c0-0.01,0.01-0.01,0.02-0.01
		l6.37-0.36c0.94-0.34,0-0.65,0-0.65h-6.49c-0.33-1.22-1.34-2.14-2.59-2.33v-4.67c0-0.32-0.26-0.59-0.59-0.59
		c-0.32,0-0.58,0.26-0.59,0.59v4.67c-1.25,0.2-2.27,1.12-2.59,2.34h-6.49c0,0-0.94,0.29,0,0.64l6.37,0.37c0.01,0,0.01,0,0.02,0.01
		v2.42c0,0.01,0,0.01-0.01,0.01c0,0,0,0,0,0c-0.71-0.16-12.32-2.83-21.73-2.94c-0.01,0-0.01,0.01-0.01,0.02v0.72
		c0,0,0,0.02,0.01,0.02c0.48,0.04,14.57,1.41,21.11,4.84c0.29,0.15,0.54,0.35,0.81,0.53c0.06,0.04,0.13,0.06,0.2,0.06h5.78
		c0.07,0,0.14-0.02,0.2-0.06c0.27-0.17,0.53-0.38,0.81-0.53c6.55-3.42,20.64-4.79,21.11-4.84v-0.02v-0.72
		C143.04,57.12,143.04,57.11,143.04,57.11"/>
	<path class="st9" d="M117.94,55.25h0.16c1.14,0,2.07,0.92,2.07,2.07c0,0.02-0.02,0.04-0.04,0.04h-4.21c-0.02,0-0.04-0.02-0.04-0.04
		C115.87,56.17,116.79,55.25,117.94,55.25L117.94,55.25z"/>
	<path class="st9" d="M117.66,59.38h0.72c0.27,0,0.48,0.22,0.48,0.48v0.61c0,0.27-0.22,0.48-0.48,0.48h-0.72
		c-0.27,0-0.48-0.22-0.48-0.48v-0.61C117.18,59.6,117.39,59.38,117.66,59.38"/>
	<path class="st8" d="M105.32,59.51c1.13,0,2.05,0.92,2.05,2.05c0,1.13-0.92,2.05-2.05,2.05c-1.13,0-2.05-0.92-2.05-2.05
		C103.27,60.42,104.19,59.51,105.32,59.51"/>
	<path class="st10" d="M105.32,62.61c-0.58,0-1.05-0.47-1.05-1.05c0-0.58,0.47-1.05,1.05-1.05c0.58,0,1.05,0.47,1.05,1.05
		C106.37,62.14,105.9,62.61,105.32,62.61 M105.32,60.73c-0.46,0-0.83,0.37-0.83,0.83c0,0.46,0.37,0.83,0.83,0.83
		c0.46,0,0.83-0.37,0.83-0.83v0C106.14,61.1,105.77,60.73,105.32,60.73"/>
	<path class="st8" d="M130.82,59.51c1.13,0,2.05,0.92,2.05,2.05c0,1.13-0.92,2.05-2.05,2.05c-1.13,0-2.05-0.92-2.05-2.05
		C128.77,60.42,129.68,59.51,130.82,59.51"/>
	<path class="st10" d="M130.82,62.61c-0.58,0-1.05-0.47-1.05-1.05c0-0.58,0.47-1.05,1.05-1.05c0.58,0,1.05,0.47,1.05,1.05
		C131.87,62.14,131.4,62.61,130.82,62.61 M130.82,60.73c-0.46,0-0.83,0.37-0.83,0.83c0,0.46,0.37,0.83,0.83,0.83
		c0.46,0,0.83-0.37,0.83-0.83v0C131.64,61.1,131.27,60.73,130.82,60.73"/>
	<path class="st8" d="M140.13,57.82c1.13,0,2.05,0.92,2.05,2.05c0,1.13-0.92,2.05-2.05,2.05c-1.13,0-2.05-0.92-2.05-2.05
		C138.08,58.74,138.99,57.82,140.13,57.82"/>
	<path class="st10" d="M140.13,60.93c-0.58,0-1.05-0.47-1.05-1.05c0-0.58,0.47-1.05,1.05-1.05c0.58,0,1.05,0.47,1.05,1.05
		C141.18,60.45,140.71,60.92,140.13,60.93 M140.13,59.04c-0.46,0-0.83,0.37-0.83,0.83c0,0.46,0.37,0.83,0.83,0.83
		c0.46,0,0.83-0.37,0.83-0.83C140.95,59.41,140.58,59.04,140.13,59.04"/>
	<path class="st8" d="M95.8,57.82c1.13,0,2.05,0.92,2.05,2.05c0,1.13-0.92,2.05-2.05,2.05c-1.13,0-2.05-0.92-2.05-2.05
		C93.76,58.74,94.67,57.82,95.8,57.82"/>
	<path class="st10" d="M95.8,60.93c-0.58,0-1.05-0.47-1.05-1.05c0-0.58,0.47-1.05,1.05-1.05c0.58,0,1.05,0.47,1.05,1.05
		C96.86,60.45,96.39,60.92,95.8,60.93 M95.8,59.04c-0.46,0-0.83,0.37-0.83,0.83s0.37,0.83,0.83,0.83c0.46,0,0.83-0.37,0.83-0.83
		C96.63,59.41,96.26,59.05,95.8,59.04"/>
</g>
</svg>
