<?xml version="1.0" encoding="utf-8"?>
<!-- Generator: Adobe Illustrator 26.0.0, SVG Export Plug-In . SVG Version: 6.00 Build 0)  -->
<svg version="1.1" id="Layer_1" xmlns="http://www.w3.org/2000/svg" xmlns:xlink="http://www.w3.org/1999/xlink" x="0px" y="0px"
	 viewBox="0 0 236.04 113.45" style="enable-background:new 0 0 236.04 113.45;" xml:space="preserve">
<style type="text/css">
	.st0{fill-rule:evenodd;clip-rule:evenodd;fill:#B0B0B2;}
	.st1{fill:#B0B0B2;}
	.st2{fill-rule:evenodd;clip-rule:evenodd;fill:#FDFEFF;}
	.st3{fill-rule:evenodd;clip-rule:evenodd;fill:#F7F6F6;}
	.st4{fill:none;}
	.st5{fill-rule:evenodd;clip-rule:evenodd;fill:#939598;}
	.st6{fill-rule:evenodd;clip-rule:evenodd;fill:#FFFFFF;}
</style>
<g>
	<path class="st0" d="M149,52.14v13.92c0,0.41,0.56,1.07,0.82,1.36l3.1,3.86h17.18c-0.84-1.26-2.15-2.61-2.61-3.48h-12.61
		c-0.96-1.44-1.96-2.05-1.96-2.61V53.01c0-0.54,1.86-2.39,2.39-2.39h11.09v6.52h-8.26c-0.81,0-2.51,2.88-2.83,3.48h14.57V47.79
		c0-0.5-0.15-0.65-0.65-0.65h-15.87c-0.72,0-2.8,2.91-3.35,3.6C149.66,51.17,149,51.6,149,52.14"/>
	<path class="st0" d="M100.73,52.14v14.13c0,0.52,3.37,4.19,3.91,5h16.31c-0.18-0.66-1.18-1.66-1.83-2.52
		c-1.01-1.36-1.44-0.96-3.61-0.96c-2.97,0-5.94,0-8.91,0c-0.27-1.01-1.96-2.08-1.96-2.83V53.66c0-1.47,0.99-1.21,1.96-3.04h11.74
		c0.94-1.4,2.15-2.42,2.39-3.48l-15.45-0.01c-1.15,0.12-1.09,0.72-1.79,1.47C103.07,49.07,100.73,51.7,100.73,52.14"/>
	<path class="st0" d="M129.43,44.97c2.45,3.66,2.17-1.21,2.17,9.13c0,3.66-0.21,7.96-0.01,11.54c0.07,1.27,2.56,3.93,3.44,5.04
		c0.66,0.82,0.85,0.63,2.22,0.61c3.83-0.05,7.69-0.01,11.53-0.01c-0.79-1.18-1.96-2.24-2.61-3.48h-8.7
		c-1.2-1.79-1.96-1.87-1.96-3.04V50.62h7.17c0.72,0,1.33-1.08,1.71-1.55c0.7-0.87,0.97-0.82,1.55-1.92h-10.22v-1.3
		c0-0.67-2.89-3.3-3.48-3.7C131.01,42.98,130.64,44.16,129.43,44.97"/>
	<path class="st0" d="M71.38,59.1c0.29,1.07,6.19,7.83,7.2,9.11c0.45,0.56,0.73,0.85,1.18,1.43c0.48,0.61,0.98,0.89,1.18,1.65h5.44
		l-2.45-2.99c-0.89-1-1.6-1.94-2.5-2.94c-0.89-1-1.62-1.93-2.5-2.94c-0.5-0.57-0.79-0.95-1.31-1.52c-0.35-0.39-1-1.19-1.25-1.57
		c0.78-1.47,8.89-10.49,9.79-12.18c-1.09,0-2.18,0-3.27-0.01c-1.84-0.02-1.99,0.39-3.81,2.71c-0.54,0.69-1.01,1.28-1.57,1.91
		L71.38,59.1z"/>
	<rect x="124" y="47.14" class="st0" width="3.91" height="24.14"/>
	<path class="st0" d="M59.42,71.28h5.44c0.39-0.74,0.25-0.53,0.81-1.15l2.76-3.33c0.79-1.01,3.35-3.7,3.6-4.66
		c-0.3-0.45-2.03-2.56-2.39-2.83c-0.74,0.49-0.74,0.67-1.27,1.34c-0.44,0.56-0.82,0.92-1.31,1.52c-0.41,0.5-0.85,1.04-1.29,1.54
		L59.42,71.28z"/>
	<path class="st0" d="M61.16,50.84c4.34,0,2.69-0.83,6.24,3.55c0.81,1,2.2,3.02,3.11,3.63c0.46-0.33,2.02-2.28,2.39-2.83
		c-0.44-0.65-5.92-8.05-6.74-8.05h-5V50.84z"/>
	<path class="st0" d="M82.25,58.88c0.25,0.38,0.8,1.05,1.15,1.46c0.55,0.64,1.02,0.76,1.24,1.59c1.88,0,3.78,0.02,5.66-0.01
		c2.98-0.04,1.5,0.5,3.69,1.96c0.88-0.59,1.66-1.42,2.17-2.39c-0.34-0.51-0.51-0.58-0.92-1.04c-1.04-1.17-0.89-1.73-2.32-1.81
		c-1.5-0.08-5.3,0.27-6.22-0.09c-0.62-0.25-1.6-1.61-2.28-2.07C83.97,57.17,82.94,58.42,82.25,58.88"/>
	<rect x="173.14" y="67.8" class="st0" width="3.48" height="3.48"/>
</g>
</svg>
