<?xml version="1.0" encoding="utf-8"?>
<!-- Generator: Adobe Illustrator 26.0.0, SVG Export Plug-In . SVG Version: 6.00 Build 0)  -->
<svg version="1.1" id="Layer_1" xmlns="http://www.w3.org/2000/svg" xmlns:xlink="http://www.w3.org/1999/xlink" x="0px" y="0px"
	 viewBox="0 0 236.04 113.45" style="enable-background:new 0 0 236.04 113.45;" xml:space="preserve">
<style type="text/css">
	.st0{fill:#B0B0B2;}
	.st1{fill-rule:evenodd;clip-rule:evenodd;fill:#B0B0B2;}
	.st2{fill-rule:evenodd;clip-rule:evenodd;fill:#FDFEFF;}
	.st3{fill-rule:evenodd;clip-rule:evenodd;fill:#F7F6F6;}
	.st4{fill:none;}
	.st5{fill-rule:evenodd;clip-rule:evenodd;fill:#939598;}
	.st6{fill-rule:evenodd;clip-rule:evenodd;fill:#FFFFFF;}
</style>
<g>
	<path class="st1" d="M150.99,42.1v18.95c0,6.05-4.95,11-11,11c-6.05,0-11-4.95-11-11V42.1h7.17v19.54c0,2.11,1.72,3.83,3.83,3.83
		c2.11,0,3.83-1.72,3.83-3.83V42.1H150.99z"/>
	<path class="st1" d="M161.37,48.4h4.36c1.6,0,2.91,1.31,2.91,2.91c0,1.6-1.31,2.91-2.91,2.91h-4.36V48.4z M154.29,42.31h12.61
		c4.74,0,8.62,3.88,8.62,8.62c0,3.54-2.17,6.82-5.24,8.25l6.63,11.91h-7.75l-6.21-11.16h-1.49v11.16h-7.17V42.31z"/>
	<path class="st1" d="M110.99,41.9h3.96c5.81,0,10.56,4.75,10.56,10.56v8.06c0,5.81-4.75,10.56-10.56,10.56h-10.77v-6.5h11.03
		c1.71,0,3.1-1.4,3.1-3.1v-9.75c0-1.71-1.4-3.1-3.1-3.1h-4.22V41.9z"/>
	<path class="st1" d="M91.9,47.87c1.99,0,3.6,1.8,3.6,4.03c0,2.23-1.61,4.03-3.6,4.03c-1.99,0-3.6-1.8-3.6-4.03
		C88.3,49.68,89.91,47.87,91.9,47.87 M91.9,41.4c5.54,0,10.09,4.23,10.6,9.64l0,0v0.01c0.26,2.8,0,6.41,0,9.26
		c0,6.05-3.24,10.75-9.65,10.75H81.24v-6.38h9.93c1.95-0.05,3.38-0.78,4.05-2.5v0c-1.05,0.34-2.16,0.53-3.33,0.53
		c-5.88,0-10.65-4.77-10.65-10.65C81.24,46.17,86.01,41.4,91.9,41.4"/>
	<path class="st1" d="M70.69,42.02l7.05-0.05v15.16v2.45c0.41,10.77-10.87,14.59-18.62,8.16c1.57-1.53,3.14-3.07,4.7-4.61
		c4.79,3.82,7.08-0.22,6.86-3.98V42.02z"/>
</g>
</svg>
