<?xml version="1.0" encoding="utf-8"?>
<!-- Generator: Adobe Illustrator 26.0.0, SVG Export Plug-In . SVG Version: 6.00 Build 0)  -->
<svg version="1.1" id="Layer_1" xmlns="http://www.w3.org/2000/svg" xmlns:xlink="http://www.w3.org/1999/xlink" x="0px" y="0px"
	 viewBox="0 0 1365.99 462.12" style="enable-background:new 0 0 1365.99 462.12;" xml:space="preserve">
<style type="text/css">
	.st0{clip-path:url(#SVGID_00000123409659827076147390000002738260307374008716_);}
	.st1{opacity:0.2;}
	.st2{fill:#DDDDDD;}
</style>
<g>
	<defs>
		<path id="SVGID_1_" d="M1365.99,462.12c-455.51,0-910.73,0-1365.99,0C0,308.09,0,154.06,0,0c455.26,0,910.55,0,1365.99,0
			c0,51.33,0,102.69,0,154.05c0,51.32,0,102.64,0,153.96C1365.99,359.38,1365.99,410.75,1365.99,462.12z"/>
	</defs>
	<clipPath id="SVGID_00000101797393387530597090000004370528344823610803_">
		<use xlink:href="#SVGID_1_"  style="overflow:visible;"/>
	</clipPath>
	<g style="clip-path:url(#SVGID_00000101797393387530597090000004370528344823610803_);">
		<g class="st1">
			<g>
				<g>
					<g>
						<g>
							<g>
								<path class="st2" d="M-103.88,272.12c0,0.39-2.84,0.7-6.34,0.7c-3.5,0-6.34-0.31-6.34-0.7c0-0.39,2.84-0.7,6.34-0.7
									C-106.72,271.42-103.88,271.74-103.88,272.12z"/>
							</g>
						</g>
					</g>
					<g>
						<g>
							<g>
								<path class="st2" d="M-97.15,254.88c0.39,0,0.7,2.88,0.7,6.43c0,3.55-0.31,6.43-0.7,6.43c-0.39,0-0.7-2.88-0.7-6.43
									C-97.85,257.76-97.54,254.88-97.15,254.88z"/>
							</g>
						</g>
					</g>
				</g>
				<g>
					<g>
						<g>
							<g>
								<path class="st2" d="M-89.98,271.71c0-0.39,2.84-0.7,6.34-0.7c3.5,0,6.34,0.31,6.34,0.7c0,0.39-2.84,0.7-6.34,0.7
									C-87.14,272.41-89.98,272.1-89.98,271.71z"/>
							</g>
						</g>
					</g>
					<g>
						<g>
							<g>
								<path class="st2" d="M-96.71,288.96c-0.39,0-0.7-2.88-0.7-6.43c0-3.55,0.31-6.43,0.7-6.43c0.39,0,0.7,2.88,0.7,6.43
									C-96.01,286.08-96.32,288.96-96.71,288.96z"/>
							</g>
						</g>
					</g>
				</g>
				<g>
					<g>
						<g>
							<path class="st2" d="M-86.46,281.56c-0.3,0.25-1.55-0.76-2.79-2.25c-1.25-1.49-2.01-2.9-1.72-3.15
								c0.3-0.25,1.55,0.76,2.79,2.25C-86.93,279.9-86.16,281.31-86.46,281.56z"/>
						</g>
					</g>
				</g>
				<g>
					<g>
						<g>
							<path class="st2" d="M-87.05,262c0.27,0.27-0.55,1.55-1.84,2.85c-1.29,1.3-2.56,2.14-2.84,1.87
								c-0.28-0.27,0.55-1.55,1.84-2.85C-88.6,262.56-87.33,261.73-87.05,262z"/>
						</g>
					</g>
				</g>
				<g>
					<g>
						<g>
							<path class="st2" d="M-101.59,266.98c-0.25,0.3-1.45-0.29-2.68-1.31c-1.23-1.02-2.03-2.1-1.78-2.39
								c0.25-0.3,1.45,0.29,2.68,1.32C-102.14,265.61-101.34,266.69-101.59,266.98z"/>
						</g>
					</g>
				</g>
				<g>
					<g>
						<g>
							<path class="st2" d="M-102.16,275.6c0.29,0.26-0.43,1.52-1.61,2.8c-1.17,1.29-2.36,2.12-2.64,1.86
								c-0.29-0.26,0.43-1.52,1.61-2.8C-103.63,276.18-102.44,275.34-102.16,275.6z"/>
						</g>
					</g>
				</g>
			</g>
			<g>
				<g>
					<g>
						<g>
							<g>
								<path class="st2" d="M272.33,215.33c0,0.22-1.61,0.4-3.6,0.4c-1.99,0-3.6-0.18-3.6-0.4c0-0.22,1.61-0.4,3.6-0.4
									C270.72,214.93,272.33,215.11,272.33,215.33z"/>
							</g>
						</g>
					</g>
					<g>
						<g>
							<g>
								<path class="st2" d="M276.15,205.54c0.22,0,0.4,1.64,0.4,3.65c0,2.02-0.18,3.65-0.4,3.65c-0.22,0-0.4-1.64-0.4-3.65
									C275.75,207.17,275.93,205.54,276.15,205.54z"/>
							</g>
						</g>
					</g>
				</g>
				<g>
					<g>
						<g>
							<g>
								<path class="st2" d="M280.22,215.1c0-0.22,1.61-0.4,3.6-0.4c1.99,0,3.6,0.18,3.6,0.4c0,0.22-1.61,0.4-3.6,0.4
									C281.83,215.49,280.22,215.32,280.22,215.1z"/>
							</g>
						</g>
					</g>
					<g>
						<g>
							<g>
								<path class="st2" d="M276.4,224.89c-0.22,0-0.4-1.64-0.4-3.65c0-2.02,0.18-3.65,0.4-3.65c0.22,0,0.4,1.63,0.4,3.65
									C276.8,223.25,276.62,224.89,276.4,224.89z"/>
							</g>
						</g>
					</g>
				</g>
				<g>
					<g>
						<g>
							<path class="st2" d="M282.22,220.69c-0.17,0.14-0.88-0.43-1.59-1.28c-0.71-0.85-1.14-1.65-0.97-1.79
								c0.17-0.14,0.88,0.43,1.59,1.28C281.95,219.75,282.39,220.55,282.22,220.69z"/>
						</g>
					</g>
				</g>
				<g>
					<g>
						<g>
							<path class="st2" d="M281.88,209.58c0.16,0.15-0.31,0.88-1.05,1.62c-0.73,0.74-1.46,1.21-1.61,1.06
								c-0.16-0.15,0.31-0.88,1.05-1.62C281,209.9,281.72,209.43,281.88,209.58z"/>
						</g>
					</g>
				</g>
				<g>
					<g>
						<g>
							<path class="st2" d="M273.63,212.41c-0.14,0.17-0.82-0.17-1.52-0.75c-0.7-0.58-1.15-1.19-1.01-1.36
								c0.14-0.17,0.82,0.17,1.52,0.75C273.32,211.64,273.77,212.24,273.63,212.41z"/>
						</g>
					</g>
				</g>
				<g>
					<g>
						<g>
							<path class="st2" d="M273.31,217.31c0.16,0.15-0.25,0.86-0.91,1.59c-0.67,0.73-1.34,1.2-1.5,1.06
								c-0.16-0.15,0.25-0.86,0.91-1.59C272.47,217.63,273.14,217.16,273.31,217.31z"/>
						</g>
					</g>
				</g>
			</g>
			<g>
				<g>
					<g>
						<g>
							<g>
								<path class="st2" d="M143.7,76.86c0,0.22-1.61,0.4-3.6,0.4c-1.99,0-3.6-0.18-3.6-0.4c0-0.22,1.61-0.4,3.6-0.4
									C142.09,76.46,143.7,76.64,143.7,76.86z"/>
							</g>
						</g>
					</g>
					<g>
						<g>
							<g>
								<path class="st2" d="M147.52,67.07c0.22,0,0.4,1.64,0.4,3.65c0,2.02-0.18,3.65-0.4,3.65c-0.22,0-0.4-1.64-0.4-3.65
									C147.12,68.71,147.3,67.07,147.52,67.07z"/>
							</g>
						</g>
					</g>
				</g>
				<g>
					<g>
						<g>
							<g>
								<path class="st2" d="M151.59,76.63c0-0.22,1.61-0.4,3.6-0.4c1.99,0,3.6,0.18,3.6,0.4c0,0.22-1.61,0.4-3.6,0.4
									C153.2,77.03,151.59,76.85,151.59,76.63z"/>
							</g>
						</g>
					</g>
					<g>
						<g>
							<g>
								<path class="st2" d="M147.77,86.42c-0.22,0-0.4-1.64-0.4-3.65c0-2.02,0.18-3.65,0.4-3.65c0.22,0,0.4,1.63,0.4,3.65
									C148.17,84.79,147.99,86.42,147.77,86.42z"/>
							</g>
						</g>
					</g>
				</g>
				<g>
					<g>
						<g>
							<path class="st2" d="M153.59,82.22c-0.17,0.14-0.88-0.43-1.59-1.28c-0.71-0.85-1.14-1.65-0.97-1.79
								c0.17-0.14,0.88,0.43,1.59,1.28C153.32,81.28,153.76,82.08,153.59,82.22z"/>
						</g>
					</g>
				</g>
				<g>
					<g>
						<g>
							<path class="st2" d="M153.25,71.12c0.16,0.15-0.31,0.88-1.05,1.62c-0.73,0.74-1.46,1.21-1.61,1.06
								c-0.16-0.15,0.31-0.88,1.05-1.62C152.37,71.44,153.1,70.96,153.25,71.12z"/>
						</g>
					</g>
				</g>
				<g>
					<g>
						<g>
							<path class="st2" d="M145,73.94c-0.14,0.17-0.82-0.17-1.52-0.75c-0.7-0.58-1.15-1.19-1.01-1.36
								c0.14-0.17,0.82,0.17,1.52,0.75C144.69,73.17,145.14,73.78,145,73.94z"/>
						</g>
					</g>
				</g>
				<g>
					<g>
						<g>
							<path class="st2" d="M144.68,78.84c0.16,0.15-0.25,0.86-0.91,1.59c-0.67,0.73-1.34,1.2-1.5,1.06
								c-0.16-0.15,0.25-0.86,0.91-1.59C143.84,79.16,144.51,78.69,144.68,78.84z"/>
						</g>
					</g>
				</g>
			</g>
			<g>
				<g>
					<g>
						<g>
							<g>
								<path class="st2" d="M-68.24-1.38c0,0.22-1.61,0.4-3.6,0.4c-1.99,0-3.6-0.18-3.6-0.4c0-0.22,1.61-0.4,3.6-0.4
									C-69.86-1.78-68.24-1.6-68.24-1.38z"/>
							</g>
						</g>
					</g>
					<g>
						<g>
							<g>
								<path class="st2" d="M-64.42-11.18c0.22,0,0.4,1.64,0.4,3.65c0,2.02-0.18,3.65-0.4,3.65c-0.22,0-0.4-1.64-0.4-3.65
									C-64.82-9.54-64.64-11.18-64.42-11.18z"/>
							</g>
						</g>
					</g>
				</g>
				<g>
					<g>
						<g>
							<g>
								<path class="st2" d="M-60.35-1.62c0-0.22,1.61-0.4,3.6-0.4c1.99,0,3.6,0.18,3.6,0.4s-1.61,0.4-3.6,0.4
									C-58.74-1.22-60.35-1.4-60.35-1.62z"/>
							</g>
						</g>
					</g>
					<g>
						<g>
							<g>
								<path class="st2" d="M-64.17,8.17c-0.22,0-0.4-1.64-0.4-3.65c0-2.02,0.18-3.65,0.4-3.65c0.22,0,0.4,1.63,0.4,3.65
									C-63.78,6.54-63.95,8.17-64.17,8.17z"/>
							</g>
						</g>
					</g>
				</g>
				<g>
					<g>
						<g>
							<path class="st2" d="M-58.36,3.97c-0.17,0.14-0.88-0.43-1.59-1.28c-0.71-0.85-1.14-1.65-0.97-1.79
								c0.17-0.14,0.88,0.43,1.59,1.28C-58.62,3.03-58.19,3.83-58.36,3.97z"/>
						</g>
					</g>
				</g>
				<g>
					<g>
						<g>
							<path class="st2" d="M-58.69-7.13c0.16,0.15-0.31,0.88-1.05,1.62c-0.73,0.74-1.46,1.21-1.61,1.06
								c-0.16-0.15,0.31-0.88,1.05-1.62C-59.57-6.81-58.85-7.29-58.69-7.13z"/>
						</g>
					</g>
				</g>
				<g>
					<g>
						<g>
							<path class="st2" d="M-66.94-4.3c-0.14,0.17-0.82-0.17-1.52-0.75c-0.7-0.58-1.15-1.19-1.01-1.36
								c0.14-0.17,0.82,0.17,1.52,0.75C-67.25-5.08-66.8-4.47-66.94-4.3z"/>
						</g>
					</g>
				</g>
				<g>
					<g>
						<g>
							<path class="st2" d="M-67.27,0.59c0.16,0.15-0.25,0.86-0.91,1.59c-0.67,0.73-1.34,1.2-1.5,1.06
								c-0.16-0.15,0.25-0.86,0.91-1.59C-68.1,0.92-67.43,0.44-67.27,0.59z"/>
						</g>
					</g>
				</g>
			</g>
			<g>
				<g>
					<g>
						<g>
							<g>
								<path class="st2" d="M84.83,275.51c0,0.17-1.24,0.31-2.76,0.31c-1.52,0-2.76-0.14-2.76-0.31s1.24-0.31,2.76-0.31
									C83.6,275.21,84.83,275.35,84.83,275.51z"/>
							</g>
						</g>
					</g>
					<g>
						<g>
							<g>
								<path class="st2" d="M87.76,268.01c0.17,0,0.31,1.25,0.31,2.8c0,1.55-0.14,2.8-0.31,2.8c-0.17,0-0.31-1.25-0.31-2.8
									C87.46,269.26,87.6,268.01,87.76,268.01z"/>
							</g>
						</g>
					</g>
				</g>
				<g>
					<g>
						<g>
							<g>
								<path class="st2" d="M90.89,275.33c0-0.17,1.24-0.31,2.76-0.31c1.52,0,2.76,0.14,2.76,0.31c0,0.17-1.24,0.31-2.76,0.31
									C92.12,275.64,90.89,275.5,90.89,275.33z"/>
							</g>
						</g>
					</g>
					<g>
						<g>
							<g>
								<path class="st2" d="M87.96,282.84c-0.17,0-0.31-1.25-0.31-2.8c0-1.55,0.14-2.8,0.31-2.8c0.17,0,0.31,1.25,0.31,2.8
									C88.26,281.59,88.12,282.84,87.96,282.84z"/>
							</g>
						</g>
					</g>
				</g>
				<g>
					<g>
						<g>
							<path class="st2" d="M92.42,279.62c-0.13,0.11-0.67-0.33-1.22-0.98c-0.54-0.65-0.88-1.26-0.75-1.37
								c0.13-0.11,0.67,0.33,1.22,0.98C92.21,278.9,92.54,279.51,92.42,279.62z"/>
						</g>
					</g>
				</g>
				<g>
					<g>
						<g>
							<path class="st2" d="M92.16,271.11c0.12,0.12-0.24,0.68-0.8,1.24c-0.56,0.57-1.12,0.93-1.24,0.81
								c-0.12-0.12,0.24-0.67,0.8-1.24C91.48,271.35,92.04,270.99,92.16,271.11z"/>
						</g>
					</g>
				</g>
				<g>
					<g>
						<g>
							<path class="st2" d="M85.83,273.28c-0.11,0.13-0.63-0.13-1.16-0.57c-0.54-0.45-0.88-0.91-0.77-1.04
								c0.11-0.13,0.63,0.13,1.17,0.57C85.59,272.68,85.94,273.15,85.83,273.28z"/>
						</g>
					</g>
				</g>
				<g>
					<g>
						<g>
							<path class="st2" d="M85.58,277.03c0.12,0.11-0.19,0.66-0.7,1.22c-0.51,0.56-1.03,0.92-1.15,0.81
								c-0.12-0.11,0.19-0.66,0.7-1.22C84.94,277.28,85.46,276.92,85.58,277.03z"/>
						</g>
					</g>
				</g>
			</g>
			<g>
				<g>
					<g>
						<g>
							<g>
								<path class="st2" d="M-44.35,465.97c0,0.17-1.24,0.31-2.76,0.31c-1.52,0-2.76-0.14-2.76-0.31s1.24-0.31,2.76-0.31
									C-45.58,465.67-44.35,465.8-44.35,465.97z"/>
							</g>
						</g>
					</g>
					<g>
						<g>
							<g>
								<path class="st2" d="M-41.42,458.47c0.17,0,0.31,1.25,0.31,2.8c0,1.55-0.14,2.8-0.31,2.8c-0.17,0-0.31-1.25-0.31-2.8
									C-41.72,459.72-41.58,458.47-41.42,458.47z"/>
							</g>
						</g>
					</g>
				</g>
				<g>
					<g>
						<g>
							<g>
								<path class="st2" d="M-38.29,465.79c0-0.17,1.24-0.31,2.76-0.31c1.52,0,2.76,0.14,2.76,0.31c0,0.17-1.24,0.31-2.76,0.31
									C-37.06,466.1-38.29,465.96-38.29,465.79z"/>
							</g>
						</g>
					</g>
					<g>
						<g>
							<g>
								<path class="st2" d="M-41.23,473.3c-0.17,0-0.31-1.25-0.31-2.8c0-1.55,0.14-2.8,0.31-2.8c0.17,0,0.31,1.25,0.31,2.8
									C-40.92,472.04-41.06,473.3-41.23,473.3z"/>
							</g>
						</g>
					</g>
				</g>
				<g>
					<g>
						<g>
							<path class="st2" d="M-36.76,470.08c-0.13,0.11-0.67-0.33-1.22-0.98c-0.54-0.65-0.88-1.26-0.75-1.37
								c0.13-0.11,0.67,0.33,1.22,0.98C-36.97,469.36-36.64,469.97-36.76,470.08z"/>
						</g>
					</g>
				</g>
				<g>
					<g>
						<g>
							<path class="st2" d="M-37.02,461.57c0.12,0.12-0.24,0.68-0.8,1.24c-0.56,0.57-1.12,0.93-1.24,0.81
								c-0.12-0.12,0.24-0.67,0.8-1.24C-37.7,461.81-37.14,461.45-37.02,461.57z"/>
						</g>
					</g>
				</g>
				<g>
					<g>
						<g>
							<path class="st2" d="M-43.35,463.73c-0.11,0.13-0.63-0.13-1.16-0.57c-0.54-0.45-0.88-0.91-0.77-1.04
								c0.11-0.13,0.63,0.13,1.17,0.57C-43.59,463.14-43.24,463.61-43.35,463.73z"/>
						</g>
					</g>
				</g>
				<g>
					<g>
						<g>
							<path class="st2" d="M-43.6,467.49c0.12,0.11-0.19,0.66-0.7,1.22c-0.51,0.56-1.03,0.92-1.15,0.81
								c-0.12-0.11,0.19-0.66,0.7-1.22C-44.24,467.74-43.72,467.37-43.6,467.49z"/>
						</g>
					</g>
				</g>
			</g>
			<g>
				<g>
					<g>
						<g>
							<g>
								<path class="st2" d="M269.71,376.03c0,0.22-1.61,0.4-3.6,0.4c-1.99,0-3.6-0.18-3.6-0.4c0-0.22,1.61-0.4,3.6-0.4
									C268.1,375.63,269.71,375.81,269.71,376.03z"/>
							</g>
						</g>
					</g>
					<g>
						<g>
							<g>
								<path class="st2" d="M273.53,366.24c0.22,0,0.4,1.64,0.4,3.65c0,2.02-0.18,3.65-0.4,3.65c-0.22,0-0.4-1.64-0.4-3.65
									C273.13,367.88,273.31,366.24,273.53,366.24z"/>
							</g>
						</g>
					</g>
				</g>
				<g>
					<g>
						<g>
							<g>
								<path class="st2" d="M277.6,375.8c0-0.22,1.61-0.4,3.6-0.4c1.99,0,3.6,0.18,3.6,0.4c0,0.22-1.61,0.4-3.6,0.4
									C279.21,376.2,277.6,376.02,277.6,375.8z"/>
							</g>
						</g>
					</g>
					<g>
						<g>
							<g>
								<path class="st2" d="M273.78,385.59c-0.22,0-0.4-1.64-0.4-3.65c0-2.02,0.18-3.65,0.4-3.65c0.22,0,0.4,1.63,0.4,3.65
									C274.18,383.95,274,385.59,273.78,385.59z"/>
							</g>
						</g>
					</g>
				</g>
				<g>
					<g>
						<g>
							<path class="st2" d="M279.6,381.39c-0.17,0.14-0.88-0.43-1.59-1.28c-0.71-0.85-1.14-1.65-0.97-1.79
								c0.17-0.14,0.88,0.43,1.59,1.28C279.33,380.45,279.77,381.25,279.6,381.39z"/>
						</g>
					</g>
				</g>
				<g>
					<g>
						<g>
							<path class="st2" d="M279.26,370.29c0.16,0.15-0.31,0.88-1.05,1.62c-0.73,0.74-1.46,1.21-1.61,1.06
								c-0.16-0.15,0.31-0.88,1.05-1.62C278.38,370.61,279.1,370.13,279.26,370.29z"/>
						</g>
					</g>
				</g>
				<g>
					<g>
						<g>
							<path class="st2" d="M271.01,373.11c-0.14,0.17-0.82-0.17-1.52-0.75c-0.7-0.58-1.15-1.19-1.01-1.36
								c0.14-0.17,0.82,0.17,1.52,0.75C270.7,372.34,271.15,372.95,271.01,373.11z"/>
						</g>
					</g>
				</g>
				<g>
					<g>
						<g>
							<path class="st2" d="M270.69,378.01c0.16,0.15-0.25,0.86-0.91,1.59c-0.67,0.73-1.34,1.2-1.5,1.06
								c-0.16-0.15,0.25-0.86,0.91-1.59C269.85,378.33,270.52,377.86,270.69,378.01z"/>
						</g>
					</g>
				</g>
			</g>
			<g>
				<g>
					<path class="st2" d="M62.3,232.1l0.47,1.12c0.82,1.96,2.39,3.52,4.36,4.32l1.22,0.5l-1.17,0.48c-2,0.81-3.58,2.4-4.39,4.4
						l-0.33,0.82l-0.49-1.03c-0.9-1.87-2.49-3.32-4.45-4.03l-1.06-0.39l1.39-0.67c1.75-0.85,3.13-2.31,3.88-4.1L62.3,232.1z"/>
				</g>
			</g>
			<g>
				<g>
					<path class="st2" d="M13.53,66.06L14,67.19c0.82,1.96,2.39,3.52,4.36,4.32l1.22,0.5l-1.17,0.48c-2,0.81-3.58,2.4-4.39,4.4
						l-0.33,0.82l-0.49-1.03c-0.9-1.87-2.49-3.32-4.45-4.03l-1.06-0.39l1.39-0.67c1.75-0.85,3.13-2.31,3.88-4.1L13.53,66.06z"/>
				</g>
			</g>
			<g>
				<g>
					<path class="st2" d="M263.45,272.27l0.47,1.12c0.82,1.96,2.39,3.52,4.36,4.32l1.22,0.5l-1.17,0.48c-2,0.81-3.58,2.4-4.39,4.4
						l-0.33,0.82l-0.49-1.03c-0.9-1.87-2.49-3.32-4.45-4.03l-1.06-0.39l1.39-0.67c1.75-0.85,3.13-2.31,3.88-4.1L263.45,272.27z"/>
				</g>
			</g>
			<g>
				<g>
					<path class="st2" d="M367.1,8.17l0.47,1.12c0.82,1.96,2.39,3.52,4.36,4.32l1.22,0.5l-1.17,0.48c-2,0.81-3.58,2.4-4.39,4.4
						l-0.33,0.82l-0.49-1.03c-0.9-1.87-2.49-3.32-4.45-4.03l-1.06-0.39l1.39-0.67c1.75-0.85,3.13-2.31,3.88-4.1L367.1,8.17z"/>
				</g>
			</g>
			<g>
				<g>
					<path class="st2" d="M-120.58,316.36l0.31,0.75c0.54,1.3,1.59,2.34,2.89,2.87l0.81,0.33l-0.78,0.32
						c-1.33,0.54-2.38,1.59-2.92,2.92l-0.22,0.54l-0.33-0.68c-0.6-1.24-1.66-2.21-2.95-2.68l-0.71-0.26l0.92-0.45
						c1.16-0.56,2.08-1.53,2.58-2.73L-120.58,316.36z"/>
				</g>
			</g>
			<g>
				<g>
					<path class="st2" d="M323.65,462.02l0.31,0.75c0.54,1.3,1.59,2.34,2.89,2.87l0.81,0.33l-0.78,0.32
						c-1.33,0.54-2.38,1.59-2.92,2.92l-0.22,0.54l-0.33-0.68c-0.6-1.24-1.66-2.21-2.95-2.68l-0.71-0.26l0.92-0.45
						c1.16-0.56,2.08-1.53,2.58-2.73L323.65,462.02z"/>
				</g>
			</g>
			<g>
				<g>
					<path class="st2" d="M340.22,243.73l0.31,0.75c0.54,1.3,1.59,2.34,2.89,2.87l0.81,0.33l-0.78,0.32
						c-1.33,0.54-2.38,1.59-2.92,2.92l-0.22,0.54l-0.33-0.68c-0.6-1.24-1.66-2.21-2.95-2.68l-0.71-0.26l0.92-0.45
						c1.16-0.56,2.08-1.53,2.58-2.73L340.22,243.73z"/>
				</g>
			</g>
			<g>
				<g>
					<path class="st2" d="M277.51,301.41l0.47,1.12c0.82,1.96,2.39,3.52,4.36,4.32l1.22,0.5l-1.17,0.48c-2,0.81-3.58,2.4-4.39,4.4
						l-0.33,0.82l-0.49-1.03c-0.9-1.87-2.49-3.32-4.45-4.03l-1.06-0.39l1.39-0.67c1.75-0.85,3.13-2.31,3.88-4.1L277.51,301.41z"/>
				</g>
			</g>
			<g>
				<g>
					<path class="st2" d="M296.1,93.8l0.47,1.12c0.82,1.96,2.39,3.52,4.36,4.32l1.22,0.5l-1.17,0.48c-2,0.81-3.58,2.4-4.39,4.4
						l-0.33,0.82l-0.49-1.03c-0.9-1.87-2.49-3.32-4.45-4.03l-1.06-0.39l1.39-0.67c1.75-0.85,3.13-2.31,3.88-4.1L296.1,93.8z"/>
				</g>
			</g>
			<g>
				<g>
					<path class="st2" d="M149.22,225.28l0.22,0.53c0.38,0.92,1.12,1.65,2.04,2.02l0.57,0.23l-0.55,0.22
						c-0.94,0.38-1.68,1.13-2.06,2.06l-0.16,0.38l-0.23-0.48c-0.42-0.88-1.17-1.56-2.09-1.89l-0.5-0.18l0.65-0.32
						c0.82-0.4,1.47-1.08,1.82-1.93L149.22,225.28z"/>
				</g>
			</g>
			<g>
				<g>
					<path class="st2" d="M-44.25,122.96l0.22,0.53c0.38,0.92,1.12,1.65,2.04,2.02l0.57,0.23l-0.55,0.22
						c-0.94,0.38-1.68,1.13-2.06,2.06l-0.16,0.38l-0.23-0.48c-0.42-0.88-1.17-1.56-2.09-1.89l-0.5-0.18l0.65-0.32
						c0.82-0.4,1.47-1.08,1.82-1.93L-44.25,122.96z"/>
				</g>
			</g>
			<g>
				<g>
					<path class="st2" d="M-14.17-10.53l0.22,0.53c0.38,0.92,1.12,1.65,2.04,2.02l0.57,0.23l-0.55,0.22
						c-0.94,0.38-1.68,1.13-2.06,2.06l-0.16,0.38l-0.23-0.48c-0.42-0.88-1.17-1.56-2.09-1.89l-0.5-0.18l0.65-0.32
						c0.82-0.4,1.47-1.08,1.82-1.93L-14.17-10.53z"/>
				</g>
			</g>
			<g>
				<g>
					<path class="st2" d="M26.44,375.92l0.28,0.68c0.49,1.18,1.44,2.12,2.63,2.61l0.74,0.3l-0.71,0.29
						c-1.21,0.49-2.16,1.45-2.65,2.66l-0.2,0.49l-0.3-0.62c-0.54-1.13-1.51-2-2.68-2.43l-0.64-0.23l0.84-0.41
						c1.06-0.51,1.89-1.39,2.34-2.48L26.44,375.92z"/>
				</g>
			</g>
			<g>
				<g>
					<path class="st2" d="M121.18,348l0.28,0.68c0.49,1.18,1.44,2.12,2.63,2.61l0.74,0.3l-0.71,0.29c-1.21,0.49-2.16,1.45-2.65,2.66
						l-0.2,0.49l-0.3-0.62c-0.54-1.13-1.51-2-2.68-2.43l-0.64-0.23l0.84-0.41c1.06-0.51,1.89-1.39,2.34-2.48L121.18,348z"/>
				</g>
			</g>
			<g>
				<g>
					<path class="st2" d="M173.65,462.37l0.28,0.68c0.49,1.18,1.44,2.12,2.63,2.61l0.74,0.3l-0.71,0.29
						c-1.21,0.49-2.16,1.45-2.65,2.66l-0.2,0.49l-0.3-0.62c-0.54-1.13-1.51-2-2.68-2.43l-0.64-0.23l0.84-0.41
						c1.06-0.51,1.89-1.39,2.34-2.48L173.65,462.37z"/>
				</g>
			</g>
		</g>
		<g class="st1">
			<g>
				<g>
					<g>
						<g>
							<g>
								<path class="st2" d="M879.98,190c0-0.39,2.84-0.7,6.34-0.7c3.5,0,6.34,0.31,6.34,0.7c0,0.39-2.84,0.7-6.34,0.7
									C882.82,190.7,879.98,190.39,879.98,190z"/>
							</g>
						</g>
					</g>
					<g>
						<g>
							<g>
								<path class="st2" d="M873.25,207.25c-0.39,0-0.7-2.88-0.7-6.43c0-3.55,0.31-6.43,0.7-6.43c0.39,0,0.7,2.88,0.7,6.43
									C873.95,204.37,873.63,207.25,873.25,207.25z"/>
							</g>
						</g>
					</g>
				</g>
				<g>
					<g>
						<g>
							<g>
								<path class="st2" d="M866.07,190.41c0,0.39-2.84,0.7-6.34,0.7c-3.5,0-6.34-0.31-6.34-0.7c0-0.39,2.84-0.7,6.34-0.7
									C863.23,189.71,866.07,190.02,866.07,190.41z"/>
							</g>
						</g>
					</g>
					<g>
						<g>
							<g>
								<path class="st2" d="M872.81,173.16c0.39,0,0.7,2.88,0.7,6.43c0,3.55-0.31,6.43-0.7,6.43c-0.39,0-0.7-2.88-0.7-6.43
									C872.11,176.04,872.42,173.16,872.81,173.16z"/>
							</g>
						</g>
					</g>
				</g>
				<g>
					<g>
						<g>
							<path class="st2" d="M862.56,180.56c0.3-0.25,1.55,0.76,2.79,2.25c1.25,1.49,2.01,2.9,1.72,3.15
								c-0.3,0.25-1.55-0.76-2.79-2.25C863.03,182.22,862.26,180.81,862.56,180.56z"/>
						</g>
					</g>
				</g>
				<g>
					<g>
						<g>
							<path class="st2" d="M863.15,200.12c-0.27-0.27,0.55-1.55,1.84-2.85c1.29-1.3,2.56-2.14,2.84-1.87
								c0.28,0.27-0.55,1.55-1.84,2.85C864.7,199.56,863.43,200.39,863.15,200.12z"/>
						</g>
					</g>
				</g>
				<g>
					<g>
						<g>
							<path class="st2" d="M877.69,195.14c0.25-0.3,1.45,0.29,2.68,1.31c1.23,1.02,2.03,2.1,1.78,2.39
								c-0.25,0.3-1.45-0.29-2.68-1.32C878.23,196.51,877.44,195.44,877.69,195.14z"/>
						</g>
					</g>
				</g>
				<g>
					<g>
						<g>
							<path class="st2" d="M878.26,186.52c-0.29-0.26,0.43-1.52,1.61-2.8c1.17-1.29,2.36-2.12,2.64-1.86
								c0.29,0.26-0.43,1.52-1.61,2.8C879.73,185.95,878.54,186.78,878.26,186.52z"/>
						</g>
					</g>
				</g>
			</g>
			<g>
				<g>
					<g>
						<g>
							<g>
								<path class="st2" d="M503.77,246.79c0-0.22,1.61-0.4,3.6-0.4c1.99,0,3.6,0.18,3.6,0.4c0,0.22-1.61,0.4-3.6,0.4
									C505.38,247.19,503.77,247.01,503.77,246.79z"/>
							</g>
						</g>
					</g>
					<g>
						<g>
							<g>
								<path class="st2" d="M499.95,256.58c-0.22,0-0.4-1.64-0.4-3.65c0-2.02,0.18-3.65,0.4-3.65c0.22,0,0.4,1.64,0.4,3.65
									C500.35,254.95,500.17,256.58,499.95,256.58z"/>
							</g>
						</g>
					</g>
				</g>
				<g>
					<g>
						<g>
							<g>
								<path class="st2" d="M495.88,247.02c0,0.22-1.61,0.4-3.6,0.4c-1.99,0-3.6-0.18-3.6-0.4s1.61-0.4,3.6-0.4
									C494.26,246.63,495.88,246.8,495.88,247.02z"/>
							</g>
						</g>
					</g>
					<g>
						<g>
							<g>
								<path class="st2" d="M499.7,237.23c0.22,0,0.4,1.64,0.4,3.65c0,2.02-0.18,3.65-0.4,3.65c-0.22,0-0.4-1.63-0.4-3.65
									C499.3,238.87,499.48,237.23,499.7,237.23z"/>
							</g>
						</g>
					</g>
				</g>
				<g>
					<g>
						<g>
							<path class="st2" d="M493.88,241.43c0.17-0.14,0.88,0.43,1.59,1.28c0.71,0.85,1.14,1.65,0.97,1.79
								c-0.17,0.14-0.88-0.43-1.59-1.28C494.15,242.37,493.71,241.57,493.88,241.43z"/>
						</g>
					</g>
				</g>
				<g>
					<g>
						<g>
							<path class="st2" d="M494.22,252.54c-0.16-0.15,0.31-0.88,1.05-1.62c0.73-0.74,1.46-1.21,1.61-1.06
								c0.16,0.15-0.31,0.88-1.05,1.62C495.09,252.22,494.37,252.69,494.22,252.54z"/>
						</g>
					</g>
				</g>
				<g>
					<g>
						<g>
							<path class="st2" d="M502.47,249.71c0.14-0.17,0.82,0.17,1.52,0.75c0.7,0.58,1.15,1.19,1.01,1.36
								c-0.14,0.17-0.82-0.17-1.52-0.75C502.78,250.49,502.33,249.88,502.47,249.71z"/>
						</g>
					</g>
				</g>
				<g>
					<g>
						<g>
							<path class="st2" d="M502.79,244.81c-0.16-0.15,0.25-0.86,0.91-1.59c0.67-0.73,1.34-1.2,1.5-1.06
								c0.16,0.15-0.25,0.86-0.91,1.59C503.63,244.49,502.95,244.96,502.79,244.81z"/>
						</g>
					</g>
				</g>
			</g>
			<g>
				<g>
					<g>
						<g>
							<g>
								<path class="st2" d="M632.4,385.26c0-0.22,1.61-0.4,3.6-0.4c1.99,0,3.6,0.18,3.6,0.4c0,0.22-1.61,0.4-3.6,0.4
									C634.01,385.66,632.4,385.48,632.4,385.26z"/>
							</g>
						</g>
					</g>
					<g>
						<g>
							<g>
								<path class="st2" d="M628.58,395.05c-0.22,0-0.4-1.64-0.4-3.65c0-2.02,0.18-3.65,0.4-3.65c0.22,0,0.4,1.64,0.4,3.65
									C628.97,393.42,628.8,395.05,628.58,395.05z"/>
							</g>
						</g>
					</g>
				</g>
				<g>
					<g>
						<g>
							<g>
								<path class="st2" d="M624.5,385.49c0,0.22-1.61,0.4-3.6,0.4c-1.99,0-3.6-0.18-3.6-0.4c0-0.22,1.61-0.4,3.6-0.4
									C622.89,385.09,624.5,385.27,624.5,385.49z"/>
							</g>
						</g>
					</g>
					<g>
						<g>
							<g>
								<path class="st2" d="M628.33,375.7c0.22,0,0.4,1.64,0.4,3.65c0,2.02-0.18,3.65-0.4,3.65c-0.22,0-0.4-1.63-0.4-3.65
									C627.93,377.34,628.11,375.7,628.33,375.7z"/>
							</g>
						</g>
					</g>
				</g>
				<g>
					<g>
						<g>
							<path class="st2" d="M622.51,379.9c0.17-0.14,0.88,0.43,1.59,1.28c0.71,0.85,1.14,1.65,0.97,1.79
								c-0.17,0.14-0.88-0.43-1.59-1.28C622.78,380.84,622.34,380.04,622.51,379.9z"/>
						</g>
					</g>
				</g>
				<g>
					<g>
						<g>
							<path class="st2" d="M622.84,391.01c-0.16-0.15,0.31-0.88,1.05-1.62c0.73-0.74,1.46-1.21,1.61-1.06
								c0.16,0.15-0.31,0.88-1.05,1.62C623.72,390.69,623,391.16,622.84,391.01z"/>
						</g>
					</g>
				</g>
				<g>
					<g>
						<g>
							<path class="st2" d="M631.1,388.18c0.14-0.17,0.82,0.17,1.52,0.75c0.7,0.58,1.15,1.19,1.01,1.36
								c-0.14,0.17-0.82-0.17-1.52-0.75C631.41,388.95,630.96,388.35,631.1,388.18z"/>
						</g>
					</g>
				</g>
				<g>
					<g>
						<g>
							<path class="st2" d="M631.42,383.28c-0.16-0.15,0.25-0.86,0.91-1.59c0.67-0.73,1.34-1.2,1.5-1.06
								c0.16,0.15-0.25,0.86-0.91,1.59C632.25,382.96,631.58,383.43,631.42,383.28z"/>
						</g>
					</g>
				</g>
			</g>
			<g>
				<g>
					<g>
						<g>
							<g>
								<path class="st2" d="M844.34,463.51c0-0.22,1.61-0.4,3.6-0.4c1.99,0,3.6,0.18,3.6,0.4c0,0.22-1.61,0.4-3.6,0.4
									C845.95,463.9,844.34,463.73,844.34,463.51z"/>
							</g>
						</g>
					</g>
					<g>
						<g>
							<g>
								<path class="st2" d="M840.52,473.3c-0.22,0-0.4-1.64-0.4-3.65c0-2.02,0.18-3.65,0.4-3.65c0.22,0,0.4,1.64,0.4,3.65
									C840.92,471.66,840.74,473.3,840.52,473.3z"/>
							</g>
						</g>
					</g>
				</g>
				<g>
					<g>
						<g>
							<g>
								<path class="st2" d="M836.45,463.74c0,0.22-1.61,0.4-3.6,0.4c-1.99,0-3.6-0.18-3.6-0.4s1.61-0.4,3.6-0.4
									C834.84,463.34,836.45,463.52,836.45,463.74z"/>
							</g>
						</g>
					</g>
					<g>
						<g>
							<g>
								<path class="st2" d="M840.27,453.95c0.22,0,0.4,1.64,0.4,3.65c0,2.02-0.18,3.65-0.4,3.65c-0.22,0-0.4-1.63-0.4-3.65
									C839.87,455.58,840.05,453.95,840.27,453.95z"/>
							</g>
						</g>
					</g>
				</g>
				<g>
					<g>
						<g>
							<path class="st2" d="M834.45,458.15c0.17-0.14,0.88,0.43,1.59,1.28c0.71,0.85,1.14,1.65,0.97,1.79
								c-0.17,0.14-0.88-0.43-1.59-1.28C834.72,459.09,834.28,458.29,834.45,458.15z"/>
						</g>
					</g>
				</g>
				<g>
					<g>
						<g>
							<path class="st2" d="M834.79,469.25c-0.16-0.15,0.31-0.88,1.05-1.62c0.73-0.74,1.46-1.21,1.61-1.06
								c0.16,0.15-0.31,0.88-1.05,1.62C835.67,468.93,834.94,469.41,834.79,469.25z"/>
						</g>
					</g>
				</g>
				<g>
					<g>
						<g>
							<path class="st2" d="M843.04,466.42c0.14-0.17,0.82,0.17,1.52,0.75c0.7,0.58,1.15,1.19,1.01,1.36
								c-0.14,0.17-0.82-0.17-1.52-0.75C843.35,467.2,842.9,466.59,843.04,466.42z"/>
						</g>
					</g>
				</g>
				<g>
					<g>
						<g>
							<path class="st2" d="M843.36,461.53c-0.16-0.15,0.25-0.86,0.91-1.59c0.67-0.73,1.34-1.2,1.5-1.06
								c0.16,0.15-0.25,0.86-0.91,1.59C844.2,461.21,843.53,461.68,843.36,461.53z"/>
						</g>
					</g>
				</g>
			</g>
			<g>
				<g>
					<g>
						<g>
							<g>
								<path class="st2" d="M691.26,186.61c0-0.17,1.24-0.31,2.76-0.31c1.52,0,2.76,0.14,2.76,0.31s-1.24,0.31-2.76,0.31
									C692.5,186.91,691.26,186.78,691.26,186.61z"/>
							</g>
						</g>
					</g>
					<g>
						<g>
							<g>
								<path class="st2" d="M688.33,194.11c-0.17,0-0.31-1.25-0.31-2.8c0-1.55,0.14-2.8,0.31-2.8c0.17,0,0.31,1.25,0.31,2.8
									C688.64,192.86,688.5,194.11,688.33,194.11z"/>
							</g>
						</g>
					</g>
				</g>
				<g>
					<g>
						<g>
							<g>
								<path class="st2" d="M685.21,186.79c0,0.17-1.24,0.31-2.76,0.31c-1.52,0-2.76-0.14-2.76-0.31c0-0.17,1.24-0.31,2.76-0.31
									C683.98,186.48,685.21,186.62,685.21,186.79z"/>
							</g>
						</g>
					</g>
					<g>
						<g>
							<g>
								<path class="st2" d="M688.14,179.28c0.17,0,0.31,1.25,0.31,2.8c0,1.55-0.14,2.8-0.31,2.8c-0.17,0-0.31-1.25-0.31-2.8
									C687.84,180.53,687.97,179.28,688.14,179.28z"/>
							</g>
						</g>
					</g>
				</g>
				<g>
					<g>
						<g>
							<path class="st2" d="M683.68,182.5c0.13-0.11,0.67,0.33,1.22,0.98c0.54,0.65,0.88,1.26,0.75,1.37
								c-0.13,0.11-0.67-0.33-1.22-0.98C683.89,183.22,683.55,182.61,683.68,182.5z"/>
						</g>
					</g>
				</g>
				<g>
					<g>
						<g>
							<path class="st2" d="M683.94,191.01c-0.12-0.12,0.24-0.68,0.8-1.24c0.56-0.57,1.12-0.93,1.24-0.81
								c0.12,0.12-0.24,0.67-0.8,1.24C684.61,190.77,684.06,191.13,683.94,191.01z"/>
						</g>
					</g>
				</g>
				<g>
					<g>
						<g>
							<path class="st2" d="M690.26,188.84c0.11-0.13,0.63,0.13,1.16,0.57c0.54,0.45,0.88,0.91,0.77,1.04
								c-0.11,0.13-0.63-0.13-1.17-0.57C690.5,189.44,690.16,188.97,690.26,188.84z"/>
						</g>
					</g>
				</g>
				<g>
					<g>
						<g>
							<path class="st2" d="M690.51,185.09c-0.12-0.11,0.19-0.66,0.7-1.22c0.51-0.56,1.03-0.92,1.15-0.81
								c0.12,0.11-0.19,0.66-0.7,1.22C691.15,184.84,690.64,185.21,690.51,185.09z"/>
						</g>
					</g>
				</g>
			</g>
			<g>
				<g>
					<g>
						<g>
							<g>
								<path class="st2" d="M820.44-3.85c0-0.17,1.24-0.31,2.76-0.31c1.52,0,2.76,0.14,2.76,0.31s-1.24,0.31-2.76,0.31
									C821.68-3.55,820.44-3.68,820.44-3.85z"/>
							</g>
						</g>
					</g>
					<g>
						<g>
							<g>
								<path class="st2" d="M817.51,3.66c-0.17,0-0.31-1.25-0.31-2.8c0-1.55,0.14-2.8,0.31-2.8c0.17,0,0.31,1.25,0.31,2.8
									C817.82,2.4,817.68,3.66,817.51,3.66z"/>
							</g>
						</g>
					</g>
				</g>
				<g>
					<g>
						<g>
							<g>
								<path class="st2" d="M814.39-3.67c0,0.17-1.24,0.31-2.76,0.31c-1.52,0-2.76-0.14-2.76-0.31c0-0.17,1.24-0.31,2.76-0.31
									C813.16-3.98,814.39-3.84,814.39-3.67z"/>
							</g>
						</g>
					</g>
					<g>
						<g>
							<g>
								<path class="st2" d="M817.32-11.18c0.17,0,0.31,1.25,0.31,2.8c0,1.55-0.14,2.8-0.31,2.8c-0.17,0-0.31-1.25-0.31-2.8
									C817.02-9.92,817.15-11.18,817.32-11.18z"/>
							</g>
						</g>
					</g>
				</g>
				<g>
					<g>
						<g>
							<path class="st2" d="M812.86-7.96c0.13-0.11,0.67,0.33,1.22,0.98c0.54,0.65,0.88,1.26,0.75,1.37
								c-0.13,0.11-0.67-0.33-1.22-0.98C813.07-7.24,812.73-7.85,812.86-7.96z"/>
						</g>
					</g>
				</g>
				<g>
					<g>
						<g>
							<path class="st2" d="M813.12,0.56c-0.12-0.12,0.24-0.68,0.8-1.24c0.56-0.57,1.12-0.93,1.24-0.81
								c0.12,0.12-0.24,0.67-0.8,1.24C813.79,0.31,813.24,0.67,813.12,0.56z"/>
						</g>
					</g>
				</g>
				<g>
					<g>
						<g>
							<path class="st2" d="M819.45-1.61c0.11-0.13,0.63,0.13,1.16,0.57c0.54,0.45,0.88,0.91,0.77,1.04
								c-0.11,0.13-0.63-0.13-1.17-0.57C819.68-1.02,819.34-1.48,819.45-1.61z"/>
						</g>
					</g>
				</g>
				<g>
					<g>
						<g>
							<path class="st2" d="M819.69-5.37c-0.12-0.11,0.19-0.66,0.7-1.22c0.51-0.56,1.03-0.92,1.15-0.81
								c0.12,0.11-0.19,0.66-0.7,1.22C820.33-5.61,819.82-5.25,819.69-5.37z"/>
						</g>
					</g>
				</g>
			</g>
			<g>
				<g>
					<g>
						<g>
							<g>
								<path class="st2" d="M506.39,86.09c0-0.22,1.61-0.4,3.6-0.4c1.99,0,3.6,0.18,3.6,0.4c0,0.22-1.61,0.4-3.6,0.4
									C508,86.49,506.39,86.31,506.39,86.09z"/>
							</g>
						</g>
					</g>
					<g>
						<g>
							<g>
								<path class="st2" d="M502.57,95.88c-0.22,0-0.4-1.64-0.4-3.65c0-2.02,0.18-3.65,0.4-3.65c0.22,0,0.4,1.64,0.4,3.65
									C502.96,94.25,502.79,95.88,502.57,95.88z"/>
							</g>
						</g>
					</g>
				</g>
				<g>
					<g>
						<g>
							<g>
								<path class="st2" d="M498.5,86.32c0,0.22-1.61,0.4-3.6,0.4c-1.99,0-3.6-0.18-3.6-0.4c0-0.22,1.61-0.4,3.6-0.4
									C496.88,85.93,498.5,86.1,498.5,86.32z"/>
							</g>
						</g>
					</g>
					<g>
						<g>
							<g>
								<path class="st2" d="M502.32,76.53c0.22,0,0.4,1.64,0.4,3.65c0,2.02-0.18,3.65-0.4,3.65c-0.22,0-0.4-1.63-0.4-3.65
									C501.92,78.17,502.1,76.53,502.32,76.53z"/>
							</g>
						</g>
					</g>
				</g>
				<g>
					<g>
						<g>
							<path class="st2" d="M496.5,80.73c0.17-0.14,0.88,0.43,1.59,1.28c0.71,0.85,1.14,1.65,0.97,1.79
								c-0.17,0.14-0.88-0.43-1.59-1.28C496.77,81.67,496.33,80.87,496.5,80.73z"/>
						</g>
					</g>
				</g>
				<g>
					<g>
						<g>
							<path class="st2" d="M496.84,91.84c-0.16-0.15,0.31-0.88,1.05-1.62c0.73-0.74,1.46-1.21,1.61-1.06
								c0.16,0.15-0.31,0.88-1.05,1.62C497.71,91.52,496.99,91.99,496.84,91.84z"/>
						</g>
					</g>
				</g>
				<g>
					<g>
						<g>
							<path class="st2" d="M505.09,89.01c0.14-0.17,0.82,0.17,1.52,0.75c0.7,0.58,1.15,1.19,1.01,1.36
								c-0.14,0.17-0.82-0.17-1.52-0.75C505.4,89.78,504.95,89.18,505.09,89.01z"/>
						</g>
					</g>
				</g>
				<g>
					<g>
						<g>
							<path class="st2" d="M505.41,84.11c-0.16-0.15,0.25-0.86,0.91-1.59c0.67-0.73,1.34-1.2,1.5-1.06
								c0.16,0.15-0.25,0.86-0.91,1.59C506.25,83.79,505.57,84.26,505.41,84.11z"/>
						</g>
					</g>
				</g>
			</g>
			<g>
				<g>
					<path class="st2" d="M713.8,230.02l-0.47-1.12c-0.82-1.96-2.39-3.52-4.36-4.32l-1.22-0.5l1.17-0.48c2-0.81,3.58-2.4,4.39-4.4
						l0.33-0.82l0.49,1.03c0.9,1.87,2.49,3.32,4.45,4.03l1.06,0.39l-1.39,0.67c-1.75,0.85-3.13,2.31-3.88,4.1L713.8,230.02z"/>
				</g>
			</g>
			<g>
				<g>
					<path class="st2" d="M762.56,396.06l-0.47-1.12c-0.82-1.96-2.39-3.52-4.36-4.32l-1.22-0.5l1.17-0.48c2-0.81,3.58-2.4,4.39-4.4
						l0.33-0.82l0.49,1.03c0.9,1.87,2.49,3.32,4.45,4.03l1.06,0.39l-1.39,0.67c-1.75,0.85-3.13,2.31-3.88,4.1L762.56,396.06z"/>
				</g>
			</g>
			<g>
				<g>
					<path class="st2" d="M512.65,189.85l-0.47-1.12c-0.82-1.96-2.39-3.52-4.36-4.32l-1.22-0.5l1.17-0.48c2-0.81,3.58-2.4,4.39-4.4
						l0.33-0.82l0.49,1.03c0.9,1.87,2.49,3.32,4.45,4.03l1.06,0.39l-1.39,0.67c-1.75,0.85-3.13,2.31-3.88,4.1L512.65,189.85z"/>
				</g>
			</g>
			<g>
				<g>
					<path class="st2" d="M409,453.95l-0.47-1.12c-0.82-1.96-2.39-3.52-4.36-4.32l-1.22-0.5l1.17-0.48c2-0.81,3.58-2.4,4.39-4.4
						l0.33-0.82l0.49,1.03c0.9,1.87,2.49,3.32,4.45,4.03l1.06,0.39l-1.39,0.67c-1.75,0.85-3.13,2.31-3.88,4.1L409,453.95z"/>
				</g>
			</g>
			<g>
				<g>
					<path class="st2" d="M896.68,145.76l-0.31-0.75c-0.54-1.3-1.59-2.34-2.89-2.87l-0.81-0.33l0.78-0.32
						c1.33-0.54,2.38-1.59,2.92-2.92l0.22-0.54l0.33,0.68c0.6,1.24,1.66,2.21,2.95,2.68l0.71,0.26l-0.92,0.45
						c-1.16,0.56-2.08,1.53-2.58,2.73L896.68,145.76z"/>
				</g>
			</g>
			<g>
				<g>
					<path class="st2" d="M452.45,0.1l-0.31-0.75c-0.54-1.3-1.59-2.34-2.89-2.87l-0.81-0.33l0.78-0.32
						c1.33-0.54,2.38-1.59,2.92-2.92l0.22-0.54l0.33,0.68c0.6,1.24,1.66,2.21,2.95,2.68L456.34-4l-0.92,0.45
						c-1.16,0.56-2.08,1.53-2.58,2.73L452.45,0.1z"/>
				</g>
			</g>
			<g>
				<g>
					<path class="st2" d="M435.88,218.39l-0.31-0.75c-0.54-1.3-1.59-2.34-2.89-2.87l-0.81-0.33l0.78-0.32
						c1.33-0.54,2.38-1.59,2.92-2.92l0.22-0.54l0.33,0.68c0.6,1.24,1.66,2.21,2.95,2.68l0.71,0.26l-0.92,0.45
						c-1.16,0.56-2.08,1.53-2.58,2.73L435.88,218.39z"/>
				</g>
			</g>
			<g>
				<g>
					<path class="st2" d="M498.59,160.71l-0.47-1.12c-0.82-1.96-2.39-3.52-4.36-4.32l-1.22-0.5l1.17-0.48c2-0.81,3.58-2.4,4.39-4.4
						l0.33-0.82l0.49,1.03c0.9,1.87,2.49,3.32,4.45,4.03l1.06,0.39l-1.39,0.67c-1.75,0.85-3.13,2.31-3.88,4.1L498.59,160.71z"/>
				</g>
			</g>
			<g>
				<g>
					<path class="st2" d="M480,368.32l-0.47-1.12c-0.82-1.96-2.39-3.52-4.36-4.32l-1.22-0.5l1.17-0.48c2-0.81,3.58-2.4,4.39-4.4
						l0.33-0.82l0.49,1.03c0.9,1.87,2.49,3.32,4.45,4.03l1.06,0.39l-1.39,0.67c-1.75,0.85-3.13,2.31-3.88,4.1L480,368.32z"/>
				</g>
			</g>
			<g>
				<g>
					<path class="st2" d="M626.88,236.84l-0.22-0.53c-0.38-0.92-1.12-1.65-2.04-2.02l-0.57-0.23l0.55-0.22
						c0.94-0.38,1.68-1.13,2.06-2.06l0.16-0.38l0.23,0.48c0.42,0.88,1.17,1.56,2.09,1.89l0.5,0.18l-0.65,0.32
						c-0.82,0.4-1.47,1.08-1.82,1.93L626.88,236.84z"/>
				</g>
			</g>
			<g>
				<g>
					<path class="st2" d="M820.35,339.16l-0.22-0.53c-0.38-0.92-1.12-1.65-2.04-2.02l-0.57-0.23l0.55-0.22
						c0.94-0.38,1.68-1.13,2.06-2.06l0.16-0.38l0.23,0.48c0.42,0.88,1.17,1.56,2.09,1.89l0.5,0.18l-0.65,0.32
						c-0.82,0.4-1.47,1.08-1.82,1.93L820.35,339.16z"/>
				</g>
			</g>
			<g>
				<g>
					<path class="st2" d="M790.27,472.65l-0.22-0.53c-0.38-0.92-1.12-1.65-2.04-2.02l-0.57-0.23l0.55-0.22
						c0.94-0.38,1.68-1.13,2.06-2.06l0.16-0.38l0.23,0.48c0.42,0.88,1.17,1.56,2.09,1.89l0.5,0.18l-0.65,0.32
						c-0.82,0.4-1.47,1.08-1.82,1.93L790.27,472.65z"/>
				</g>
			</g>
			<g>
				<g>
					<path class="st2" d="M749.66,86.21l-0.28-0.68c-0.49-1.18-1.44-2.12-2.63-2.61l-0.74-0.3l0.71-0.29
						c1.21-0.49,2.16-1.45,2.65-2.66l0.2-0.49l0.3,0.62c0.54,1.13,1.51,2,2.68,2.43l0.64,0.23l-0.84,0.41
						c-1.06,0.51-1.89,1.39-2.34,2.48L749.66,86.21z"/>
				</g>
			</g>
			<g>
				<g>
					<path class="st2" d="M654.92,114.12l-0.28-0.68c-0.49-1.18-1.44-2.12-2.63-2.61l-0.74-0.3l0.71-0.29
						c1.21-0.49,2.16-1.45,2.65-2.66l0.2-0.49l0.3,0.62c0.54,1.13,1.51,2,2.68,2.43l0.64,0.23l-0.84,0.41
						c-1.06,0.51-1.89,1.39-2.34,2.48L654.92,114.12z"/>
				</g>
			</g>
			<g>
				<g>
					<path class="st2" d="M602.45-0.25l-0.28-0.68c-0.49-1.18-1.44-2.12-2.63-2.61l-0.74-0.3l0.71-0.29
						c1.21-0.49,2.16-1.45,2.65-2.66l0.2-0.49l0.3,0.62c0.54,1.13,1.51,2,2.68,2.43l0.64,0.23l-0.84,0.41
						c-1.06,0.51-1.89,1.39-2.34,2.48L602.45-0.25z"/>
				</g>
			</g>
		</g>
		<g class="st1">
			<g>
				<g>
					<g>
						<g>
							<g>
								<path class="st2" d="M1469.87,190c0-0.39,2.84-0.7,6.34-0.7c3.5,0,6.34,0.31,6.34,0.7c0,0.39-2.84,0.7-6.34,0.7
									C1472.71,190.7,1469.87,190.39,1469.87,190z"/>
							</g>
						</g>
					</g>
					<g>
						<g>
							<g>
								<path class="st2" d="M1463.14,207.25c-0.39,0-0.7-2.88-0.7-6.43c0-3.55,0.31-6.43,0.7-6.43c0.39,0,0.7,2.88,0.7,6.43
									C1463.84,204.37,1463.52,207.25,1463.14,207.25z"/>
							</g>
						</g>
					</g>
				</g>
				<g>
					<g>
						<g>
							<g>
								<path class="st2" d="M1455.96,190.41c0,0.39-2.84,0.7-6.34,0.7c-3.5,0-6.34-0.31-6.34-0.7c0-0.39,2.84-0.7,6.34-0.7
									C1453.12,189.71,1455.96,190.02,1455.96,190.41z"/>
							</g>
						</g>
					</g>
					<g>
						<g>
							<g>
								<path class="st2" d="M1462.7,173.16c0.39,0,0.7,2.88,0.7,6.43c0,3.55-0.31,6.43-0.7,6.43c-0.39,0-0.7-2.88-0.7-6.43
									C1462,176.04,1462.31,173.16,1462.7,173.16z"/>
							</g>
						</g>
					</g>
				</g>
				<g>
					<g>
						<g>
							<path class="st2" d="M1452.45,180.56c0.3-0.25,1.55,0.76,2.79,2.25c1.25,1.49,2.01,2.9,1.72,3.15
								c-0.3,0.25-1.55-0.76-2.79-2.25C1452.92,182.22,1452.15,180.81,1452.45,180.56z"/>
						</g>
					</g>
				</g>
				<g>
					<g>
						<g>
							<path class="st2" d="M1453.04,200.12c-0.28-0.27,0.55-1.55,1.84-2.85c1.29-1.3,2.56-2.14,2.84-1.87
								c0.28,0.27-0.55,1.55-1.84,2.85C1454.59,199.56,1453.32,200.39,1453.04,200.12z"/>
						</g>
					</g>
				</g>
				<g>
					<g>
						<g>
							<path class="st2" d="M1467.58,195.14c0.25-0.3,1.45,0.29,2.68,1.31c1.23,1.02,2.03,2.1,1.78,2.39
								c-0.25,0.3-1.45-0.29-2.68-1.32C1468.12,196.51,1467.33,195.44,1467.58,195.14z"/>
						</g>
					</g>
				</g>
				<g>
					<g>
						<g>
							<path class="st2" d="M1468.15,186.52c-0.29-0.26,0.43-1.52,1.61-2.8c1.17-1.29,2.36-2.12,2.64-1.86
								c0.29,0.26-0.43,1.52-1.61,2.8C1469.62,185.95,1468.43,186.78,1468.15,186.52z"/>
						</g>
					</g>
				</g>
			</g>
			<g>
				<g>
					<g>
						<g>
							<g>
								<path class="st2" d="M1093.66,246.79c0-0.22,1.61-0.4,3.6-0.4c1.99,0,3.6,0.18,3.6,0.4c0,0.22-1.61,0.4-3.6,0.4
									C1095.27,247.19,1093.66,247.01,1093.66,246.79z"/>
							</g>
						</g>
					</g>
					<g>
						<g>
							<g>
								<path class="st2" d="M1089.84,256.58c-0.22,0-0.4-1.64-0.4-3.65c0-2.02,0.18-3.65,0.4-3.65c0.22,0,0.4,1.64,0.4,3.65
									C1090.24,254.95,1090.06,256.58,1089.84,256.58z"/>
							</g>
						</g>
					</g>
				</g>
				<g>
					<g>
						<g>
							<g>
								<path class="st2" d="M1085.77,247.02c0,0.22-1.61,0.4-3.6,0.4c-1.99,0-3.6-0.18-3.6-0.4s1.61-0.4,3.6-0.4
									C1084.15,246.63,1085.77,246.8,1085.77,247.02z"/>
							</g>
						</g>
					</g>
					<g>
						<g>
							<g>
								<path class="st2" d="M1089.59,237.23c0.22,0,0.4,1.64,0.4,3.65c0,2.02-0.18,3.65-0.4,3.65c-0.22,0-0.4-1.63-0.4-3.65
									C1089.19,238.87,1089.37,237.23,1089.59,237.23z"/>
							</g>
						</g>
					</g>
				</g>
				<g>
					<g>
						<g>
							<path class="st2" d="M1083.77,241.43c0.17-0.14,0.88,0.43,1.59,1.28c0.71,0.85,1.14,1.65,0.97,1.79
								c-0.17,0.14-0.88-0.43-1.59-1.28C1084.04,242.37,1083.6,241.57,1083.77,241.43z"/>
						</g>
					</g>
				</g>
				<g>
					<g>
						<g>
							<path class="st2" d="M1084.11,252.54c-0.16-0.15,0.31-0.88,1.05-1.62c0.73-0.74,1.46-1.21,1.61-1.06
								c0.16,0.15-0.31,0.88-1.05,1.62C1084.98,252.22,1084.26,252.69,1084.11,252.54z"/>
						</g>
					</g>
				</g>
				<g>
					<g>
						<g>
							<path class="st2" d="M1092.36,249.71c0.14-0.17,0.82,0.17,1.52,0.75c0.7,0.58,1.15,1.19,1.01,1.36
								c-0.14,0.17-0.82-0.17-1.52-0.75C1092.67,250.49,1092.22,249.88,1092.36,249.71z"/>
						</g>
					</g>
				</g>
				<g>
					<g>
						<g>
							<path class="st2" d="M1092.68,244.81c-0.16-0.15,0.25-0.86,0.91-1.59c0.67-0.73,1.34-1.2,1.5-1.06
								c0.16,0.15-0.25,0.86-0.91,1.59C1093.52,244.49,1092.84,244.96,1092.68,244.81z"/>
						</g>
					</g>
				</g>
			</g>
			<g>
				<g>
					<g>
						<g>
							<g>
								<path class="st2" d="M1222.29,385.26c0-0.22,1.61-0.4,3.6-0.4c1.99,0,3.6,0.18,3.6,0.4c0,0.22-1.61,0.4-3.6,0.4
									C1223.9,385.66,1222.29,385.48,1222.29,385.26z"/>
							</g>
						</g>
					</g>
					<g>
						<g>
							<g>
								<path class="st2" d="M1218.47,395.05c-0.22,0-0.4-1.64-0.4-3.65c0-2.02,0.18-3.65,0.4-3.65c0.22,0,0.4,1.64,0.4,3.65
									C1218.86,393.42,1218.69,395.05,1218.47,395.05z"/>
							</g>
						</g>
					</g>
				</g>
				<g>
					<g>
						<g>
							<g>
								<path class="st2" d="M1214.39,385.49c0,0.22-1.61,0.4-3.6,0.4c-1.99,0-3.6-0.18-3.6-0.4c0-0.22,1.61-0.4,3.6-0.4
									C1212.78,385.09,1214.39,385.27,1214.39,385.49z"/>
							</g>
						</g>
					</g>
					<g>
						<g>
							<g>
								<path class="st2" d="M1218.22,375.7c0.22,0,0.4,1.64,0.4,3.65c0,2.02-0.18,3.65-0.4,3.65c-0.22,0-0.4-1.63-0.4-3.65
									C1217.82,377.34,1218,375.7,1218.22,375.7z"/>
							</g>
						</g>
					</g>
				</g>
				<g>
					<g>
						<g>
							<path class="st2" d="M1212.4,379.9c0.17-0.14,0.88,0.43,1.59,1.28c0.71,0.85,1.14,1.65,0.97,1.79
								c-0.17,0.14-0.88-0.43-1.59-1.28C1212.67,380.84,1212.23,380.04,1212.4,379.9z"/>
						</g>
					</g>
				</g>
				<g>
					<g>
						<g>
							<path class="st2" d="M1212.73,391.01c-0.16-0.15,0.31-0.88,1.05-1.62c0.73-0.74,1.46-1.21,1.61-1.06
								c0.16,0.15-0.31,0.88-1.05,1.62C1213.61,390.69,1212.89,391.16,1212.73,391.01z"/>
						</g>
					</g>
				</g>
				<g>
					<g>
						<g>
							<path class="st2" d="M1220.99,388.18c0.14-0.17,0.82,0.17,1.52,0.75c0.7,0.58,1.15,1.19,1.01,1.36
								c-0.14,0.17-0.82-0.17-1.52-0.75C1221.3,388.95,1220.85,388.35,1220.99,388.18z"/>
						</g>
					</g>
				</g>
				<g>
					<g>
						<g>
							<path class="st2" d="M1221.31,383.28c-0.16-0.15,0.25-0.86,0.91-1.59c0.67-0.73,1.34-1.2,1.5-1.06
								c0.16,0.15-0.25,0.86-0.91,1.59C1222.14,382.96,1221.47,383.43,1221.31,383.28z"/>
						</g>
					</g>
				</g>
			</g>
			<g>
				<g>
					<g>
						<g>
							<g>
								<path class="st2" d="M1434.23,463.51c0-0.22,1.61-0.4,3.6-0.4c1.99,0,3.6,0.18,3.6,0.4c0,0.22-1.61,0.4-3.6,0.4
									C1435.84,463.9,1434.23,463.73,1434.23,463.51z"/>
							</g>
						</g>
					</g>
					<g>
						<g>
							<g>
								<path class="st2" d="M1430.41,473.3c-0.22,0-0.4-1.64-0.4-3.65c0-2.02,0.18-3.65,0.4-3.65c0.22,0,0.4,1.64,0.4,3.65
									C1430.81,471.66,1430.63,473.3,1430.41,473.3z"/>
							</g>
						</g>
					</g>
				</g>
				<g>
					<g>
						<g>
							<g>
								<path class="st2" d="M1426.34,463.74c0,0.22-1.61,0.4-3.6,0.4c-1.99,0-3.6-0.18-3.6-0.4s1.61-0.4,3.6-0.4
									C1424.73,463.34,1426.34,463.52,1426.34,463.74z"/>
							</g>
						</g>
					</g>
					<g>
						<g>
							<g>
								<path class="st2" d="M1430.16,453.95c0.22,0,0.4,1.64,0.4,3.65c0,2.02-0.18,3.65-0.4,3.65c-0.22,0-0.4-1.63-0.4-3.65
									C1429.76,455.58,1429.94,453.95,1430.16,453.95z"/>
							</g>
						</g>
					</g>
				</g>
				<g>
					<g>
						<g>
							<path class="st2" d="M1424.34,458.15c0.17-0.14,0.88,0.43,1.59,1.28c0.71,0.85,1.14,1.65,0.97,1.79
								c-0.17,0.14-0.88-0.43-1.59-1.28C1424.61,459.09,1424.17,458.29,1424.34,458.15z"/>
						</g>
					</g>
				</g>
				<g>
					<g>
						<g>
							<path class="st2" d="M1424.68,469.25c-0.16-0.15,0.31-0.88,1.05-1.62c0.73-0.74,1.46-1.21,1.61-1.06
								c0.16,0.15-0.31,0.88-1.05,1.62C1425.56,468.93,1424.83,469.41,1424.68,469.25z"/>
						</g>
					</g>
				</g>
				<g>
					<g>
						<g>
							<path class="st2" d="M1432.93,466.42c0.14-0.17,0.82,0.17,1.52,0.75c0.7,0.58,1.15,1.19,1.01,1.36
								c-0.14,0.17-0.82-0.17-1.52-0.75C1433.24,467.2,1432.79,466.59,1432.93,466.42z"/>
						</g>
					</g>
				</g>
				<g>
					<g>
						<g>
							<path class="st2" d="M1433.25,461.53c-0.16-0.15,0.25-0.86,0.91-1.59c0.67-0.73,1.34-1.2,1.5-1.06
								c0.16,0.15-0.25,0.86-0.91,1.59C1434.09,461.21,1433.42,461.68,1433.25,461.53z"/>
						</g>
					</g>
				</g>
			</g>
			<g>
				<g>
					<g>
						<g>
							<g>
								<path class="st2" d="M1281.15,186.61c0-0.17,1.24-0.31,2.76-0.31c1.52,0,2.76,0.14,2.76,0.31s-1.24,0.31-2.76,0.31
									C1282.39,186.91,1281.15,186.78,1281.15,186.61z"/>
							</g>
						</g>
					</g>
					<g>
						<g>
							<g>
								<path class="st2" d="M1278.22,194.11c-0.17,0-0.31-1.25-0.31-2.8c0-1.55,0.14-2.8,0.31-2.8c0.17,0,0.31,1.25,0.31,2.8
									C1278.53,192.86,1278.39,194.11,1278.22,194.11z"/>
							</g>
						</g>
					</g>
				</g>
				<g>
					<g>
						<g>
							<g>
								<path class="st2" d="M1275.1,186.79c0,0.17-1.24,0.31-2.76,0.31c-1.52,0-2.76-0.14-2.76-0.31c0-0.17,1.24-0.31,2.76-0.31
									C1273.87,186.48,1275.1,186.62,1275.1,186.79z"/>
							</g>
						</g>
					</g>
					<g>
						<g>
							<g>
								<path class="st2" d="M1278.03,179.28c0.17,0,0.31,1.25,0.31,2.8c0,1.55-0.14,2.8-0.31,2.8c-0.17,0-0.31-1.25-0.31-2.8
									C1277.73,180.53,1277.86,179.28,1278.03,179.28z"/>
							</g>
						</g>
					</g>
				</g>
				<g>
					<g>
						<g>
							<path class="st2" d="M1273.57,182.5c0.13-0.11,0.67,0.33,1.22,0.98c0.54,0.65,0.88,1.26,0.75,1.37
								c-0.13,0.11-0.67-0.33-1.22-0.98C1273.78,183.22,1273.44,182.61,1273.57,182.5z"/>
						</g>
					</g>
				</g>
				<g>
					<g>
						<g>
							<path class="st2" d="M1273.83,191.01c-0.12-0.12,0.24-0.68,0.8-1.24c0.56-0.57,1.12-0.93,1.24-0.81
								c0.12,0.12-0.24,0.67-0.8,1.24C1274.5,190.77,1273.95,191.13,1273.83,191.01z"/>
						</g>
					</g>
				</g>
				<g>
					<g>
						<g>
							<path class="st2" d="M1280.15,188.84c0.11-0.13,0.63,0.13,1.16,0.57c0.54,0.45,0.88,0.91,0.77,1.04
								c-0.11,0.13-0.63-0.13-1.17-0.57C1280.39,189.44,1280.05,188.97,1280.15,188.84z"/>
						</g>
					</g>
				</g>
				<g>
					<g>
						<g>
							<path class="st2" d="M1280.4,185.09c-0.12-0.11,0.19-0.66,0.7-1.22c0.51-0.56,1.03-0.92,1.15-0.81
								c0.12,0.11-0.19,0.66-0.7,1.22C1281.04,184.84,1280.53,185.21,1280.4,185.09z"/>
						</g>
					</g>
				</g>
			</g>
			<g>
				<g>
					<g>
						<g>
							<g>
								<path class="st2" d="M1410.33-3.85c0-0.17,1.24-0.31,2.76-0.31c1.52,0,2.76,0.14,2.76,0.31s-1.24,0.31-2.76,0.31
									C1411.57-3.55,1410.33-3.68,1410.33-3.85z"/>
							</g>
						</g>
					</g>
					<g>
						<g>
							<g>
								<path class="st2" d="M1407.4,3.66c-0.17,0-0.31-1.25-0.31-2.8c0-1.55,0.14-2.8,0.31-2.8c0.17,0,0.31,1.25,0.31,2.8
									C1407.71,2.4,1407.57,3.66,1407.4,3.66z"/>
							</g>
						</g>
					</g>
				</g>
				<g>
					<g>
						<g>
							<g>
								<path class="st2" d="M1404.28-3.67c0,0.17-1.24,0.31-2.76,0.31c-1.52,0-2.76-0.14-2.76-0.31c0-0.17,1.24-0.31,2.76-0.31
									C1403.05-3.98,1404.28-3.84,1404.28-3.67z"/>
							</g>
						</g>
					</g>
					<g>
						<g>
							<g>
								<path class="st2" d="M1407.21-11.18c0.17,0,0.31,1.25,0.31,2.8c0,1.55-0.14,2.8-0.31,2.8c-0.17,0-0.31-1.25-0.31-2.8
									C1406.91-9.92,1407.04-11.18,1407.21-11.18z"/>
							</g>
						</g>
					</g>
				</g>
				<g>
					<g>
						<g>
							<path class="st2" d="M1402.75-7.96c0.13-0.11,0.67,0.33,1.22,0.98c0.54,0.65,0.88,1.26,0.75,1.37
								c-0.13,0.11-0.67-0.33-1.22-0.98C1402.96-7.24,1402.62-7.85,1402.75-7.96z"/>
						</g>
					</g>
				</g>
				<g>
					<g>
						<g>
							<path class="st2" d="M1403.01,0.56c-0.12-0.12,0.24-0.68,0.8-1.24c0.56-0.57,1.12-0.93,1.24-0.81
								c0.12,0.12-0.24,0.67-0.8,1.24C1403.68,0.31,1403.13,0.67,1403.01,0.56z"/>
						</g>
					</g>
				</g>
				<g>
					<g>
						<g>
							<path class="st2" d="M1409.33-1.61c0.11-0.13,0.63,0.13,1.17,0.57c0.54,0.45,0.88,0.91,0.77,1.04
								c-0.11,0.13-0.63-0.13-1.17-0.57C1409.57-1.02,1409.23-1.48,1409.33-1.61z"/>
						</g>
					</g>
				</g>
				<g>
					<g>
						<g>
							<path class="st2" d="M1409.58-5.37c-0.12-0.11,0.19-0.66,0.7-1.22c0.51-0.56,1.03-0.92,1.15-0.81
								c0.12,0.11-0.19,0.66-0.7,1.22C1410.22-5.61,1409.71-5.25,1409.58-5.37z"/>
						</g>
					</g>
				</g>
			</g>
			<g>
				<g>
					<g>
						<g>
							<g>
								<path class="st2" d="M1096.28,86.09c0-0.22,1.61-0.4,3.6-0.4c1.99,0,3.6,0.18,3.6,0.4c0,0.22-1.61,0.4-3.6,0.4
									C1097.89,86.49,1096.28,86.31,1096.28,86.09z"/>
							</g>
						</g>
					</g>
					<g>
						<g>
							<g>
								<path class="st2" d="M1092.46,95.88c-0.22,0-0.4-1.64-0.4-3.65c0-2.02,0.18-3.65,0.4-3.65c0.22,0,0.4,1.64,0.4,3.65
									C1092.85,94.25,1092.68,95.88,1092.46,95.88z"/>
							</g>
						</g>
					</g>
				</g>
				<g>
					<g>
						<g>
							<g>
								<path class="st2" d="M1088.38,86.32c0,0.22-1.61,0.4-3.6,0.4c-1.99,0-3.6-0.18-3.6-0.4c0-0.22,1.61-0.4,3.6-0.4
									C1086.77,85.93,1088.38,86.1,1088.38,86.32z"/>
							</g>
						</g>
					</g>
					<g>
						<g>
							<g>
								<path class="st2" d="M1092.21,76.53c0.22,0,0.4,1.64,0.4,3.65c0,2.02-0.18,3.65-0.4,3.65c-0.22,0-0.4-1.63-0.4-3.65
									C1091.81,78.17,1091.99,76.53,1092.21,76.53z"/>
							</g>
						</g>
					</g>
				</g>
				<g>
					<g>
						<g>
							<path class="st2" d="M1086.39,80.73c0.17-0.14,0.88,0.43,1.59,1.28c0.71,0.85,1.14,1.65,0.97,1.79
								c-0.17,0.14-0.88-0.43-1.59-1.28C1086.66,81.67,1086.22,80.87,1086.39,80.73z"/>
						</g>
					</g>
				</g>
				<g>
					<g>
						<g>
							<path class="st2" d="M1086.73,91.84c-0.16-0.15,0.31-0.88,1.05-1.62c0.73-0.74,1.46-1.21,1.61-1.06
								c0.16,0.15-0.31,0.88-1.05,1.62C1087.6,91.52,1086.88,91.99,1086.73,91.84z"/>
						</g>
					</g>
				</g>
				<g>
					<g>
						<g>
							<path class="st2" d="M1094.98,89.01c0.14-0.17,0.82,0.17,1.52,0.75c0.7,0.58,1.15,1.19,1.01,1.36
								c-0.14,0.17-0.82-0.17-1.52-0.75C1095.29,89.78,1094.84,89.18,1094.98,89.01z"/>
						</g>
					</g>
				</g>
				<g>
					<g>
						<g>
							<path class="st2" d="M1095.3,84.11c-0.16-0.15,0.25-0.86,0.91-1.59c0.67-0.73,1.34-1.2,1.5-1.06
								c0.16,0.15-0.25,0.86-0.91,1.59C1096.14,83.79,1095.46,84.26,1095.3,84.11z"/>
						</g>
					</g>
				</g>
			</g>
			<g>
				<g>
					<path class="st2" d="M1303.69,230.02l-0.47-1.12c-0.82-1.96-2.39-3.52-4.36-4.32l-1.22-0.5l1.17-0.48c2-0.81,3.58-2.4,4.39-4.4
						l0.33-0.82l0.49,1.03c0.9,1.87,2.49,3.32,4.45,4.03l1.06,0.39l-1.39,0.67c-1.75,0.85-3.13,2.31-3.88,4.1L1303.69,230.02z"/>
				</g>
			</g>
			<g>
				<g>
					<path class="st2" d="M1352.45,396.06l-0.47-1.12c-0.82-1.96-2.39-3.52-4.36-4.32l-1.22-0.5l1.17-0.48c2-0.81,3.58-2.4,4.39-4.4
						l0.33-0.82l0.49,1.03c0.9,1.87,2.49,3.32,4.45,4.03l1.06,0.39l-1.39,0.67c-1.75,0.85-3.13,2.31-3.88,4.1L1352.45,396.06z"/>
				</g>
			</g>
			<g>
				<g>
					<path class="st2" d="M1102.54,189.85l-0.47-1.12c-0.82-1.96-2.39-3.52-4.36-4.32l-1.22-0.5l1.17-0.48c2-0.81,3.58-2.4,4.39-4.4
						l0.33-0.82l0.49,1.03c0.9,1.87,2.49,3.32,4.45,4.03l1.06,0.39l-1.39,0.67c-1.75,0.85-3.13,2.31-3.88,4.1L1102.54,189.85z"/>
				</g>
			</g>
			<g>
				<g>
					<path class="st2" d="M998.89,453.95l-0.47-1.12c-0.82-1.96-2.39-3.52-4.36-4.32l-1.22-0.5l1.17-0.48c2-0.81,3.58-2.4,4.39-4.4
						l0.33-0.82l0.49,1.03c0.9,1.87,2.49,3.32,4.45,4.03l1.06,0.39l-1.39,0.67c-1.75,0.85-3.13,2.31-3.88,4.1L998.89,453.95z"/>
				</g>
			</g>
			<g>
				<g>
					<path class="st2" d="M1486.57,145.76l-0.31-0.75c-0.54-1.3-1.59-2.34-2.89-2.87l-0.81-0.33l0.78-0.32
						c1.33-0.54,2.38-1.59,2.92-2.92l0.22-0.54l0.33,0.68c0.6,1.24,1.66,2.21,2.95,2.68l0.71,0.26l-0.92,0.45
						c-1.16,0.56-2.08,1.53-2.58,2.73L1486.57,145.76z"/>
				</g>
			</g>
			<g>
				<g>
					<path class="st2" d="M1042.34,0.1l-0.31-0.75c-0.54-1.3-1.59-2.34-2.89-2.87l-0.81-0.33l0.78-0.32
						c1.33-0.54,2.38-1.59,2.92-2.92l0.22-0.54l0.33,0.68c0.6,1.24,1.66,2.21,2.95,2.68l0.71,0.26l-0.92,0.45
						c-1.16,0.56-2.08,1.53-2.58,2.73L1042.34,0.1z"/>
				</g>
			</g>
			<g>
				<g>
					<path class="st2" d="M1025.77,218.39l-0.31-0.75c-0.54-1.3-1.59-2.34-2.89-2.87l-0.81-0.33l0.78-0.32
						c1.33-0.54,2.38-1.59,2.92-2.92l0.22-0.54l0.33,0.68c0.6,1.24,1.66,2.21,2.95,2.68l0.71,0.26l-0.92,0.45
						c-1.16,0.56-2.08,1.53-2.58,2.73L1025.77,218.39z"/>
				</g>
			</g>
			<g>
				<g>
					<path class="st2" d="M1088.48,160.71l-0.47-1.12c-0.82-1.96-2.39-3.52-4.36-4.32l-1.22-0.5l1.17-0.48c2-0.81,3.58-2.4,4.39-4.4
						l0.33-0.82l0.49,1.03c0.9,1.87,2.49,3.32,4.45,4.03l1.06,0.39l-1.39,0.67c-1.75,0.85-3.13,2.31-3.88,4.1L1088.48,160.71z"/>
				</g>
			</g>
			<g>
				<g>
					<path class="st2" d="M1069.89,368.32l-0.47-1.12c-0.82-1.96-2.39-3.52-4.36-4.32l-1.22-0.5l1.17-0.48c2-0.81,3.58-2.4,4.39-4.4
						l0.33-0.82l0.49,1.03c0.9,1.87,2.49,3.32,4.45,4.03l1.06,0.39l-1.39,0.67c-1.75,0.85-3.13,2.31-3.88,4.1L1069.89,368.32z"/>
				</g>
			</g>
			<g>
				<g>
					<path class="st2" d="M1216.77,236.84l-0.22-0.53c-0.38-0.92-1.12-1.65-2.04-2.02l-0.57-0.23l0.55-0.22
						c0.94-0.38,1.68-1.13,2.06-2.06l0.16-0.38l0.23,0.48c0.42,0.88,1.17,1.56,2.09,1.89l0.5,0.18l-0.65,0.32
						c-0.82,0.4-1.47,1.08-1.82,1.93L1216.77,236.84z"/>
				</g>
			</g>
			<g>
				<g>
					<path class="st2" d="M1410.24,339.16l-0.22-0.53c-0.38-0.92-1.12-1.65-2.04-2.02l-0.57-0.23l0.55-0.22
						c0.94-0.38,1.68-1.13,2.06-2.06l0.16-0.38l0.23,0.48c0.42,0.88,1.17,1.56,2.09,1.89l0.5,0.18l-0.65,0.32
						c-0.82,0.4-1.47,1.08-1.82,1.93L1410.24,339.16z"/>
				</g>
			</g>
			<g>
				<g>
					<path class="st2" d="M1380.16,472.65l-0.22-0.53c-0.38-0.92-1.12-1.65-2.04-2.02l-0.57-0.23l0.55-0.22
						c0.94-0.38,1.68-1.13,2.06-2.06l0.16-0.38l0.23,0.48c0.42,0.88,1.17,1.56,2.09,1.89l0.5,0.18l-0.65,0.32
						c-0.82,0.4-1.47,1.08-1.82,1.93L1380.16,472.65z"/>
				</g>
			</g>
			<g>
				<g>
					<path class="st2" d="M1339.55,86.21l-0.28-0.68c-0.49-1.18-1.44-2.12-2.63-2.61l-0.74-0.3l0.71-0.29
						c1.21-0.49,2.16-1.45,2.65-2.66l0.2-0.49l0.3,0.62c0.54,1.13,1.51,2,2.68,2.43l0.64,0.23l-0.84,0.41
						c-1.06,0.51-1.89,1.39-2.34,2.48L1339.55,86.21z"/>
				</g>
			</g>
			<g>
				<g>
					<path class="st2" d="M1244.81,114.12l-0.28-0.68c-0.49-1.18-1.44-2.12-2.63-2.61l-0.74-0.3l0.71-0.29
						c1.21-0.49,2.16-1.45,2.65-2.66l0.2-0.49l0.3,0.62c0.54,1.13,1.51,2,2.68,2.43l0.64,0.23l-0.84,0.41
						c-1.06,0.51-1.89,1.39-2.34,2.48L1244.81,114.12z"/>
				</g>
			</g>
			<g>
				<g>
					<path class="st2" d="M1192.34-0.25l-0.28-0.68c-0.49-1.18-1.44-2.12-2.63-2.61l-0.74-0.3l0.71-0.29
						c1.21-0.49,2.16-1.45,2.65-2.66l0.2-0.49l0.3,0.62c0.54,1.13,1.51,2,2.68,2.43l0.64,0.23l-0.84,0.41
						c-1.06,0.51-1.89,1.39-2.34,2.48L1192.34-0.25z"/>
				</g>
			</g>
		</g>
	</g>
</g>
</svg>
