<?xml version="1.0" encoding="utf-8"?>
<!-- Generator: Adobe Illustrator 26.0.0, SVG Export Plug-In . SVG Version: 6.00 Build 0)  -->
<svg version="1.1" id="Layer_1" xmlns="http://www.w3.org/2000/svg" xmlns:xlink="http://www.w3.org/1999/xlink" x="0px" y="0px"
	 viewBox="0 0 1920 768" style="enable-background:new 0 0 1920 768;" xml:space="preserve">
<style type="text/css">
	.st0{fill:#F1F1F2;}
</style>
<g>
	<g>
		<g>
			<path class="st0" d="M782.63,233.83c0-9.47-8.56-16.94-18.36-15.1c-6.17,1.16-11.08,6.19-12.16,12.37
				c-0.68,3.86,0.12,7.5,1.88,10.5h-0.01l0.04,0.06c0.59,0.99,1.33,1.7,2.08,2.75l8.93,11.83c1.11,1.47,3.32,1.47,4.43,0l8.78-11.63
				c0,0,1.64-1.95,2.23-2.96l0.03-0.04h-0.01C781.85,239.32,782.63,236.67,782.63,233.83z M767.26,240.53
				c-3.74,0-6.77-3.03-6.77-6.77c0-3.74,3.03-6.77,6.77-6.77c3.74,0,6.77,3.03,6.77,6.77C774.02,237.5,770.99,240.53,767.26,240.53z
				"/>
		</g>
	</g>
	<g>
		<g>
			<path class="st0" d="M331.63,234.24c0-9.47-8.56-16.94-18.36-15.1c-6.17,1.16-11.08,6.19-12.16,12.37
				c-0.68,3.86,0.12,7.5,1.88,10.5h-0.01l0.04,0.06c0.59,0.99,1.33,1.7,2.08,2.75l8.93,11.83c1.11,1.47,3.32,1.47,4.43,0l8.78-11.63
				c0,0,1.64-1.95,2.23-2.96l0.03-0.04h-0.01C330.85,239.72,331.63,237.08,331.63,234.24z M316.26,240.93
				c-3.74,0-6.77-3.03-6.77-6.77c0-3.74,3.03-6.77,6.77-6.77c3.74,0,6.77,3.03,6.77,6.77C323.02,237.9,319.99,240.93,316.26,240.93z
				"/>
		</g>
	</g>
	<g>
		<g>
			<path class="st0" d="M408.29,549.12c0-7.17-6.48-12.83-13.91-11.44c-4.67,0.88-8.39,4.69-9.21,9.37
				c-0.51,2.93,0.09,5.68,1.43,7.95h-0.01l0.03,0.04c0.45,0.75,1.01,1.29,1.57,2.08l6.76,8.96c0.84,1.12,2.52,1.12,3.36,0l6.65-8.81
				c0,0,1.24-1.48,1.69-2.24l0.02-0.03h0C407.69,553.28,408.29,551.27,408.29,549.12z M396.64,554.19c-2.83,0-5.13-2.3-5.13-5.13
				s2.3-5.13,5.13-5.13c2.83,0,5.13,2.3,5.13,5.13S399.47,554.19,396.64,554.19z"/>
		</g>
	</g>
	<g>
		<g>
			<path class="st0" d="M1743.29,671.12c0-7.17-6.48-12.83-13.91-11.44c-4.67,0.88-8.39,4.69-9.21,9.37
				c-0.51,2.93,0.09,5.68,1.43,7.95h-0.01l0.03,0.04c0.45,0.75,1.01,1.29,1.57,2.08l6.76,8.96c0.84,1.12,2.52,1.12,3.36,0l6.65-8.81
				c0,0,1.24-1.48,1.69-2.24l0.02-0.03h0C1742.69,675.28,1743.29,673.27,1743.29,671.12z M1731.64,676.19
				c-2.83,0-5.13-2.3-5.13-5.13s2.3-5.13,5.13-5.13c2.83,0,5.13,2.3,5.13,5.13S1734.47,676.19,1731.64,676.19z"/>
		</g>
	</g>
	<g>
		<g>
			<path class="st0" d="M1196.56,307.12c0-7.17-6.48-12.83-13.91-11.44c-4.67,0.88-8.39,4.69-9.21,9.37
				c-0.51,2.93,0.09,5.68,1.43,7.95h-0.01l0.03,0.04c0.45,0.75,1.01,1.29,1.57,2.08l6.76,8.96c0.84,1.12,2.52,1.12,3.36,0l6.65-8.81
				c0,0,1.24-1.48,1.69-2.24l0.02-0.03h0C1195.97,311.28,1196.56,309.27,1196.56,307.12z M1184.91,312.19
				c-2.83,0-5.13-2.3-5.13-5.13s2.3-5.13,5.13-5.13c2.83,0,5.13,2.3,5.13,5.13C1190.04,309.9,1187.74,312.19,1184.91,312.19z"/>
		</g>
	</g>
	<g>
		<g>
			<path class="st0" d="M1356.46,666.64c0-11.04-9.98-19.75-21.41-17.61c-7.19,1.35-12.92,7.22-14.18,14.43
				c-0.79,4.5,0.14,8.74,2.2,12.24h-0.01l0.05,0.07c0.69,1.16,1.55,1.99,2.42,3.21l10.41,13.79c1.3,1.72,3.87,1.72,5.17,0
				l10.24-13.56c0,0,1.91-2.28,2.6-3.45l0.04-0.05h-0.01C1355.55,673.04,1356.46,669.95,1356.46,666.64z M1338.53,674.45
				c-4.36,0-7.89-3.53-7.89-7.89c0-4.36,3.53-7.89,7.89-7.89c4.36,0,7.89,3.53,7.89,7.89
				C1346.42,670.91,1342.89,674.45,1338.53,674.45z"/>
		</g>
	</g>
	<g>
		<g>
			<path class="st0" d="M1758.66,510.52c0-16.7-15.09-29.88-32.39-26.63c-10.88,2.04-19.55,10.92-21.45,21.83
				c-1.19,6.81,0.22,13.22,3.32,18.51h-0.01l0.08,0.1c1.04,1.75,2.34,3.01,3.66,4.85l15.75,20.87c1.96,2.6,5.86,2.6,7.82,0
				l15.49-20.52c0,0,2.89-3.45,3.94-5.22l0.06-0.07h-0.01C1757.28,520.2,1758.66,515.52,1758.66,510.52z M1731.53,522.33
				c-6.59,0-11.94-5.35-11.94-11.94c0-6.59,5.35-11.94,11.94-11.94c6.59,0,11.94,5.35,11.94,11.94
				C1743.47,516.98,1738.12,522.33,1731.53,522.33z"/>
		</g>
	</g>
	<g>
		<g>
			<path class="st0" d="M173.66,669.3c0-16.7-15.09-29.88-32.39-26.63c-10.88,2.04-19.55,10.92-21.45,21.83
				c-1.19,6.81,0.22,13.22,3.32,18.51h-0.01l0.08,0.1c1.04,1.75,2.34,3.01,3.66,4.85l15.75,20.87c1.96,2.6,5.86,2.6,7.82,0
				l15.49-20.52c0,0,2.89-3.45,3.94-5.22l0.06-0.07h-0.01C172.28,678.98,173.66,674.31,173.66,669.3z M146.53,681.11
				c-6.59,0-11.94-5.35-11.94-11.94c0-6.59,5.35-11.94,11.94-11.94c6.59,0,11.94,5.35,11.94,11.94
				C158.47,675.77,153.12,681.11,146.53,681.11z"/>
		</g>
	</g>
	<path id="Cloud_00000020381190077856268480000002582008800197094591_" class="st0" d="M1137.24,306.87
		c-2.21-0.93-4.82-0.95-6.7-1.04c-2.16-0.11-2.86-0.52-3.29-0.97c-5.46-7.36-14.14-7.4-19.26-5.1c-1.42-5.13-7.79-9.44-14.63-7.73
		c0.04-6.72-8.73-13.69-16.48-15.11c-7.43-1.36-13.85-0.52-17.92,4.46c-4.76-8.68-22.52-10.66-31.95-5.72
		c-5.43,2.84-10.02,5.72-12.15,10.83c-1.41,3.37-1.89,5.6-1.79,10.08c-3.82-3.18-11.32-3.86-16.24-1.79
		c-5.31,2.23-5.6,6.29-5.75,10.41c-5.3-1.18-8.8-0.22-9.78,0.1c-3.35,1.1-5.23,3.81-4.7,5.94c-2.68-0.07-9,2.27-8.18,5.08
		c0.91,3.15,8.19,2.62,10.9,2.44c2.25-0.15,5.15-0.83,7.58-1.41c0.75,0.35,2.74,0.68,3.98,0.64c4.64-0.17,6.54-2.21,7.24-3.96
		c2.4,4.7,10.56,8.1,16.29,9.4c10.8,2.44,25.92,0.33,32.3-7.87c0.73,1.42,1.93,2.73,3.31,3.8c2.68,2.08,6.26,3.49,10.03,3.74
		c4.41,0.29,16.25,0.51,19.38-6.58c2.49,4.59,13.07,6.41,21.04,5.04c2.98-0.51,6.31-1.64,8.88-2.96c2.07-1.06,3.24-2.07,5.06-3.23
		c1.55-0.99,2.26-1,4.38-0.43c5.54,1.5,11.93,1.99,17.47-0.52C1140.66,312.42,1141.49,308.65,1137.24,306.87z"/>
	<path id="Cloud_00000053526597994392813110000017912216800894524862_" class="st0" d="M277.15,79.18c-1.43-0.6-3.12-0.61-4.34-0.67
		c-1.4-0.07-1.85-0.34-2.13-0.63c-3.54-4.77-9.17-4.8-12.49-3.31c-0.92-3.33-5.05-6.12-9.49-5.01c0.03-4.36-5.66-8.87-10.68-9.79
		c-4.82-0.88-8.98-0.34-11.62,2.89c-3.09-5.63-14.6-6.91-20.71-3.71c-3.52,1.84-6.49,3.71-7.88,7.02c-0.91,2.19-1.22,3.63-1.16,6.54
		c-2.48-2.06-7.34-2.5-10.53-1.16c-3.44,1.45-3.63,4.08-3.73,6.75c-3.44-0.76-5.71-0.14-6.34,0.07c-2.18,0.71-3.39,2.47-3.05,3.85
		c-1.74-0.05-5.83,1.47-5.31,3.29c0.59,2.04,5.31,1.7,7.07,1.58c1.46-0.1,3.34-0.54,4.91-0.92c0.49,0.22,1.78,0.44,2.58,0.41
		c3.01-0.11,4.24-1.43,4.69-2.56c1.56,3.05,6.84,5.25,10.56,6.09c7,1.58,16.81,0.22,20.94-5.1c0.48,0.92,1.25,1.77,2.14,2.46
		c1.74,1.35,4.06,2.26,6.51,2.42c2.86,0.19,10.53,0.33,12.56-4.27c1.61,2.97,8.47,4.15,13.64,3.27c1.93-0.33,4.09-1.07,5.76-1.92
		c1.34-0.69,2.1-1.34,3.28-2.1c1-0.64,1.47-0.65,2.84-0.28c3.59,0.97,7.73,1.29,11.32-0.33C279.37,82.78,279.9,80.34,277.15,79.18z"
		/>
	<path id="Cloud_00000026137275113123378570000010688156103258807175_" class="st0" d="M1036.24,443.87
		c-2.21-0.93-4.82-0.95-6.7-1.04c-2.16-0.11-2.86-0.52-3.29-0.97c-5.46-7.36-14.14-7.4-19.26-5.1c-1.42-5.13-7.79-9.44-14.63-7.73
		c0.04-6.72-8.73-13.69-16.48-15.11c-7.43-1.36-13.85-0.52-17.92,4.46c-4.76-8.68-22.52-10.66-31.95-5.72
		c-5.43,2.84-10.02,5.72-12.15,10.83c-1.41,3.37-1.89,5.6-1.79,10.08c-3.82-3.18-11.32-3.86-16.24-1.79
		c-5.31,2.23-5.6,6.29-5.75,10.41c-5.3-1.18-8.8-0.22-9.78,0.1c-3.35,1.1-5.23,3.81-4.7,5.94c-2.68-0.07-9,2.27-8.18,5.08
		c0.91,3.15,8.19,2.62,10.9,2.44c2.25-0.15,5.15-0.83,7.58-1.41c0.75,0.35,2.74,0.68,3.98,0.64c4.64-0.17,6.54-2.21,7.24-3.96
		c2.4,4.7,10.56,8.1,16.29,9.4c10.8,2.44,25.92,0.33,32.3-7.87c0.73,1.42,1.93,2.73,3.31,3.8c2.68,2.08,6.26,3.49,10.03,3.74
		c4.41,0.29,16.25,0.51,19.38-6.58c2.49,4.59,13.07,6.41,21.04,5.04c2.98-0.51,6.31-1.64,8.88-2.96c2.07-1.06,3.24-2.07,5.06-3.23
		c1.55-0.99,2.26-1,4.38-0.43c5.54,1.5,11.93,1.99,17.47-0.52C1039.66,449.42,1040.49,445.65,1036.24,443.87z"/>
	<path id="Cloud_00000018935406156107410250000016282545981191012771_" class="st0" d="M359.38,401.6c-1.77-0.76-3.87-0.8-5.38-0.89
		c-1.74-0.1-2.29-0.44-2.64-0.81c-4.34-5.96-11.32-6.05-15.45-4.24c-1.1-4.14-6.2-7.65-11.71-6.32c0.08-5.4-6.92-11.07-13.14-12.27
		c-5.97-1.15-11.13-0.52-14.45,3.46c-3.77-7.02-18.03-8.74-25.65-4.84c-4.38,2.24-8.1,4.53-9.85,8.62c-1.16,2.7-1.56,4.49-1.51,8.1
		c-3.05-2.59-9.07-3.18-13.05-1.56c-4.29,1.75-4.55,5.02-4.7,8.33c-4.26-0.99-7.08-0.24-7.87,0.01c-2.71,0.86-4.23,3.03-3.83,4.75
		c-2.16-0.08-7.25,1.76-6.62,4.02c0.71,2.54,6.56,2.17,8.75,2.04c1.81-0.1,4.15-0.63,6.11-1.08c0.6,0.28,2.2,0.57,3.2,0.54
		c3.73-0.1,5.28-1.73,5.85-3.13c1.9,3.8,8.43,6.59,13.03,7.68c8.67,2.04,20.85,0.46,26.03-6.09c0.58,1.15,1.53,2.21,2.63,3.08
		c2.14,1.69,5.01,2.85,8.04,3.08c3.55,0.26,13.06,0.53,15.63-5.15c1.97,3.71,10.46,5.25,16.88,4.21c2.4-0.39,5.09-1.28,7.16-2.32
		c1.67-0.84,2.62-1.64,4.09-2.56c1.25-0.79,1.83-0.79,3.53-0.31c4.44,1.25,9.58,1.69,14.05-0.29
		C362.09,406.09,362.79,403.06,359.38,401.6z"/>
	<path id="Cloud_00000137097956462419697510000016753637745682468005_" class="st0" d="M1798.38,322.6
		c-1.77-0.76-3.87-0.8-5.38-0.89c-1.74-0.1-2.29-0.44-2.64-0.81c-4.34-5.96-11.32-6.05-15.45-4.24c-1.1-4.14-6.2-7.65-11.71-6.32
		c0.08-5.4-6.92-11.07-13.14-12.27c-5.97-1.15-11.13-0.52-14.45,3.46c-3.77-7.02-18.03-8.74-25.65-4.84
		c-4.38,2.24-8.1,4.53-9.85,8.62c-1.16,2.7-1.56,4.49-1.51,8.1c-3.05-2.59-9.07-3.18-13.05-1.56c-4.29,1.75-4.55,5.02-4.7,8.33
		c-4.26-0.99-7.08-0.24-7.87,0.01c-2.71,0.86-4.23,3.03-3.83,4.75c-2.16-0.08-7.25,1.76-6.62,4.02c0.71,2.54,6.56,2.17,8.75,2.04
		c1.81-0.1,4.15-0.63,6.11-1.08c0.6,0.28,2.2,0.57,3.2,0.54c3.73-0.1,5.28-1.73,5.85-3.13c1.9,3.8,8.43,6.59,13.03,7.68
		c8.67,2.04,20.85,0.46,26.03-6.09c0.58,1.15,1.53,2.21,2.63,3.08c2.14,1.69,5.01,2.85,8.04,3.08c3.55,0.26,13.06,0.53,15.63-5.15
		c1.97,3.71,10.46,5.25,16.88,4.21c2.4-0.39,5.09-1.28,7.16-2.32c1.67-0.84,2.62-1.64,4.09-2.56c1.25-0.79,1.83-0.79,3.53-0.31
		c4.44,1.25,9.58,1.69,14.05-0.29C1801.09,327.09,1801.79,324.06,1798.38,322.6z"/>
	<path id="Cloud_00000086668449756807238390000006140626160926171044_" class="st0" d="M1397.38,161.6
		c-1.77-0.76-3.87-0.8-5.38-0.89c-1.74-0.1-2.29-0.44-2.64-0.81c-4.34-5.96-11.32-6.05-15.45-4.24c-1.1-4.14-6.2-7.65-11.71-6.32
		c0.08-5.4-6.92-11.07-13.14-12.27c-5.97-1.15-11.13-0.52-14.45,3.46c-3.77-7.02-18.03-8.74-25.65-4.84
		c-4.38,2.24-8.1,4.53-9.85,8.62c-1.16,2.7-1.56,4.49-1.51,8.1c-3.05-2.59-9.07-3.18-13.05-1.56c-4.29,1.75-4.55,5.02-4.7,8.33
		c-4.26-0.99-7.08-0.24-7.87,0.01c-2.71,0.86-4.23,3.03-3.83,4.75c-2.16-0.08-7.25,1.76-6.62,4.02c0.71,2.54,6.56,2.17,8.75,2.04
		c1.81-0.1,4.15-0.63,6.11-1.08c0.6,0.28,2.2,0.57,3.2,0.54c3.73-0.1,5.28-1.73,5.85-3.13c1.9,3.8,8.43,6.59,13.03,7.68
		c8.67,2.04,20.85,0.46,26.03-6.09c0.58,1.15,1.53,2.21,2.63,3.08c2.14,1.69,5.01,2.85,8.04,3.08c3.55,0.26,13.06,0.53,15.63-5.15
		c1.97,3.71,10.46,5.25,16.88,4.21c2.4-0.39,5.09-1.28,7.16-2.32c1.67-0.84,2.62-1.64,4.09-2.56c1.25-0.79,1.83-0.79,3.53-0.31
		c4.44,1.25,9.58,1.69,14.05-0.29C1400.09,166.09,1400.79,163.06,1397.38,161.6z"/>
	<g>
		<g>
			<path class="st0" d="M1446.41,117.82c0-11.2-10.12-20.03-21.71-17.86c-7.29,1.37-13.1,7.32-14.38,14.63
				c-0.8,4.57,0.14,8.87,2.23,12.41h-0.01l0.05,0.07c0.7,1.18,1.57,2.02,2.45,3.25l10.56,13.99c1.31,1.74,3.93,1.74,5.24,0
				l10.39-13.76c0,0,1.94-2.31,2.64-3.5l0.04-0.05h-0.01C1445.48,124.31,1446.41,121.17,1446.41,117.82z M1428.22,125.74
				c-4.42,0-8-3.58-8-8s3.58-8,8-8c4.42,0,8,3.58,8,8S1432.64,125.74,1428.22,125.74z"/>
		</g>
	</g>
</g>
</svg>
