<?xml version="1.0" encoding="utf-8"?>
<!-- Generator: Adobe Illustrator 26.0.0, SVG Export Plug-In . SVG Version: 6.00 Build 0)  -->
<svg version="1.1" id="Layer_1" xmlns="http://www.w3.org/2000/svg" xmlns:xlink="http://www.w3.org/1999/xlink" x="0px" y="0px"
	 viewBox="0 0 601.8 500.9" style="enable-background:new 0 0 601.8 500.9;" xml:space="preserve">
<style type="text/css">
	.st0{fill:#F6F6F7;}
	.st1{fill:#5EC2DC;}
	.st2{fill:#2E353A;}
	.st3{fill:#F1F1F2;}
	.st4{fill:#308656;}
	.st5{fill:#FDFDFD;}
	.st6{fill:#54504F;}
</style>
<path id="Cloud_00000105400231961970042190000002674345618559316365_" class="st0" d="M393.6,296.2c-1.5-0.7-3.3-0.7-4.6-0.9
	c-1.5-0.1-2-0.4-2.2-0.7c-3.6-5.2-9.6-5.4-13.2-3.9c-0.9-3.6-5.2-6.6-9.9-5.6c0.2-4.6-5.7-9.6-11-10.7c-5.1-1.1-9.5-0.6-12.4,2.7
	c-3.1-6.1-15.3-7.8-21.9-4.6c-3.8,1.8-7,3.7-8.6,7.2c-1,2.3-1.4,3.8-1.4,6.9c-2.6-2.3-7.7-2.9-11.1-1.5c-3.7,1.4-4,4.2-4.2,7
	c-3.6-0.9-6-0.3-6.7-0.1c-2.3,0.7-3.7,2.5-3.3,4c-1.8-0.1-6.2,1.4-5.7,3.3c0.6,2.2,5.6,2,7.5,1.9c1.5-0.1,3.6-0.5,5.2-0.8
	c0.5,0.2,1.9,0.5,2.7,0.5c3.2,0,4.5-1.4,5.1-2.6c1.6,3.3,7.1,5.8,11,6.8c7.4,1.9,17.8,0.7,22.4-4.8c0.5,1,1.3,1.9,2.2,2.7
	c1.8,1.5,4.2,2.5,6.8,2.8c3,0.3,11.2,0.7,13.5-4.1c1.6,3.2,8.9,4.7,14.4,3.9c2.1-0.3,4.4-1,6.2-1.9c1.5-0.7,2.3-1.4,3.5-2.1
	c1.1-0.6,1.6-0.6,3-0.2c3.8,1.1,8.2,1.6,12,0C395.8,300,396.4,297.5,393.6,296.2z"/>
<g>
	<g>
		<g>
			<g>
				<g>
					<g>
						<g>
							<path class="st1" d="M193.9,493.5c22.5-15.6,27.7-44.7,26.9-70.9c-0.1-4.4,0.4-9-1.7-12.8c-2.1-3.8-6.9-6.5-10.8-4.7
								c-3.2,1.5-4.7,5.3-6.5,8.4c-2.4,4.2-6,7.6-10.3,9.8c-2.8,1.4-6.2,2.3-9,0.8c-3.8-2.1-4.2-7.3-4.2-11.7
								c0.1-8.1,0.2-16.2,0.2-24.3c0-4.3,0.1-8.8-1.3-12.9c-1.3-4.1-4.3-8-8.4-9.1s-9.2,1.2-10.1,5.4c-0.4,1.8,0,3.6-0.1,5.4
								c-0.1,1.8-1,3.8-2.7,4.3c-1.7,0.5-3.5-0.7-4.8-2c-4.5-4.4-7.5-10.1-10.3-15.7s-5.6-11.4-9.6-16.2c-4-4.8-9.7-8.6-15.9-9
								c-6.2-0.4-12.9,3.4-14.5,9.5c-1.6,6.1,2,12.4,5.8,17.3c5.7,7.4,12.5,13.9,20.1,19.3c1.4,1,2.9,2,3.4,3.6
								c0.9,2.9-1.8,5.8-4.7,6.7c-3.2,1.1-6.8,0.7-10.1,1.1c-3.4,0.4-7.1,1.9-8.4,5.1c-1.8,4.4,1.9,9.1,5.5,12.2
								c7.3,6.1,15.6,11,24.5,14.3c3.2,1.2,6.5,2.2,9.1,4.5c2.6,2.3,4.1,6.2,2.5,9.2c-1.6,3.1-5.6,4-8.9,3.4
								c-3.4-0.6-6.3-2.5-9.5-3.7c-6-2.3-13.7-1.9-17.5,3.3c-2.5,3.4-2.8,8.1-1.5,12.2c1.3,4,3.8,7.5,6.5,10.8
								c9.5,11.3,21.8,20.3,35.6,25.2C167.2,497.1,180.1,498.4,193.9,493.5"/>
						</g>
					</g>
				</g>
			</g>
		</g>
		<g>
			<g>
				<g>
					<g>
						<g>
							<path class="st2" d="M192.4,500.8c-0.9-10.4-1.4-10.6-5.2-23.8c-3.8-13.2-9.2-27.4-15.3-42c-1.5-3.6-3.1-7.2-4.6-10.8
								c-1.5-3.5-3-7-4.7-10.4c-3.3-6.7-7-12.9-10.7-18.7c-3.7-5.8-7.4-11.1-11-16.1c-3.5-5-6.9-9.5-10.2-13.5
								c-6.5-8.1-12.5-14-16.8-17.9c-2.1-2-3.8-3.4-5-4.4c-0.6-0.5-1-0.8-1.3-1.1c-0.3-0.2-0.5-0.4-0.5-0.4c0,0,0.1,0.1,0.4,0.4
								c0.3,0.3,0.8,0.7,1.3,1.2c1.1,1,2.8,2.5,4.9,4.5c4.2,3.9,10.1,9.9,16.5,18c3.2,4,6.6,8.6,10.1,13.6c3.5,5,7.2,10.3,10.9,16.1
								s7.4,11.9,10.7,18.6c1.7,3.3,3.1,6.8,4.7,10.4c1.5,3.5,3,7.2,4.6,10.8c6.1,14.6,11.5,28.7,15.3,41.9
								c3.9,13.2,4.4,13.3,5.3,23.6"/>
						</g>
					</g>
				</g>
			</g>
		</g>
		<g>
			<g>
				<g>
					<g>
						<g>
							<path class="st2" d="M162.3,413.8c0,0,0.2-0.7,0.4-1.8c0.2-1.2,0.5-3,0.8-5.1c0.6-4.3,1.3-10.3,2-17
								c0.7-6.6,1.5-12.6,2.2-16.9c0.3-2.1,0.6-3.9,0.8-5.1c0.2-1.2,0.3-1.9,0.2-1.9c0,0-0.2,0.6-0.5,1.8c-0.3,1.2-0.7,2.9-1.1,5.1
								c-0.8,4.3-1.7,10.3-2.4,16.9c-0.7,6.5-1.3,12.5-1.8,17c-0.2,2-0.4,3.8-0.6,5.1C162.3,413.1,162.3,413.8,162.3,413.8z"/>
						</g>
					</g>
				</g>
			</g>
		</g>
		<g>
			<g>
				<g>
					<g>
						<g>
							<path class="st2" d="M106.5,403.2c0,0,0.8,0.2,2.2,0.3c1.4,0.1,3.5,0.3,6.1,0.6c5.1,0.6,12.1,1.6,19.9,3.1
								c7.7,1.5,14.6,3.2,19.6,4.5c2.5,0.7,4.5,1.2,5.9,1.6c1.4,0.4,2.2,0.6,2.2,0.5c0,0-0.7-0.3-2.1-0.8c-1.4-0.5-3.3-1.2-5.8-1.9
								c-5-1.5-11.9-3.2-19.6-4.7c-7.7-1.5-14.8-2.4-20-2.9c-2.6-0.2-4.7-0.3-6.1-0.4C107.3,403.1,106.5,403.1,106.5,403.2z"/>
						</g>
					</g>
				</g>
			</g>
		</g>
		<g>
			<g>
				<g>
					<g>
						<g>
							<path class="st2" d="M186.5,476c0,0,0.2-0.2,0.4-0.7c0.3-0.5,0.6-1.2,1-2c0.8-1.8,2-4.3,3.3-7.5c2.7-6.4,6.2-15.3,9.9-25.3
								c3.7-9.9,7.1-18.9,9.7-25.3c1.3-3.1,2.3-5.7,3.1-7.6c0.3-0.8,0.6-1.5,0.8-2.1c0.2-0.5,0.3-0.7,0.2-0.8c0,0-0.2,0.2-0.4,0.7
								c-0.3,0.5-0.6,1.2-1,2c-0.8,1.8-2,4.3-3.3,7.5c-2.7,6.4-6.2,15.3-9.9,25.3c-3.7,9.9-7.1,18.9-9.7,25.3
								c-1.3,3.1-2.3,5.7-3.1,7.6c-0.3,0.8-0.6,1.5-0.8,2.1C186.5,475.7,186.4,476,186.5,476z"/>
						</g>
					</g>
				</g>
			</g>
		</g>
		<g>
			<g>
				<g>
					<g>
						<g>
							<path class="st2" d="M112.3,451.8c0,0,0.2,0.1,0.7,0.3c0.6,0.2,1.3,0.4,2.1,0.7c2,0.7,4.7,1.5,7.9,2.6
								c6.7,2.2,15.9,5.3,26.1,8.8c10.2,3.5,19.5,6.6,26.2,8.6c3.4,1,6.1,1.8,8,2.4c0.9,0.2,1.6,0.4,2.2,0.6
								c0.5,0.1,0.8,0.2,0.8,0.2c0,0-0.2-0.1-0.7-0.3c-0.6-0.2-1.3-0.4-2.2-0.7c-2-0.7-4.7-1.5-7.9-2.6c-6.7-2.2-15.9-5.3-26.1-8.8
								c-10.2-3.5-19.5-6.5-26.2-8.6c-3.4-1-6.1-1.8-8-2.4c-0.9-0.2-1.6-0.4-2.2-0.6C112.6,451.8,112.3,451.8,112.3,451.8z"/>
						</g>
					</g>
				</g>
			</g>
		</g>
	</g>
	<g>
		<g>
			<path class="st3" d="M301.5,315c0-7.2-6.5-12.8-13.9-11.4c-4.7,0.9-8.4,4.7-9.2,9.4c-0.5,2.9,0.1,5.7,1.4,8h0l0,0
				c0.5,0.8,1,1.3,1.6,2.1l6.8,9c0.8,1.1,2.5,1.1,3.4,0l6.7-8.8c0,0,1.2-1.5,1.7-2.2l0,0l0,0C300.9,319.2,301.5,317.2,301.5,315z
				 M289.8,320.1c-2.8,0-5.1-2.3-5.1-5.1c0-2.8,2.3-5.1,5.1-5.1s5.1,2.3,5.1,5.1C294.9,317.8,292.6,320.1,289.8,320.1z"/>
		</g>
	</g>
	<g>
		<g>
			<polygon class="st4" points="582.8,385.8 601.8,324.5 589.8,305.5 531.3,305.5 485.8,260.1 485.8,246.3 476,246.3 447.6,217.9 
				447.6,188.8 418.1,159.3 418.1,143.4 400.1,125.4 380.6,125.4 364.6,109.3 302.7,109.3 175.9,20.9 152.4,14.4 140.6,21.2 
				91.6,37.3 115,60.6 85.7,90 68.9,106.8 37,106.8 14.4,129.4 50.3,165.3 72.5,187.6 72.5,217.1 131,275.6 147.8,292.4 
				147.8,334.9 194.7,381.7 194.7,409.3 222.7,437.3 222.7,448.5 257.7,483.4 266.8,483.4 266.8,452.4 281.8,467.4 320.2,467.4 
				341.7,467.4 354,479.7 367.4,479.7 427.3,419.8 473.6,419.8 			"/>
			<g id="XMLID_44_">
				<path id="XMLID_85_" class="st5" d="M373.3,327c-0.4-0.2-0.8-0.3-1.2-0.4c-1.3-0.3-2.8-0.1-4.1-0.1c-1.5,0-3,0-4.5,0
					c-3,0-6-0.1-9-0.1c-0.2,0-3.1-0.1-3.1,0c0-0.2,0-0.3,0-0.5c0-0.6,0.7-0.4,1.1-1.3c0.4-0.9-0.6-2.5-1.6-2.4c-0.1,0-0.3,0-0.4,0
					c-0.2-0.1-0.2-0.3-0.2-0.5c0-1.2-1.6-1.7-2.5-1c-0.9,0.6-1,1.7-0.8,2.7c0.1,0.5,0.3,1,0.5,1.5c0,0.1,0.5,1.5,0.4,1.5l-135-1.6
					c5.2,9.3,16.7,8.4,16.7,8.4s101.8,0,117.7,0c0.1,1.4,0.3,2.9,0.5,4.3c0.2,0.8,0.4,1.6,0.8,2.4c0.5,1,1.3,1.4,2.4,1.2
					c0.6-0.1,1-0.7,1.2-1.3h16.6c0.3,0,0.6,0.5,0.8,0.7c0.2,0.3,0.5,0.6,0.8,0.8c1,0.7,1.9,0.5,3,0.5c1.6,0,3.4-1.4,3.4-7.7
					C376.9,331,375.8,328.3,373.3,327z M368.4,335.9c-0.8,0.8-5.2,0.5-5.2,0.5s-0.8-1.5-2-1.5s-2.2,1-2.5,1.3s-6.7,0.1-6.7,0.1
					s-1.1-1.3-0.1-3H368C368,333.3,369.2,335.1,368.4,335.9z"/>
				<g id="XMLID_45_">
					<path id="XMLID_84_" class="st5" d="M186,245.5c-0.7-0.2-2.8,3.8-3.8,8.2c-0.7,3.4-0.3,5.1-0.1,5.8c0.2,0.8,1.3,4.5,3.7,4.7
						c2,0.2,3.6-2.3,4.2-3.9c0.7-2,0.3-4.2-0.3-4.4c-0.5-0.1-1,1-2.3,1.1c-0.2,0-0.9,0.1-1.3-0.3c-0.8-0.6-0.4-2.4-0.2-3.5
						C186.6,249.9,186.6,245.7,186,245.5z"/>
					<path id="XMLID_82_" class="st5" d="M202.7,228c0.1-0.8-1.9-2-3.7-2.3c-1.9-0.3-3.4,0.3-4.7,0.8c-4.3,1.8-6.4,5.2-8.6,8.8
						c-0.6,1-0.7,1.2-0.6,1.4c0.9,1.4,11.5-5.9,16.5-7.8C202,228.7,202.7,228.5,202.7,228z"/>
					<path id="XMLID_81_" class="st5" d="M190.4,193c-0.8-1-2.4-2.7-2-4c0.2-0.7,0.9-1.2,1.5-1.4c1.5-0.4,2.8,1.3,3,1.5
						c2.2,2.6,0.6,6.6,0.5,7c-0.4,1-1.1,2.2-1.6,2.1c-0.5-0.1-0.5-1.8-0.6-2.3c0-1,0.1-1.5-0.2-2.2
						C190.8,193.5,190.6,193.3,190.4,193z"/>
					<path id="XMLID_80_" class="st5" d="M183.6,199.7c-0.6,2.9,0.1,7.1,0.1,7.1c0.8,4.3,0,4.1,0.9,7.4c0.7,2.4,1.3,4.7,3.2,5.4
						c1.4,0.5,2.7-0.2,2.8-0.2c2.2-1.1,2.6-4.3,2.8-5.9c0.3-2.6-0.3-3.4,0.3-5.6c0.4-1.4,1.3-3.1,1.8-3c0.7,0.2-0.1,4.6,0.8,11.6
						c0.3,3,0.8,4.3,1.9,5c1.4,0.9,3,0.3,4.4,1.6c0.6,0.6,0.8,1.3,1,2c1,3.7,0.5,7.7,0.6,12c0.1,5.3,0.8,5.7,1,5.8
						c1,0.3,2.4-1.5,3.1-2.7c0.5-0.9,1.5-2.8,1.3-8.3c-0.1-3.4-0.1-5.5-0.6-8.3c-0.4-2.4-0.9-4.4,0.2-5.5c0.7-0.6,1.7-0.6,2-0.6
						c1.5,0,2,1,3.5,1.6c2.1,0.8,4.3-0.2,5-0.5c0.5-0.2,2.4-1.1,3.5-3.1c1-1.7,1.3-3.4,0.8-6.3c-0.6-3.4-1-4.6-1.7-6.1
						c-0.1-0.2-0.3-1.3-0.1-1.7c0.2-0.2,0.6-0.1,0.9-0.4c0.2-0.2,0.4-0.5,0.3-1.3c-0.2-2.4-1.6-3.8-1.6-3.8
						c-0.8-0.8-2.8-2.4-4.4-1.7c-1.5,0.7-1.6,3-1.7,3.9c-0.2,3.3,1.5,6.4,2.2,7.7c1.1,2,2.2,3.1,1.9,4.7c0,0.2-0.2,1.2-1,1.5
						c-1,0.5-2.2-0.4-3.1-1c-0.9-0.6-2.1-1.5-2.7-3c-0.8-2,0.4-2.7,0.2-6.2c-0.2-3.5-1.5-4.9-1.8-5.2c-0.3-0.4-1.1-1.1-2.1-1
						c-2.7,0.2-2.4,3.7-2.2,5.6c0.1,1.1,0.3,2.2,0.6,3.3c0.1,0.5,0.3,1,0.5,1.4c0.6,1.6,1.4,3.2,0.7,4.1c0,0-0.3,0.5-0.7,0.4
						c-0.6-0.1-0.9-1.3-1.2-2.5c-0.6-3-0.7-5.3-0.8-5.5c0,0-0.2-3-0.8-6.2c-0.5-2.8-1.4-7.4-3.2-7.6c-1-0.1-2,1-2.5,2
						c-0.7,1.6,0.1,3.1,0.9,6c0.7,2.6,0.1,2.1,0.9,6.3c1,5.5,2.1,7.6,0.8,9.5c-0.1,0.1-0.8,1.1-1.4,1c-1-0.2-1.2-2.8-1.3-3.9
						c-0.2-2,0-2.8,0.2-6.5c0.1-2.9,0-3.8-0.6-4.6c-0.1-0.1-1.2-1.6-2.5-1.5c-1.3,0.1-2,1.5-3,3.3c-0.9,1.7-2,3.7-2.3,6.7
						c-0.3,2.8,0.3,4.4-0.8,5.2c-0.5,0.4-1.3,0.5-1.9,0.2c-1.3-0.5-1.6-2.5-2-5.5c-0.4-2.6-0.2-3.5-0.9-5.2c0,0-0.4-1.9-1.3-2.2
						c-0.1,0-0.3-0.1-0.6,0C183.9,199.3,183.6,199.4,183.6,199.7z"/>
					<path id="XMLID_79_" class="st5" d="M209.1,189.4c-0.7,0.9-0.2,2.2-0.1,2.7c0.1,0.4,0.7,1.7,2,2.4c1.5,0.8,2.9,0.3,3.7,0.1
						c0.7-0.2,1.9-0.6,2.6-1.7c0.5-0.9,0.5-1.7,0.5-2.3c0-0.5,0-1.9-0.6-2.1c-0.4-0.1-1.1,0.3-1.4,0.8c-0.3,0.5-0.2,1-0.5,1.1
						c-0.3,0.1-0.6-0.1-0.8-0.4c-0.5-0.6-0.2-1.2-0.5-1.5c-0.3-0.3-1.1-0.1-1.4,0.3c-0.5,0.5-0.1,1.5-0.4,1.6
						c-0.2,0.1-0.5-0.3-0.7-0.6c-0.5-0.6-0.4-0.9-0.7-1.1C210.3,188.4,209.5,188.8,209.1,189.4z"/>
					<path id="XMLID_76_" class="st5" d="M252.2,221c-0.3-0.6-1.5-0.7-2.3-0.5c-0.2,0.1-1,0.2-1.5,0.9c-0.4,0.6-0.1,1.1-0.6,2
						c-0.2,0.2-0.5,0.8-0.8,0.8c-0.4,0-0.4-0.9-1-1.6c-0.7-0.8-2.2-1.1-3.1-0.6c-0.5,0.3-0.5,0.6-1.9,2.7c-0.7,1-0.9,1.2-1.2,1.4
						c-0.7,0.4-1.9,0.5-2.4-0.1c-0.7-0.7,0.1-1.6-0.6-2.9c-0.5-0.9-1.5-1.5-2.4-1.5c-0.9,0-1.1,0.6-1.5,0.5c-1-0.2-0.7-3.7-1.3-8.5
						c-0.5-4.2-0.8-6.3-1.3-7.9c-0.5-1.5-1-3-0.3-3.7c0.8-0.9,2.5,0.2,3.2-0.5c0.6-0.7-0.6-2.1-1.9-5.6c-0.9-2.6-1.3-4.9-2.8-6.2
						c-0.8-0.7-1.4-0.7-1.6-0.7c-0.8,0-1.4,0.4-1.6,0.6c-0.6,0.3-1.5,0.8-1.8,1.6c-0.4,1.1,0.1,2.2,0.3,2.7c0.9,2.2,0.7,4.7,1.2,7
						c0.5,2.5,0.1,1.5,1.5,9.5c0.4,2.2,0.6,3.9,1,7.1c0.8,5.5,0.9,7.5-0.2,8.2c-0.8,0.5-1.9,0.1-2.2,0c-1.9-0.7-1.7-2.7-3.4-3.5
						c-1.6-0.8-3.7,0.2-4.8,0.8c-1,0.5-3,1.8-4.1,4.3c-0.2,0.5-2,4.6,0.5,7.4c1.4,1.5,3.7,2.3,5.6,1.8c1.6-0.5,2.9-1.9,3.4-1.5
						c0.2,0.1,0.1,0.5,0.1,0.6c-0.5,3.2-1.5,4.8-1.5,4.8c-1.6,2.3-3.6,3.5-5.1,4.4c-3.2,1.9-5.2,3-7.5,2.5c-2.2-0.5-4.3-2.3-5.1-4.5
						c-0.8-2.4,0.3-4.3-1.3-7.2c-0.6-1.1-0.9-1.2-1.1-1.2c-1.1,0-1.8,3.5-2,5.3c-0.3,2.2-0.7,4.8,0.6,7.8c1.4,3.2,3.9,4.9,4.4,5.2
						c3.3,2.1,6.6,1.8,7.7,1.7c3.8-0.4,6.3-2.3,7.7-3.4c1.4-1.1,4.9-3.9,6-8.3c0.8-3.4-0.1-6.3,2-8c0.2-0.1,0.9-0.7,1.3-0.5
						c0.9,0.5,0.2,3.7-0.1,5c-0.5,2.4-1.2,5.4-3.5,8.9c-1.2,1.8-3,4.6-6.6,6.7c-4.1,2.4-7.9,2.5-8.8,2.5c-1.9,0-6.8,0-9.4-3.2
						c-1.2-1.5-1.7-3.3-1.8-3.9c-0.6-2.4-0.2-4.2-1.5-6.5c-0.6-1-0.9-1-1-1c-1.2,0.1-1.7,5.3-1.7,5.8c-0.2,2.6-0.5,4.9,0.5,7.8
						c0.4,1.2,1.5,4.4,4.5,6.4c2.6,1.7,5.2,1.7,9,1.6c5.6-0.1,9.6-1.9,11.1-2.6c3.6-1.7,6-3.9,7-4.8c1.6-1.5,4.2-4,5.6-8.1
						c0.9-2.5,0.9-4.7,1-6.2c0.1-4-0.7-9.4,0.1-9.8c0.3-0.1,0.5-0.1,0.5-0.1c0.4,0,0.6,0.3,0.8,0.5c0.3,0.3,0.7,0.3,1.5,0.5
						c1.2,0.2,2.1,0,2.4-0.1c0.7-0.2,1.2-0.5,1.9-0.9c1.3-0.8,1.4-1.1,2.2-1.3c0.5-0.2,0.9-0.1,2.3,0.1c3.3,0.5,3.4,0.6,3.7,0.5
						c1.5-0.2,2.7-1.4,3.3-2.6c1.4-2.6-0.5-5.2,0.8-7.5C252.1,221.9,252.3,221.4,252.2,221z M219.7,230.9c-0.5,0.6-1.8,0.5-2.5-0.2
						c-0.5-0.5-0.8-1.4-0.3-2.1c0.5-0.7,1.5-0.8,2.2-0.4c0.7,0.4,0.8,1.2,0.9,1.4C219.9,229.9,220,230.5,219.7,230.9z"/>
					<path id="XMLID_75_" class="st5" d="M240.1,239.3c1.2,1.6,1.7,1.5,2.1,2.3c0.8,1.7-0.9,3.4-0.2,4.1c0.3,0.3,1,0.2,1.4,0.1
						c1.4-0.6,1.3-3.2,1.3-4c0-0.8-0.1-2.7-1.5-4.4c-0.5-0.6-1.4-1.6-2.5-1.5c-0.7,0.1-1.4,0.8-1.5,1.6
						C239.3,237.8,239.3,238.2,240.1,239.3z"/>
					<path id="XMLID_74_" class="st5" d="M306.5,255.5c0.1-0.9,0.2-2.2-0.4-2.6c-0.6-0.4-1.5,0.1-2.4,0.5c-0.7,0.4-3,1.5-2.7,2.7
						c0.1,0.6,0.9,1.2,1.6,1.3c0.6,0.1,0.9-0.3,1.2-0.1c0.4,0.3-0.2,1.2,0.2,2.3c0.2,0.6,0.8,1.2,1.3,1.5c0.9,0.4,1.8-0.1,3-0.6
						c3.8-1.5,5.5-0.9,5.9-2.1c0.3-0.7-0.1-1.8-0.7-2.2c-0.9-0.6-2.5-0.1-4.8,0.7c-1.4,0.5-2.1,0.9-2.4,0.5
						C306.1,257.3,306.4,256.8,306.5,255.5z"/>
					<path id="XMLID_73_" class="st5" d="M247.7,209.5c0.1-0.5,0.2-0.8,0.2-1.3c0-0.1-0.1-0.8-0.5-1c-0.6-0.3-1.6,0.6-2.2,1.5
						c-0.7,1-1,2.7-0.1,4.2c0.2,0.3,0.9,1.4,2.3,1.7c1.2,0.3,2.5-0.1,3.2-0.8c0.7-0.6,1.2-1.6,1-2c-0.2-0.2-0.5,0-1.6,0
						c-1,0-1.7,0-2-0.4C247.4,210.9,247.6,209.9,247.7,209.5z"/>
					<path id="XMLID_72_" class="st5" d="M282.8,219.7c-0.4-0.3-1.1-0.6-1.6-0.3c-0.7,0.4-0.2,2.2-0.2,2.3c0.3,1.1,1.2,2.4,2.7,3
						c0.3,0.1,2,0.8,3.5-0.1c1-0.6,1.4-1.5,1.6-1.9c0.6-1.3,0.8-3.3-0.1-3.7c-0.6-0.3-1.6,0.1-2,0.8c-0.3,0.5-0.3,1-0.5,1
						c-0.2,0-0.1-1.1-0.8-1.5c-0.3-0.2-0.6-0.2-0.9-0.1c-0.6,0.3-0.4,1.3-0.8,1.4C283.6,220.6,283.4,220.1,282.8,219.7z"/>
					<path id="XMLID_69_" class="st5" d="M252.9,191.5c0.1-1.2-0.8-2.6-2-3.2c-1.6-0.8-3.7-0.2-4.7,1.1c-1,1.3-1,3.2-0.3,4.3
						c0.6,0.9,1.7,1.4,2,2.4c0.2,0.5,0,0.9,0,1c-0.2,0.4-0.5,0.6-0.6,0.7c-1.5,1.1-2.4,2.9-6.1,5.1c-2.7,1.6-3,2.2-5.3,3.5
						c-0.5,0.3-1.6,1.4-1.3,2c0.5,1.1,4.3,1,6.8,0c3.1-1.3,2.4-2.9,6.9-6.5c1.8-1.5,4.1-2.9,3.8-4.3c-0.1-0.5-0.6-1-0.6-2
						c0-0.2,0-0.6,0.3-1.5C252.5,192.3,252.8,192.2,252.9,191.5z M250.1,194.1c-0.5,0.3-1.4,0-1.8-0.6c-0.4-0.5-0.6-1.5-0.2-1.9
						c0.5-0.4,1.3-0.1,1.7,0.3C250.6,192.5,250.7,193.7,250.1,194.1z"/>
					<path id="XMLID_68_" class="st5" d="M255.5,193.8c-1.1,0.2-1.2,5.2-0.9,8.7c0.4,4.6,0.9,10.2,4.5,11.7c1.5,0.6,3.8,0.7,5.1-0.4
						c1.6-1.4,0.7-3.4,2.3-7.5c0.6-1.6,1.7-3.5,2.2-3.4c0.7,0.2-1.1,4.2,0.5,8.5c0.1,0.3,2,5.1,5.6,5.6c3.2,0.5,6.7-2.5,7.2-2.9
						c1.5-1.2,2.5-2.7,3.9-2.4c0.7,0.1,1,0.5,1.5,1c0.4,0.4,3.9,3.7,6.8,3.2c2.1-0.3,3.6-2.7,3.8-3c0.9-1.5,0.9-2.8,1.7-3
						c0.6-0.1,1.3,0.5,1.6,1c0.4,0.7,0.1,1.3,0.5,1.7c0.5,0.4,1.5,0.1,1.7,0c1.9-0.7,2.6-2.8,3-3.8c0.3-0.8,0.8-2.2,0.2-2.6
						c-0.4-0.3-1,0.1-2.6,0.5c-1.4,0.3-2.1,0.5-2.6,0.4c-0.9-0.2-1.5-1-2.3-2.6c-2.2-4-3.4-6.3-2.5-8c0.1-0.2,0.8-1.3,1.6-1.3
						c0.4,0,0.6,0.3,0.8,0.2c0.5-0.3,0.1-4.1-2.4-6.4c-0.6-0.6-2.2-2-3.7-1.6c-2.1,0.5-2.8,3.9-2.8,5.6c-0.1,1.9,0.8,3.5,2.2,6
						c1.2,2.1,1.5,2.2,1.9,3.5c0.5,1.6,0.8,4.7-0.8,5.7c-1,0.6-2.5,0.2-3.5-0.4c-1.7-1.1-2-3.2-2.5-6.4c-0.3-2.1-0.4-3.9-0.5-6.8
						c-0.1-2.1-0.1-3.5-0.6-5.5c-0.4-1.3-0.9-3.2-2-3.3c-1.2-0.1-2.2,2-2.5,2.4c-0.8,1.6-0.8,3.2-0.8,3.8c0.1,2,0.9,2.4,1.5,4.9
						c0.5,2,0.3,3.6,0.3,4.3c-0.2,2-0.3,4.6-2.3,6.2c-0.3,0.3-1.8,1.5-3.6,1.2c-1.9-0.4-2.8-2.2-3.1-2.7c-0.8-1.6-0.5-2.7-0.3-6.8
						c0.2-6-0.5-6.9-1-7.2c-1.1-0.7-2.7-0.1-3.1,0.1c-4.4,1.8-5.5,9.3-5.6,10.6c-0.1,0.6-0.2,0.9-0.3,1.5c-0.5,2.1-0.8,3.6-1.6,3.8
						c-0.8,0.2-1.7-1.1-2-1.6c-0.6-0.8-1.3-2.2-1.7-5.4c-0.4-3.3,0-4.7-1.2-6.5C256.5,194.5,256,193.7,255.5,193.8z"/>
					<path id="XMLID_67_" class="st5" d="M262.7,186.1c-1.5,0.4-2.5,2.8-2.6,3.1c-0.3,0.7-0.7,1.8-0.5,3.2c0.1,0.7,0.3,1.7,1,2.1
						c0.9,0.4,2-0.3,2.4-0.8c0.4-0.4,1-1.3,0.7-1.7c-0.3-0.4-1-0.1-1.5-0.6c-0.5-0.6-0.2-1.7-0.1-1.9c0.3-1,1-1.2,1.3-2.4
						c0.2-0.7,0-0.9,0-1C263.2,186,262.8,186.1,262.7,186.1z"/>
					<path id="XMLID_66_" class="st5" d="M276.6,186.7c-0.3,0.2-1.3,1-1.6,3.6c-0.2,1.6,0,1.5-0.1,4c-0.1,1.4,0.5,2.1,0.8,2.2
						c0.4,0.2,1.2-0.8,1.4-1c1.5-1.8,1.5-4,1.5-6.8c0-1,0-1.7-0.5-2C277.7,186.6,277,186.5,276.6,186.7z"/>
					<path id="XMLID_63_" class="st5" d="M334.6,237.1c-2.6-6.5-6-11-7.1-12.9c-2.5-4.1-4.9-8.1-7.4-12c-0.4-4.2-0.7-7.9-1-10
						c0.2-0.8,0.6-1,0.6-1c0.4-0.2,0.7,0.1,1,0c0.6-0.3,0.1-2.3,0.1-2.3c-0.8-3-2.4-4.5-5.8-9.1c-0.5-0.6-1.1-1.8-1.9-1.7
						c-1,0.1-1.6,2.3-1.7,3.8c-0.2,1.4,0,2.6,0.3,3.7c-0.6-1.3-2.2-3.1-2.5-3.5c-0.3-0.4-1.8-2.1-4.1-4c-2.5-2-3.2-1.9-3.5-1.8
						c-0.7,0.3-0.9,1.1-1.2,2.5c-0.3,1.2-0.7,3,0.1,5c0.3,0.8,0.7,1.3,1,1.6c5.4,6.4,9.8,12.4,13.5,18c1.3,14.2,1.8,32.3,1.6,37
						c-0.1,1.7-0.3,5.9,0.9,6.3c1.1,0.3,2.7-2.3,3.5-3.6c2.4-3.9,1.7-7.3,1.4-10.5c0,0-0.6-9.4-1.4-19.4c1.4,2.4,2.6,4.7,3.6,6.8
						c4.4,8.9,9.1,17.3,9.9,17.5C335.8,248.1,336.3,241.5,334.6,237.1z M309.9,197.3c-0.1-0.1-0.3-0.4-0.2-0.5
						c0.2-0.4,1.8,0.4,2.1,0c0,0,0.1-0.1,0.1-0.2c0.4,1.1,0.8,1.9,0.9,2.2c0.3,1.1,0.5,2.4,0.8,3.8
						C312.4,200.8,311.2,199.1,309.9,197.3z"/>
					<path id="XMLID_62_" class="st5" d="M322.6,191c-0.1,1.2,1.1,1.6,2.3,3.9c0.2,0.5,0.9,1.7,1.1,3.4c0.3,2-0.1,3.3,0.3,3.4
						c0.4,0.2,1.6-1.3,2.2-3c0.1-0.2,1.5-4.1-0.8-7.6c-0.5-0.8-1.6-2.5-3-2.4C323.6,188.9,322.7,189.9,322.6,191z"/>
					<path id="XMLID_61_" class="st5" d="M324.6,207.7c-0.5-0.5-0.3-1.2-0.7-1.3c-0.4-0.2-1.2,0.5-1.6,1.3c-0.5,1.1-0.2,2.5,0.6,3.4
						c1.3,1.6,3.5,1.3,4,1.2c0.4-0.1,2.3-0.3,3.3-1.9c0.7-1,1-2.6,0.3-3.5c-0.3-0.3-0.8-0.6-1.1-0.5c-0.5,0.2-0.3,1.4-0.7,1.5
						c-0.3,0.1-0.8-0.5-1-0.8c-0.4-0.6-0.3-1.1-0.6-1.2c-0.3-0.1-1,0.4-1.3,1c-0.2,0.5-0.2,0.8-0.4,0.9
						C325.2,208.1,324.8,207.9,324.6,207.7z"/>
					<path id="XMLID_60_" class="st5" d="M360,212.8c-0.7-0.3-0.6-1.1-1.2-1.5c-0.7-0.5-2-0.2-2.7,0.5c-0.8,0.8-0.7,2.1-0.6,2.5
						c0.1,0.7,0.4,1.8,4.1,5.2c2.7,2.4,3.3,2.5,3.7,2.3c0.5-0.2,0.7-1,0.8-1.9c0.5-2.7-0.7-4.1,0.2-5c0.5-0.6,1.3-0.4,2-1.3
						c0.4-0.5,0.5-1,0.5-1.3c0.2-1.1,0-3.3-1.6-4.1c-1-0.5-2.4-0.4-3,0.4c-0.9,1.2,0.7,3.3-0.2,4c-0.4,0.3-1.2,0.3-1.3,0.3
						C360.6,212.9,360.3,212.9,360,212.8z"/>
					<path id="XMLID_59_" class="st5" d="M383.1,258.6c0.1-0.9,0.8-1.1,0.8-1.6c0-0.8-1.5-1.9-3.1-1.7c-1,0.1-2.2,0.8-2.2,1.4
						c0,0.8,1.9,0.8,2.3,2.1c0.2,0.6,0,1.2-0.2,1.6c-0.7,1.6-2.3,1.7-2.4,2.7c0,0.6,0.5,1.3,1.1,1.6c1,0.4,1.7-0.8,4.5-1.9
						c1.5-0.6,2.3-0.7,2.4-1.3c0.1-0.5-0.2-1.3-0.8-1.6c-0.9-0.5-1.8,0.3-2.4-0.3C383.1,259.2,383.1,258.8,383.1,258.6z"/>
					<path id="XMLID_58_" class="st5" d="M352.7,236.3c0,0-0.8-6.4-2.8-21.6c-0.6-4.5-1.5-9-1.9-13.5c0.4-0.1,0.8,0,1.2,0
						c0.5,0,1.6,0.1,1.9-0.3c0.5-0.5-0.5-1.7-0.7-2.2c-0.5-1-1.1-2-1.6-3c-0.8-1.6-1.7-3.1-2.5-4.7c-0.3-0.6-1.1-3.1-2-3
						c-1.1,0-1.9,4.7-2.1,7.7c-0.4,5.8,0.7,10.3,0.9,11.2c2.2,8.5,4.8,24.1,5.5,38.5c0.2,3.3-0.6,8.2,0.6,8.5
						c0.9,0.2,2.5-2.4,3.2-4.2C354.5,244.8,353.4,240.2,352.7,236.3z"/>
					<path id="XMLID_57_" class="st5" d="M334.2,188.9c-2.2,3.4-2.2,6.8-2.2,6.8c0,3.3,0.9,3.9,1.3,9.1c0.1,1.2,0.1,2,0.2,2.8
						c0.8,16.5,2.1,23.2,2.6,29.8c0.2,2.9,1.2,4.9,0.7,10.1c-0.1,1.6-1.2,2.7-2.4,4.2c-1.4,1.8-9.3,7.5-13,9.5
						c-0.5,0.2-1.5,0.3-1.7,0.9c-0.2,0.6,1,1.8,1.9,2.3c2.8,1.7,6.6,0.1,7.7-0.4c5.6-2.4,8.2-7.7,9.3-9.9c1.6-3.3,2.2-6.4,2.6-9.9
						c1.8-16.9-2.4-32.8-2.4-32.8s-2.6-9.9-0.9-10.5c0.2-0.1,0.6,0.1,1-0.1c0.7-0.3,0.8-1.4,0.8-1.7c0.2-1.5-0.6-2.7-1-3.5
						c-2.5-4.4-2.8-7.4-3.8-7.3C334.5,188.5,334.3,188.8,334.2,188.9z"/>
					<g id="XMLID_50_">
						<path id="XMLID_56_" class="st5" d="M369.8,227.6c1.2-1.2,1.3-5.6,0-5.2c-0.2,0.1-9.2,6-10.2,6.9c-1,1-1.6,1.6-1.6,2.7
							s-0.3,2.4,0,2.7C358.3,235.1,368.6,228.8,369.8,227.6z"/>
						<path id="XMLID_55_" class="st5" d="M366.6,231c-0.6,0.6-0.2,3.9,0.3,4.8c0.5,0.9,0.8,6,0.8,6.5c0,0.5,0.5,2.4,1.4,1.6
							c0.8-0.8,2.3-3.7,2.3-5c0-1.4-1.7-6.6-2.3-7.9C368.8,230.5,367.2,230.4,366.6,231z"/>
						<path id="XMLID_54_" class="st5" d="M390.6,201.6c0.1,0.9,0.3,2.2,0.3,3.8c0.1,2.4-0.1,3.5,0.2,3.6c0.4,0.1,1.7-1.9,2.1-4.1
							c0.4-2.4-0.2-4.3-0.8-5.9c-0.6-1.7-1.1-3-2.2-3.3c-0.7-0.2-1.6,0.1-2,0.7c-0.7,1,0.1,2.5,0.4,3.1
							C389.3,200.6,390.2,201.3,390.6,201.6z"/>
						<path id="XMLID_53_" class="st5" d="M398.3,251.6L398.3,251.6C398.3,251.6,398.3,251.6,398.3,251.6z"/>
						<path id="XMLID_52_" class="st5" d="M386.5,252c1.5-2.1,2.5-2.5,3-4.8c0.2-0.8,0.3-4.4,0.3-9c2.2,3.5,4.3,6.8,6,9.8
							c2.2,3,2.5,3.5,2.5,3.6c0-0.1,1.9-5.8-0.5-10.6c-2-4-6.6-10.4-8.2-12.5c-0.2-6.1-0.8-12.2-1.7-16.1c-2.2-9.5-2.5-10.7-1-10.7
							s-2-9.5-3.4-11.9c-1.3-2.4-3-1.6-3.5-1.1c-0.5,0.5-1.7,1.1-1.3,3.4c0.9,5.2,1.8,10.5,2.6,16c0.5,3.7,1,7.3,1.3,10.9
							c-1.8-2.5-3.9-5.4-5.9-8.2c-0.4-5.7-0.7-9.9-0.7-10.1c0-0.4,1.6-0.7,1.6-1.3s-1.8-4.8-3-5.9c-2.9-2.9-2.3-5.5-3.3-5.5
							c-1,0-1.9,1.9-1.8,2.5c0.2,2.9,0.5,7.1,0.8,11.2c-1.7-2.4-2.8-4.1-2.8-4.3c0-1-0.1-1,0.6-1s1.1-0.4,1.4-0.7
							c0.3-0.3-9.6-11.2-8.9-7.6c0,0-2.3,7.1,0.6,10.7c1,1.3,5,6.4,10.1,13.2c0.2,1.4,0.4,2.6,0.6,3.4c0,0,2.5,17.2,1.2,30.1
							c-0.1,1.2-1.2,3.9-3,4.2c-1.3,0.2-2.5-1.1-3.4-2.1c-2.4-2.6-2.6-4.4-4.2-4.9c-1.3-0.4-2.3,0.3-2.9,0.8
							c-1.1,0.9-2.2,1.9-3.8,6.4c-1.5,4.2-1.7,6.3-3.1,7.6c-0.6,0.5-1.6,0.9-3.1,0.6c-2.8-0.5-3.7-5.9-4.1-7.5
							c-0.8-3.6,0-6.2-0.2-6.2c-0.2,0-3.5,8.7,0.3,15.2c2,3.4,6,6.1,8.1,5.1c2.1-1,3.3-4.3,4.4-10.2c0.4-2.1,2.2-3.2,3.8-3.3
							c2.8-0.2,3.8,4.7,7.5,5.7c3.1,0.8,6.5-1.6,8.1-3.3s2.7-5.5,1-23.5c-0.3-3-0.6-6.3-0.8-9.5c2,2.8,4.1,5.7,6.1,8.7
							c0.7,8.3,1.1,16.3,1.3,23.9C385,253,385,254.1,386.5,252z"/>
						<path id="XMLID_51_" class="st5" d="M401.2,200c0.8-0.8,3.7,1.2,3.2-0.8c-0.4-2-5.7-11.6-8.1-11.3c-0.9,0.1-1.7,3-1.7,4.2
							s0.7,7.8,1.3,12.6c0.6,4.8,5,42.1,3.9,45.5s-3.6,5.6-5.2,7.2c-1.7,1.7-9.2,4.7-9.2,6.7s3.9,1.8,7.8,0.5
							c3.8-1.3,9.4-4.2,10.3-10.2c0.9-6,1.6-22.2,0.5-32.1C402.9,212.4,400.4,200.8,401.2,200z"/>
					</g>
					<path id="XMLID_46_" class="st5" d="M315.2,236.5c-0.2-0.6-2.1-0.4-2.6-0.4c-5.2,0.5-20-0.1-20-0.5c0-0.2,1.4-0.2,3.6-0.8
						c1.7-0.5,5-1.4,7.9-4c1.8-1.6,4-3.6,4.2-6.8c0.1-2.6-1.1-5.8-4-7.3c-2.2-1.2-5.1-1.2-7.2,0.2c-2.2,1.5-2.9,4.1-3.5,6.7
						c-0.7,3.1,0,3.5-0.8,4.6c-1.8,2.6-6,0.2-11.2,2.6c-3.1,1.5-5,4-6,5.6c-0.2-1.2-0.4-2.7-0.7-4.5c-1.5-9.5-3.1-12.2-4.7-14
						c-0.6-0.7-2.2-2.4-3.4-2c-1.5,0.5-1.5,3.8-1.5,4.6c0,3.4,1.2,5.1,2.7,9.2c1.3,3.5,2,5.7,2.1,8.5c0.1,5.3-2.3,9.3-3.2,10.5
						c-2.8,4.2-6.4,6.6-8.8,7.7c-2.6,1.2-4.7,1.5-6.3,0.6c-0.9-0.5-1.4-1.5-1.8-2.9c0.2-0.1,0.5-0.3,0.6-0.4c2.3-1.5,4.5-3,7-5.6
						c3-3.2,5.9-6.3,6.4-11c0.3-3-0.1-7.7-1.8-9.5c-0.1-0.1-0.8-0.9-0.6-1.2c0.2-0.3,1.3,0.4,1.7,0.1c0.6-0.5-0.3-2.6-1.3-4.1
						c-0.9-1.3-2.1-3-4.2-3.2c-1.2-0.1-2.8,0.3-3.7,1.5c-1.4,2,0.4,5,0.8,5.5c1,1.5,1.6,1.2,2.7,2.9c1.3,1.9,1.5,3.9,1.5,4.9
						c0,0.9-0.1,2.3-1,4.3c-1.4,3.1-4.1,5.8-8.8,9c-0.1-4.3,0.5-6.8-0.1-7c-0.7-0.2-2.6,3.6-3.6,7.7c-0.2,0.7-0.3,1.4-0.5,2
						c-4,2.5-4,2.2-7.7,4.6c-2.8,1.8-12.4,7.8-11.8,9c0.7,1.3,13.3-3.9,13.9-4.1c1.9-0.8,3.6-1.5,5-2.2c0.2,1,0.6,2.1,1.2,3
						c2.1,3.1,5.9,4.6,9.2,4.5c3.1-0.1,5.2-1.5,8.5-4c2.1-1.5,6.3-4.7,9.3-10.5c0.2-0.3,0.3-0.6,0.5-0.9c0.2,1,0.5,2,1.1,3.1
						c0.8,1.4,1.6,2.1,3,3.4c3.2,2.9,6.4,4.3,8.4,5c2,0.8,5.8,2.2,7.8,0.9c1-0.6,1.4-1.5,1.4-1.5c0.1-0.3,0.6-1.3,0.3-2.3
						c-0.5-1.5-2.4-1.1-3.9-3c-0.2-0.2-1.6-1.9-1.1-3.4c0.3-1.2,1.7-1.8,3.8-2.4c4.2-1.3,7.8-1.5,12.9-2.4c2.7-0.5,4.4-0.9,5-2.2
						c0.6-1.2-0.3-1.9,0.4-3.6c0.2-0.3,0.9-1.9,2.2-3.7C315.1,237.1,315.3,236.8,315.2,236.5z M298.1,223.4c0.3-0.5,1.4-0.6,2.1-0.3
						c0.8,0.4,1,1.1,1.3,2.2c0.2,0.5,0.1,0.7,0.1,0.8c-0.3,0.4-1.3,0.2-1.9-0.1C298.6,225.5,297.7,224.1,298.1,223.4z M290.1,244.1
						c-0.3,1.7-3.8,1.3-5,3.7c-0.8,1.6,0.2,3.2-0.8,3.8c-0.6,0.4-1.4,0.1-2-0.2c-2.1-0.8-4.7-3-5-6.3c0-0.5-0.2-3.3,1.2-4.1
						c1-0.5,1.7,0.4,4,0.8c3.4,0.5,5-1,6.5,0.3C289.6,242.4,290.3,243.3,290.1,244.1z"/>
				</g>
			</g>
		</g>
		<path class="st6" d="M254.2,472.7h-9c-0.5,0-0.9-0.2-1.3-0.5l-35-35c-0.3-0.3-0.5-0.8-0.5-1.3v-10.4L180.9,398
			c-0.3-0.3-0.5-0.8-0.5-1.3v-26.8L134,323.5c-0.3-0.3-0.5-0.8-0.5-1.3v-41.7l-74.8-74.8c-0.3-0.3-0.5-0.8-0.5-1.3v-28.8L0.5,118.1
			c-0.3-0.3-0.5-0.8-0.5-1.3s0.2-0.9,0.5-1.3l22.6-22.6c0.3-0.3,0.8-0.5,1.3-0.5h31.1l44.4-44.4L77.8,26c-0.4-0.4-0.6-1.1-0.5-1.7
			c0.1-0.6,0.6-1.1,1.2-1.3l48.8-16l11.6-6.7c0.4-0.2,0.9-0.3,1.4-0.2l23.6,6.6c0.2,0.1,0.4,0.1,0.5,0.2L290.7,95H352
			c0.5,0,0.9,0.2,1.3,0.5l15.5,15.5h18.8c0.5,0,0.9,0.2,1.3,0.5l18,18c0.3,0.3,0.5,0.8,0.5,1.3V146l29,29c0.3,0.3,0.5,0.8,0.5,1.3
			v28.4l27.3,27.3h9.1c1,0,1.8,0.8,1.8,1.8v13l44.4,44.4h57.8c0.6,0,1.2,0.3,1.5,0.8l12,19c0.3,0.4,0.3,1,0.2,1.5l-19,61.3
			c-0.2,0.6-0.6,1-1.2,1.2l-109.2,34c-0.2,0-0.3,0.1-0.5,0.1h-45.5l-59.5,59.5c-0.3,0.3-0.8,0.5-1.3,0.5h-13.4
			c-0.5,0-0.9-0.2-1.3-0.5l-11.8-11.8h-59.2c-0.5,0-0.9-0.2-1.3-0.5l-12-12v26.7C256,471.9,255.2,472.7,254.2,472.7z M245.9,469.1
			h6.5v-29.2c0-0.7,0.4-1.4,1.1-1.6c0.7-0.3,1.4-0.1,1.9,0.4l14.5,14.5h59.2c0.5,0,0.9,0.2,1.3,0.5l11.8,11.8h11.9l59.5-59.5
			c0.3-0.3,0.8-0.5,1.3-0.5h46l108.1-33.6l18.5-59.6l-11-17.5h-57.5c-0.5,0-0.9-0.2-1.3-0.5L472,248.8c-0.3-0.3-0.5-0.8-0.5-1.3v-12
			h-8.1c-0.5,0-0.9-0.2-1.3-0.5l-28.4-28.4c-0.3-0.3-0.5-0.8-0.5-1.3v-28.4l-29-29c-0.3-0.3-0.5-0.8-0.5-1.3v-15.2l-17-17H368
			c-0.5,0-0.9-0.2-1.3-0.5l-15.5-15.5h-61.1c-0.4,0-0.7-0.1-1-0.3L162.6,10L140,3.7l-11.1,6.4c-0.1,0.1-0.2,0.1-0.3,0.1L82.4,25.5
			l21.3,21.3c0.7,0.7,0.7,1.8,0,2.5L57.5,95.4c-0.3,0.3-0.8,0.5-1.3,0.5H25.1L4.3,116.8l56.9,56.9c0.3,0.3,0.5,0.8,0.5,1.3v28.8
			l74.8,74.8c0.3,0.3,0.5,0.8,0.5,1.3v41.7l46.3,46.4c0.3,0.3,0.5,0.8,0.5,1.3V396l27.5,27.5c0.3,0.3,0.5,0.8,0.5,1.3v10.4
			L245.9,469.1z M570.2,373.2L570.2,373.2L570.2,373.2z"/>
	</g>
</g>
</svg>
