<?xml version="1.0" encoding="utf-8"?>
<!-- Generator: Adobe Illustrator 26.0.0, SVG Export Plug-In . SVG Version: 6.00 Build 0)  -->
<svg version="1.1" id="Layer_1" xmlns="http://www.w3.org/2000/svg" xmlns:xlink="http://www.w3.org/1999/xlink" x="0px" y="0px"
	 viewBox="0 0 208.7 52.2" style="enable-background:new 0 0 208.7 52.2;" xml:space="preserve">
<style type="text/css">
	.st0{fill:none;}
	.st1{fill:#FFFFFF;}
	.st2{fill:#50C6DC;}
</style>
<g>
	<path class="st0" d="M196.7,16.5c0,0.8-0.1,1.3-0.4,1.6C196.5,17.9,196.6,17.3,196.7,16.5z"/>
	<path class="st0" d="M68.9,37.5c-0.9-0.2-1.7-0.4-3.1-0.4h-2.1v9.4c0.9,0.5,1.7,0.7,2.7,0.7c1.4,0.1,2.6-0.5,3.5-1.5
		c0.9-1,1.3-2.3,1.3-3.8c0-1-0.2-1.9-0.6-2.7C70.2,38.4,69.6,37.9,68.9,37.5z"/>
	<path class="st0" d="M196,18.3c-1.3,0.5-5.4,0.5-6.8-1.1C190.6,18.6,194.7,18.7,196,18.3z"/>
	<path class="st0" d="M157.1,36.5c-1.1,0-2,0.3-2.6,1c-0.6,0.7-1.1,1.6-1.3,2.8h7.6c-0.1-1.2-0.4-2.1-1.1-2.8
		C159.1,36.8,158.2,36.5,157.1,36.5z"/>
	<path class="st0" d="M186.6,36.5c-1.1,0-2,0.3-2.6,1c-0.6,0.7-1.1,1.6-1.3,2.8h7.6c-0.1-1.2-0.4-2.1-1.1-2.8
		C188.6,36.8,187.7,36.5,186.6,36.5z"/>
	<path class="st1" d="M114.7,35.1c-0.8-0.6-1.7-0.8-2.6-0.8c-1.7,0-3.3,0.8-4.6,2.3v-2h-3.1V50h3.1V39c1-1.5,2.2-2.2,3.6-2.2
		c1.1,0,1.9,0.3,2.4,1s0.7,1.8,0.7,3.4V50h3v-8.8c0-1.9-0.2-3.2-0.6-4.1C116.1,36.3,115.5,35.6,114.7,35.1z"/>
	<path class="st1" d="M72,36.2c-1.5-1.3-3.4-2-6.1-2h-5.3v18l3.1-0.1v-3c1.2,0.5,2,0.7,3,0.7c2.2,0,4-0.7,5.4-2.2
		c1.4-1.5,2.1-3.4,2.1-5.7C74.2,39.4,73.5,37.5,72,36.2z M69.9,45.7c-0.9,1-2.1,1.6-3.5,1.5c-1,0-1.8-0.2-2.7-0.7v-9.4h2.1
		c1.4,0,2.2,0.2,3.1,0.4c0.7,0.4,1.3,0.9,1.7,1.7c0.4,0.8,0.6,1.7,0.6,2.7C71.2,43.4,70.8,44.7,69.9,45.7z"/>
	<path class="st1" d="M80.6,42.2c0-2.8,2.2-5,5-5c0.5,0,1,0.1,1.5,0.2l1.1-2.6c-0.8-0.2-1.7-0.4-2.6-0.4c-4.3,0-7.8,3.5-7.8,7.8
		c0,3.1,1.7,5.7,4.3,7l1.1-2.6C81.6,45.7,80.6,44.1,80.6,42.2z"/>
	<path class="st2" d="M89.4,35.5l-1.1,2.6c1.2,0.8,2.1,2.1,2.3,3.6c0,0.2,0,0.4,0,0.6c0,0.2,0,0.4,0,0.6c-0.3,2.5-2.5,4.4-5,4.4
		c-0.4,0-0.8-0.1-1.2-0.2l-1.1,2.6c0.7,0.2,1.5,0.3,2.3,0.3c4.1,0,7.5-3.2,7.8-7.2c0-0.2,0-0.4,0-0.6c0-0.2,0-0.4,0-0.5
		C93.2,39,91.6,36.7,89.4,35.5z"/>
	<path class="st1" d="M98.5,31.2c-0.4,0-0.8,0.1-1.2,0.7c-0.3,0.3-0.5,0.7-0.5,1.2c0,0.4,0.2,0.9,0.5,1.2c0.3,0.3,0.7,0.5,1.2,0.5
		s1-0.2,1.3-0.5c0.3-0.4,0.5-0.8,0.5-1.3s-0.1-1-0.5-1.3C99.4,31.4,99,31.2,98.5,31.2z"/>
	<rect x="97" y="36.7" class="st1" width="3" height="13.3"/>
	<path class="st1" d="M125.5,44.7v-6.2h-3V44c0,1.4,0.1,2.3,0.2,2.8s0.3,0.9,0.5,1.2c0.2,0.3,0.4,0.6,0.7,0.8
		c0.9,0.8,2.1,1.2,3.4,1.2c1.4,0,2.6-0.3,3.8-1v-2.8c-1.2,0.7-2.3,1.1-3.4,1.1C126.3,47.3,125.5,46.4,125.5,44.7z"/>
	<polygon class="st1" points="125.5,31.4 119.9,37 119.6,37.3 131.1,37.3 131.1,34.5 125.5,34.5 	"/>
	<polygon class="st1" points="9.4,19.2 0,19.2 7.5,36 12,25.4 	"/>
	<polygon class="st2" points="29.7,13 19.7,13 18.9,14.9 16.8,19.8 12.5,30 7.6,41.6 12.4,52.2 13.8,49 23.3,27.6 	"/>
	<polygon class="st2" points="31.6,8.5 31.9,8 35.3,0.1 0,0.1 3.5,8.5 	"/>
	<path class="st2" d="M37.8,0l-3.7,8.4c3.6,2.5,6.1,6.4,6.6,10.7c0.1,0.7,0.1,1.3,0.1,2s0,1.4-0.1,2c-1,7.7-7.5,13.5-15.3,13.5
		c-1.2,0-2.4-0.1-3.5-0.4h-0.1v0.1l-3.6,8.1v0.1h0.1c2.3,0.7,4.7,1.1,7.1,1.1c6.1,0,12-2.3,16.5-6.5s7.2-9.8,7.7-15.9
		c0.1-0.7,0.1-1.3,0.1-2c0-0.7-0.1-1.4-0.1-2C49,11.3,44.6,4.1,37.8,0z"/>
	<path class="st1" d="M205.4,7.1v11.5h-5.6c0.2-2.1,0.3-4,0-5.5c-0.6-3.7-3.8-6.5-7.6-6.4c-4.1,0.1-7.4,3.4-7.5,7.5
		c-0.1,4.2,3.4,7.7,7.6,7.7c1.1,0,2.2-0.2,3.2-0.7c-0.1,0.3-0.7,1.3-1.3,2.2c-0.5,0.8-1.1,1.5-1.7,2.2l-1.3,1.5l2.6,2.1
		c1.6-1.3,4.8-7.6,4.8-7.6h9.9V7.1H205.4z M196.3,18.1c-0.1,0.1-0.2,0.1-0.3,0.2c-1.3,0.5-5.4,0.5-6.8-1.1c-0.6-0.6-1-1.4-1.1-2.2
		c0-0.3-0.1-0.5-0.1-0.8s0-0.5,0.1-0.8c0.1-0.5,0.3-1,0.6-1.5c0.1-0.2,0.3-0.4,0.5-0.6c1-1,2.4-1.4,3.8-1.1c0.8,0.1,1.5,0.5,2.1,1.1
		c0.1,0.1,0.3,0.3,0.4,0.5c0.5,0.8,0.9,1.8,1,2.9c0,0,0,0,0,0.1c0,0.2,0.1,0.5,0.1,0.7c0,0.4,0.1,0.8,0.1,1.1
		C196.6,17.3,196.5,17.9,196.3,18.1z"/>
	<path class="st1" d="M189.2,17.2c-0.6-0.6-1-1.4-1.1-2.2C188.2,15.8,188.6,16.6,189.2,17.2z"/>
	<path class="st1" d="M195.1,11.3c-0.6-0.6-1.4-1-2.1-1.1C193.7,10.3,195.7,10.7,195.1,11.3z"/>
	<path class="st1" d="M196.7,16.5L196.7,16.5z"/>
	<path class="st1" d="M180.3,21.1V18V6.7h-3.1v11.4h-0.1h-11.5V6.7h-3.1V18h-4.9V7h-3.1v11h-16c-4.4,0-4.4-8.1,0-8.1V6.8
		c-8.5,0-8.5,14.3,0,14.3h16h3.1h4.9h3.1h11.6H180.3z"/>
	<circle class="st1" cx="164.1" cy="2" r="2"/>
	<circle class="st1" cx="206.7" cy="26.6" r="2"/>
	<path class="st1" d="M149.9,10.7c1.1-0.3,1.7-1.4,1.4-2.4c-0.3-1.1-1.4-1.7-2.4-1.4c-1.1,0.3-1.7,1.4-1.4,2.4
		C147.8,10.4,148.9,11,149.9,10.7z"/>
	<circle class="st1" cx="177.9" cy="26.4" r="2"/>
	<circle class="st1" cx="172.2" cy="26.4" r="2"/>
	<circle class="st1" cx="143.7" cy="8.8" r="2"/>
	<circle class="st1" cx="90.6" cy="2" r="2"/>
	<path class="st1" d="M72.6,10.6c0.7,0,1.4-0.4,1.7-1c0.1-0.3,0.2-0.7,0.2-1c0-1-0.8-1.9-2-1.9c-1,0-1.9,0.9-1.9,1.9
		C70.6,9.7,71.5,10.6,72.6,10.6z"/>
	<path class="st1" d="M86.1,21.2c-1-0.6-1.8-1.4-2.5-2.2c-0.2-0.3-0.3-0.5-0.5-0.8h-2.8c0.2-0.8,0.3-1.7,0.3-2.5V6.9h-3.1v1.6v7.2
		c0,3.9-3.1,7-6.9,7c-3.8,0-6.9-3.2-6.9-7c0-2.6,1.4-4.9,3.6-6.1l-1.1-2.9c-3.3,1.7-5.6,5.1-5.6,9c0,5.5,4.5,10,10,10
		c3.5,0,6.6-1.8,8.4-4.5H86.1z"/>
	<path class="st1" d="M122,6.6v8.9c0,0.4-0.1,0.9-0.4,1.3c-1.2,1.7-4.5,1.5-5.2-0.7c-0.1-0.2-0.1-0.4-0.1-0.6v-9h-3.1v9
		c0,0.4-0.1,0.8-0.3,1.1c-0.9,1.7-4,1.8-5.2,0.2c-0.3-0.3-0.4-0.8-0.4-1.3V6.6h-3.1v8.5c0,1.1-0.5,2.9-2.7,2.9h-3.4
		c-0.2,0.3-0.3,0.6-0.5,0.8c-0.6,0.9-1.5,1.7-2.4,2.3h8.4c0.1,0,0.1,0,0.2,0c0.9-0.1,1.8-0.5,2.4-1.1c2.8,2.4,6.5,2.1,8.6-0.3
		c2.2,2.2,5.1,2.5,7.3,1.2c1.4-0.9,2.6-2.2,3-4.2c0.1-0.4,0.1-0.7,0.1-1.1v-9H122z M104.3,15.2v-0.6C104.3,14.7,104.4,15,104.3,15.2
		z"/>
	<path class="st1" d="M104.3,15.2c0.1-0.2,0-0.5,0-0.6V15.2z"/>
	<path class="st2" d="M94.2,7.2l-1.3,3c1.1,0.7,1.9,2,1.9,3.4c0,2.2-1.9,4-4.1,4c-0.3,0-0.6,0-0.9-0.1l-0.1,0.3l-0.2,0.5l-0.9,2.2
		c0.4,0.1,0.7,0.1,1.1,0.2c0.3,0.1,0.7,0.1,1.1,0.1c0.1,0,0.1,0,0.2,0c0.1,0,0.1,0,0.2,0s0.1,0,0.2,0h0.3c0.1,0,0.1,0,0.2,0h0.2
		c0.1,0,0.2-0.1,0.4-0.1h0.7c0.1,0,0.2-0.1,0.3-0.1c0-0.1,0-0.1,0.1-0.1h0.2c0.1-0.1,0.2-0.1,0.3-0.2h0.1c0.7-0.4,1.3-0.9,1.9-1.5
		c0-0.1,0-0.2,0.1-0.2l0.3-0.3c0-0.1,0.1-0.1,0.1-0.2c0.9-1.2,1.4-2.6,1.4-4.2C98,11.1,96.4,8.7,94.2,7.2z"/>
	<path class="st1" d="M83.6,15.3L83.6,15.3c0,0.2,0.1,0.3,0.1,0.4c0,0.1,0.1,0.2,0.1,0.3c0.2,0.7,0.6,1.4,1,2c0,0.1,0.1,0.2,0.1,0.2
		l0.1,0.1l0.1,0.1l0.1,0.1c0.1,0.1,0.2,0.2,0.3,0.3c0,0,0,0.1,0.1,0.1c0.1,0.1,0.2,0.2,0.3,0.3c0.4,0.4,0.9,0.7,1.4,1l0.9-2.2
		l0.3-0.8c-1.1-0.7-1.9-2-1.9-3.4c0-2.2,1.9-4,4.1-4c0.3,0,0.6,0,0.9,0.1l1.3-3c-0.7-0.2-1.5-0.3-2.2-0.5c-4,0-7.3,3.3-7.3,7.3
		c0,0,0,0.1,0,0.2V14v0.1c0,0.1,0,0.2,0,0.3c0,0.2,0.1,0.4,0.1,0.6C83.6,15.1,83.6,15.2,83.6,15.3z"/>
	<path class="st1" d="M144.6,40.7l-1.1-0.6c-0.8-0.5-1.4-0.9-1.7-1.2c-0.3-0.3-0.5-0.7-0.5-1c0-0.4,0.1-0.8,0.5-1
		c0.3-0.3,0.8-0.4,1.4-0.4c1.2,0,2.6,0.5,4.4,1.6v-3c-1.6-0.9-3.1-1.3-4.6-1.3c-1.4,0-2.5,0.3-3.5,1.1s-1.4,1.7-1.4,2.9
		c0,0.9,0.3,1.7,0.9,2.5c0.6,0.8,1.9,1.7,3.8,2.8c1,0.6,1.6,1,1.9,1.3s0.4,0.7,0.4,1.1c0,0.4-0.3,0.8-0.7,1.1
		c-0.4,0.3-1,0.5-1.6,0.5c-0.6,0-1.3-0.2-2.2-0.6c-0.9-0.3-1.7-0.8-2.6-1.4v3.2c1,0.5,1.9,0.9,2.7,1.2c0.7,0.2,1.5,0.3,2.4,0.3
		c1.6,0,2.8-0.4,3.8-1.2s1.5-1.9,1.5-3.1C148.4,43.7,147.1,42.1,144.6,40.7z"/>
	<path class="st1" d="M163.8,41.8c0-2.4-0.6-4.3-1.8-5.7s-2.8-2.1-4.8-2.1c-2.1,0-3.8,0.8-5.1,2.2c-1.3,1.4-2,3.3-2,5.6
		c0,1.6,0.3,2.9,0.9,4.1c0.6,1.2,1.5,2.1,2.5,2.8c1.1,0.7,2.4,1,4.1,1c1.2,0,2.2-0.2,3.2-0.4s1.9-0.7,2.8-1.3v-2.9
		c-1.7,1.2-3.5,1.8-5.5,1.8c-1.4,0-2.6-0.4-3.5-1.3c-0.9-0.9-1.4-2.1-1.5-3.5h10.7V41.8z M153.2,40.3c0.2-1.2,0.7-2.1,1.3-2.8
		c0.6-0.7,1.5-1,2.6-1c1.1,0,2,0.3,2.6,1c0.7,0.7,1,1.6,1.1,2.8H153.2z"/>
	<polygon class="st1" points="170.1,40.3 167,40.3 169.4,45.7 170.9,42.3 	"/>
	<polygon class="st2" points="170.1,47.3 171.2,49.7 172.1,49.7 177.3,37.9 174.1,37.9 	"/>
	<polygon class="st2" points="168.8,36.6 177.9,36.6 179.1,33.9 167.7,33.9 	"/>
	<path class="st1" d="M193.3,41.8c0-2.4-0.6-4.3-1.8-5.7s-2.8-2.1-4.8-2.1c-2.1,0-3.8,0.8-5.1,2.2c-1.3,1.4-2,3.3-2,5.6
		c0,1.6,0.3,2.9,0.9,4.1c0.6,1.2,1.5,2.1,2.5,2.8c1.1,0.7,2.4,1,4.1,1c1.2,0,2.2-0.2,3.2-0.4s1.9-0.7,2.8-1.3v-2.9
		c-1.7,1.2-3.5,1.8-5.5,1.8c-1.4,0-2.6-0.4-3.5-1.3c-0.9-0.9-1.4-2.1-1.5-3.5h10.7V41.8z M182.7,40.3c0.2-1.2,0.7-2.1,1.3-2.8
		c0.6-0.7,1.5-1,2.6-1c1.1,0,2,0.3,2.6,1c0.7,0.7,1,1.6,1.1,2.8H182.7z"/>
	<path class="st1" d="M206,34.8c-0.8-0.5-1.7-0.7-2.6-0.7c-1.7,0-3.3,0.7-4.6,2.2v-1.9h-3.1v15.2h3.1V38.7c1-1.4,2.2-2.1,3.6-2.1
		c1.1,0,1.9,0.4,2.4,1c0.5,0.6,0.7,1.7,0.7,3.3v8.7h3v-8.7c0-1.9-0.2-3.3-0.6-4.1C207.4,36,206.8,35.3,206,34.8z"/>
</g>
</svg>
